<svg viewBox="0 0 24 24" xmlns="http://www.w3.org/2000/svg">
<path fill-rule="evenodd" clip-rule="evenodd" d="M5.67806 5.05033C7.3265 3.08838 9.66282 2.09998 11.9965 2.09998C14.33 2.09998 16.6566 3.07816 18.3153 5.05067C21.1803 8.45702 20.7355 13.4827 17.6541 16.5752L17.6529 16.5764C15.9043 18.325 13.8921 20.4504 13.0479 21.3421C12.9904 21.4029 12.9382 21.4579 12.892 21.5067C12.4068 22.0244 11.5864 22.0244 11.1011 21.5068C11.0549 21.458 11.0027 21.4029 10.9452 21.3421C10.101 20.4504 8.08878 18.325 6.34015 16.5764L6.33901 16.5752C3.25837 13.4835 2.81204 8.44752 5.67806 5.05033ZM11.9965 3.89998C10.1706 3.89998 8.34721 4.67131 7.05568 6.20885L7.05437 6.2104C4.84129 8.83299 5.13491 12.8161 7.61351 15.3042C9.22181 16.9125 11.0462 18.8314 11.9965 19.8345C12.9469 18.8314 14.7712 16.9125 16.3795 15.3042C18.8576 12.8167 19.1527 8.84274 16.9378 6.20928C15.6365 4.66184 13.8231 3.89998 11.9965 3.89998ZM11.9965 9.35998C11.4536 9.35998 11.0165 9.79703 11.0165 10.34C11.0165 10.8829 11.4536 11.32 11.9965 11.32C12.5395 11.32 12.9765 10.8829 12.9765 10.34C12.9765 9.79703 12.5395 9.35998 11.9965 9.35998ZM9.21655 10.34C9.21655 8.80292 10.4595 7.55998 11.9965 7.55998C13.5336 7.55998 14.7765 8.80292 14.7765 10.34C14.7765 11.877 13.5336 13.12 11.9965 13.12C10.4595 13.12 9.21655 11.877 9.21655 10.34Z"/>
</svg>
