<svg viewBox="0 0 24 24" xmlns="http://www.w3.org/2000/svg">
<path d="M20.3367 10.1684C20.3367 5.67479 16.5963 1.89474 12.063 1.89474C7.52973 1.89474 3.78931 5.67479 3.78931 10.1684C3.78931 10.713 3.85783 11.2692 3.99026 11.8356C4.47706 13.9173 5.79607 16.0719 7.68627 18.2363C8.51351 19.1836 9.39729 20.0702 10.2812 20.8733L10.7287 21.2724L11.1385 21.6241L11.4756 21.9012C11.8862 22.2256 12.4819 22.1558 12.8063 21.7453C13.1307 21.3348 13.0609 20.739 12.6504 20.4146L12.539 20.3245L11.9753 19.8455L11.5553 19.4709C10.7222 18.7139 9.88883 17.878 9.11343 16.99C7.40876 15.038 6.23766 13.125 5.83523 11.4041C5.73483 10.9748 5.68405 10.5626 5.68405 10.1684C5.68405 6.71678 8.58067 3.78948 12.063 3.78948C15.5454 3.78948 18.442 6.71678 18.442 10.1684C18.442 12.5517 17.5349 14.0765 15.0056 16.7659L14.0812 17.7537L13.6409 18.243C13.2955 18.636 13.3341 19.2346 13.7271 19.58C14.1201 19.9254 14.7187 19.8869 15.0641 19.4939C15.1071 19.445 15.1507 19.3957 15.1954 19.3457L15.6376 18.8611L16.702 17.7246C19.3056 14.903 20.3367 13.0585 20.3367 10.1684Z"/>
<path fill-rule="evenodd" clip-rule="evenodd" d="M11.9999 6.3158C9.90685 6.3158 8.21038 8.01227 8.21038 10.1053C8.21038 12.1983 9.90685 13.8947 11.9999 13.8947C14.0929 13.8947 15.7894 12.1983 15.7894 10.1053C15.7894 8.01227 14.0929 6.3158 11.9999 6.3158ZM11.9999 8.21053C13.0464 8.21053 13.8946 9.0587 13.8946 10.1053C13.8946 11.1518 13.0464 12 11.9999 12C10.9533 12 10.1051 11.1518 10.1051 10.1053C10.1051 9.0587 10.9533 8.21053 11.9999 8.21053Z"/>
</svg>
