<svg viewBox="0 0 24 24" xmlns="http://www.w3.org/2000/svg">
<path d="M8.14577 15.2993C8.14185 14.9609 8.30939 14.6434 8.591 14.4557L14.9404 10.2228C15.7286 9.69725 14.9404 8.51486 14.1521 9.04037L8.06553 13.0981C7.73313 13.3197 7.30073 13.3222 6.96579 13.1044L1.90236 9.8128C1.38958 9.47945 1.50957 8.69706 2.09868 8.5327L20.9869 3.26296C21.4651 3.12954 21.9293 3.51523 21.8856 4.0098L20.4646 20.1151C20.4182 20.6407 19.8352 20.9342 19.3853 20.6583L12.9479 16.7102L9.38184 20.537C8.94201 21.009 8.15149 20.6978 8.15149 20.0526V15.7936L8.14577 15.2993Z"/>
</svg>
