<svg viewBox="0 0 24 24" xmlns="http://www.w3.org/2000/svg">
<path d="M12.0001 1.89474C15.0326 1.89474 17.0803 3.97488 17.0803 6.98114C17.0803 8.74909 16.6335 9.78285 15.561 10.9656L15.0516 11.5073L14.8733 11.7067L14.7942 11.8059L14.7601 11.8527C14.5939 12.0874 14.536 12.3234 14.5263 12.9988C14.5216 13.3275 14.8142 13.6686 15.446 13.9667L15.5988 14.0324L15.8955 14.1128C19.6001 15.1293 21.9502 16.7378 22.098 19.0887L22.1054 19.3263V20.059C22.1054 21.0115 21.1805 21.988 20.2274 22.0955L20.0591 22.1053H3.9411C2.98877 22.1053 2.01001 21.1802 1.9042 20.2272L1.89478 20.059V19.3263C1.89478 16.8489 4.44742 15.1492 8.41364 14.0327C9.10961 13.7984 9.47375 13.3757 9.47375 12.9817C9.47375 12.4585 9.8979 12.0344 10.4211 12.0344C10.9443 12.0344 11.3685 12.4585 11.3685 12.9817C11.3685 14.2642 10.4305 15.353 8.97284 15.8424C5.85276 16.7217 3.93028 17.959 3.79694 19.1896L3.78952 19.3263V20.059C3.78952 20.0276 3.921 20.1538 3.94298 20.1967L3.9411 20.2105L20.0569 20.2105C20.027 20.2106 20.1537 20.0791 20.1968 20.0571L20.2106 20.059V19.3263C20.2106 18.0122 18.4553 16.7824 15.3936 15.94L15.048 15.848L14.9229 15.8062C13.513 15.2243 12.6132 14.2686 12.6318 12.9717C12.6464 11.947 12.7923 11.353 13.2138 10.7577L13.39 10.5259L13.62 10.2643L13.9827 9.88021C14.8942 8.9265 15.1855 8.32019 15.1855 6.98114C15.1855 5.0147 13.9794 3.78948 12.0001 3.78948C10.0333 3.78948 8.83349 5.02037 8.83349 6.98114C8.83349 7.84185 9.00872 8.48426 9.33701 9.02507C9.60852 9.47234 9.46603 10.055 9.01877 10.3265C8.57151 10.598 7.98883 10.4555 7.71733 10.0083C7.20686 9.16734 6.93874 8.18442 6.93874 6.98114C6.93874 3.98462 8.97589 1.89474 12.0001 1.89474Z"/>
</svg>
