<svg viewBox="0 0 24 24" xmlns="http://www.w3.org/2000/svg">
<path fill-rule="evenodd" clip-rule="evenodd" d="M12.761 13.0224C15.8041 13.2132 18.6475 14.2005 20.4541 15.4819C20.4639 15.4888 20.4739 15.4958 20.484 15.503C20.6356 15.6101 20.8202 15.7405 20.9915 15.9577C21.1328 16.1369 21.2579 16.379 21.3223 16.5979C21.4009 16.8649 21.4002 17.1211 21.3997 17.3332C21.3996 17.3505 21.3996 17.3676 21.3996 17.3843L21.3996 18.9298C21.3996 19.1841 21.3996 19.4262 21.383 19.6301C21.3648 19.8525 21.3224 20.1076 21.1925 20.3626C21.0103 20.7201 20.7197 21.0108 20.3621 21.1929C20.1072 21.3229 19.8521 21.3652 19.6297 21.3834C19.4257 21.4001 19.1836 21.4001 18.9293 21.4H5.0698C4.81548 21.4001 4.57344 21.4001 4.36948 21.3834C4.14707 21.3652 3.89196 21.3229 3.63698 21.1929C3.27947 21.0108 2.98881 20.7201 2.80665 20.3626C2.67674 20.1076 2.63435 19.8525 2.61618 19.6301C2.59951 19.4262 2.59954 19.1841 2.59956 18.9298C2.59956 18.9199 2.59956 18.91 2.59956 18.9V17.4069C2.59956 17.389 2.59952 17.3708 2.59947 17.3523C2.59889 17.1345 2.5982 16.8733 2.6745 16.6098C2.73833 16.3893 2.85537 16.1586 2.99566 15.9769C3.16278 15.7605 3.35782 15.6185 3.51829 15.5017C3.53062 15.4928 3.54274 15.4839 3.55463 15.4752C6.34223 13.4362 9.70625 12.831 12.761 13.0224ZM12.6484 14.8189C9.88976 14.646 6.97715 15.2019 4.61732 16.9281C4.56745 16.9645 4.53009 16.9919 4.49796 17.016C4.46627 17.0399 4.44659 17.0554 4.43326 17.0665C4.42681 17.0719 4.42263 17.0756 4.42015 17.0779C4.41776 17.0818 4.41473 17.0871 4.41153 17.0934C4.40887 17.0986 4.40669 17.1034 4.40504 17.1073C4.40447 17.1126 4.40372 17.1212 4.403 17.1337C4.3999 17.1874 4.39956 17.2603 4.39956 17.4069V18.9C4.39956 19.1949 4.40026 19.3619 4.4102 19.4835C4.41334 19.5219 4.41683 19.5461 4.41921 19.5596C4.42509 19.5675 4.43211 19.5745 4.44004 19.5804C4.45352 19.5828 4.47767 19.5863 4.51606 19.5894C4.63766 19.5993 4.80469 19.6 5.09956 19.6H18.8996C19.1944 19.6 19.3615 19.5993 19.4831 19.5894C19.5215 19.5863 19.5456 19.5828 19.5591 19.5804C19.567 19.5745 19.574 19.5675 19.5799 19.5596C19.5823 19.5461 19.5858 19.5219 19.5889 19.4835C19.5989 19.3619 19.5996 19.1949 19.5996 18.9V17.3843C19.5996 17.2428 19.5992 17.1757 19.5962 17.1264C19.5956 17.117 19.595 17.1102 19.5945 17.1056C19.5925 17.1011 19.5898 17.0954 19.5866 17.0892C19.5825 17.0813 19.5787 17.0747 19.5758 17.07C19.5758 17.07 19.5723 17.0669 19.5693 17.0645C19.56 17.0568 19.5448 17.045 19.5179 17.0253C19.4903 17.0051 19.458 16.9821 19.4128 16.9501C17.9252 15.8949 15.4186 14.9925 12.6484 14.8189Z"/>
<path fill-rule="evenodd" clip-rule="evenodd" d="M11.9995 4.40001C10.4102 4.40001 9.12173 5.68843 9.12173 7.27778C9.12173 8.86714 10.4102 10.1556 11.9995 10.1556C13.5889 10.1556 14.8773 8.86714 14.8773 7.27778C14.8773 5.68843 13.5889 4.40001 11.9995 4.40001ZM7.32173 7.27778C7.32173 4.69432 9.41604 2.60001 11.9995 2.60001C14.583 2.60001 16.6773 4.69432 16.6773 7.27778C16.6773 9.86125 14.583 11.9556 11.9995 11.9556C9.41604 11.9556 7.32173 9.86125 7.32173 7.27778Z"/>
</svg>
