<svg viewBox="0 0 24 24" xmlns="http://www.w3.org/2000/svg">
<path fill-rule="evenodd" clip-rule="evenodd" d="M9.99966 2.09961C5.63662 2.09961 2.09967 5.63656 2.09967 9.99961C2.09967 14.3627 5.63662 17.8996 9.99966 17.8996C11.857 17.8996 13.5646 17.2587 14.9134 16.1859L19.8634 21.136C20.2149 21.4874 20.7847 21.4874 21.1362 21.136C21.4877 20.7845 21.4877 20.2146 21.1362 19.8632L16.1861 14.9131C17.2588 13.5643 17.8997 11.8568 17.8997 9.99961C17.8997 5.63656 14.3627 2.09961 9.99966 2.09961ZM3.89967 9.99961C3.89967 6.63067 6.63073 3.89961 9.99966 3.89961C13.3686 3.89961 16.0997 6.63067 16.0997 9.99961C16.0997 13.3685 13.3686 16.0996 9.99966 16.0996C6.63073 16.0996 3.89967 13.3685 3.89967 9.99961Z"/>
</svg>
