<svg viewBox="0 0 24 24" xmlns="http://www.w3.org/2000/svg">
<path d="M8.39976 12.2498C8.39976 10.2615 10.0115 8.64976 11.9998 8.64976C13.988 8.64976 15.5998 10.2615 15.5998 12.2498C15.5998 14.238 13.988 15.8498 11.9998 15.8498C10.0115 15.8498 8.39976 14.238 8.39976 12.2498Z"/>
<path fill-rule="evenodd" clip-rule="evenodd" d="M10.1095 2.09967L13.8897 2.09967C14.4143 2.09916 14.8564 2.09872 15.2717 2.22485C15.6365 2.33561 15.9758 2.51719 16.2704 2.75921C16.6057 3.03482 16.8507 3.4029 17.1412 3.83961L17.9815 5.09974L18.8348 5.09974C19.3646 5.09973 19.8158 5.09971 20.1863 5.12998C20.5754 5.16177 20.954 5.23141 21.3159 5.41582C21.8616 5.69386 22.3053 6.1375 22.5833 6.68317C22.7677 7.0451 22.8373 7.4237 22.8691 7.81286C22.8994 8.18328 22.8994 8.63445 22.8994 9.1643V16.8351C22.8994 17.365 22.8994 17.8162 22.8691 18.1866C22.8373 18.5758 22.7677 18.9544 22.5833 19.3163C22.3053 19.862 21.8616 20.3056 21.3159 20.5837C20.954 20.7681 20.5754 20.8377 20.1863 20.8695C19.8158 20.8998 19.3647 20.8998 18.8348 20.8997H5.16396C4.63411 20.8998 4.18291 20.8998 3.81248 20.8695C3.42332 20.8377 3.04473 20.7681 2.6828 20.5837C2.13713 20.3056 1.69348 19.862 1.41545 19.3163C1.23103 18.9544 1.1614 18.5758 1.12961 18.1866C1.09934 17.8162 1.09935 17.365 1.09937 16.8352V9.16434C1.09935 8.63449 1.09934 8.18328 1.12961 7.81286C1.1614 7.4237 1.23103 7.0451 1.41545 6.68317C1.69348 6.1375 2.13713 5.69386 2.6828 5.41582C3.04473 5.23141 3.42332 5.16177 3.81248 5.12998C4.18291 5.09971 4.63409 5.09973 5.16396 5.09974L6.01813 5.09974L6.85744 3.84035C7.14801 3.40345 7.39291 3.03523 7.72832 2.7595C8.02286 2.51738 8.36226 2.33572 8.72709 2.22491C9.14255 2.09872 9.58478 2.09916 10.1095 2.09967ZM11.9998 6.84976C9.01742 6.84976 6.59976 9.26742 6.59976 12.2498C6.59976 15.2321 9.01742 17.6498 11.9998 17.6498C14.9821 17.6498 17.3998 15.2321 17.3998 12.2498C17.3998 9.26742 14.9821 6.84976 11.9998 6.84976Z"/>
</svg>
