<svg viewBox="0 0 24 24" xmlns="http://www.w3.org/2000/svg">
<path fill-rule="evenodd" clip-rule="evenodd" d="M15.3457 3.16654L15.4743 3.15789H18.6738C19.197 3.15789 19.6211 3.58205 19.6211 4.10526L19.62 5.68421H21.2016C21.6813 5.68421 22.0776 6.04061 22.1404 6.50303L22.149 6.63158V18C22.149 19.6951 21.0134 20.8421 19.3069 20.8421H4.73738C3.03088 20.8421 1.89526 19.6951 1.89526 18V8.52631C1.89526 6.83269 3.03147 5.68421 4.73738 5.68421H14.5256L14.5269 4.10526C14.5269 3.62565 14.8833 3.22927 15.3457 3.16654ZM12.0006 8.21053C9.21006 8.21053 6.94791 10.4727 6.94791 13.2632C6.94791 16.0536 9.21006 18.3158 12.0006 18.3158C14.7911 18.3158 17.0532 16.0536 17.0532 13.2632C17.0532 10.4727 14.7911 8.21053 12.0006 8.21053ZM12.0006 10.1053C13.7446 10.1053 15.1585 11.5191 15.1585 13.2632C15.1585 15.0072 13.7446 16.4211 12.0006 16.4211C10.2565 16.4211 8.84266 15.0072 8.84266 13.2632C8.84266 11.5191 10.2565 10.1053 12.0006 10.1053Z"/>
</svg>
