<svg viewBox="0 0 24 24" xmlns="http://www.w3.org/2000/svg">
<path d="M19.3061 10.4591C18.9698 10.7956 18.4435 10.8264 18.0726 10.5513L17.9663 10.4596L12.9477 5.44502V21.1579C12.9477 21.6811 12.5236 22.1053 12.0004 22.1053C11.5207 22.1053 11.1244 21.7489 11.0616 21.2864L11.053 21.1579V5.44598L6.03859 10.4594C5.66858 10.8294 5.06874 10.8293 4.6988 10.4593C4.3625 10.1229 4.33197 9.59662 4.60719 9.22577L4.69893 9.11952L11.3298 2.48986C11.33 2.48974 11.3297 2.48998 11.3298 2.48986C11.3719 2.4478 11.4172 2.41016 11.4645 2.37765C11.6289 2.26469 11.8209 2.20941 12.0124 2.21184C12.0964 2.2129 12.1803 2.22507 12.2617 2.24835C12.3685 2.27888 12.471 2.32853 12.5637 2.39729C12.6008 2.42479 12.6363 2.45535 12.67 2.48897L19.3055 9.11932C19.6756 9.48915 19.6759 10.089 19.3061 10.4591Z"/>
</svg>
