<svg viewBox="0 0 24 24" xmlns="http://www.w3.org/2000/svg">
<path d="M14.8422 1.89474C15.3654 1.89474 15.7896 2.3189 15.7896 2.84211C15.7896 3.32173 15.4332 3.7181 14.9708 3.78083L14.8422 3.78948H9.15797C8.63475 3.78948 8.2106 3.36533 8.2106 2.84211C8.2106 2.3625 8.56701 1.96612 9.02942 1.90339L9.15797 1.89474H14.8422Z"/>
<path d="M20.5264 4.42106C21.0497 4.42106 21.4738 4.84521 21.4738 5.36843C21.4738 5.84804 21.1174 6.24442 20.655 6.30715L20.5264 6.3158H6.31586V20.5263H17.6843V9.1579C17.6843 8.67829 18.0407 8.28191 18.5031 8.21918L18.6317 8.21053C19.1113 8.21053 19.5077 8.56694 19.5704 9.02935L19.5791 9.1579V21.4737C19.5791 21.9533 19.2227 22.3497 18.7602 22.4124L18.6317 22.4211H5.36848C4.88887 22.4211 4.49249 22.0647 4.42976 21.6022L4.42111 21.4737V6.3158H3.47374C2.95052 6.3158 2.52637 5.89165 2.52637 5.36843C2.52637 4.88881 2.88277 4.49244 3.34519 4.42971L3.47374 4.42106H20.5264Z"/>
<path d="M15.1493 10.2925C15.0866 9.8301 14.6902 9.47369 14.2106 9.47369C13.6874 9.47369 13.2633 9.89784 13.2633 10.4211V16.1053L13.2719 16.2338C13.3346 16.6962 13.731 17.0526 14.2106 17.0526C14.7338 17.0526 15.158 16.6285 15.158 16.1053V10.4211L15.1493 10.2925Z"/>
<path d="M10.7283 10.2925C10.6655 9.8301 10.2692 9.47369 9.78955 9.47369C9.26633 9.47369 8.84218 9.89784 8.84218 10.4211V16.1053L8.85083 16.2338C8.91356 16.6962 9.30994 17.0526 9.78955 17.0526C10.3128 17.0526 10.7369 16.6285 10.7369 16.1053V10.4211L10.7283 10.2925Z"/>
</svg>
