<svg viewBox="0 0 24 24" xmlns="http://www.w3.org/2000/svg">
<path fill-rule="evenodd" clip-rule="evenodd" d="M3.0091 16.6569C3.02073 16.6463 3.4002 16.3015 3.77883 15.7164C4.16342 15.1221 4.54241 14.2874 4.54241 13.3079V9.48169C4.54241 5.50466 7.87138 2.27502 11.9575 2.27502C16.0437 2.27502 19.3727 5.50501 19.3723 9.4817V13.0805C19.3723 15.3929 20.8931 16.5791 20.9501 16.6234C21.2264 16.8346 21.3379 17.1948 21.2215 17.5202C21.1069 17.8445 20.7945 18.061 20.4436 18.061H3.55726C3.21851 18.061 2.9122 17.858 2.78869 17.5468C2.66449 17.2345 2.75286 16.8804 3.00688 16.6587L3.0091 16.6569ZM14.855 19.6793V21.725H9.14514V19.6793H14.855ZM5.48877 16.1621L18.448 16.1618C18.4246 16.1269 18.4012 16.0913 18.3779 16.0549C17.9063 15.3182 17.4664 14.2636 17.4664 12.8989V9.52425C17.4664 6.57381 14.996 4.17388 11.959 4.17388C8.92189 4.17388 6.4515 6.57485 6.4515 9.52425V13.112C6.4515 14.3213 6.01514 15.3301 5.55765 16.0552C5.53473 16.0916 5.51175 16.1272 5.48877 16.1621Z"/>
</svg>
