<svg viewBox="0 0 24 24" xmlns="http://www.w3.org/2000/svg">
<path fill-rule="evenodd" clip-rule="evenodd" d="M10.1054 5.68421C10.1054 6.73011 10.9542 7.57895 12.0001 7.57895C13.046 7.57895 13.8949 6.73011 13.8949 5.68421C13.8949 4.63832 13.046 3.78947 12.0001 3.78947C10.9542 3.78947 10.1054 4.63832 10.1054 5.68421ZM12.0001 13.8947C10.9542 13.8947 10.1054 13.0459 10.1054 12C10.1054 10.9541 10.9542 10.1053 12.0001 10.1053C13.046 10.1053 13.8949 10.9541 13.8949 12C13.8949 13.0459 13.046 13.8947 12.0001 13.8947ZM12.0001 20.2737C10.9542 20.2737 10.1054 19.4249 10.1054 18.379C10.1054 17.3331 10.9542 16.4843 12.0001 16.4843C13.046 16.4843 13.8949 17.3331 13.8949 18.379C13.8949 19.4249 13.046 20.2737 12.0001 20.2737ZM18.3159 13.8947C17.27 13.8947 16.4212 13.0459 16.4212 12C16.4212 10.9541 17.27 10.1053 18.3159 10.1053C19.3618 10.1053 20.2107 10.9541 20.2107 12C20.2107 13.0459 19.3618 13.8947 18.3159 13.8947ZM16.4212 18.379C16.4212 19.4249 17.27 20.2737 18.3159 20.2737C19.3618 20.2737 20.2107 19.4249 20.2107 18.379C20.2107 17.3331 19.3618 16.4843 18.3159 16.4843C17.27 16.4843 16.4212 17.3331 16.4212 18.379ZM18.3159 7.57895C17.27 7.57895 16.4212 6.73011 16.4212 5.68421C16.4212 4.63832 17.27 3.78947 18.3159 3.78947C19.3618 3.78947 20.2107 4.63832 20.2107 5.68421C20.2107 6.73011 19.3618 7.57895 18.3159 7.57895ZM3.78955 12C3.78955 13.0459 4.6384 13.8947 5.68429 13.8947C6.73019 13.8947 7.57904 13.0459 7.57904 12C7.57904 10.9541 6.73019 10.1053 5.68429 10.1053C4.6384 10.1053 3.78955 10.9541 3.78955 12ZM5.68429 20.2737C4.6384 20.2737 3.78955 19.4249 3.78955 18.379C3.78955 17.3331 4.6384 16.4843 5.68429 16.4843C6.73019 16.4843 7.57904 17.3331 7.57904 18.379C7.57904 19.4249 6.73019 20.2737 5.68429 20.2737ZM3.78955 5.68421C3.78955 6.73011 4.6384 7.57895 5.68429 7.57895C6.73019 7.57895 7.57904 6.73011 7.57904 5.68421C7.57904 4.63832 6.73019 3.78947 5.68429 3.78947C4.6384 3.78947 3.78955 4.63832 3.78955 5.68421Z"/>
</svg>
