<svg viewBox="0 0 24 24" xmlns="http://www.w3.org/2000/svg">
<path fill-rule="evenodd" clip-rule="evenodd" d="M21.25 4.5C21.25 5.46655 20.4665 6.25 19.5 6.25C18.5335 6.25 17.75 5.46655 17.75 4.5C17.75 3.53345 18.5335 2.75 19.5 2.75C20.4665 2.75 21.25 3.53345 21.25 4.5ZM12 13.75C12.9665 13.75 13.75 12.9666 13.75 12C13.75 11.0334 12.9665 10.25 12 10.25C11.0335 10.25 10.25 11.0334 10.25 12C10.25 12.9666 11.0335 13.75 12 13.75ZM6.25 19.5C6.25 20.4666 5.4665 21.25 4.5 21.25C3.5335 21.25 2.75 20.4666 2.75 19.5C2.75 18.5334 3.5335 17.75 4.5 17.75C5.4665 17.75 6.25 18.5334 6.25 19.5ZM13.75 19.5C13.75 20.4666 12.9665 21.25 12 21.25C11.0335 21.25 10.25 20.4666 10.25 19.5C10.25 18.5334 11.0335 17.75 12 17.75C12.9665 17.75 13.75 18.5334 13.75 19.5ZM19.5 21.25C20.4665 21.25 21.25 20.4666 21.25 19.5C21.25 18.5334 20.4665 17.75 19.5 17.75C18.5335 17.75 17.75 18.5334 17.75 19.5C17.75 20.4666 18.5335 21.25 19.5 21.25ZM4.5 13.75C5.4665 13.75 6.25 12.9666 6.25 12C6.25 11.0334 5.4665 10.25 4.5 10.25C3.5335 10.25 2.75 11.0334 2.75 12C2.75 12.9666 3.5335 13.75 4.5 13.75ZM21.25 12C21.25 12.9666 20.4665 13.75 19.5 13.75C18.5335 13.75 17.75 12.9666 17.75 12C17.75 11.0334 18.5335 10.25 19.5 10.25C20.4665 10.25 21.25 11.0334 21.25 12ZM13.75 4.5C13.75 5.46655 12.9665 6.25 12 6.25C11.0335 6.25 10.25 5.46655 10.25 4.5C10.25 3.53345 11.0335 2.75 12 2.75C12.9665 2.75 13.75 3.53345 13.75 4.5ZM4.5 6.25C5.4665 6.25 6.25 5.46655 6.25 4.5C6.25 3.53345 5.4665 2.75 4.5 2.75C3.5335 2.75 2.75 3.53345 2.75 4.5C2.75 5.46655 3.5335 6.25 4.5 6.25Z" fill="black"/>
<path d="M21.25 4.5C21.25 5.46655 20.4665 6.25 19.5 6.25C18.5335 6.25 17.75 5.46655 17.75 4.5C17.75 3.53345 18.5335 2.75 19.5 2.75C20.4665 2.75 21.25 3.53345 21.25 4.5Z"/>
<path d="M12 13.75C12.9665 13.75 13.75 12.9666 13.75 12C13.75 11.0334 12.9665 10.25 12 10.25C11.0335 10.25 10.25 11.0334 10.25 12C10.25 12.9666 11.0335 13.75 12 13.75Z"/>
<path d="M6.25 19.5C6.25 20.4666 5.4665 21.25 4.5 21.25C3.5335 21.25 2.75 20.4666 2.75 19.5C2.75 18.5334 3.5335 17.75 4.5 17.75C5.4665 17.75 6.25 18.5334 6.25 19.5Z"/>
<path d="M13.75 19.5C13.75 20.4666 12.9665 21.25 12 21.25C11.0335 21.25 10.25 20.4666 10.25 19.5C10.25 18.5334 11.0335 17.75 12 17.75C12.9665 17.75 13.75 18.5334 13.75 19.5Z"/>
<path d="M19.5 21.25C20.4665 21.25 21.25 20.4666 21.25 19.5C21.25 18.5334 20.4665 17.75 19.5 17.75C18.5335 17.75 17.75 18.5334 17.75 19.5C17.75 20.4666 18.5335 21.25 19.5 21.25Z"/>
<path d="M4.5 13.75C5.4665 13.75 6.25 12.9666 6.25 12C6.25 11.0334 5.4665 10.25 4.5 10.25C3.5335 10.25 2.75 11.0334 2.75 12C2.75 12.9666 3.5335 13.75 4.5 13.75Z"/>
<path d="M21.25 12C21.25 12.9666 20.4665 13.75 19.5 13.75C18.5335 13.75 17.75 12.9666 17.75 12C17.75 11.0334 18.5335 10.25 19.5 10.25C20.4665 10.25 21.25 11.0334 21.25 12Z"/>
<path d="M13.75 4.5C13.75 5.46655 12.9665 6.25 12 6.25C11.0335 6.25 10.25 5.46655 10.25 4.5C10.25 3.53345 11.0335 2.75 12 2.75C12.9665 2.75 13.75 3.53345 13.75 4.5Z"/>
<path d="M4.5 6.25C5.4665 6.25 6.25 5.46655 6.25 4.5C6.25 3.53345 5.4665 2.75 4.5 2.75C3.5335 2.75 2.75 3.53345 2.75 4.5C2.75 5.46655 3.5335 6.25 4.5 6.25Z"/>
</svg>
