<svg width="24" height="24" viewBox="0 0 24 24" fill="none" xmlns="http://www.w3.org/2000/svg">
<path fill-rule="evenodd" clip-rule="evenodd" d="M6.60005 4.95005C6.60005 5.86132 5.86132 6.60005 4.95005 6.60005C4.03878 6.60005 3.30005 5.86132 3.30005 4.95005C3.30005 4.03878 4.03878 3.30005 4.95005 3.30005C5.86132 3.30005 6.60005 4.03878 6.60005 4.95005ZM20.7 4.95005C20.7 5.86132 19.9613 6.60005 19.05 6.60005C18.1388 6.60005 17.4 5.86132 17.4 4.95005C17.4 4.03878 18.1388 3.30005 19.05 3.30005C19.9613 3.30005 20.7 4.03878 20.7 4.95005ZM12.0001 6.60005C12.9113 6.60005 13.6501 5.86132 13.6501 4.95005C13.6501 4.03878 12.9113 3.30005 12.0001 3.30005C11.0888 3.30005 10.3501 4.03878 10.3501 4.95005C10.3501 5.86132 11.0888 6.60005 12.0001 6.60005ZM6.60005 19.0501C6.60005 19.9613 5.86132 20.7001 4.95005 20.7001C4.03878 20.7001 3.30005 19.9613 3.30005 19.0501C3.30005 18.1388 4.03878 17.4001 4.95005 17.4001C5.86132 17.4001 6.60005 18.1388 6.60005 19.0501ZM19.05 20.7001C19.9613 20.7001 20.7 19.9613 20.7 19.0501C20.7 18.1388 19.9613 17.4001 19.05 17.4001C18.1388 17.4001 17.4 18.1388 17.4 19.0501C17.4 19.9613 18.1388 20.7001 19.05 20.7001ZM13.6501 19.0501C13.6501 19.9613 12.9113 20.7001 12.0001 20.7001C11.0888 20.7001 10.3501 19.9613 10.3501 19.0501C10.3501 18.1388 11.0888 17.4001 12.0001 17.4001C12.9113 17.4001 13.6501 18.1388 13.6501 19.0501ZM4.95005 13.65C5.86132 13.65 6.60005 12.9113 6.60005 12C6.60005 11.0888 5.86132 10.35 4.95005 10.35C4.03878 10.35 3.30005 11.0888 3.30005 12C3.30005 12.9113 4.03878 13.65 4.95005 13.65ZM20.7 12C20.7 12.9113 19.9613 13.65 19.05 13.65C18.1388 13.65 17.4 12.9113 17.4 12C17.4 11.0888 18.1388 10.35 19.05 10.35C19.9613 10.35 20.7 11.0888 20.7 12ZM12.0001 13.65C12.9113 13.65 13.6501 12.9113 13.6501 12C13.6501 11.0888 12.9113 10.35 12.0001 10.35C11.0888 10.35 10.3501 11.0888 10.3501 12C10.3501 12.9113 11.0888 13.65 12.0001 13.65Z" fill="#171719"/>
</svg>
