<svg   viewBox="0 0 24 24"  xmlns="http://www.w3.org/2000/svg">
<path fill-rule="evenodd" clip-rule="evenodd" d="M8.40346 4.51604C8.66535 4.50061 8.90205 4.56956 9.13686 4.67522C9.42116 4.84968 9.61807 5.08867 9.76284 5.39007C9.86272 5.59809 9.96572 5.87248 10.0753 6.16253L10.4904 7.26018C10.8357 8.17403 10.9594 8.48043 11.1359 8.72991C11.3059 8.97012 11.5158 9.17998 11.756 9.35003C12.0055 9.52654 12.3118 9.65015 13.2257 9.99554L14.3234 10.4106C14.6134 10.5202 14.8878 10.6232 15.0958 10.7231C15.4474 10.892 15.7216 11.151 15.881 11.5053C16.0215 11.8771 15.9981 12.2951 15.8107 12.6518C15.6179 13.0179 15.2682 13.195 15.0958 13.2778C14.8401 13.3874 14.5837 13.4919 14.3234 13.5903L13.2257 14.0053C12.3121 14.3506 12.0055 14.4743 11.756 14.6508C11.516 14.8208 11.3058 15.0308 11.1359 15.2709C10.9596 15.5203 10.8355 15.8273 10.4904 16.7407L10.0753 17.8383C9.96578 18.1282 9.86268 18.4029 9.76284 18.6108C9.67978 18.7836 9.50338 19.133 9.13686 19.3256C8.93313 19.4325 8.70907 19.4858 8.48549 19.4858C8.26183 19.4857 8.03781 19.4326 7.83413 19.3256C7.46742 19.1328 7.29109 18.7834 7.20815 18.6108C7.10827 18.4028 7.00527 18.1284 6.89565 17.8383L6.48061 16.7407C6.1352 15.8267 6.01158 15.5204 5.8351 15.2709C5.66501 15.0306 5.4553 14.8209 5.21499 14.6508C4.96548 14.4743 4.65933 14.3508 3.74526 14.0053L2.6476 13.5903C2.35752 13.4806 2.08313 13.3777 1.87514 13.2778C1.70251 13.1948 1.35314 13.0185 1.1603 12.6518C0.999782 12.3462 0.960031 11.9955 1.04018 11.6674C1.14843 11.2245 1.47125 10.9171 1.87514 10.7231C2.08301 10.6232 2.35771 10.5201 2.6476 10.4106L3.74526 9.99554C4.30507 9.78397 4.92386 9.60731 5.38979 9.21429C5.55759 9.07261 5.70779 8.90965 5.8351 8.72991C6.01161 8.48045 6.13533 8.1738 6.48061 7.26018L6.89565 6.16253C7.00519 5.8727 7.10834 5.59804 7.20815 5.39007C7.29099 5.21761 7.4676 4.86822 7.83413 4.67522C8.01273 4.58138 8.20765 4.52894 8.40346 4.51604ZM8.16421 7.89593C7.852 8.72204 7.6452 9.28678 7.30483 9.768C7.01682 10.175 6.66106 10.5308 6.25405 10.8188C5.77286 11.1591 5.20803 11.366 4.38198 11.6782L3.53139 11.9994L4.38198 12.3207C5.20799 12.6329 5.77287 12.8399 6.25405 13.1801C6.66104 13.4681 7.01681 13.8239 7.30483 14.2309C7.64524 14.7121 7.85201 15.2769 8.16421 16.103L8.48549 16.9526L8.80678 16.103C9.11896 15.2769 9.32584 14.7121 9.66616 14.2309C9.95412 13.8239 10.31 13.4681 10.7169 13.1801C11.1981 12.8398 11.763 12.6329 12.589 12.3207L13.4386 11.9994L12.589 11.6782C11.763 11.366 11.1981 11.1592 10.7169 10.8188C10.31 10.5308 9.95411 10.175 9.66616 9.768C9.32589 9.28681 9.11897 8.72197 8.80678 7.89593L8.48549 7.04534L8.16421 7.89593Z" />
<path d="M21.3498 16.5854C21.8468 16.5854 22.2501 16.9887 22.2501 17.4858C22.2501 17.9828 21.8468 18.3862 21.3498 18.3862H13.8498C13.3528 18.386 12.9494 17.9827 12.9494 17.4858C12.9494 16.9888 13.3528 16.5855 13.8498 16.5854H21.3498Z" />
<path d="M21.3507 11.0854C21.8476 11.0856 22.2501 11.4889 22.2501 11.9858C22.2501 12.4827 21.8476 12.8859 21.3507 12.8862H18.5001C18.0031 12.8862 17.5998 12.4828 17.5998 11.9858C17.5998 11.4888 18.0031 11.0854 18.5001 11.0854H21.3507Z" />
<path d="M21.3498 5.58538C21.8468 5.58538 22.2501 5.98876 22.2501 6.48577C22.2501 6.98283 21.8468 7.38616 21.3498 7.38616H13.7501C13.2532 7.38597 12.8498 6.98271 12.8498 6.48577C12.8498 5.98887 13.2533 5.58556 13.7501 5.58538H21.3498Z" />
</svg>
