<svg viewBox="0 0 24 24" xmlns="http://www.w3.org/2000/svg">
<path fill-rule="evenodd" clip-rule="evenodd" d="M16.6251 10.1473L10.8234 15.7513L7.37458 12.4201L8.62511 11.1254L10.8234 13.2487L15.3746 8.85267L16.6251 10.1473ZM13.9043 2.89719C12.8572 1.83428 11.1425 1.8342 10.0954 2.89718L9.04096 3.9675C8.87522 4.13575 8.64841 4.22969 8.41226 4.22792L6.90985 4.21668C5.41778 4.20551 4.20538 5.41791 4.21655 6.90998L4.2278 8.41239C4.22956 8.64855 4.1356 8.87537 3.96736 9.04111L2.89707 10.0955C1.83411 11.1427 1.83412 12.8573 2.89708 13.9045L3.96739 14.9588C4.13564 15.1246 4.22956 15.3514 4.2278 15.5876L4.21655 17.09C4.20538 18.582 5.41786 19.7943 6.90986 19.7833L8.41227 19.772C8.64849 19.7703 8.8753 19.8643 9.04098 20.0325L10.0954 21.1028C11.1426 22.1657 12.8572 22.1657 13.9043 21.1028L14.9586 20.0325C15.1244 19.8642 15.3513 19.7703 15.5875 19.772L17.0899 19.7833C18.5819 19.7943 19.7942 18.5819 19.7831 17.09L19.7719 15.5876C19.7701 15.3513 19.8641 15.1245 20.0323 14.9588L21.1026 13.9044C22.1656 12.8573 22.1656 11.1427 21.1027 10.0956L20.0323 9.04107C19.8641 8.87539 19.7701 8.64853 19.7719 8.41231L19.7831 6.90994C19.7942 5.41793 18.5819 4.20551 17.0898 4.21668L15.5874 4.22792C15.3513 4.22969 15.1244 4.13571 14.9586 3.96745L13.9043 2.89719Z"/>
</svg>
