<svg viewBox="0 0 24 24" xmlns="http://www.w3.org/2000/svg">
<path fill-rule="evenodd" clip-rule="evenodd" d="M10.1952 21.2854L11.8874 20.4277C11.9581 20.3919 12.0421 20.3919 12.1127 20.4277L13.805 21.2854L13.827 21.2963C14.6729 21.71 15.7018 21.3753 16.1251 20.5487L16.9783 18.8828C17.0139 18.8133 17.0819 18.7651 17.1606 18.7534L19.0455 18.4753L19.07 18.4715C20.0031 18.3204 20.6342 17.4586 20.4795 16.5467L20.1677 14.709C20.1546 14.6323 20.1806 14.5542 20.2373 14.4996L21.595 13.1919L21.6125 13.1748C22.2765 12.5165 22.2686 11.4569 21.595 10.8081L20.2373 9.50038C20.1806 9.4458 20.1546 9.3677 20.1677 9.291L20.4795 7.45324L20.4833 7.42937C20.6246 6.51542 19.9808 5.66265 19.0455 5.52466L17.1606 5.24654C17.0819 5.23493 17.0139 5.18666 16.9783 5.11713L16.1251 3.45126L16.1139 3.42973C15.6784 2.60922 14.6447 2.28905 13.805 2.71461L12.1127 3.57229C12.0421 3.60808 11.9581 3.60808 11.8874 3.57229L10.1952 2.71461L10.1731 2.70364C9.32725 2.28997 8.29835 2.62469 7.87503 3.45126L7.02185 5.11713C6.98624 5.18666 6.91826 5.23493 6.83958 5.24654L4.95461 5.52466L4.93018 5.52844C3.99702 5.67962 3.36597 6.54138 3.52069 7.45324L3.83249 9.291C3.84551 9.3677 3.81954 9.4458 3.76287 9.50038L2.40519 10.8081L2.3877 10.8252C1.7237 11.4834 1.73153 12.5431 2.40519 13.1919L3.76287 14.4996C3.81954 14.5542 3.84551 14.6323 3.83249 14.709L3.52069 16.5467L3.51682 16.5706C3.3756 17.4846 4.01932 18.3373 4.95461 18.4753L6.83958 18.7534C6.91826 18.7651 6.98624 18.8133 7.02185 18.8828L7.87503 20.5487L7.88626 20.5703C8.32176 21.3908 9.35549 21.7109 10.1952 21.2854ZM16.7763 8.77321C16.4054 8.40421 15.8056 8.40579 15.4366 8.77673L10.7344 13.5019L8.56893 11.3295L8.46279 11.2376C8.09226 10.962 7.56591 10.9919 7.22914 11.3278C6.85871 11.6973 6.85795 12.2971 7.22745 12.6676L10.0662 15.5135L10.1726 15.6055C10.5442 15.8818 11.0722 15.8507 11.4086 15.5125L16.7799 10.113L16.8713 10.0065C17.1455 9.6349 17.1136 9.10867 16.7763 8.77321Z"/>
</svg>
