<svg viewBox="0 0 24 24" xmlns="http://www.w3.org/2000/svg">
<path fill-rule="evenodd" clip-rule="evenodd" d="M22.0971 5.23987C22.0344 4.77746 21.638 4.42105 21.1584 4.42105H2.84254L2.71399 4.4297C2.25158 4.49243 1.89517 4.8888 1.89517 5.36842V8.19266C1.89497 8.20398 1.89497 8.21531 1.89517 8.22662V18.6316L1.90382 18.7601C1.96655 19.2225 2.36293 19.5789 2.84254 19.5789H21.1584L21.287 19.5703C21.7494 19.5076 22.1058 19.1112 22.1058 18.6316V12L22.0971 11.8714C22.0344 11.409 21.638 11.0526 21.1584 11.0526L21.0299 11.0613C20.5674 11.124 20.211 11.5204 20.211 12V17.6842H3.78992V9.86402L11.5214 14.3962L11.6521 14.4599C11.9205 14.5661 12.226 14.5449 12.4796 14.3962L21.6221 9.03686C21.6646 9.01296 21.705 8.98588 21.7432 8.95594C21.8415 8.87881 21.9221 8.78428 21.9814 8.68012C22.0657 8.53197 22.1088 8.36314 22.1058 8.19259V5.36842L22.0971 5.23987ZM20.211 7.66765V6.31579H3.78992V7.66773L11.9992 12.48L20.211 7.66765Z"/>
</svg>
