<svg viewBox="0 0 24 24" xmlns="http://www.w3.org/2000/svg">
<path fill-rule="evenodd" clip-rule="evenodd" d="M5.80305 7.43037C6.11764 7.04553 6.68463 6.98858 7.06947 7.30317L12.0042 11.3371L16.9296 7.30367C17.3142 6.98874 17.8812 7.0452 18.1962 7.42976C18.5111 7.81433 18.4546 8.38137 18.0701 8.69629L12.0052 13.6628L5.93025 8.69679C5.54541 8.3822 5.48846 7.8152 5.80305 7.43037Z"/>
<path fill-rule="evenodd" clip-rule="evenodd" d="M5.0701 4.09998C5.08 4.09998 5.08992 4.09998 5.09986 4.09998L18.9296 4.09998C19.1839 4.09995 19.426 4.09993 19.6299 4.11659C19.8524 4.13476 20.1075 4.17715 20.3624 4.30707C20.7199 4.48923 21.0106 4.77989 21.1928 5.1374C21.3227 5.39237 21.3651 5.64748 21.3832 5.86989C21.3999 6.07385 21.3999 6.3159 21.3999 6.57022V17.4297C21.3999 17.6841 21.3999 17.9261 21.3832 18.1301C21.3651 18.3525 21.3227 18.6076 21.1928 18.8626C21.0106 19.2201 20.7199 19.5107 20.3624 19.6929C20.1075 19.8228 19.8524 19.8652 19.6299 19.8834C19.426 19.9 19.1839 19.9 18.9296 19.9H5.0701C4.81578 19.9 4.57373 19.9 4.36977 19.8834C4.14736 19.8652 3.89225 19.8228 3.63728 19.6929C3.27977 19.5107 2.9891 19.2201 2.80695 18.8626C2.67703 18.6076 2.63464 18.3525 2.61647 18.1301C2.59981 17.9261 2.59983 17.6841 2.59986 17.4297L2.59986 6.59998C2.59986 6.59004 2.59986 6.58012 2.59986 6.57022C2.59983 6.3159 2.59981 6.07385 2.61647 5.86989C2.63464 5.64748 2.67703 5.39237 2.80695 5.1374C2.9891 4.77989 3.27977 4.48923 3.63728 4.30707C3.89225 4.17715 4.14736 4.13476 4.36977 4.11659C4.57373 4.09993 4.81578 4.09995 5.0701 4.09998ZM4.44034 5.91962C4.4324 5.9255 4.42538 5.93252 4.4195 5.94046C4.41713 5.95394 4.41363 5.97809 4.41049 6.01647C4.40056 6.13807 4.39986 6.3051 4.39986 6.59998V17.4C4.39986 17.6949 4.40056 17.8619 4.41049 17.9835C4.41363 18.0219 4.41713 18.046 4.4195 18.0595C4.42538 18.0674 4.4324 18.0745 4.44034 18.0803C4.45381 18.0827 4.47796 18.0862 4.51635 18.0893C4.63795 18.0993 4.80498 18.1 5.09986 18.1H18.8999C19.1947 18.1 19.3618 18.0993 19.4834 18.0893C19.5218 18.0862 19.5459 18.0827 19.5594 18.0803C19.5673 18.0745 19.5743 18.0674 19.5802 18.0595C19.5826 18.046 19.5861 18.0219 19.5892 17.9835C19.5992 17.8619 19.5999 17.6949 19.5999 17.4V6.59998C19.5999 6.3051 19.5992 6.13807 19.5892 6.01647C19.5861 5.97809 19.5826 5.95394 19.5802 5.94046C19.5743 5.93252 19.5673 5.9255 19.5594 5.91962C19.5459 5.91725 19.5217 5.91375 19.4834 5.91061C19.3618 5.90068 19.1947 5.89998 18.8999 5.89998H5.09986C4.80498 5.89998 4.63795 5.90068 4.51635 5.91061C4.47796 5.91375 4.45381 5.91725 4.44034 5.91962Z"/>
</svg>
