<svg viewBox="0 0 24 24" xmlns="http://www.w3.org/2000/svg">
<path fill-rule="evenodd" clip-rule="evenodd" d="M7.1001 10.1V6.88886C7.1001 4.22029 9.31798 2.09998 12.0001 2.09998C14.6822 2.09998 16.9001 4.22029 16.9001 6.88886V10.1H17.2402C17.5805 10.0999 17.9041 10.0999 18.1736 10.1291C18.4705 10.1613 18.8065 10.2373 19.1169 10.4629C19.2782 10.58 19.42 10.7219 19.5372 10.8832C19.7628 11.1936 19.8388 11.5296 19.871 11.8265C19.9002 12.096 19.9002 12.4196 19.9001 12.7599V19.2401C19.9002 19.5804 19.9002 19.904 19.871 20.1735C19.8388 20.4704 19.7628 20.8064 19.5372 21.1168C19.42 21.2781 19.2782 21.4199 19.1169 21.5371C18.8065 21.7627 18.4705 21.8387 18.1736 21.8709C17.9041 21.9001 17.5805 21.9 17.2402 21.9H6.76C6.41972 21.9 6.09612 21.9001 5.82662 21.8709C5.52969 21.8387 5.19374 21.7627 4.88331 21.5371C4.72201 21.4199 4.58016 21.2781 4.46297 21.1168C4.23744 20.8064 4.16138 20.4704 4.12921 20.1735C4.10001 19.904 4.10006 19.5804 4.1001 19.2401V12.7599C4.10006 12.4196 4.10001 12.096 4.12921 11.8265C4.16138 11.5296 4.23744 11.1936 4.46297 10.8832C4.58016 10.7219 4.72201 10.58 4.88331 10.4629C5.19374 10.2373 5.52969 10.1613 5.82661 10.1291C6.09613 10.0999 6.41973 10.0999 6.76002 10.1L7.1001 10.1ZM8.9001 6.88886C8.9001 5.26187 10.2639 3.89998 12.0001 3.89998C13.7362 3.89998 15.1001 5.26187 15.1001 6.88886V10.1L8.9001 10.1V6.88886Z"/>
</svg>
