<svg viewBox="0 0 24 24" xmlns="http://www.w3.org/2000/svg">
<path d="M9.34492 3.2501C9.34492 2.75304 9.74787 2.3501 10.2449 2.3501H13.7423C14.2394 2.3501 14.6423 2.75304 14.6423 3.2501C14.6423 3.74715 14.2394 4.1501 13.7423 4.1501H10.2449C9.74787 4.1501 9.34492 3.74715 9.34492 3.2501Z"/>
<path d="M7.6471 3.23579C7.66216 3.73262 7.2716 4.14758 6.77478 4.16264C5.91797 4.1886 5.56105 4.25649 5.3068 4.38724L5.2977 4.39192C4.91183 4.58486 4.59081 4.90691 4.37302 5.32224C4.2431 5.57633 4.17557 5.93372 4.14969 6.78772C4.13464 7.28455 3.71967 7.6751 3.22285 7.66005C2.72602 7.64499 2.33546 7.23003 2.35052 6.7332C2.37637 5.88016 2.43802 5.149 2.77358 4.49652L2.77632 4.49119C3.15361 3.76941 3.73723 3.16088 4.48823 2.78414C5.13953 2.45067 5.86924 2.38925 6.72025 2.36346C7.21708 2.34841 7.63205 2.73896 7.6471 3.23579Z"/>
<path d="M16.3402 3.23579C16.3552 2.73896 16.7702 2.34841 17.267 2.36346C18.118 2.38925 18.8477 2.45067 19.499 2.78413C20.25 3.16088 20.8336 3.76942 21.2109 4.4912L21.2137 4.49651C21.5493 5.14899 21.6109 5.88016 21.6367 6.7332C21.6518 7.23003 21.2612 7.64499 20.7644 7.66005C20.2676 7.6751 19.8526 7.28455 19.8376 6.78772C19.8117 5.93372 19.7442 5.57634 19.6142 5.32225C19.3965 4.90691 19.0755 4.58481 18.6896 4.39187L18.6804 4.3873C18.4262 4.25654 18.0693 4.1886 17.2125 4.16264C16.7157 4.14758 16.3251 3.73262 16.3402 3.23579Z"/>
<path d="M3.25011 9.34492C3.74716 9.34492 4.15011 9.74786 4.15011 10.2449V13.7423C4.15011 14.2394 3.74716 14.6423 3.25011 14.6423C2.75305 14.6423 2.35011 14.2394 2.35011 13.7423V10.2449C2.35011 9.74786 2.75305 9.34492 3.25011 9.34492Z"/>
<path d="M20.7372 9.34492C21.2342 9.34492 21.6371 9.74786 21.6371 10.2449V13.7423C21.6371 14.2394 21.2342 14.6423 20.7372 14.6423C20.2401 14.6423 19.8372 14.2394 19.8372 13.7423V10.2449C19.8372 9.74786 20.2401 9.34492 20.7372 9.34492Z"/>
<path d="M20.7774 16.3401C21.2742 16.3552 21.6647 16.7702 21.6497 17.267C21.6238 18.12 21.5622 18.8512 21.2266 19.5037L21.2239 19.509C20.8466 20.2308 20.2629 20.8394 19.5118 21.2161C18.8605 21.5495 18.1309 21.6109 17.28 21.6367C16.7831 21.6518 16.3682 21.2612 16.3531 20.7644C16.3381 20.2676 16.7286 19.8526 17.2254 19.8376C18.0822 19.8116 18.4392 19.7437 18.6934 19.6129L18.7025 19.6083C19.0884 19.4153 19.4094 19.0933 19.6272 18.6779C19.7571 18.4239 19.8246 18.0665 19.8505 17.2125C19.8656 16.7156 20.2805 16.3251 20.7774 16.3401Z"/>
<path d="M3.22285 16.3531C3.71967 16.338 4.13464 16.7286 4.14969 17.2254C4.17566 18.0822 4.24354 18.4392 4.3743 18.6934L4.37898 18.7025C4.57192 19.0884 4.89397 19.4094 5.3093 19.6272C5.5634 19.7571 5.92077 19.8246 6.77478 19.8505C7.2716 19.8656 7.66216 20.2805 7.6471 20.7774C7.63205 21.2742 7.21708 21.6647 6.72025 21.6497C5.86721 21.6238 5.13605 21.5622 4.48357 21.2266L4.47825 21.2239C3.75648 20.8466 3.14794 20.263 2.77119 19.512C2.43773 18.8607 2.37631 18.131 2.35052 17.2799C2.33546 16.7831 2.72602 16.3682 3.22285 16.3531Z"/>
<path d="M9.34492 20.7371C9.34492 20.2401 9.74787 19.8371 10.2449 19.8371H13.7423C14.2394 19.8371 14.6423 20.2401 14.6423 20.7371C14.6423 21.2342 14.2394 21.6371 13.7423 21.6371H10.2449C9.74787 21.6371 9.34492 21.2342 9.34492 20.7371Z"/>
</svg>
