<svg viewBox="0 0 24 24" xmlns="http://www.w3.org/2000/svg">
<path fill-rule="evenodd" clip-rule="evenodd" d="M5.70189 16.991C7.57838 18.2636 9.67752 18.9 11.9993 18.9C14.3211 18.9 16.4202 18.2636 18.2967 16.991C20.0479 15.8033 21.3836 14.275 22.3039 12.4062C22.43 12.15 22.43 11.8499 22.3039 11.5937C21.3836 9.72494 20.0479 8.19669 18.2967 7.00898C16.4202 5.73631 14.3211 5.09998 11.9993 5.09998C9.67752 5.09998 7.57838 5.73631 5.70189 7.00898C3.95065 8.19669 2.61492 9.72494 1.6947 11.5937C1.56856 11.8499 1.56856 12.15 1.6947 12.4062C2.61492 14.275 3.95065 15.8033 5.70189 16.991ZM9.75045 12C9.75045 10.8105 10.7148 9.84615 11.9043 9.84615C13.0938 9.84615 14.0581 10.8105 14.0581 12C14.0581 13.1895 13.0938 14.1538 11.9043 14.1538C10.7148 14.1538 9.75045 13.1895 9.75045 12ZM11.9043 8C9.69516 8 7.9043 9.79086 7.9043 12C7.9043 14.2091 9.69516 16 11.9043 16C14.1134 16 15.9043 14.2091 15.9043 12C15.9043 9.79086 14.1134 8 11.9043 8Z"/>
</svg>
