<svg viewBox="0 0 24 24" xmlns="http://www.w3.org/2000/svg">
<path fill-rule="evenodd" clip-rule="evenodd" d="M12.6365 2.36358C12.285 2.01211 11.7152 2.01211 11.3637 2.36358L7.8637 5.86358C7.51223 6.21505 7.51223 6.7849 7.8637 7.13637C8.21517 7.48784 8.78502 7.48784 9.13649 7.13637L11.1001 5.17277V14.5C11.1001 14.997 11.503 15.4 12.0001 15.4C12.4972 15.4 12.9001 14.997 12.9001 14.5V5.17277L14.8637 7.13637C15.2152 7.48784 15.785 7.48784 16.1365 7.13637C16.488 6.7849 16.488 6.21505 16.1365 5.86358L12.6365 2.36358ZM3.1001 9.99998V20C3.1001 21.0493 3.95076 21.9 5.0001 21.9H19.0001C20.0494 21.9 20.9001 21.0493 20.9001 20V9.99998H19.1001V20C19.1001 20.0552 19.0553 20.1 19.0001 20.1H5.0001C4.94487 20.1 4.9001 20.0552 4.9001 20V9.99998H3.1001Z" fill="black"/>
<path d="M12.6365 2.36358C12.285 2.01211 11.7152 2.01211 11.3637 2.36358L7.8637 5.86358C7.51223 6.21505 7.51223 6.7849 7.8637 7.13637C8.21517 7.48784 8.78502 7.48784 9.13649 7.13637L11.1001 5.17277V14.5C11.1001 14.997 11.503 15.4 12.0001 15.4C12.4972 15.4 12.9001 14.997 12.9001 14.5V5.17277L14.8637 7.13637C15.2152 7.48784 15.785 7.48784 16.1365 7.13637C16.488 6.7849 16.488 6.21505 16.1365 5.86358L12.6365 2.36358Z"/>
<path d="M3.1001 9.99998V20C3.1001 21.0493 3.95076 21.9 5.0001 21.9H19.0001C20.0494 21.9 20.9001 21.0493 20.9001 20V9.99998H19.1001V20C19.1001 20.0552 19.0553 20.1 19.0001 20.1H5.0001C4.94487 20.1 4.9001 20.0552 4.9001 20V9.99998H3.1001Z"/>
</svg>
