<svg viewBox="0 0 24 24" xmlns="http://www.w3.org/2000/svg">
<path d="M12.3586 9.62727C12.2119 9.32997 11.7879 9.32997 11.6412 9.62727L10.8439 11.2427C10.7857 11.3608 10.673 11.4426 10.5427 11.4616L8.75997 11.7206C8.43188 11.7683 8.30088 12.1715 8.53829 12.4029L9.82831 13.6604C9.92259 13.7522 9.96561 13.8846 9.94335 14.0144L9.63882 15.79C9.58277 16.1167 9.92575 16.3659 10.2192 16.2116L11.8138 15.3733C11.9303 15.3121 12.0695 15.3121 12.186 15.3733L13.7806 16.2116C14.074 16.3659 14.417 16.1167 14.361 15.79L14.0564 14.0144C14.0342 13.8846 14.0772 13.7522 14.1715 13.6604L15.4615 12.4029C15.6989 12.1715 15.5679 11.7683 15.2398 11.7206L13.457 11.4616C13.3268 11.4426 13.2141 11.3608 13.1559 11.2427L12.3586 9.62727Z"/>
<path fill-rule="evenodd" clip-rule="evenodd" d="M8.66419 5.89976C8.79119 5.89976 8.8575 5.89997 8.90655 5.90216C8.9211 5.90281 8.93027 5.90352 8.9353 5.90398C8.94119 5.90575 8.94691 5.90806 8.95238 5.91088C8.95632 5.91404 8.96341 5.9199 8.97433 5.92954C9.01114 5.96203 9.05899 6.00793 9.15036 6.09614L10.2921 7.19839L10.3273 7.23244C10.4618 7.36284 10.6209 7.51715 10.8134 7.63189C10.9809 7.73167 11.1626 7.80509 11.3524 7.84958C11.5706 7.90075 11.7922 7.90025 11.9796 7.89983L20.0998 7.89976L20.0999 18.0998H3.89986L3.89989 5.89976H8.66419ZM9.34032 4.14994C9.12211 4.09877 8.90044 4.09927 8.71313 4.09969L3.77779 4.09976C3.65755 4.09972 3.51924 4.09967 3.39821 4.10956C3.25917 4.12092 3.06581 4.14968 2.86431 4.25235C2.60088 4.38657 2.38671 4.60075 2.25249 4.86417C2.14982 5.06567 2.12106 5.25904 2.1097 5.39807C2.09981 5.51911 2.09985 5.65742 2.09989 5.77766L2.09986 18.2219C2.09982 18.3421 2.09977 18.4804 2.10966 18.6014C2.12102 18.7405 2.14978 18.9338 2.25245 19.1353C2.38668 19.3988 2.60085 19.6129 2.86428 19.7472C3.06577 19.8498 3.25914 19.8786 3.39818 19.89C3.51921 19.8998 3.65752 19.8998 3.77776 19.8998H20.222C20.3423 19.8998 20.4806 19.8998 20.6016 19.89C20.7406 19.8786 20.934 19.8498 21.1355 19.7472C21.3989 19.6129 21.6131 19.3988 21.7473 19.1353C21.85 18.9338 21.8788 18.7405 21.8901 18.6014C21.901 18.4679 21.8999 18.3336 21.8999 18.1997L21.8999 7.7777C21.8999 7.65747 21.8999 7.5191 21.89 7.39806C21.8787 7.25903 21.8499 7.06567 21.7473 6.86417C21.613 6.60074 21.3989 6.38657 21.1354 6.25235C20.9339 6.14968 20.7406 6.12092 20.6015 6.10956C20.4805 6.09967 20.3422 6.09972 20.222 6.09976L12.0285 6.09976C11.9015 6.09976 11.8352 6.09956 11.7861 6.09736C11.7716 6.09671 11.7624 6.096 11.7574 6.09554C11.7515 6.09377 11.7458 6.09146 11.7403 6.08864C11.7364 6.08548 11.7293 6.07962 11.7184 6.06998C11.6815 6.0375 11.6337 5.99159 11.5423 5.90338L10.3654 4.76709C10.2309 4.63668 10.0718 4.48237 9.87924 4.36763C9.71183 4.26785 9.53006 4.19443 9.34032 4.14994Z"/>
</svg>
