<svg viewBox="0 0 24 24" xmlns="http://www.w3.org/2000/svg">
<path fill-rule="evenodd" clip-rule="evenodd" d="M11.9995 7.34976C9.29332 7.34976 7.09951 9.54356 7.09951 12.2498C7.09951 14.956 9.29332 17.1498 11.9995 17.1498C14.7057 17.1498 16.8995 14.956 16.8995 12.2498C16.8995 9.54356 14.7057 7.34976 11.9995 7.34976ZM8.89951 12.2498C8.89951 10.5377 10.2874 9.14976 11.9995 9.14976C13.7116 9.14976 15.0995 10.5377 15.0995 12.2498C15.0995 13.9618 13.7116 15.3498 11.9995 15.3498C10.2874 15.3498 8.89951 13.9618 8.89951 12.2498Z"/>
<path fill-rule="evenodd" clip-rule="evenodd" d="M10.11 2.09967C9.58527 2.09916 9.14304 2.09872 8.72758 2.22491C8.36275 2.33572 8.02335 2.51738 7.72881 2.7595C7.39339 3.03523 7.1485 3.40345 6.85793 3.84034L6.01861 5.09974L5.16446 5.09974C4.6346 5.09973 4.1834 5.09971 3.81297 5.12998C3.42381 5.16177 3.04522 5.23141 2.68328 5.41582C2.13761 5.69386 1.69397 6.1375 1.41594 6.68317C1.23152 7.0451 1.16189 7.4237 1.13009 7.81286C1.09983 8.18328 1.09984 8.63445 1.09985 9.16431V16.8351C1.09984 17.365 1.09983 17.8162 1.13009 18.1866C1.16189 18.5758 1.23152 18.9544 1.41594 19.3163C1.69397 19.862 2.13761 20.3056 2.68328 20.5837C3.04522 20.7681 3.42381 20.8377 3.81297 20.8695C4.1834 20.8998 4.63457 20.8998 5.16443 20.8997H18.8353C19.3651 20.8998 19.8163 20.8998 20.1867 20.8695C20.5759 20.8377 20.9545 20.7681 21.3164 20.5837C21.8621 20.3056 22.3057 19.862 22.5838 19.3163C22.7682 18.9544 22.8378 18.5758 22.8696 18.1866C22.8999 17.8162 22.8999 17.365 22.8999 16.8352V9.16434C22.8999 8.63448 22.8999 8.18328 22.8696 7.81286C22.8378 7.4237 22.7682 7.0451 22.5838 6.68317C22.3057 6.1375 21.8621 5.69386 21.3164 5.41582C20.9545 5.23141 20.5759 5.16177 20.1867 5.12998C19.8163 5.09971 19.3651 5.09973 18.8353 5.09974L17.9819 5.09974L17.1417 3.83961C16.8511 3.4029 16.6062 3.03482 16.2708 2.75921C15.9763 2.51719 15.637 2.33561 15.2722 2.22485C14.8569 2.09872 14.4147 2.09916 13.8902 2.09967L10.11 2.09967ZM9.25069 3.94722C9.37681 3.90891 9.53041 3.89974 10.2127 3.89974H13.7875C14.4696 3.89974 14.6231 3.90891 14.7492 3.9472C14.8876 3.98921 15.0163 4.05808 15.128 4.14989C15.2298 4.23355 15.3227 4.35622 15.7011 4.92372L16.5141 6.14289L16.5315 6.16937C16.5936 6.26404 16.7114 6.4436 16.879 6.58138C17.0212 6.69821 17.185 6.78587 17.3611 6.83934C17.5688 6.90239 17.7835 6.90077 17.8967 6.89991L17.9284 6.89974H18.7999C19.3748 6.89974 19.7518 6.90044 20.0402 6.924C20.318 6.9467 20.4334 6.98606 20.4992 7.01963C20.7062 7.12509 20.8745 7.29337 20.98 7.50035C21.0135 7.56624 21.0529 7.68159 21.0756 7.95943C21.0992 8.24779 21.0999 8.62484 21.0999 9.19974V16.7997C21.0999 17.3746 21.0992 17.7517 21.0756 18.04C21.0529 18.3179 21.0135 18.4332 20.98 18.4991C20.8745 18.7061 20.7062 18.8744 20.4992 18.9798C20.4334 19.0134 20.318 19.0528 20.0402 19.0755C19.7518 19.099 19.3748 19.0997 18.7999 19.0997H5.19986C4.62495 19.0997 4.2479 19.099 3.95955 19.0755C3.6817 19.0528 3.56636 19.0134 3.50047 18.9798C3.29349 18.8744 3.12521 18.7061 3.01975 18.4991C2.98618 18.4332 2.94682 18.3179 2.92411 18.04C2.90056 17.7517 2.89986 17.3746 2.89986 16.7997V9.19974C2.89986 8.62484 2.90056 8.24779 2.92411 7.95943C2.94682 7.68159 2.98618 7.56624 3.01975 7.50035C3.12521 7.29337 3.29349 7.12509 3.50047 7.01963C3.56636 6.98606 3.6817 6.9467 3.95955 6.924C4.2479 6.90044 4.62495 6.89974 5.19986 6.89974H6.07214L6.10386 6.89991C6.2171 6.90077 6.4319 6.9024 6.63958 6.83932C6.8157 6.78582 6.97955 6.69812 7.12174 6.58124C7.28941 6.4434 7.40719 6.26377 7.46928 6.16906L7.48673 6.14257L8.29882 4.92415C8.67721 4.35642 8.77002 4.2337 8.87185 4.15C8.98357 4.05816 9.11231 3.98925 9.25069 3.94722Z"/>
</svg>
