<svg viewBox="0 0 24 24" xmlns="http://www.w3.org/2000/svg">
<path d="M19.6122 3.97671C19.5495 3.5143 19.1531 3.15789 18.6735 3.15789H15.474L15.3455 3.16654C14.8831 3.22927 14.5266 3.62565 14.5266 4.10526L14.5353 4.23381C14.598 4.69623 14.9944 5.05263 15.474 5.05263H17.725L17.7262 6.63158L17.7348 6.76013C17.7975 7.22254 18.1939 7.57895 18.6735 7.57895H20.2538L20.254 18L20.2488 18.1443C20.207 18.6965 19.912 18.9474 19.3066 18.9474H4.73714L4.59223 18.9421C4.03819 18.8999 3.78976 18.6027 3.78976 18V8.52631L3.79499 8.38221C3.83691 7.83086 4.13262 7.57895 4.73714 7.57895H15.474L15.6026 7.5703C16.065 7.50757 16.4214 7.11119 16.4214 6.63158C16.4214 6.10836 15.9972 5.68421 15.474 5.68421H4.73714L4.5269 5.69015C2.93851 5.78086 1.89502 6.90326 1.89502 8.52631V18L1.90089 18.209C1.99065 19.7887 3.10174 20.8421 4.73714 20.8421H19.3066L19.5169 20.8362C21.1058 20.7456 22.1488 19.6245 22.1488 18V6.63158L22.1401 6.50303C22.0774 6.04061 21.681 5.68421 21.2014 5.68421H19.6197L19.6209 4.10526L19.6122 3.97671Z"/>
<path fill-rule="evenodd" clip-rule="evenodd" d="M12.0003 8.21053C9.20982 8.21053 6.94767 10.4727 6.94767 13.2632C6.94767 16.0536 9.20982 18.3158 12.0003 18.3158C14.7908 18.3158 17.053 16.0536 17.053 13.2632C17.053 10.4727 14.7908 8.21053 12.0003 8.21053ZM12.0003 10.1053C13.7444 10.1053 15.1582 11.5191 15.1582 13.2632C15.1582 15.0072 13.7444 16.4211 12.0003 16.4211C10.2563 16.4211 8.84241 15.0072 8.84241 13.2632C8.84241 11.5191 10.2563 10.1053 12.0003 10.1053Z"/>
</svg>
