<svg viewBox="0 0 24 24" xmlns="http://www.w3.org/2000/svg">
<path d="M20.5263 5.36842C20.5263 4.8452 20.1022 4.42105 19.579 4.42105H4.421L4.29245 4.4297C3.83004 4.49243 3.47363 4.8888 3.47363 5.36842C3.47363 5.89164 3.89779 6.31579 4.421 6.31579H19.579L19.7075 6.30714C20.1699 6.24441 20.5263 5.84804 20.5263 5.36842Z"/>
<path d="M20.5263 12C20.5263 11.4768 20.1022 11.0526 19.579 11.0526H4.421L4.29245 11.0613C3.83004 11.124 3.47363 11.5204 3.47363 12C3.47363 12.5232 3.89779 12.9474 4.421 12.9474H19.579L19.7075 12.9387C20.1699 12.876 20.5263 12.4796 20.5263 12Z"/>
<path d="M12 17.6842C12.5232 17.6842 12.9474 18.1084 12.9474 18.6316C12.9474 19.1112 12.5909 19.5076 12.1285 19.5703L12 19.5789H4.421C3.89779 19.5789 3.47363 19.1548 3.47363 18.6316C3.47363 18.152 3.83004 17.7556 4.29245 17.6929L4.421 17.6842H12Z"/>
<path d="M18.9656 20.7917C19.2888 20.9606 19.6574 20.6808 19.6051 20.3145L19.4149 19.0358C19.4051 18.9531 19.4051 18.8938 19.4128 18.8616C19.4198 18.8326 19.4466 18.7858 19.4945 18.7259L20.4001 17.757C20.6488 17.493 20.5095 17.046 20.1552 16.9846L18.8509 16.7581C18.7815 16.7462 18.7211 16.7004 18.6878 16.6334L18.0788 15.407C17.9138 15.0749 17.4545 15.0749 17.2891 15.4069L16.6803 16.6335C16.6471 16.7003 16.5865 16.7462 16.5175 16.758L15.2129 16.9846C14.8584 17.046 14.7193 17.493 14.9683 17.7573L15.8965 18.7414C15.9474 18.7952 15.9713 18.8722 15.9605 18.9486L15.7631 20.3144C15.7103 20.6807 16.079 20.9605 16.4025 20.7917L17.5852 20.1734C17.6476 20.1408 17.7206 20.1408 17.783 20.1734L18.9656 20.7917Z"/>
</svg>
