<svg viewBox="0 0 24 24" xmlns="http://www.w3.org/2000/svg">
<path d="M12.3588 9.62678C12.212 9.32948 11.7881 9.32948 11.6414 9.62678L10.8441 11.2423C10.7858 11.3603 10.6732 11.4421 10.5429 11.4611L8.76015 11.7201C8.43207 11.7678 8.30106 12.171 8.53847 12.4024L9.8285 13.6599C9.92277 13.7518 9.96579 13.8842 9.94354 14.0139L9.639 15.7895C9.58296 16.1162 9.92593 16.3654 10.2194 16.2112L11.8139 15.3728C11.9305 15.3116 12.0697 15.3116 12.1862 15.3728L13.7808 16.2112C14.0742 16.3654 14.4172 16.1162 14.3612 15.7895L14.0566 14.0139C14.0344 13.8842 14.0774 13.7518 14.1717 13.6599L15.4617 12.4024C15.6991 12.171 15.5681 11.7678 15.24 11.7201L13.4572 11.4611C13.3269 11.4421 13.2143 11.3603 13.1561 11.2423L12.3588 9.62678Z"/>
<path fill-rule="evenodd" clip-rule="evenodd" d="M3.48642 4C2.72675 4 2.1001 4.62665 2.1001 5.38632V18.5657C2.1001 19.3253 2.72675 19.952 3.48642 19.952H20.5138C21.2734 19.952 21.9001 19.3253 21.9001 18.5657V7.46778C21.9001 6.70811 21.2734 6.08146 20.5138 6.08146H11.7981C11.7715 6.08146 11.7459 6.07086 11.7272 6.052L10.2418 4.55965C9.88522 4.2014 9.4006 4 8.89515 4H3.48642ZM3.9001 18.152V5.8H8.89515C8.92175 5.8 8.94726 5.8106 8.96603 5.82946L10.4514 7.32181C10.808 7.68006 11.2926 7.88146 11.7981 7.88146H20.1001V18.152H3.9001Z"/>
</svg>
