<svg viewBox="0 0 24 24" xmlns="http://www.w3.org/2000/svg">
<path d="M1 18C1.15 16.2167 1.69583 14.575 2.6375 13.075C3.57916 11.575 4.83333 10.3833 6.4 9.50001L4.55 6.30001C4.45 6.15001 4.425 5.99168 4.475 5.82501C4.525 5.65835 4.63333 5.53335 4.8 5.45001C4.93333 5.36668 5.08333 5.35001 5.25 5.40001C5.41666 5.45001 5.55 5.55001 5.65 5.70001L7.49999 8.90001C8.93333 8.30001 10.4333 8.00001 12 8.00001C13.5667 8.00001 15.0667 8.30001 16.5 8.90001L18.35 5.70001C18.45 5.55001 18.5833 5.45001 18.75 5.40001C18.9167 5.35001 19.0667 5.36668 19.2 5.45001C19.3666 5.53335 19.475 5.65835 19.525 5.82501C19.575 5.99168 19.55 6.15001 19.45 6.30001L17.6 9.50001C19.1667 10.3833 20.4208 11.575 21.3625 13.075C22.3041 14.575 22.85 16.2167 23 18H1ZM6.99999 15.25C7.34999 15.25 7.64583 15.1292 7.88749 14.8875C8.12916 14.6458 8.24999 14.35 8.24999 14C8.24999 13.65 8.12916 13.3542 7.88749 13.1125C7.64583 12.8708 7.34999 12.75 6.99999 12.75C6.64999 12.75 6.35416 12.8708 6.1125 13.1125C5.87083 13.3542 5.75 13.65 5.75 14C5.75 14.35 5.87083 14.6458 6.1125 14.8875C6.35416 15.1292 6.64999 15.25 6.99999 15.25ZM17 15.25C17.35 15.25 17.6458 15.1292 17.8875 14.8875C18.1292 14.6458 18.25 14.35 18.25 14C18.25 13.65 18.1292 13.3542 17.8875 13.1125C17.6458 12.8708 17.35 12.75 17 12.75C16.65 12.75 16.3542 12.8708 16.1125 13.1125C15.8708 13.3542 15.75 13.65 15.75 14C15.75 14.35 15.8708 14.6458 16.1125 14.8875C16.3542 15.1292 16.65 15.25 17 15.25Z"/>
</svg>
