<svg viewBox="0 0 24 24" xmlns="http://www.w3.org/2000/svg">
<path fill-rule="evenodd" clip-rule="evenodd" d="M19.5794 8.27802C19.5794 5.1225 15.9798 2.14735 12.0004 2.14735C7.77384 2.14735 4.42146 5.34449 4.42146 9.49762V13.3089L4.4124 13.6221C4.3702 14.3445 4.18077 15.0147 3.85076 15.772L3.4064 16.7379C3.21608 17.1678 3.12231 17.468 3.12231 17.8041L3.12927 17.9739C3.21252 18.9565 4.03838 19.2871 5.36883 19.2871L8.30633 19.2859L8.36135 19.5199C8.8086 21.1827 10.2112 22.2316 12.0004 22.2316C14.1827 22.2316 15.7899 20.6713 15.7899 18.3397L15.7813 18.2112C15.7185 17.7488 15.3222 17.3924 14.8425 17.3924H5.36883L5.19138 17.3886L5.35573 17.0376L5.58775 16.529C6.06041 15.4443 6.3162 14.4507 6.3162 13.3089V9.49762L6.3226 9.22722C6.46297 6.27421 8.89482 4.04208 12.0004 4.04208C15.0047 4.04208 17.6847 6.25719 17.6847 8.27802C17.6847 8.80123 18.1088 9.22539 18.632 9.22539C19.1553 9.22539 19.5794 8.80123 19.5794 8.27802ZM10.2781 19.2859H13.7215L13.6591 19.423C13.3529 20.0147 12.7659 20.3368 12.0004 20.3368L11.8128 20.3301C11.1391 20.2813 10.6225 19.9654 10.3418 19.423L10.2781 19.2859Z"/>
<path d="M19.8592 11.3684C20.3388 11.3684 20.7352 11.7248 20.7979 12.1872L20.8066 12.3158V14.021H22.5119C23.0351 14.021 23.4592 14.4452 23.4592 14.9684C23.4592 15.448 23.1028 15.8444 22.6404 15.9071L22.5119 15.9158H20.8066V17.621C20.8066 18.1442 20.3824 18.5684 19.8592 18.5684C19.3796 18.5684 18.9832 18.212 18.9205 17.7496L18.9118 17.621V15.9158H17.2066C16.6834 15.9158 16.2592 15.4916 16.2592 14.9684C16.2592 14.4888 16.6156 14.0924 17.078 14.0297L17.2066 14.021H18.9118V12.3158C18.9118 11.7925 19.336 11.3684 19.8592 11.3684Z"/>
</svg>
