<svg viewBox="0 0 24 24" xmlns="http://www.w3.org/2000/svg">
<path fill-rule="evenodd" d="M9.09945 20.1h5.80005v1.8H9.09945v-1.8ZM18.8999 9.4998v-1.7h1.6v1.7h1.7v1.6h-1.7v1.7h-1.6v-1.7h-1.7v-1.6h1.7Z" clip-rule="evenodd"/>
<path fill-rule="evenodd" d="M6.6493 10.2501c0-2.08486.52726-3.66711 1.41213-4.71315.86751-1.02553 2.16307-1.63685 3.93787-1.63685 1.7748 0 3.0704.61132 3.9379 1.63685.3444.40715.6346.89554.8607 1.46319h1.9054c-.3044-1.00033-.7664-1.88636-1.3919-2.62571-1.2575-1.48654-3.0868-2.27433-5.3121-2.27433-2.22523 0-4.05463.78779-5.31212 2.27433C5.44704 5.84045 4.8493 7.88322 4.8493 10.2501v.75c0 2.4652-.68323 3.9248-1.65635 4.8682-.38155.3698-.42115.8816-.28476 1.2582.1387.3829.5188.7736 1.09067.7736H19.9998c.5718 0 .9519-.3907 1.0906-.7736.1364-.3766.0968-.8884-.2847-1.2582-.4876-.4726-.9023-1.0748-1.1949-1.8681h-1.8895c.2224.7967.5411 1.4929.9467 2.0999H5.33059c.85057-1.2728 1.31872-2.9372 1.31872-5.1l-.00001-.75Z" clip-rule="evenodd"/>
</svg>
