<svg viewBox="0 0 24 24" xmlns="http://www.w3.org/2000/svg">
<path d="M10.8337 18.6304C9.2504 19.5705 8.45876 20.0405 7.80789 19.9777C7.24031 19.923 6.72308 19.6285 6.38622 19.1684C5.99994 18.6408 5.99994 17.7202 5.99994 15.8789V8.12198C5.99994 6.28067 5.99994 5.36001 6.38622 4.83241C6.72308 4.37232 7.24031 4.07789 7.80789 4.02314C8.45876 3.96035 9.2504 4.43038 10.8337 5.37045L17.3658 9.24889C18.8922 10.1552 19.6554 10.6084 19.9136 11.1959C20.1388 11.7086 20.1388 12.2923 19.9136 12.805C19.6554 13.3925 18.8922 13.8457 17.3658 14.752L10.8337 18.6304Z"/>
</svg>
