<svg viewBox="0 0 24 24" xmlns="http://www.w3.org/2000/svg">
<path fill-rule="evenodd" clip-rule="evenodd" d="M2.60046 4.49998C2.60046 4.00292 3.00341 3.59998 3.50046 3.59998H12.2116C12.7086 3.59998 13.1116 4.00292 13.1116 4.49998C13.1116 4.99703 12.7086 5.39998 12.2116 5.39998H4.40046V19.6H18.6005V11.7889C18.6005 11.2918 19.0034 10.8889 19.5005 10.8889C19.9975 10.8889 20.4005 11.2918 20.4005 11.7889V20.5C20.4005 20.997 19.9975 21.4 19.5005 21.4H3.50046C3.00341 21.4 2.60046 20.997 2.60046 20.5V4.49998Z" fill="#171717"/>
<path fill-rule="evenodd" clip-rule="evenodd" d="M2.60046 4.49998C2.60046 4.00292 3.00341 3.59998 3.50046 3.59998H12.2116C12.7086 3.59998 13.1116 4.00292 13.1116 4.49998C13.1116 4.99703 12.7086 5.39998 12.2116 5.39998H4.40046V19.6H18.6005V11.7889C18.6005 11.2918 19.0034 10.8889 19.5005 10.8889C19.9975 10.8889 20.4005 11.2918 20.4005 11.7889V20.5C20.4005 20.997 19.9975 21.4 19.5005 21.4H3.50046C3.00341 21.4 2.60046 20.997 2.60046 20.5V4.49998Z" fill="#171717"/>
<path d="M15.5005 2.59998C15.0034 2.59998 14.6005 3.00292 14.6005 3.49998C14.6005 3.99703 15.0034 4.39998 15.5005 4.39998H18.3277L12.8641 9.86358C12.5126 10.2151 12.5126 10.7849 12.8641 11.1364C13.2155 11.4878 13.7854 11.4878 14.1369 11.1364L19.6005 5.67277V8.49998C19.6005 8.99703 20.0034 9.39998 20.5005 9.39998C20.9975 9.39998 21.4005 8.99703 21.4005 8.49998V3.49998C21.4005 3.00292 20.9975 2.59998 20.5005 2.59998H15.5005Z" fill="#171717"/>
</svg>
