<svg viewBox="0 0 24 24" xmlns="http://www.w3.org/2000/svg">
<path d="M10.1641 3.40089L8.12338 7.33573C8.09844 7.38372 8.05189 7.41751 7.99929 7.42612L3.62571 8.15301C1.97256 8.42697 1.3148 10.4505 2.49025 11.6447L5.60127 14.8015C5.63967 14.8404 5.65763 14.8958 5.64932 14.9517L4.98823 19.3311C4.73855 20.9887 6.45967 22.239 7.959 21.4902L11.923 19.5067C11.9715 19.4825 12.0289 19.4825 12.0777 19.5069L16.0407 21.4899C17.5393 22.2392 19.26 20.9892 19.0124 19.3324L18.3737 15.2224L18.3575 15.0433L18.3549 14.9328C18.3553 14.9215 18.3559 14.914 18.3567 14.9108L18.5088 14.7152L21.5129 11.6419C22.6854 10.4507 22.027 8.42714 20.3744 8.15296L16.0033 7.42649C15.9479 7.41744 15.9022 7.38422 15.8767 7.33516L13.8357 3.40173C13.064 1.91465 10.9372 1.91465 10.1641 3.40089Z"/>
</svg>
