<svg viewBox="0 0 24 24" xmlns="http://www.w3.org/2000/svg">
<path fill-rule="evenodd" clip-rule="evenodd" d="M10.9013 2.37858C11.0906 2.14198 11.4417 1.79333 11.9997 1.79333C12.5577 1.79333 12.9088 2.14198 13.0981 2.37858C13.2727 2.59679 13.4463 2.89512 13.615 3.1849C13.6238 3.20013 13.6327 3.21534 13.6415 3.23051L15.9501 7.19406C15.9581 7.20783 15.9654 7.22045 15.9723 7.23213C15.9855 7.235 15.9997 7.2381 16.0153 7.24147L20.4983 8.21223C20.5154 8.21595 20.5326 8.21967 20.5498 8.22339C20.8776 8.29424 21.2149 8.36718 21.4764 8.4658C21.76 8.57274 22.2 8.79892 22.3724 9.32958C22.5449 9.86024 22.3218 10.3019 22.1553 10.5551C22.0017 10.7885 21.7716 11.0459 21.5481 11.2958C21.5364 11.3089 21.5247 11.3221 21.513 11.3351L18.4568 14.7555C18.4462 14.7674 18.4364 14.7783 18.4274 14.7884C18.4288 14.8018 18.4303 14.8164 18.4319 14.8322L18.8939 19.3957C18.8957 19.4132 18.8975 19.4307 18.8992 19.4482C18.9331 19.7818 18.968 20.1252 18.955 20.4044C18.9409 20.7071 18.8618 21.1955 18.4104 21.5235C17.959 21.8514 17.47 21.7758 17.1778 21.6956C16.9083 21.6217 16.5925 21.4824 16.2857 21.3471C16.2696 21.34 16.2535 21.3329 16.2374 21.3258L12.04 19.4762C12.0254 19.4697 12.0121 19.4639 11.9997 19.4584C11.9873 19.4639 11.9739 19.4697 11.9594 19.4762L7.76199 21.3258C7.74591 21.3329 7.72981 21.34 7.71368 21.3471C7.40691 21.4824 7.0911 21.6217 6.8216 21.6956C6.52936 21.7758 6.04039 21.8514 5.58898 21.5235C5.13757 21.1955 5.05846 20.7071 5.04437 20.4044C5.03137 20.1252 5.06626 19.7818 5.10015 19.4483C5.10193 19.4307 5.10371 19.4132 5.10548 19.3957L5.56753 14.8322C5.56914 14.8164 5.5706 14.8018 5.57195 14.7884C5.56295 14.7783 5.55322 14.7674 5.54261 14.7555L2.48643 11.3351C2.47473 11.3221 2.46301 11.3089 2.45127 11.2958C2.22778 11.0459 1.9977 10.7885 1.84413 10.5551C1.6776 10.3019 1.45452 9.86024 1.62694 9.32958C1.79936 8.79892 2.23944 8.57274 2.52297 8.4658C2.78445 8.36718 3.12183 8.29424 3.44955 8.22339C3.46677 8.21967 3.48397 8.21595 3.50113 8.21223L7.98407 7.24147C7.99964 7.2381 8.01392 7.235 8.02713 7.23213C8.03395 7.22045 8.04131 7.20783 8.04932 7.19406L10.3579 3.23051C10.3667 3.21534 10.3756 3.20014 10.3844 3.18491C10.5531 2.89513 10.7267 2.59679 10.9013 2.37858Z"/>
</svg>
