<svg viewBox="0 0 24 24" xmlns="http://www.w3.org/2000/svg">
<path d="M1.49446 7.37357C1.03489 7.62366 0.865075 8.19897 1.11517 8.65854L3.17999 12.4528L3.25373 12.568C3.44662 12.8264 3.75318 12.9618 4.06088 12.9463C4.07554 12.947 4.09028 12.9473 4.10511 12.9473C4.4122 12.9473 4.68517 12.8012 4.85828 12.5747L8.27704 10.2983L8.38787 10.2121C8.73062 9.90261 8.80414 9.38056 8.54052 8.98465L8.45438 8.87381C8.14486 8.53107 7.62281 8.45754 7.22689 8.72117L5.35446 9.96761C6.22357 7.12223 8.87002 5.05258 11.9999 5.05258C15.8368 5.05258 18.9473 8.16302 18.9473 12C18.9473 13.8688 18.2078 15.6177 16.9127 16.9128C15.6176 18.2078 13.8688 18.9473 11.9999 18.9473C10.1321 18.9473 8.3831 18.2078 7.08678 16.9125C6.71666 16.5427 6.11682 16.5429 5.74699 16.913C5.37716 17.2831 5.3774 17.883 5.74752 18.2528C7.39557 19.8996 9.62457 20.8421 11.9999 20.8421C14.3764 20.8421 16.6056 19.8995 18.2525 18.2525C19.8994 16.6056 20.842 14.3764 20.842 12C20.842 7.11658 16.8833 3.15785 11.9999 3.15785C8.07674 3.15785 4.75036 5.71278 3.59388 9.24952L2.77944 7.75286L2.7104 7.64407C2.43426 7.2679 1.91574 7.14431 1.49446 7.37357Z"/>
<path fill-rule="evenodd" clip-rule="evenodd" d="M12.0001 8.08139C12.5233 8.08139 12.9475 8.50554 12.9475 9.02876V12.5098C12.9475 13.033 12.5233 13.4571 12.0001 13.4571C11.4769 13.4571 11.0527 13.033 11.0527 12.5098V9.02876C11.0527 8.50554 11.4769 8.08139 12.0001 8.08139Z"/>
<path fill-rule="evenodd" clip-rule="evenodd" d="M11.33 11.8399C11.7 11.4699 12.2999 11.4699 12.6698 11.8399L15.1313 14.3013C15.5013 14.6713 15.5013 15.2711 15.1313 15.6411C14.7613 16.0111 14.1615 16.0111 13.7915 15.6411L11.33 13.1796C10.9601 12.8097 10.9601 12.2098 11.33 11.8399Z"/>
</svg>
