<svg viewBox="0 0 24 24" xmlns="http://www.w3.org/2000/svg">
<path d="M10.6 7.5H12.4V12.6441L15.1566 15.5844L13.8434 16.8155L10.6 13.3559V7.5Z"/>
<path d="M12 2C11.6698 2 11.343 2.01604 11.0205 2.04742L11.1966 3.85706C11.4607 3.83136 11.7287 3.81818 12 3.81818C12.0773 3.81818 12.1543 3.81925 12.2311 3.82137C14.255 3.8775 16.0953 4.66867 17.4945 5.93747C17.7368 6.15728 17.966 6.39141 18.1805 6.63852C19.3654 8.00323 20.1058 9.76424 20.1763 11.6962C20.18 11.797 20.1818 11.8983 20.1818 12C20.1818 12.1141 20.1795 12.2276 20.1749 12.3405C20.0938 14.3214 19.3084 16.1206 18.0625 17.4945C17.8427 17.7368 17.6086 17.966 17.3615 18.1805C15.9968 19.3654 14.2358 20.1058 12.3038 20.1763C12.203 20.18 12.1017 20.1818 12 20.1818C11.8859 20.1818 11.7724 20.1795 11.6595 20.1749C9.67865 20.0938 7.87943 19.3084 6.50555 18.0625C6.3021 17.878 6.10797 17.6834 5.92395 17.4795C4.65717 16.0757 3.86999 14.2307 3.82064 12.2029C3.81901 12.1355 3.81818 12.0678 3.81818 12C3.81818 11.7287 3.83136 11.4607 3.85706 11.1966L2.04742 11.0205C2.01604 11.343 2 11.6698 2 12C2 14.4968 2.91505 16.7798 4.42806 18.5321C4.74224 18.896 5.0822 19.237 5.44513 19.5523C7.11369 21.0017 9.26727 21.9073 11.63 21.9933C11.7528 21.9977 11.8762 22 12 22C12.1385 22 12.2764 21.9972 12.4136 21.9916C14.8359 21.893 17.036 20.9329 18.7159 19.4094C19.0145 19.1386 19.2966 18.8499 19.5606 18.5452C21.0052 16.878 21.9075 14.7282 21.9933 12.37C21.9977 12.2472 22 12.1238 22 12C22 11.8615 21.9972 11.7236 21.9916 11.5864C21.8966 9.25148 21.001 7.12293 19.5719 5.46787C19.251 5.09619 18.9032 4.74841 18.5315 4.42754C16.7793 2.91484 14.4965 2 12 2Z"/>
<path d="M9.09656 2.42827C8.46362 2.62003 7.85734 2.87276 7.28458 3.17954L8.14305 4.7823C8.61139 4.53144 9.10681 4.32496 9.62375 4.16834L9.09656 2.42827Z"/>
<path d="M5.65558 4.26995C5.14978 4.68553 4.68553 5.14978 4.26995 5.65558L5.67478 6.80981C6.01518 6.3955 6.3955 6.01518 6.80982 5.67478L5.65558 4.26995Z"/>
<path d="M3.17954 7.28458C2.87276 7.85734 2.62003 8.46362 2.42827 9.09656L4.16834 9.62375C4.32496 9.10681 4.53144 8.61139 4.7823 8.14305L3.17954 7.28458Z"/>
</svg>
