<svg viewBox="0 0 24 24" xmlns="http://www.w3.org/2000/svg">
<path d="M15.0907 2.08073C14.5786 1.69761 13.8166 1.92755 13.6209 2.56353L12.427 6.44214L10.2569 8.61224L5.14897 9.81467L5.01902 9.85479C4.39743 10.0953 4.20385 10.9148 4.69607 11.4069L7.9753 14.685L2.17225 20.488L2.08053 20.5943C1.80534 20.9652 1.83592 21.4915 2.17225 21.8278C2.54223 22.1978 3.14207 22.1978 3.51204 21.8278L9.31531 16.0246L12.5935 19.3016L12.6934 19.3891C13.2453 19.8096 14.0785 19.5027 14.1977 18.7874L14.5135 16.8926L14.5261 16.7644C14.5403 16.298 14.2079 15.8812 13.7348 15.8024L13.6066 15.7898C13.1401 15.7756 12.7234 16.108 12.6445 16.5811L12.6317 16.6598L7.23922 11.2687L10.9538 10.3959L11.0794 10.357C11.2018 10.3096 11.3134 10.2371 11.4068 10.1436L13.9331 7.61729L14.0327 7.50011C14.0924 7.41699 14.1384 7.32447 14.1687 7.22601L14.9736 4.60677L19.4793 9.02403L16.7822 9.82896L16.6718 9.86946C16.5644 9.91664 16.4663 9.98352 16.3828 10.067L13.8565 12.5933L13.7648 12.6996C13.4896 13.0704 13.5202 13.5967 13.8565 13.9331L13.9628 14.0248C14.3336 14.3 14.86 14.2694 15.1963 13.9331L17.5529 11.5756L21.5623 10.3816L21.6863 10.3354C22.2782 10.0678 22.4381 9.27086 21.9549 8.79717L15.1896 2.16559L15.0907 2.08073Z"/>
</svg>
