<svg viewBox="0 0 24 24" xmlns="http://www.w3.org/2000/svg">
<path fill-rule="evenodd" clip-rule="evenodd" d="M14.3293 4.65868C14.842 5.18461 15.1667 5.96852 15.1667 6.98114C15.1667 7.94108 14.9423 8.56524 14.6631 9.02507C14.3916 9.47234 14.5341 10.055 14.9814 10.3265C15.4286 10.598 16.0113 10.4555 16.2828 10.0083C16.7506 9.23765 17.0614 8.27058 17.0614 6.98114C17.0614 5.55582 16.5967 4.27021 15.6861 3.33612C14.7723 2.39859 13.4866 1.89474 12.0001 1.89474C10.5169 1.89474 9.2274 2.39162 8.30784 3.32577C7.39048 4.25768 6.91987 5.54479 6.91987 6.98114C6.91987 8.02661 7.1015 8.84453 7.43714 9.54297C7.76759 10.2306 8.22002 10.7419 8.64762 11.1893C9.09423 11.6566 9.24077 11.8208 9.32937 11.9998C9.40071 12.144 9.46483 12.3687 9.47385 12.9988C9.47774 13.2705 9.26513 13.6653 8.41202 14.0306C6.8207 14.4454 5.2617 15.0274 4.07384 15.8279C2.87489 16.6359 1.89478 17.784 1.89478 19.3263V20.059C1.89478 20.6577 2.23886 21.1596 2.5404 21.4607C2.84206 21.762 3.34313 22.1039 3.93898 22.1053L3.9411 22.1053H20.0591C20.6565 22.1053 21.1585 21.7622 21.46 21.4609C21.7615 21.1596 22.1054 20.6575 22.1054 20.059V19.3263C22.1054 18.8031 21.6812 18.379 21.158 18.379C20.6348 18.379 20.2106 18.8031 20.2106 19.3263V20.005C20.1948 20.0341 20.165 20.0764 20.1207 20.1206C20.0765 20.1648 20.034 20.1947 20.0049 20.2105H3.99611C3.96666 20.1946 3.9238 20.1645 3.87921 20.12C3.83506 20.0759 3.80532 20.0337 3.78952 20.0048V19.3263C3.78952 18.6881 4.17861 18.0421 5.13269 17.3992C6.08106 16.7601 7.43155 16.2396 8.95215 15.848C8.99478 15.837 9.0366 15.823 9.0773 15.8062C10.1498 15.3636 11.39 14.4844 11.3684 12.9717C11.3582 12.2591 11.2898 11.6895 11.0276 11.1595C10.7974 10.6944 10.4409 10.3222 10.086 9.9518L10.0174 9.88021C9.62141 9.46584 9.34121 9.13076 9.14493 8.7223C8.95383 8.32463 8.81462 7.79665 8.81462 6.98114C8.81462 5.96082 9.14285 5.17842 9.65812 4.65497C10.1712 4.13378 10.9481 3.78948 12.0001 3.78948C13.0487 3.78948 13.82 4.13618 14.3293 4.65868ZM3.77977 19.9843L3.78083 19.9871L3.77977 19.9843ZM20.2203 19.9845L20.2193 19.9874L20.2198 19.986L20.2203 19.9845Z"/>
<path d="M18.3159 11.0526C18.8391 11.0526 19.2633 11.4768 19.2633 12V13.579H20.8422C21.3654 13.579 21.7896 14.0031 21.7896 14.5263C21.7896 15.0495 21.3654 15.4737 20.8422 15.4737H19.2633V17.0526C19.2633 17.5759 18.8391 18 18.3159 18C17.7927 18 17.3685 17.5759 17.3685 17.0526V15.4737H15.7896C15.2663 15.4737 14.8422 15.0495 14.8422 14.5263C14.8422 14.0031 15.2663 13.579 15.7896 13.579H17.3685V12C17.3685 11.4768 17.7927 11.0526 18.3159 11.0526Z"/>
</svg>
