<svg viewBox="0 0 24 24" xmlns="http://www.w3.org/2000/svg">
<path fill-rule="evenodd" clip-rule="evenodd" d="M12.7614 13.0224C15.8046 13.2132 18.648 14.2005 20.4546 15.4819C20.4644 15.4888 20.4744 15.4958 20.4845 15.503C20.6361 15.6101 20.8207 15.7405 20.992 15.9577C21.1333 16.1369 21.2584 16.379 21.3228 16.5979C21.4014 16.8649 21.4007 17.1211 21.4001 17.3332C21.4001 17.3505 21.4001 17.3676 21.4001 17.3843L21.4001 18.9298C21.4001 19.1841 21.4001 19.4262 21.3834 19.6301C21.3653 19.8525 21.3229 20.1076 21.193 20.3626C21.0108 20.7201 20.7201 21.0108 20.3626 21.1929C20.1077 21.3229 19.8525 21.3652 19.6301 21.3834C19.4262 21.4001 19.1841 21.4001 18.9298 21.4H5.07029C4.81597 21.4001 4.57393 21.4001 4.36997 21.3834C4.14756 21.3652 3.89245 21.3229 3.63747 21.1929C3.27996 21.0108 2.9893 20.7201 2.80714 20.3626C2.67722 20.1076 2.63484 19.8525 2.61667 19.6301C2.6 19.4262 2.60003 19.1841 2.60005 18.9298C2.60005 18.9199 2.60005 18.91 2.60005 18.9V17.4069C2.60005 17.389 2.6 17.3708 2.59996 17.3523C2.59938 17.1345 2.59869 16.8733 2.67498 16.6098C2.73881 16.3893 2.85586 16.1586 2.99614 15.9769C3.16326 15.7605 3.35831 15.6185 3.51878 15.5017C3.53111 15.4928 3.54323 15.4839 3.55512 15.4752C6.34272 13.4362 9.70674 12.831 12.7614 13.0224ZM12.6489 14.8189C9.89024 14.646 6.97764 15.2019 4.61781 16.9281C4.56793 16.9645 4.53058 16.9919 4.49845 17.016C4.46676 17.0399 4.44707 17.0554 4.43375 17.0665C4.4273 17.0719 4.42312 17.0756 4.42063 17.0779C4.41825 17.0818 4.41522 17.0871 4.41202 17.0934C4.40936 17.0986 4.40718 17.1034 4.40552 17.1073C4.40496 17.1126 4.40421 17.1212 4.40349 17.1337C4.40039 17.1874 4.40005 17.2603 4.40005 17.4069V18.9C4.40005 19.1949 4.40075 19.3619 4.41069 19.4835C4.41382 19.5219 4.41732 19.5461 4.4197 19.5596C4.42557 19.5675 4.4326 19.5745 4.44053 19.5804C4.45401 19.5828 4.47816 19.5863 4.51654 19.5894C4.63815 19.5993 4.80518 19.6 5.10005 19.6H18.9001C19.1949 19.6 19.362 19.5993 19.4836 19.5894C19.5219 19.5863 19.5461 19.5828 19.5596 19.5804C19.5675 19.5745 19.5745 19.5675 19.5804 19.5596C19.5828 19.5461 19.5863 19.5219 19.5894 19.4835C19.5994 19.3619 19.6001 19.1949 19.6001 18.9V17.3843C19.6001 17.2428 19.5997 17.1757 19.5967 17.1264C19.5961 17.117 19.5955 17.1102 19.595 17.1056C19.593 17.1011 19.5903 17.0954 19.5871 17.0892C19.583 17.0813 19.5792 17.0747 19.5763 17.07C19.5763 17.07 19.5728 17.0669 19.5698 17.0645C19.5605 17.0568 19.5453 17.045 19.5184 17.0253C19.4908 17.0051 19.4585 16.9821 19.4133 16.9501C17.9257 15.8949 15.419 14.9925 12.6489 14.8189Z"/>
<path fill-rule="evenodd" clip-rule="evenodd" d="M12.0001 4.40001C10.4107 4.40001 9.12228 5.68843 9.12228 7.27778C9.12228 8.86714 10.4107 10.1556 12.0001 10.1556C13.5894 10.1556 14.8778 8.86714 14.8778 7.27778C14.8778 5.68843 13.5894 4.40001 12.0001 4.40001ZM7.32228 7.27778C7.32228 4.69432 9.41659 2.60001 12.0001 2.60001C14.5835 2.60001 16.6778 4.69432 16.6778 7.27778C16.6778 9.86125 14.5835 11.9556 12.0001 11.9556C9.41659 11.9556 7.32228 9.86125 7.32228 7.27778Z"/>
<path fill-rule="evenodd" clip-rule="evenodd" d="M19.2001 10.2V8.50001H20.8001V10.2H22.5001V11.8H20.8001V13.5H19.2001V11.8H17.5001V10.2H19.2001Z"/>
</svg>
