<svg viewBox="0 0 24 24" xmlns="http://www.w3.org/2000/svg">
<path d="M12.5307 2.77322C12.2145 2.54223 11.7852 2.54223 11.469 2.77322L3.46899 8.61697C3.23701 8.78642 3.09986 9.05645 3.09986 9.34373L3.09986 18.5507C3.09979 18.9781 3.09972 19.3841 3.1445 19.7172C3.19453 20.0893 3.31482 20.5019 3.65636 20.8435C3.9979 21.185 4.41056 21.3053 4.78267 21.3553C5.11573 21.4001 5.5217 21.4 5.9491 21.4H11.0999V14H12.8999V21.4H18.0506C18.478 21.4 18.884 21.4001 19.2171 21.3553C19.5892 21.3053 20.0018 21.185 20.3434 20.8435C20.6849 20.5019 20.8052 20.0893 20.8552 19.7172C20.9 19.3841 20.8999 18.9781 20.8999 18.5507L20.8999 9.34373C20.8999 9.05645 20.7627 8.78642 20.5307 8.61697L12.5307 2.77322Z"/>
</svg>
