<svg viewBox="0 0 24 24" xmlns="http://www.w3.org/2000/svg">
<path fill-rule="evenodd" clip-rule="evenodd" d="M12.0001 2.1001C6.53248 2.1001 2.1001 6.53248 2.1001 12.0001C2.1001 17.4677 6.53248 21.9001 12.0001 21.9001C17.4677 21.9001 21.9001 17.4677 21.9001 12.0001C21.9001 6.53248 17.4677 2.1001 12.0001 2.1001ZM3.9001 12.0001C3.9001 7.52659 7.52659 3.9001 12.0001 3.9001C13.9126 3.9001 15.6703 4.56292 17.056 5.67139L5.67139 17.056C4.56292 15.6703 3.9001 13.9126 3.9001 12.0001ZM6.94418 18.3288C8.32988 19.4373 10.0876 20.1001 12.0001 20.1001C16.4736 20.1001 20.1001 16.4736 20.1001 12.0001C20.1001 10.0876 19.4373 8.32988 18.3288 6.94418L6.94418 18.3288Z"/>
</svg>
