<svg viewBox="0 0 24 24" xmlns="http://www.w3.org/2000/svg">
<path fill-rule="evenodd" clip-rule="evenodd" d="M15.7457 2.61671C13.2773 1.63144 10.5152 1.64563 8.02165 2.71319C2.89285 4.90995 0.516887 10.8491 2.71388 15.9784C3.19775 17.1089 3.87488 18.1273 4.71288 19.0008C4.81822 19.1106 4.94846 19.1935 5.09258 19.2423L5.28607 19.3078L5.41516 19.3417C5.71888 19.3987 6.03505 19.3041 6.25813 19.0822L18.4642 6.9398L18.4906 6.97072C18.9131 7.51676 19.268 8.11881 19.5461 8.76796C20.4147 10.7964 20.425 13.0405 19.6217 15.0492C18.8177 17.0582 17.262 18.6756 15.2332 19.5443C13.2026 20.4143 10.9597 20.4248 8.95133 19.6202C8.46564 19.4256 7.91417 19.6616 7.71958 20.1473C7.52498 20.633 7.76096 21.1844 8.24665 21.379C10.7173 22.3689 13.4821 22.3559 15.9792 21.286C18.4746 20.2175 20.392 18.2241 21.3809 15.7529C22.3689 13.2824 22.3562 10.517 21.2878 8.02196C20.7408 6.74533 19.9505 5.61408 18.9636 4.67652C18.0312 3.79097 16.9377 3.09241 15.7457 2.61671ZM8.76752 4.45494C10.795 3.58692 13.0364 3.5754 15.0433 4.37647L15.4029 4.52995C15.9957 4.7997 16.5545 5.13871 17.0669 5.53973L17.1315 5.59327L5.56602 17.0981L5.52915 17.0525C5.09769 16.4991 4.73684 15.8895 4.45568 15.2326C2.67054 11.0649 4.60091 6.23958 8.76752 4.45494Z"/>
</svg>
