<svg viewBox="0 0 24 24" xmlns="http://www.w3.org/2000/svg">
<path fill-rule="evenodd" clip-rule="evenodd" d="M17.1955 9.74906H15.5584C14.9445 11.4202 14.1146 12.8072 13.0687 13.944C14.2397 14.8421 15.6721 15.5128 17.4001 15.8994C17.0704 16.2291 16.6384 16.8657 16.4338 17.2522C14.6035 16.7861 13.1256 16.0244 11.9319 15.0126C10.6927 16.0017 9.22617 16.7406 7.49817 17.2863C7.33901 16.9339 6.91837 16.2973 6.64553 15.9676C8.32806 15.5242 9.74912 14.8762 10.8973 14.0008C9.87417 12.8299 9.08975 11.4089 8.47585 9.74906H6.85016V8.43032H11.3066V6.63411H12.6822V8.43032H17.1955V9.74906ZM13.9668 9.74906H9.98786C10.4653 10.9769 11.1361 12.0682 12.0114 12.9891C12.83 12.1023 13.478 11.0223 13.9668 9.74906Z"/>
<path fill-rule="evenodd" clip-rule="evenodd" d="M18.8685 1.89474H5.13163C3.34462 1.89474 1.89478 3.34458 1.89478 5.13159V18.8684C1.89478 20.6554 3.34462 22.1053 5.13163 22.1053H18.8685C20.6555 22.1053 22.1054 20.6554 22.1054 18.8684V5.13159C22.1054 3.34458 20.6555 1.89474 18.8685 1.89474ZM5.13163 3.78948H18.8685C19.6091 3.78948 20.2106 4.39101 20.2106 5.13159V18.8684C20.2106 19.609 19.6091 20.2105 18.8685 20.2105H5.13163C4.39105 20.2105 3.78952 19.609 3.78952 18.8684V5.13159C3.78952 4.39101 4.39105 3.78948 5.13163 3.78948Z"/>
</svg>
