<svg viewBox="0 0 24 24" xmlns="http://www.w3.org/2000/svg">
<path d="M13.4211 9.04422L13.4325 7.87327H11.0906V6.75917H9.57859V7.87327H7.25943V9.04422H13.4211Z"/>
<path fill-rule="evenodd" clip-rule="evenodd" d="M12.9096 11.4316C12.9096 12.6366 11.8409 13.4552 10.3403 13.4552C8.83964 13.4552 7.77101 12.6366 7.77101 11.4316C7.77101 10.2493 8.83964 9.41938 10.3403 9.41938C11.8409 9.41938 12.9096 10.2493 12.9096 11.4316ZM10.3403 12.3183C9.66954 12.3183 9.20344 12.0114 9.20344 11.4316C9.20344 10.8632 9.66954 10.5562 10.3403 10.5562C10.9997 10.5562 11.4771 10.8632 11.4771 11.4316C11.4771 12.0114 10.9997 12.3183 10.3403 12.3183Z"/>
<path d="M10.2493 15.8653V14.0236H8.7487V17.059H15.8767V15.8653H10.2493Z"/>
<path d="M15.5016 9.96506H16.8885V11.2042H15.5016V14.6034H14.0009V6.77053H15.5016V9.96506Z"/>
<path fill-rule="evenodd" clip-rule="evenodd" d="M18.8685 1.89474H5.13163C3.34462 1.89474 1.89478 3.34458 1.89478 5.13159V18.8684C1.89478 20.6554 3.34462 22.1053 5.13163 22.1053H18.8685C20.6555 22.1053 22.1054 20.6554 22.1054 18.8684V5.13159C22.1054 3.34458 20.6555 1.89474 18.8685 1.89474ZM5.13163 3.78948H18.8685C19.6091 3.78948 20.2106 4.39101 20.2106 5.13159V18.8684C20.2106 19.609 19.6091 20.2105 18.8685 20.2105H5.13163C4.39105 20.2105 3.78952 19.609 3.78952 18.8684V5.13159C3.78952 4.39101 4.39105 3.78948 5.13163 3.78948Z"/>
</svg>
