<svg viewBox="0 0 24 24" xmlns="http://www.w3.org/2000/svg">
<path d="M14.9892 7.6097V10.2897H16.1499V11.4299H14.9892V14.2852H13.5848V7.6097H14.9892ZM7.84986 9.59774V8.50626H9.80051V7.59995H11.205V8.50626H13.1556V9.59774H7.84986ZM8.26925 11.6053C8.26437 10.5625 9.19581 9.85599 10.5027 9.85111C11.8048 9.85599 12.7216 10.5625 12.7265 11.6053C12.7216 12.6431 11.8048 13.3351 10.5027 13.3302C9.19581 13.3351 8.26437 12.6431 8.26925 11.6053ZM9.11778 16.4V13.7687H10.5222V15.2792H15.2818V16.4H9.11778ZM9.6347 11.6053C9.6347 12.0536 9.98094 12.2728 10.5027 12.2777C11.0294 12.2728 11.3854 12.0536 11.3903 11.6053C11.3854 11.157 11.0294 10.9231 10.5027 10.9231C9.98094 10.9231 9.6347 11.157 9.6347 11.6053Z"/>
<path fill-rule="evenodd" clip-rule="evenodd" d="M9.6109 2.34998H14.3888C15.4759 2.34997 16.3466 2.34996 17.0503 2.40746C17.773 2.46651 18.3986 2.59064 18.9744 2.88404C19.8964 3.35382 20.646 4.10343 21.1158 5.02542C21.4092 5.60127 21.5333 6.22683 21.5924 6.9495C21.6499 7.65327 21.6499 8.52395 21.6499 9.61102V14.3889C21.6499 15.476 21.6499 16.3467 21.5924 17.0505C21.5333 17.7731 21.4092 18.3987 21.1158 18.9745C20.646 19.8965 19.8964 20.6461 18.9744 21.1159C18.3986 21.4093 17.773 21.5334 17.0503 21.5925C16.3466 21.65 15.4759 21.65 14.3888 21.65H9.6109C8.52383 21.65 7.65314 21.65 6.94937 21.5925C6.22671 21.5334 5.60115 21.4093 5.0253 21.1159C4.10331 20.6461 3.3537 19.8965 2.88392 18.9745C2.59051 18.3987 2.46638 17.7731 2.40734 17.0505C2.34984 16.3467 2.34985 15.476 2.34985 14.3889V9.61103C2.34985 8.52395 2.34984 7.65327 2.40734 6.94949C2.46638 6.22683 2.59051 5.60127 2.88392 5.02542C3.3537 4.10343 4.10331 3.35382 5.0253 2.88404C5.60115 2.59064 6.22671 2.46651 6.94937 2.40746C7.65315 2.34996 8.52383 2.34997 9.6109 2.34998ZM7.09595 4.20148C6.4846 4.25143 6.12229 4.34529 5.84248 4.48786C5.25918 4.78506 4.78494 5.2593 4.48773 5.84261C4.34517 6.12241 4.25131 6.48472 4.20136 7.09607C4.15055 7.71793 4.14985 8.51502 4.14985 9.64998V14.35C4.14985 15.4849 4.15055 16.282 4.20136 16.9039C4.25131 17.5152 4.34517 17.8775 4.48773 18.1573C4.78494 18.7407 5.25918 19.2149 5.84248 19.5121C6.12229 19.6547 6.4846 19.7485 7.09595 19.7985C7.71781 19.8493 8.5149 19.85 9.64985 19.85H14.3499C15.4848 19.85 16.2819 19.8493 16.9038 19.7985C17.5151 19.7485 17.8774 19.6547 18.1572 19.5121C18.7405 19.2149 19.2148 18.7407 19.512 18.1573C19.6545 17.8775 19.7484 17.5152 19.7983 16.9039C19.8492 16.282 19.8499 15.4849 19.8499 14.35V9.64998C19.8499 8.51502 19.8492 7.71793 19.7983 7.09607C19.7484 6.48472 19.6545 6.12241 19.512 5.84261C19.2148 5.2593 18.7405 4.78506 18.1572 4.48786C17.8774 4.34529 17.5151 4.25143 16.9038 4.20148C16.2819 4.15068 15.4848 4.14998 14.3499 4.14998H9.64985C8.5149 4.14998 7.71781 4.15068 7.09595 4.20148Z"/>
</svg>
