<svg viewBox="0 0 24 24" xmlns="http://www.w3.org/2000/svg">
<path fill-rule="evenodd" clip-rule="evenodd" d="M12.0011 21.7105C17.6257 21.7105 22.1854 17.1509 22.1854 11.5263C22.1854 5.90173 17.6257 1.3421 12.0011 1.3421C6.37654 1.3421 1.81689 5.90173 1.81689 11.5263C1.81689 17.1509 6.37654 21.7105 12.0011 21.7105ZM12.9485 8.68421C12.9485 8.16099 12.5244 7.73684 12.0011 7.73684C11.4779 7.73684 11.0538 8.16099 11.0538 8.68421C11.0538 9.41225 11.0519 10.051 10.9745 10.593C10.8953 11.1474 10.7574 11.4303 10.6207 11.5669C10.2507 11.9369 10.2507 12.5368 10.6207 12.9067C10.9907 13.2767 11.5905 13.2767 11.9605 12.9067C12.5344 12.3329 12.7517 11.55 12.8502 10.8609C12.9486 10.1721 12.9485 9.40515 12.9485 8.72144L12.9485 8.68421ZM8.21166 8.36842C8.73487 8.36842 9.15903 8.79257 9.15903 9.31579V10.2632C9.15903 10.7864 8.73487 11.2105 8.21166 11.2105C7.68844 11.2105 7.26428 10.7864 7.26428 10.2632V9.31579C7.26428 8.79257 7.68844 8.36842 8.21166 8.36842ZM15.7906 8.36842C16.3138 8.36842 16.738 8.79257 16.738 9.31579V10.2632C16.738 10.7864 16.3138 11.2105 15.7906 11.2105C15.2674 11.2105 14.8433 10.7864 14.8433 10.2632V9.31579C14.8433 8.79257 15.2674 8.36842 15.7906 8.36842ZM7.95487 13.5215C8.28805 13.1181 8.88518 13.0611 9.28861 13.3943C10.026 14.0033 10.9697 14.3684 12.0011 14.3684C13.0326 14.3684 13.9763 14.0033 14.7137 13.3943C15.1171 13.0611 15.7142 13.1181 16.0474 13.5215C16.3806 13.9249 16.3236 14.522 15.9202 14.8552C14.8558 15.7343 13.489 16.2631 12.0011 16.2631C10.5133 16.2631 9.14647 15.7343 8.08208 14.8552C7.67865 14.522 7.6217 13.9249 7.95487 13.5215Z"/>
</svg>
