<svg viewBox="0 0 24 24" xmlns="http://www.w3.org/2000/svg">
<path d="M13.7318 2.85415C12.8778 1.5739 10.9301 1.6296 10.1709 3.02203L1.69944 18.1691L1.62471 18.3191C1.00895 19.6851 1.91715 21.4737 3.47366 21.4737H21.4737L21.6023 21.465C22.0647 21.4023 22.4211 21.0059 22.4211 20.5263C22.4211 20.0031 21.9969 19.5789 21.4737 19.5789H3.47366L3.44325 19.5655C3.36738 19.5045 3.26732 19.2506 3.35708 19.0869L11.8294 3.93801L11.8689 3.88564C11.959 3.79826 12.1072 3.81462 12.1696 3.92913L19.6525 17.6167L19.7217 17.7254C19.9986 18.101 20.5173 18.2236 20.9382 17.9935C21.3973 17.7426 21.566 17.1669 21.315 16.7078L13.8326 3.02114L13.7318 2.85415Z"/>
<path d="M12 8.21051C12.4796 8.21051 12.876 8.56691 12.9387 9.02933L12.9474 9.15788V13.8947C12.9474 14.4179 12.5232 14.8421 12 14.8421C11.5204 14.8421 11.124 14.4857 11.0613 14.0233L11.0526 13.8947V9.15788C11.0526 8.63466 11.4768 8.21051 12 8.21051Z"/>
<path d="M10.7368 17.0526C10.7368 16.3541 11.3027 15.7895 12 15.7895C12.6973 15.7895 13.2632 16.3541 13.2632 17.0526C13.2632 17.7511 12.6973 18.3158 12 18.3158C11.3027 18.3158 10.7368 17.7511 10.7368 17.0526Z"/>
</svg>
