<svg viewBox="0 0 24 24" xmlns="http://www.w3.org/2000/svg">
<path fill-rule="evenodd" clip-rule="evenodd" d="M13.1781 2.85013C12.428 2.51659 11.5717 2.51659 10.8216 2.85013C10.2989 3.08254 9.92126 3.50838 9.59294 3.97191C9.26754 4.43132 8.90947 5.04983 8.47391 5.8022L2.97946 15.2926C2.54225 16.0478 2.18294 16.6684 1.94584 17.1809C1.70671 17.6978 1.52491 18.2388 1.58436 18.809C1.66963 19.6269 2.09817 20.3702 2.7633 20.8538C3.22697 21.1909 3.78628 21.3047 4.35342 21.3567C4.91574 21.4083 5.63286 21.4083 6.50544 21.4082H17.4942C18.3668 21.4083 19.0839 21.4083 19.6462 21.3567C20.2134 21.3047 20.7727 21.1909 21.2364 20.8538C21.9015 20.3702 22.33 19.6269 22.4153 18.809C22.4747 18.2388 22.2929 17.6977 22.0538 17.1809C21.8167 16.6684 21.4574 16.0477 21.0202 15.2926L15.5257 5.80219C15.0902 5.04982 14.7321 4.43132 14.4067 3.97191C14.0784 3.50838 13.7008 3.08254 13.1781 2.85013ZM12.4468 4.49486C12.1622 4.36835 11.8374 4.36835 11.5529 4.49486C11.4825 4.52616 11.3363 4.62475 11.0618 5.01231C10.7899 5.39617 10.4728 5.94211 10.0093 6.74263L4.55957 16.1559C4.09448 16.9592 3.7777 17.5082 3.57948 17.9366C3.37926 18.3694 3.36667 18.5458 3.37465 18.6223C3.407 18.9326 3.56954 19.2145 3.82184 19.3979C3.88408 19.4432 4.04299 19.5206 4.51786 19.5642C4.98798 19.6073 5.62179 19.6082 6.55006 19.6082H17.4496C18.3779 19.6082 19.0117 19.6073 19.4818 19.5642C19.9567 19.5206 20.1156 19.4432 20.1778 19.3979C20.4301 19.2145 20.5927 18.9326 20.625 18.6223C20.633 18.5458 20.6204 18.3694 20.4202 17.9366C20.222 17.5082 19.9052 16.9592 19.4401 16.1559L13.9903 6.74262C13.5268 5.94211 13.2097 5.39616 12.9378 5.01231C12.6633 4.62475 12.5171 4.52616 12.4468 4.49486ZM11.0998 9.01374H12.8998V15.0111H11.0998V9.01374ZM13.1998 17.2101C13.1998 17.8726 12.6626 18.4096 11.9998 18.4096C11.3371 18.4096 10.7998 17.8726 10.7998 17.2101C10.7998 16.5477 11.3371 16.0107 11.9998 16.0107C12.6626 16.0107 13.1998 16.5477 13.1998 17.2101Z"/>
</svg>
