<svg viewBox="0 0 24 24" xmlns="http://www.w3.org/2000/svg">
<path d="M21.1602 3.03485C21.7553 2.86881 22.3341 3.30572 22.3613 3.90085L22.3585 4.03064L20.9374 20.1359C20.8794 20.793 20.1926 21.178 19.6128 20.9204L19.4984 20.8602L13.2257 17.0135L9.79204 20.6985C9.23646 21.2947 8.26123 20.9536 8.16011 20.1847L8.15157 20.0526V15.7895C8.15157 15.2663 8.57573 14.8421 9.09895 14.8421C9.57856 14.8421 9.97494 15.1985 10.0377 15.6609L10.0463 15.7895V17.6451L12.368 15.1549C12.6411 14.8619 13.0641 14.7759 13.4245 14.9258L13.5564 14.9932L19.184 18.4434L20.3499 5.22695L4.8004 9.5659L9.0661 12.3385L14.254 8.84578C14.6485 8.58009 15.171 8.65089 15.4823 8.99202L15.569 9.1024C15.8347 9.49693 15.7639 10.0194 15.4227 10.3307L15.3124 10.4174L9.6013 14.2633C9.23114 14.5126 8.78554 14.4592 8.48134 14.2186L2.0102 10.0114C1.3667 9.59307 1.47057 8.64439 2.13988 8.35152L2.27196 8.30459L21.1602 3.03485Z"/>
</svg>
