<svg viewBox="0 0 24 24" xmlns="http://www.w3.org/2000/svg">
<path fill-rule="evenodd" clip-rule="evenodd" d="M11.9999 2.71997C6.65922 2.71997 2.09985 6.51606 2.09985 11.451C2.09985 13.652 3.03041 15.6474 4.52246 17.1653L3.97599 20.2201C3.9142 20.5655 4.0588 20.9154 4.34644 21.1163C4.63408 21.3173 5.01231 21.3328 5.31541 21.156L8.16618 19.493C9.34825 19.9308 10.6422 20.182 11.9999 20.182C17.3405 20.182 21.8999 16.3859 21.8999 11.451C21.8999 6.51606 17.3405 2.71997 11.9999 2.71997ZM7.99985 12.62C8.55213 12.62 8.99985 12.1723 8.99985 11.62C8.99985 11.0677 8.55213 10.62 7.99985 10.62C7.44756 10.62 6.99985 11.0677 6.99985 11.62C6.99985 12.1723 7.44756 12.62 7.99985 12.62ZM12.9998 11.62C12.9998 12.1723 12.5521 12.62 11.9998 12.62C11.4476 12.62 10.9998 12.1723 10.9998 11.62C10.9998 11.0677 11.4476 10.62 11.9998 10.62C12.5521 10.62 12.9998 11.0677 12.9998 11.62ZM15.9998 12.62C16.5521 12.62 16.9998 12.1723 16.9998 11.62C16.9998 11.0677 16.5521 10.62 15.9998 10.62C15.4476 10.62 14.9998 11.0677 14.9998 11.62C14.9998 12.1723 15.4476 12.62 15.9998 12.62Z"/>
</svg>
