<svg viewBox="0 0 24 24" xmlns="http://www.w3.org/2000/svg">
<path fill-rule="evenodd" clip-rule="evenodd" d="M4.71741 3.16391H19.2866C20.8401 3.16391 22.1054 4.43524 22.1054 5.99164V15.2655C22.1054 16.8377 20.8625 18.3181 19.31 18.3181L15.0328 18.317L9.54283 20.7594C8.95548 21.0207 8.29837 20.634 8.21853 20.0196L8.21045 19.8938L8.20918 18.317L4.7408 18.3181C3.25374 18.3181 2.00667 16.9544 1.90533 15.4609L1.89868 15.2655V5.99164C1.89868 4.43524 3.16392 3.16391 4.71741 3.16391ZM5.68412 10.7368C5.68412 11.4354 6.25002 12 6.94728 12C7.64455 12 8.21045 11.4354 8.21045 10.7368C8.21045 10.0383 7.64455 9.47367 6.94728 9.47367C6.25002 9.47367 5.68412 10.0383 5.68412 10.7368ZM10.7368 10.7368C10.7368 11.4354 11.3027 12 11.9999 12C12.6972 12 13.2631 11.4354 13.2631 10.7368C13.2631 10.0383 12.6972 9.47367 11.9999 9.47367C11.3027 9.47367 10.7368 10.0383 10.7368 10.7368ZM17.0526 12C16.3553 12 15.7894 11.4354 15.7894 10.7368C15.7894 10.0383 16.3553 9.47367 17.0526 9.47367C17.7499 9.47367 18.3157 10.0383 18.3157 10.7368C18.3157 11.4354 17.7499 12 17.0526 12Z"/>
</svg>
