<svg viewBox="0 0 24 24" xmlns="http://www.w3.org/2000/svg">
<path fill-rule="evenodd" clip-rule="evenodd" d="M5.5701 3.09998C5.58 3.09998 5.58992 3.09998 5.59986 3.09998L18.4296 3.09998C18.6839 3.09995 18.926 3.09993 19.1299 3.11659C19.3524 3.13476 19.6075 3.17715 19.8624 3.30707C20.2199 3.48923 20.5106 3.77989 20.6928 4.1374C20.8227 4.39237 20.8651 4.64748 20.8832 4.86989C20.8999 5.07385 20.8999 5.3159 20.8999 5.57022V18.4297C20.8999 18.6841 20.8999 18.9261 20.8832 19.1301C20.8651 19.3525 20.8227 19.6076 20.6928 19.8626C20.5106 20.2201 20.2199 20.5107 19.8624 20.6929C19.6075 20.8228 19.3524 20.8652 19.1299 20.8834C18.926 20.9 18.6839 20.9 18.4296 20.9H5.5701C5.31578 20.9 5.07373 20.9 4.86977 20.8834C4.64736 20.8652 4.39225 20.8228 4.13728 20.6929C3.77977 20.5107 3.4891 20.2201 3.30695 19.8626C3.17703 19.6076 3.13464 19.3525 3.11647 19.1301C3.09981 18.9261 3.09983 18.6841 3.09986 18.4297L3.09986 5.59998C3.09986 5.59004 3.09986 5.58012 3.09986 5.57022C3.09983 5.3159 3.09981 5.07385 3.11647 4.86989C3.13464 4.64748 3.17703 4.39237 3.30695 4.1374C3.4891 3.77989 3.77977 3.48923 4.13728 3.30707C4.39225 3.17715 4.64736 3.13476 4.86977 3.11659C5.07373 3.09993 5.31578 3.09995 5.5701 3.09998ZM4.94034 4.91962C4.9324 4.9255 4.92538 4.93252 4.9195 4.94046C4.91713 4.95394 4.91363 4.97809 4.91049 5.01647C4.90056 5.13807 4.89986 5.3051 4.89986 5.59998V18.4C4.89986 18.6949 4.90056 18.8619 4.91049 18.9835C4.91363 19.0219 4.91713 19.046 4.9195 19.0595C4.92538 19.0674 4.9324 19.0745 4.94034 19.0803C4.95381 19.0827 4.97796 19.0862 5.01635 19.0893C5.13795 19.0993 5.30498 19.1 5.59986 19.1H18.3999C18.6947 19.1 18.8618 19.0993 18.9834 19.0893C19.0218 19.0862 19.0459 19.0827 19.0594 19.0803C19.0673 19.0745 19.0743 19.0674 19.0802 19.0595C19.0826 19.046 19.0861 19.0219 19.0892 18.9835C19.0992 18.8619 19.0999 18.6949 19.0999 18.4V5.59998C19.0999 5.3051 19.0992 5.13807 19.0892 5.01647C19.0861 4.97809 19.0826 4.95394 19.0802 4.94046C19.0743 4.93252 19.0673 4.9255 19.0594 4.91962C19.0459 4.91725 19.0218 4.91375 18.9834 4.91061C18.8618 4.90068 18.6947 4.89998 18.3999 4.89998H5.59986C5.30498 4.89998 5.13795 4.90068 5.01635 4.91061C4.97796 4.91375 4.95381 4.91725 4.94034 4.91962Z"/>
<path fill-rule="evenodd" clip-rule="evenodd" d="M8.68278 9.73633L13.3657 14.3517L16.4877 11.2748L20.6316 15.359L19.3681 16.641L16.4877 13.8021L13.3657 16.879L8.68278 12.2636L4.63161 16.2564L3.3681 14.9744L8.68278 9.73633Z"/>
<path d="M16.9999 7.99998C16.9999 8.55226 16.5521 8.99998 15.9999 8.99998C15.4476 8.99998 14.9999 8.55226 14.9999 7.99998C14.9999 7.44769 15.4476 6.99998 15.9999 6.99998C16.5521 6.99998 16.9999 7.44769 16.9999 7.99998Z"/>
</svg>
