<svg viewBox="0 0 24 24" xmlns="http://www.w3.org/2000/svg">
<path d="M2.84344 4.42105L21.1593 4.44598C21.6385 4.44663 22.0341 4.80292 22.0967 5.26492L22.1054 5.39335V9.5973C22.1054 10.1205 21.6812 10.5447 21.158 10.5447C20.6784 10.5447 20.282 10.1883 20.2193 9.72585L20.2106 9.5973L20.2094 6.33852L3.78826 6.31579V17.6829H20.2094V15.2337L15.7896 10.8139L10.7752 15.8278C10.4389 16.1641 9.91257 16.1947 9.5417 15.9195L9.43544 15.8278L6.94743 13.3402L6.03837 14.2488C5.70203 14.5852 5.17571 14.6157 4.80484 14.3406L4.69858 14.2488C4.36224 13.9125 4.33167 13.3862 4.60685 13.0153L4.69858 12.9091L6.27753 11.3301C6.61387 10.9938 7.14019 10.9632 7.51106 11.2384L7.61732 11.3301L10.1053 13.8177L15.1197 8.80379C15.456 8.46745 15.9823 8.43688 16.3532 8.71206L16.4595 8.80379L21.8279 14.1722C21.97 14.3143 22.0623 14.497 22.0936 14.693L22.1054 14.8421V18.6316C22.1054 19.1112 21.749 19.5076 21.2866 19.5703L21.158 19.5789H2.84215C2.36253 19.5789 1.96616 19.2225 1.90342 18.7601L1.89478 18.6316V5.36842C1.89478 4.88834 2.25184 4.49175 2.71475 4.42954L2.84344 4.42105Z"/>
</svg>
