<svg viewBox="0 0 24 24" xmlns="http://www.w3.org/2000/svg">
<path fill-rule="evenodd" clip-rule="evenodd" d="M13.9043 2.8972C12.8572 1.83428 11.1425 1.8342 10.0954 2.89718L9.04097 3.96751C8.87523 4.13575 8.64842 4.22969 8.41226 4.22793L6.90985 4.21668C5.41778 4.20551 4.20538 5.41791 4.21655 6.90999L4.2278 8.41239C4.22957 8.64855 4.1356 8.87537 3.96736 9.04111L2.89705 10.0956C1.83411 11.1427 1.83413 12.8573 2.89708 13.9045L3.96739 14.9588C4.13565 15.1246 4.22957 15.3515 4.2278 15.5876L4.21655 17.09C4.20538 18.582 5.41786 19.7943 6.90986 19.7833L8.41227 19.772C8.64849 19.7703 8.87531 19.8643 9.04098 20.0325L10.0954 21.1028C11.1426 22.1657 12.8572 22.1657 13.9043 21.1028L14.9587 20.0324C15.1244 19.8642 15.3513 19.7703 15.5875 19.772L17.0899 19.7833C18.5819 19.7943 19.7942 18.582 19.7831 17.09L19.7719 15.5876C19.7701 15.3514 19.8641 15.1245 20.0323 14.9588L21.1027 13.9044C22.1656 12.8573 22.1656 11.1427 21.1027 10.0956L20.0323 9.04107C19.8641 8.87539 19.7701 8.64853 19.7719 8.41231L19.7831 6.90994C19.7942 5.41793 18.5819 4.20551 17.0898 4.21668L15.5874 4.22793C15.3513 4.22969 15.1244 4.13571 14.9586 3.96746L13.9043 2.8972ZM12.3585 8.22679C12.2118 7.9295 11.7879 7.9295 11.6411 8.22679L10.7704 9.99114C10.7121 10.1092 10.5995 10.191 10.4692 10.21L8.52215 10.4929C8.19407 10.5406 8.06306 10.9437 8.30047 11.1752L9.70938 12.5485C9.80365 12.6404 9.84667 12.7728 9.82442 12.9026L9.49182 14.8418C9.43577 15.1685 9.77875 15.4177 10.0722 15.2634L11.8137 14.3479C11.9302 14.2866 12.0695 14.2866 12.186 14.3479L13.9275 15.2634C14.2209 15.4177 14.5639 15.1685 14.5079 14.8418L14.1753 12.9026C14.153 12.7728 14.196 12.6404 14.2903 12.5485L15.6992 11.1752C15.9366 10.9437 15.8056 10.5406 15.4775 10.4929L13.5305 10.21C13.4002 10.191 13.2876 10.1092 13.2293 9.99114L12.3585 8.22679Z"/>
</svg>
