<svg viewBox="0 0 24 24" xmlns="http://www.w3.org/2000/svg">
<path fill-rule="evenodd" clip-rule="evenodd" d="M10.1952 21.2854L11.8874 20.4277C11.9581 20.3919 12.0421 20.3919 12.1127 20.4277L13.805 21.2854L13.827 21.2963C14.6729 21.71 15.7018 21.3753 16.1251 20.5487L16.9783 18.8828C17.0139 18.8133 17.0819 18.7651 17.1606 18.7534L19.0455 18.4753L19.07 18.4715C20.0031 18.3204 20.6342 17.4586 20.4795 16.5467L20.1677 14.709C20.1546 14.6323 20.1806 14.5542 20.2373 14.4996L21.595 13.1919L21.6125 13.1748C22.2765 12.5165 22.2686 11.4569 21.595 10.8081L20.2373 9.50038C20.1806 9.4458 20.1546 9.3677 20.1677 9.291L20.4795 7.45324L20.4833 7.42937C20.6246 6.51542 19.9808 5.66265 19.0455 5.52466L17.1606 5.24654C17.0819 5.23493 17.0139 5.18666 16.9783 5.11713L16.1251 3.45126L16.1139 3.42973C15.6784 2.60922 14.6447 2.28905 13.805 2.71461L12.1127 3.57229C12.0421 3.60808 11.9581 3.60808 11.8874 3.57229L10.1952 2.71461L10.1731 2.70364C9.32725 2.28997 8.29835 2.62469 7.87503 3.45126L7.02185 5.11713C6.98624 5.18666 6.91826 5.23493 6.83958 5.24654L4.95461 5.52466L4.93018 5.52844C3.99702 5.67962 3.36597 6.54138 3.52069 7.45324L3.83249 9.291C3.84551 9.3677 3.81954 9.4458 3.76287 9.50038L2.40519 10.8081L2.3877 10.8252C1.7237 11.4834 1.73153 12.5431 2.40519 13.1919L3.76287 14.4996C3.81954 14.5542 3.84551 14.6323 3.83249 14.709L3.52069 16.5467L3.51682 16.5706C3.3756 17.4846 4.01932 18.3373 4.95461 18.4753L6.83958 18.7534C6.91826 18.7651 6.98624 18.8133 7.02185 18.8828L7.87503 20.5487L7.88626 20.5703C8.32176 21.3908 9.35549 21.7109 10.1952 21.2854ZM13.2557 10.1725L12.4119 8.47279C12.2388 8.12309 11.7614 8.12309 11.5883 8.47279L10.7433 10.1725C10.6763 10.3084 10.5513 10.4034 10.4085 10.4272L8.59847 10.7426C8.22837 10.8059 8.08058 11.2797 8.34458 11.5594L9.63172 12.9239C9.73403 13.0335 9.78077 13.1852 9.7593 13.337L9.48646 15.2306C9.43088 15.6199 9.81614 15.9129 10.1521 15.7374L11.7929 14.8796C11.9231 14.8123 12.0772 14.8123 12.2073 14.8796L13.8468 15.7374C14.1828 15.9129 14.5693 15.6199 14.5138 15.2306L14.2396 13.337C14.2182 13.1852 14.2662 13.0335 14.3685 12.9239L15.6556 11.5594C15.9196 11.2797 15.7718 10.8059 15.4005 10.7426L13.5917 10.4272C13.4477 10.4034 13.3239 10.3084 13.2557 10.1725Z"/>
</svg>
