<svg viewBox="0 0 24 24" xmlns="http://www.w3.org/2000/svg">
<path d="M12.3869 3.18703C12.1421 3.07047 11.8578 3.07047 11.613 3.18703L2.59967 7.4791C2.38355 7.58198 2.16947 7.68388 2.00286 7.7826C1.84346 7.87705 1.56286 8.05876 1.40265 8.38996C1.21637 8.77505 1.21637 9.22417 1.40265 9.60926C1.56286 9.94046 1.84346 10.1222 2.00286 10.2166C2.16947 10.3153 2.38355 10.4172 2.59968 10.5201L11.613 14.8122C11.8578 14.9288 12.1421 14.9288 12.3869 14.8122L20.98 10.7203V15.4996C20.98 15.9967 21.3829 16.3996 21.88 16.3996C22.377 16.3996 22.78 15.9967 22.78 15.4996V8.99961C22.78 8.84124 22.7391 8.69243 22.6672 8.56316C22.6479 8.50432 22.6246 8.44645 22.5973 8.38996C22.4371 8.05876 22.1565 7.87705 21.9971 7.7826C21.8305 7.68388 21.6164 7.58198 21.4003 7.47911L12.3869 3.18703Z"/>
<path d="M5.09997 13.7053L10.8391 16.4382C11.5735 16.7879 12.4264 16.7879 13.1608 16.4382L18.9 13.7053L18.9001 16.3199C18.9008 16.9413 18.9014 17.4641 18.7317 17.9403C18.5829 18.3577 18.3405 18.7355 18.023 19.0446C17.6608 19.3973 17.1852 19.6145 16.6201 19.8727L13.6281 21.2438C13.2165 21.4328 12.8693 21.5923 12.496 21.6571C12.1678 21.7141 11.8322 21.7141 11.504 21.6571C11.1306 21.5923 10.7834 21.4328 10.3718 21.2438L7.37988 19.8727C6.8147 19.6145 6.33914 19.3973 5.97697 19.0446C5.65945 18.7355 5.417 18.3577 5.26824 17.9403C5.09856 17.4641 5.09916 16.9413 5.09988 16.3199L5.09997 13.7053Z"/>
</svg>
