<svg viewBox="0 0 24 24" xmlns="http://www.w3.org/2000/svg">
<path d="M19.2827 2.52631C20.77 2.52631 21.9954 3.75097 22.0949 5.2253L22.1014 5.41894V16.0174C22.1014 17.5241 20.96 18.9465 19.4985 19.0624L19.3061 19.07L15.3689 19.0699L9.55968 21.8245C9.12628 22.0299 8.61545 21.8776 8.36071 21.4866L8.29783 21.3742C8.09241 20.9408 8.24471 20.4299 8.63569 20.1752L8.74815 20.1123L14.7522 17.2666C14.8368 17.2265 14.9265 17.1993 15.0186 17.1856L15.158 17.1753H19.3061C19.6989 17.1753 20.1339 16.6931 20.1985 16.1533L20.2067 16.0174V5.41894C20.2067 4.92957 19.8363 4.49887 19.4024 4.43048L19.2827 4.42104H4.7135C4.27061 4.42104 3.86328 4.81097 3.79847 5.28716L3.78952 5.41894V16.0174C3.78952 16.5489 4.22054 17.0857 4.63412 17.1652L4.73689 17.1753H8.22993C8.75315 17.1753 9.1773 17.5994 9.1773 18.1226C9.1773 18.6022 8.8209 18.9986 8.35849 19.0613L8.22993 19.07H4.73689C3.24984 19.07 2.00276 17.7062 1.90142 16.2128L1.89478 16.0174V5.41894C1.89478 3.92474 3.05818 2.63782 4.52106 2.53317L4.7135 2.52631H19.2827Z"/>
<path d="M16.0264 7.70525C16.5496 7.70525 16.9738 8.1294 16.9738 8.65262C16.9738 9.17584 16.5496 9.59999 16.0264 9.59999H7.97375C7.45053 9.59999 7.02637 9.17584 7.02637 8.65262C7.02637 8.1294 7.45053 7.70525 7.97375 7.70525H16.0264Z"/>
<path d="M16.9738 13.2C16.9738 12.6768 16.5496 12.2526 16.0264 12.2526H7.97375C7.45053 12.2526 7.02637 12.6768 7.02637 13.2C7.02637 13.7232 7.45053 14.1474 7.97375 14.1474H16.0264C16.5496 14.1474 16.9738 13.7232 16.9738 13.2Z"/>
</svg>
