<svg viewBox="0 0 24 24" xmlns="http://www.w3.org/2000/svg">
<path fill-rule="evenodd" clip-rule="evenodd" d="M3.09985 5.0001C3.09985 3.95076 3.95051 3.1001 4.99985 3.1001H18.9999C20.0492 3.1001 20.8999 3.95076 20.8999 5.0001V19.0001C20.8999 20.0494 20.0492 20.9001 18.9999 20.9001H4.99985C3.95051 20.9001 3.09985 20.0494 3.09985 19.0001V5.0001ZM4.99985 4.9001C4.94463 4.9001 4.89985 4.94487 4.89985 5.0001V8.19995H19.0999V5.0001C19.0999 4.94487 19.0551 4.9001 18.9999 4.9001H4.99985ZM4.89985 19.0001V9.99995H8.4998L8.4998 19.1001H4.99985C4.94463 19.1001 4.89985 19.0553 4.89985 19.0001ZM10.2998 19.1001H18.9999C19.0551 19.1001 19.0999 19.0553 19.0999 19.0001V9.99995H10.2998V19.1001Z"/>
</svg>
