<svg viewBox="0 0 24 24" xmlns="http://www.w3.org/2000/svg">
<path d="M18.6322 1.89474C19.1118 1.89474 19.5082 2.25114 19.5709 2.71355L19.5796 2.84211V17.3684C19.5796 17.8916 19.1554 18.3158 18.6322 18.3158C18.1526 18.3158 17.7562 17.9594 17.6935 17.497L17.6848 17.3684V3.78947H6.31637V19.656L11.5933 17.1447C11.808 17.0424 12.0516 17.0254 12.276 17.0935L12.4079 17.1447L19.0395 20.3026C19.5119 20.5275 19.7125 21.0928 19.4876 21.5652C19.2814 21.9982 18.7892 22.2029 18.3447 22.0607L18.2249 22.0132L12.0006 19.0497L5.77631 22.0132C5.18692 22.2939 4.512 21.9086 4.42994 21.2855L4.42163 21.1579V2.84211C4.42163 2.36249 4.77804 1.96612 5.24045 1.90339L5.369 1.89474H18.6322Z"/>
</svg>
