<svg viewBox="0 0 24 24" xmlns="http://www.w3.org/2000/svg">
<path d="M12.0009 3.00001C7.29195 3.00001 3.47458 6.81737 3.47458 11.5263C3.47458 16.2353 7.29195 20.0526 12.0009 20.0526C14.7898 20.0526 17.2659 18.7147 18.8231 16.6416C19.1373 16.2232 19.7312 16.1388 20.1496 16.453C20.5679 16.7673 20.6523 17.3612 20.3381 17.7795C18.4384 20.3085 15.4109 21.9474 12.0009 21.9474C6.24552 21.9474 1.57983 17.2817 1.57983 11.5263C1.57983 5.77093 6.24552 1.10527 12.0009 1.10527C17.7563 1.10527 22.422 5.77093 22.422 11.5263C22.422 12.4245 22.3082 13.2974 22.0936 14.1309C21.9632 14.6376 21.4467 14.9426 20.94 14.8122C20.4333 14.6818 20.1283 14.1653 20.2587 13.6586C20.4339 12.9781 20.5273 12.2638 20.5273 11.5263C20.5273 6.81737 16.7099 3.00001 12.0009 3.00001Z"/>
<path d="M8.21144 8.21053C8.73466 8.21053 9.15881 8.63469 9.15881 9.1579V10.3421C9.15881 10.8653 8.73466 11.2895 8.21144 11.2895C7.68822 11.2895 7.26407 10.8653 7.26407 10.3421V9.1579C7.26407 8.63469 7.68822 8.21053 8.21144 8.21053Z"/>
<path d="M16.7378 9.1579C16.7378 8.63469 16.3136 8.21053 15.7904 8.21053C15.2672 8.21053 14.843 8.63469 14.843 9.1579V10.3421C14.843 10.8653 15.2672 11.2895 15.7904 11.2895C16.3136 11.2895 16.7378 10.8653 16.7378 10.3421V9.1579Z"/>
<path d="M12.0009 7.73685C12.5241 7.73685 12.9483 8.161 12.9483 8.68422L12.9483 8.72144C12.9483 9.40515 12.9484 10.1721 12.85 10.861C12.7515 11.55 12.5341 12.3329 11.9603 12.9067C11.5903 13.2767 10.9905 13.2767 10.6205 12.9067C10.2505 12.5368 10.2505 11.9369 10.6205 11.567C10.7572 11.4303 10.8951 11.1474 10.9743 10.593C11.0517 10.051 11.0536 9.41226 11.0536 8.68422C11.0536 8.161 11.4777 7.73685 12.0009 7.73685Z"/>
<path d="M9.28839 13.3943C8.88496 13.0611 8.28783 13.1181 7.95465 13.5215C7.62148 13.9249 7.67843 14.5221 8.08186 14.8552C9.14625 15.7343 10.5131 16.2631 12.0009 16.2631C13.4888 16.2631 14.8556 15.7343 15.92 14.8552C16.3234 14.5221 16.3804 13.9249 16.0472 13.5215C15.714 13.1181 15.1169 13.0611 14.7135 13.3943C13.9761 14.0033 13.0324 14.3684 12.0009 14.3684C10.9695 14.3684 10.0258 14.0033 9.28839 13.3943Z"/>
</svg>
