<svg width="24" height="24" viewBox="0 0 24 24" fill="none" xmlns="http://www.w3.org/2000/svg">
<path d="M11.9999 2.99996C7.29098 2.99996 3.4736 6.81732 3.4736 11.5263C3.4736 16.2352 7.29098 20.0526 11.9999 20.0526C14.7888 20.0526 17.265 18.7146 18.8221 16.6415C19.1364 16.2232 19.7302 16.1388 20.1486 16.453C20.5669 16.7672 20.6513 17.3611 20.3371 17.7795C18.4375 20.3085 15.41 21.9473 11.9999 21.9473C6.24454 21.9473 1.57886 17.2817 1.57886 11.5263C1.57886 5.77089 6.24454 1.10522 11.9999 1.10522C17.7554 1.10522 22.421 5.77089 22.421 11.5263C22.421 12.4244 22.3072 13.2973 22.0927 14.1308C21.9623 14.6375 21.4458 14.9426 20.9391 14.8122C20.4324 14.6817 20.1273 14.1653 20.2577 13.6586C20.4329 12.9781 20.5263 12.2638 20.5263 11.5263C20.5263 6.81732 16.7089 2.99996 11.9999 2.99996Z" fill="#171717"/>
<path d="M8.21046 8.21049C8.73368 8.21049 9.15783 8.63464 9.15783 9.15786V10.3421C9.15783 10.8653 8.73368 11.2894 8.21046 11.2894C7.68724 11.2894 7.26309 10.8653 7.26309 10.3421V9.15786C7.26309 8.63464 7.68724 8.21049 8.21046 8.21049Z" fill="#171717"/>
<path d="M16.7368 9.15786C16.7368 8.63464 16.3127 8.21049 15.7894 8.21049C15.2662 8.21049 14.8421 8.63464 14.8421 9.15786V10.3421C14.8421 10.8653 15.2662 11.2894 15.7894 11.2894C16.3127 11.2894 16.7368 10.8653 16.7368 10.3421V9.15786Z" fill="#171717"/>
<path d="M11.9999 7.7368C12.5232 7.7368 12.9473 8.16095 12.9473 8.68417L12.9473 8.72139C12.9474 9.40511 12.9474 10.1721 12.849 10.8609C12.7505 11.55 12.5332 12.3328 11.9593 12.9067C11.5893 13.2767 10.9895 13.2767 10.6195 12.9067C10.2496 12.5367 10.2496 11.9369 10.6195 11.5669C10.7562 11.4302 10.8941 11.1473 10.9733 10.593C11.0507 10.0509 11.0526 9.41221 11.0526 8.68417C11.0526 8.16095 11.4767 7.7368 11.9999 7.7368Z" fill="#171717"/>
<path d="M9.28741 13.3943C8.88399 13.0611 8.28685 13.118 7.95368 13.5215C7.6205 13.9249 7.67745 14.522 8.08088 14.8552C9.14527 15.7342 10.5121 16.2631 11.9999 16.2631C13.4878 16.2631 14.8546 15.7342 15.919 14.8552C16.3224 14.522 16.3794 13.9249 16.0462 13.5215C15.713 13.118 15.1159 13.0611 14.7125 13.3943C13.9751 14.0032 13.0314 14.3683 11.9999 14.3683C10.9685 14.3683 10.0248 14.0032 9.28741 13.3943Z" fill="#171717"/>
</svg>
