<svg viewBox="0 0 24 24" xmlns="http://www.w3.org/2000/svg">
<path d="M4.11346 4.1137C4.46493 3.76223 5.03478 3.76223 5.38625 4.1137L11.9999 10.7273L18.6135 4.1137C18.9649 3.76223 19.5348 3.76223 19.8862 4.1137C20.2377 4.46517 20.2377 5.03502 19.8862 5.38649L13.2726 12.0001L19.8862 18.6137C20.2377 18.9652 20.2377 19.535 19.8862 19.8865C19.5348 20.238 18.9649 20.238 18.6135 19.8865L11.9999 13.2729L5.38625 19.8865C5.03478 20.238 4.46493 20.238 4.11346 19.8865C3.76199 19.535 3.76199 18.9652 4.11346 18.6137L10.7271 12.0001L4.11346 5.38649C3.76199 5.03502 3.76199 4.46517 4.11346 4.1137Z"/>
</svg>
