<svg viewBox="0 0 24 24" xmlns="http://www.w3.org/2000/svg">
<path d="M19.1461 4.85342C17.2637 2.97214 14.7161 1.89471 12.0006 1.89471C6.4198 1.89471 1.89526 6.41888 1.89526 12C1.89526 17.5804 6.42013 22.1052 12.0006 22.1052C13.2323 22.1052 14.4362 21.8842 15.5671 21.4584C16.0568 21.274 16.3043 20.7276 16.1199 20.2379C15.9356 19.7483 15.3892 19.5008 14.8995 19.6852C13.981 20.031 13.0033 20.2105 12.0006 20.2105C7.46657 20.2105 3.79001 16.534 3.79001 12C3.79001 7.46535 7.4662 3.78945 12.0006 3.78945C14.2085 3.78945 16.276 4.66384 17.8066 6.19341C19.337 7.72383 20.2111 9.79101 20.2111 12C20.2111 14.2081 19.3369 16.2752 17.8063 17.8057C17.4364 18.1757 17.4364 18.7755 17.8063 19.1455C18.1763 19.5155 18.7762 19.5155 19.1461 19.1455C21.0285 17.2631 22.1059 14.7157 22.1059 12C22.1059 9.28339 21.0286 6.73589 19.1461 4.85342Z"/>
<path d="M10.7374 8.2105C10.7374 7.51198 11.3033 6.94735 12.0006 6.94735C12.6978 6.94735 13.2637 7.51198 13.2637 8.2105C13.2637 8.90903 12.6978 9.47366 12.0006 9.47366C11.3033 9.47366 10.7374 8.90903 10.7374 8.2105Z"/>
<path d="M12.0006 11.0488C12.4802 11.0488 12.8766 11.4053 12.9393 11.8677L12.9479 11.9962V16.6015C12.9479 17.1247 12.5238 17.5488 12.0006 17.5488C11.5209 17.5488 11.1246 17.1924 11.0618 16.73L11.0532 16.6015V11.9962C11.0532 11.473 11.4773 11.0488 12.0006 11.0488Z"/>
</svg>
