<svg viewBox="0 0 12 24" xmlns="http://www.w3.org/2000/svg">
<path d="M4.10571 5.68417C4.10571 6.73006 4.95456 7.5789 6.00046 7.5789C7.04636 7.5789 7.8952 6.73006 7.8952 5.68417C7.8952 4.63827 7.04636 3.78943 6.00046 3.78943C4.95456 3.78943 4.10571 4.63827 4.10571 5.68417Z" fill="#171717"/>
<path d="M6.00046 13.8947C4.95456 13.8947 4.10571 13.0458 4.10571 12C4.10571 10.9541 4.95456 10.1052 6.00046 10.1052C7.04636 10.1052 7.8952 10.9541 7.8952 12C7.8952 13.0458 7.04636 13.8947 6.00046 13.8947Z" fill="#171717"/>
<path d="M6.00046 20.2736C4.95456 20.2736 4.10571 19.4248 4.10571 18.3789C4.10571 17.333 4.95456 16.4842 6.00046 16.4842C7.04636 16.4842 7.8952 17.333 7.8952 18.3789C7.8952 19.4248 7.04636 20.2736 6.00046 20.2736Z" fill="#171717"/>
</svg>
