<svg viewBox="0 0 24 24" xmlns="http://www.w3.org/2000/svg">
<path d="M13.3388 9.88953C13.0016 10.2548 13.0244 10.8242 13.3896 11.1613C13.7549 11.4984 14.3243 11.4757 14.6614 11.1104L19.1001 6.30186V9.99998C19.1001 10.497 19.503 10.9 20.0001 10.9C20.4972 10.9 20.9001 10.497 20.9001 9.99998V3.99998C20.9001 3.50292 20.4972 3.09998 20.0001 3.09998H14.5001C14.003 3.09998 13.6001 3.50292 13.6001 3.99998C13.6001 4.49703 14.003 4.89998 14.5001 4.89998L17.9445 4.89998L13.3388 9.88953Z"/>
<path d="M4.9001 14C4.9001 13.5029 4.49715 13.1 4.0001 13.1C3.50304 13.1 3.1001 13.5029 3.1001 14V20C3.1001 20.497 3.50304 20.9 4.0001 20.9H9.5001C9.99715 20.9 10.4001 20.497 10.4001 20C10.4001 19.5029 9.99715 19.1 9.5001 19.1H6.17289L10.6365 14.6364C10.988 14.2849 10.988 13.7151 10.6365 13.3636C10.285 13.0121 9.71517 13.0121 9.3637 13.3636L4.9001 17.8272V14Z"/>
</svg>
