<svg viewBox="0 0 24 24" xmlns="http://www.w3.org/2000/svg">
<path d="M20.8336 3.97671C20.7709 3.5143 20.3745 3.1579 19.8949 3.1579H14.2106L14.0821 3.16655C13.6197 3.22928 13.2633 3.62565 13.2633 4.10527L13.2719 4.23382C13.3346 4.69623 13.731 5.05263 14.2106 5.05263H17.6077L13.2249 9.43538L13.1332 9.54163C12.858 9.91251 12.8886 10.4388 13.2249 10.7752C13.5949 11.1451 14.1948 11.1451 14.5647 10.7752L18.9475 6.39242V9.78948L18.9561 9.91803C19.0189 10.3804 19.4152 10.7368 19.8949 10.7368C20.4181 10.7368 20.8422 10.3127 20.8422 9.78948V4.10527L20.8336 3.97671Z"/>
<path d="M5.0527 17.6076V14.2105L5.04405 14.082C4.98132 13.6196 4.58495 13.2632 4.10533 13.2632C3.58211 13.2632 3.15796 13.6873 3.15796 14.2105V19.8947L3.16661 20.0233C3.22934 20.4857 3.62571 20.8421 4.10533 20.8421H9.78956L9.91812 20.8335C10.3805 20.7707 10.7369 20.3744 10.7369 19.8947L10.7283 19.7662C10.6656 19.3038 10.2692 18.9474 9.78956 18.9474H6.39249L10.7752 14.5646L10.867 14.4584C11.1422 14.0875 11.1116 13.5612 10.7752 13.2248C10.4053 12.8549 9.80543 12.8549 9.43546 13.2248L5.0527 17.6076Z"/>
</svg>
