<svg width="24" height="24" viewBox="0 0 24 24" fill="none" xmlns="http://www.w3.org/2000/svg">
<g id="Shape">
<path id="Exclude" fill-rule="evenodd" clip-rule="evenodd" d="M9.61066 2.3501H14.3886C15.4756 2.35009 16.3463 2.35008 17.0501 2.40758C17.7728 2.46663 18.3983 2.59076 18.9742 2.88417C19.8962 3.35395 20.6458 4.10355 21.1155 5.02554C21.409 5.60139 21.5331 6.22695 21.5921 6.94962C21.6496 7.65339 21.6496 8.52407 21.6496 9.61115V14.3891C21.6496 15.4761 21.6496 16.3468 21.5921 17.0506C21.5331 17.7732 21.409 18.3988 21.1155 18.9747C20.6458 19.8966 19.8962 20.6462 18.9742 21.116C18.3983 21.4094 17.7728 21.5336 17.0501 21.5926C16.3463 21.6501 15.4756 21.6501 14.3886 21.6501H9.61066C8.52358 21.6501 7.6529 21.6501 6.94913 21.5926C6.22646 21.5336 5.6009 21.4094 5.02506 21.116C4.10306 20.6462 3.35346 19.8966 2.88368 18.9747C2.59027 18.3988 2.46614 17.7732 2.4071 17.0506C2.34959 16.3468 2.3496 15.4761 2.34961 14.389V9.61115C2.3496 8.52407 2.34959 7.65339 2.4071 6.94962C2.46614 6.22695 2.59027 5.60139 2.88368 5.02554C3.35346 4.10355 4.10306 3.35395 5.02506 2.88417C5.6009 2.59076 6.22646 2.46663 6.94913 2.40758C7.65291 2.35008 8.52358 2.35009 9.61066 2.3501ZM12.8996 7.1001V11.1001H16.8996V12.9001H12.8996V16.9001H11.0996V12.9001H7.09961V11.1001H11.0996V7.1001H12.8996Z" fill="#171719"/>
</g>
</svg>
