<svg viewBox="0 0 24 24" xmlns="http://www.w3.org/2000/svg">
<path d="M6.75703 12.9571H11.0427V17.2429H12.957V12.9571H17.2427V11.0429H12.957V6.75714H11.0427V11.0429H6.75703V12.9571Z"/>
<path fill-rule="evenodd" clip-rule="evenodd" d="M7.71417 2.47144C4.81862 2.47144 2.47131 4.81874 2.47131 7.71429V16.2857C2.47131 19.1813 4.81862 21.5286 7.71417 21.5286H16.2856C19.1812 21.5286 21.5285 19.1813 21.5285 16.2857V7.71429C21.5285 4.81874 19.1812 2.47144 16.2856 2.47144H7.71417ZM7.71417 4.38572H16.2856C18.1239 4.38572 19.6142 5.87597 19.6142 7.71429V16.2857C19.6142 18.124 18.1239 19.6143 16.2856 19.6143H7.71417C5.87585 19.6143 4.3856 18.124 4.3856 16.2857V7.71429C4.3856 5.87597 5.87585 4.38572 7.71417 4.38572Z"/>
</svg>
