<svg viewBox="0 0 24 24" xmlns="http://www.w3.org/2000/svg">
<path d="M3.14331 5.03093C5.16093 3.02157 8.41285 2.95675 10.5103 4.83666L10.7161 5.03114L11.9999 6.30946L13.284 5.03114C15.3007 3.02151 18.5538 2.95668 20.6501 4.83647L20.8558 5.03093C22.7329 6.90036 22.9409 9.87325 21.3771 11.9839C21.0656 12.4043 20.4723 12.4926 20.0519 12.1811C19.6315 11.8697 19.5432 11.2764 19.8547 10.856C20.8612 9.49749 20.7268 7.57655 19.5185 6.37325C18.2301 5.08929 16.1484 5.03579 14.7939 6.21276L14.6215 6.37325L12.6688 8.31913C12.3327 8.65405 11.8079 8.6845 11.4375 8.41048L11.3313 8.31913L9.37885 6.37345C8.03329 5.0334 5.82591 5.0334 4.48056 6.37325C3.19383 7.6555 3.14021 9.72471 4.32223 11.0758L4.48341 11.2478L11.7458 18.5469C11.8022 18.603 11.8828 18.6336 12.0206 18.6315C12.0844 18.6329 12.1415 18.6197 12.1889 18.5944L12.2525 18.5476L17.9621 12.8455C18.3323 12.4757 18.9321 12.4761 19.3019 12.8463C19.638 13.1829 19.6682 13.7092 19.3928 14.0799L19.301 14.1861L13.5907 19.889C13.1596 20.3186 12.5783 20.5388 12.0206 20.5258C11.4876 20.5373 10.9691 20.3648 10.5555 20.0225L10.4055 19.8862L3.14291 12.5869C1.05744 10.5074 1.05744 7.10954 3.14331 5.03093Z"/>
</svg>
