<svg viewBox="0 0 24 24" xmlns="http://www.w3.org/2000/svg">
<path d="M12.0006 1.89473C14.7161 1.89473 17.2637 2.97215 19.1461 4.85344C21.0286 6.73591 22.1059 9.2834 22.1059 12C22.1059 14.7157 21.0285 17.2632 19.1461 19.1455C18.7762 19.5155 18.1763 19.5155 17.8063 19.1455C17.4364 18.7756 17.4364 18.1757 17.8063 17.8058C19.3369 16.2752 20.2111 14.2081 20.2111 12C20.2111 9.79102 19.337 7.72384 17.8066 6.19342C16.276 4.66385 14.2085 3.78947 12.0006 3.78947C7.4662 3.78947 3.79001 7.46537 3.79001 12C3.79001 16.534 7.46657 20.2105 12.0006 20.2105C13.0033 20.2105 13.981 20.031 14.8995 19.6852C15.3892 19.5008 15.9356 19.7483 16.1199 20.238C16.3043 20.7276 16.0568 21.274 15.5671 21.4584C14.4362 21.8842 13.2323 22.1053 12.0006 22.1053C6.42013 22.1053 1.89526 17.5804 1.89526 12C1.89526 6.4189 6.4198 1.89473 12.0006 1.89473Z"/>
<path d="M12.0006 6.94736C12.4802 6.94736 12.8766 7.30377 12.9393 7.76618L12.9479 7.89473V11.0526H16.1058C16.6291 11.0526 17.0532 11.4768 17.0532 12C17.0532 12.4796 16.6968 12.876 16.2344 12.9387L16.1058 12.9474H12.9479V16.1053C12.9479 16.6285 12.5238 17.0526 12.0006 17.0526C11.5209 17.0526 11.1246 16.6962 11.0618 16.2338L11.0532 16.1053V12.9474H7.89529C7.37207 12.9474 6.94791 12.5232 6.94791 12C6.94791 11.5204 7.30432 11.124 7.76673 11.0613L7.89529 11.0526H11.0532V7.89473C11.0532 7.37151 11.4773 6.94736 12.0006 6.94736Z"/>
</svg>
