<svg viewBox="0 0 24 24" xmlns="http://www.w3.org/2000/svg">
<path d="M19.1459 4.85342C17.2634 2.97214 14.7158 1.89471 12.0003 1.89471C6.41955 1.89471 1.89502 6.41888 1.89502 12C1.89502 17.5804 6.41989 22.1052 12.0003 22.1052C13.2321 22.1052 14.4359 21.8842 15.5669 21.4584C16.0566 21.274 16.304 20.7276 16.1197 20.2379C15.9353 19.7483 15.3889 19.5008 14.8992 19.6852C13.9808 20.031 13.0031 20.2105 12.0003 20.2105C7.46633 20.2105 3.78976 16.534 3.78976 12C3.78976 7.46535 7.46596 3.78945 12.0003 3.78945C14.2083 3.78945 16.2758 4.66384 17.8063 6.19341C19.3367 7.72383 20.2109 9.79101 20.2109 12C20.2109 14.2081 19.3366 16.2752 17.8061 17.8057C17.4361 18.1757 17.4361 18.7755 17.8061 19.1455C18.1761 19.5155 18.7759 19.5155 19.1459 19.1455C21.0283 17.2631 22.1056 14.7157 22.1056 12C22.1056 9.28339 21.0284 6.73589 19.1459 4.85342Z"/>
<path d="M12.0003 12.9473C11.5207 12.9473 11.1243 12.5909 11.0616 12.1285L11.0529 12V7.26314C11.0529 6.73992 11.4771 6.31577 12.0003 6.31577C12.4799 6.31577 12.8763 6.67217 12.939 7.13458L12.9477 7.26314V12C12.9477 12.5232 12.5235 12.9473 12.0003 12.9473Z"/>
<path d="M13.2635 15.7895C13.2635 16.488 12.6976 17.0526 12.0003 17.0526C11.3031 17.0526 10.7372 16.488 10.7372 15.7895C10.7372 15.0909 11.3031 14.5263 12.0003 14.5263C12.6976 14.5263 13.2635 15.0909 13.2635 15.7895Z"/>
</svg>
