<svg viewBox="0 0 24 24" xmlns="http://www.w3.org/2000/svg">
<path d="M9.47375 12C9.47375 12.6973 8.90785 13.2632 8.21059 13.2632C7.51332 13.2632 6.94743 12.6973 6.94743 12C6.94743 11.3027 7.51332 10.7368 8.21059 10.7368C8.90785 10.7368 9.47375 11.3027 9.47375 12Z"/>
<path d="M12.0001 13.2632C12.6973 13.2632 13.2632 12.6973 13.2632 12C13.2632 11.3027 12.6973 10.7368 12.0001 10.7368C11.3028 10.7368 10.7369 11.3027 10.7369 12C10.7369 12.6973 11.3028 13.2632 12.0001 13.2632Z"/>
<path d="M15.7896 13.2632C16.4868 13.2632 17.0527 12.6973 17.0527 12C17.0527 11.3027 16.4868 10.7368 15.7896 10.7368C15.0923 10.7368 14.5264 11.3027 14.5264 12C14.5264 12.6973 15.0923 13.2632 15.7896 13.2632Z"/>
<path fill-rule="evenodd" clip-rule="evenodd" d="M18.8685 1.89474H5.13163C3.34462 1.89474 1.89478 3.34458 1.89478 5.13159V18.8684C1.89478 20.6554 3.34462 22.1053 5.13163 22.1053H18.8685C20.6555 22.1053 22.1054 20.6554 22.1054 18.8684V5.13159C22.1054 3.34458 20.6555 1.89474 18.8685 1.89474ZM5.13163 3.78948H18.8685C19.6091 3.78948 20.2106 4.39101 20.2106 5.13159V18.8684C20.2106 19.609 19.6091 20.2105 18.8685 20.2105H5.13163C4.39105 20.2105 3.78952 19.609 3.78952 18.8684V5.13159C3.78952 4.39101 4.39105 3.78948 5.13163 3.78948Z"/>
</svg>
