<svg viewBox="0 0 24 24" xmlns="http://www.w3.org/2000/svg">
<path fill-rule="evenodd" clip-rule="evenodd" d="M13.5396 9.64295L15.0421 9.9878C14.9805 10.1233 14.8943 10.3819 14.8204 10.6159C16.2367 11.0839 17.1727 12.18 17.1727 13.6086C17.1727 15.3205 16.1505 17.0078 13.1578 17.4512L12.3449 16.1703C14.6972 15.9117 15.6579 14.7294 15.6579 13.5347C15.6579 12.7958 15.2268 12.1431 14.4017 11.8228C13.7243 13.4855 12.7513 14.754 11.8277 15.5176C11.9139 15.8378 12.0124 16.1334 12.1109 16.4289L10.7069 16.8477C10.695 16.8118 10.6823 16.7745 10.6692 16.7361C10.6285 16.6162 10.5841 16.4856 10.5468 16.3551C9.95565 16.6506 9.30291 16.8477 8.66249 16.8477C7.76343 16.8477 7.01216 16.3058 7.01216 15.0619C7.01216 13.5101 8.30533 11.8598 10.0049 11.0593C10.0419 10.542 10.0788 10.0247 10.1281 9.53211H9.73396C9.20237 9.53211 8.45862 9.49817 7.89719 9.47255C7.78227 9.4673 7.67495 9.4624 7.57869 9.45822L7.52943 8.0419C7.96048 8.10348 9.03196 8.20201 9.78323 8.20201H10.2512L10.3251 7.54927C10.3498 7.32759 10.3744 7.03201 10.3621 6.82264L11.9631 6.85959C11.8769 7.1059 11.8277 7.32759 11.7907 7.51232C11.7414 7.70938 11.7045 7.93106 11.6675 8.16506C13.1454 8.1158 14.4632 7.96801 15.8057 7.6478L15.818 9.0518C14.6234 9.27348 12.9853 9.42127 11.4828 9.49517C11.4459 9.85232 11.4089 10.2218 11.3966 10.5913C11.9754 10.4558 12.6159 10.3696 13.2193 10.3696H13.4287C13.478 10.1233 13.5272 9.81538 13.5396 9.64295ZM11.3473 11.9091V11.8844C11.8153 11.7366 12.3819 11.6258 13.0223 11.6135C12.6159 12.5987 12.074 13.3377 11.4828 13.9288C11.3966 13.3254 11.3473 12.6603 11.3473 11.9091ZM10.2389 14.9634C9.78323 15.222 9.36449 15.3575 9.01964 15.3575C8.62554 15.3575 8.45312 15.1481 8.45312 14.7663C8.45312 14.0766 9.06891 13.1406 9.98028 12.5248C10.0049 13.3623 10.1034 14.1998 10.2389 14.9634Z"/>
<path fill-rule="evenodd" clip-rule="evenodd" d="M18.8685 1.89474H5.13163C3.34462 1.89474 1.89478 3.34458 1.89478 5.13159V18.8684C1.89478 20.6554 3.34462 22.1053 5.13163 22.1053H18.8685C20.6555 22.1053 22.1054 20.6554 22.1054 18.8684V5.13159C22.1054 3.34458 20.6555 1.89474 18.8685 1.89474ZM5.13163 3.78948H18.8685C19.6091 3.78948 20.2106 4.39101 20.2106 5.13159V18.8684C20.2106 19.609 19.6091 20.2105 18.8685 20.2105H5.13163C4.39105 20.2105 3.78952 19.609 3.78952 18.8684V5.13159C3.78952 4.39101 4.39105 3.78948 5.13163 3.78948Z"/>
</svg>
