<svg viewBox="0 0 24 24" xmlns="http://www.w3.org/2000/svg">
<path fill-rule="evenodd" clip-rule="evenodd" d="M5.38902 7.2444L4.15089 6.00627C3.80631 5.66169 3.80631 5.10302 4.15089 4.75844C4.49547 4.41385 5.05415 4.41385 5.39873 4.75844L18.634 17.9937C18.9786 18.3383 18.9786 18.897 18.634 19.2416C18.2894 19.5861 17.7308 19.5861 17.3862 19.2416L15.9605 17.8159C15.4695 18.0586 14.9803 18.2509 14.4935 18.3966C12.0287 19.1343 9.78334 18.6299 7.93888 17.6821C6.11073 16.7426 4.63994 15.3523 3.64011 14.2271C3.13617 13.6599 2.74213 13.149 2.47253 12.7776C2.33756 12.5917 2.23328 12.44 2.16152 12.3329C2.12563 12.2793 2.09784 12.2368 2.07837 12.2066L2.07386 12.1996C1.83932 11.8654 1.82527 11.407 2.0724 11.0527C3.1755 9.47148 4.28355 8.21582 5.38902 7.2444ZM14.4449 16.3003C14.2674 16.3691 14.0925 16.429 13.92 16.4806C12.0682 17.0348 10.3606 16.6779 8.85299 15.9032C7.32904 15.1201 6.04857 13.9266 5.13518 12.8986C4.69751 12.4061 4.35295 11.9615 4.11515 11.6358C5.0414 10.3802 5.94181 9.40662 6.80656 8.66194L8.57528 10.4307C8.43447 10.8033 8.35768 11.2055 8.35768 11.6249C8.35768 13.5578 9.98872 15.1247 12.0007 15.1247C12.3859 15.1247 12.757 15.0673 13.1055 14.9609L14.4449 16.3003ZM11.3943 8.17337L15.5664 12.3456C15.6171 12.113 15.6438 11.8719 15.6438 11.6249C15.6438 9.69201 14.0127 8.1251 12.0007 8.1251C11.7941 8.1251 11.5915 8.14163 11.3943 8.17337ZM19.886 11.614C19.0752 12.7132 18.2842 13.5962 17.5196 14.2987L18.9348 15.7139C19.9331 14.7867 20.9329 13.6246 21.9288 12.1971C22.1759 11.8429 22.1618 11.3844 21.9273 11.0503L21.9228 11.0432C21.9033 11.0131 21.8755 10.9706 21.8396 10.917C21.7679 10.8098 21.6636 10.6582 21.5286 10.4722C21.259 10.1008 20.865 9.58992 20.361 9.02277C19.3612 7.89754 17.8904 6.50721 16.0623 5.56777C14.2178 4.61995 11.9725 4.11555 9.50767 4.85324C9.15948 4.95745 8.81006 5.08551 8.45967 5.23878L10.0114 6.79053C10.0347 6.78329 10.0579 6.77621 10.0811 6.76927C11.9329 6.21504 13.6405 6.57192 15.1482 7.34665C16.6721 8.12976 17.9526 9.32326 18.866 10.3512C19.3036 10.8438 19.6482 11.2883 19.886 11.614Z" fill="#171717"/>
</svg>
