<svg viewBox="0 0 24 24" xmlns="http://www.w3.org/2000/svg">
<path d="M19.8949 4.42105C20.4181 4.42105 20.8422 4.8452 20.8422 5.36842C20.8422 5.84804 20.4858 6.24441 20.0234 6.30714L19.8949 6.31579H4.10533C3.58211 6.31579 3.15796 5.89164 3.15796 5.36842C3.15796 4.8888 3.51437 4.49243 3.97678 4.4297L4.10533 4.42105H19.8949Z"/>
<path d="M19.8949 11.0526C20.4181 11.0526 20.8422 11.4768 20.8422 12C20.8422 12.4796 20.4858 12.876 20.0234 12.9387L19.8949 12.9474H4.10533C3.58211 12.9474 3.15796 12.5232 3.15796 12C3.15796 11.5204 3.51437 11.124 3.97678 11.0613L4.10533 11.0526H19.8949Z"/>
<path d="M20.8422 18.6316C20.8422 18.1084 20.4181 17.6842 19.8949 17.6842H4.10533L3.97678 17.6929C3.51437 17.7556 3.15796 18.152 3.15796 18.6316C3.15796 19.1548 3.58211 19.5789 4.10533 19.5789H19.8949L20.0234 19.5703C20.4858 19.5076 20.8422 19.1112 20.8422 18.6316Z"/>
</svg>
