<svg viewBox="0 0 24 24" xmlns="http://www.w3.org/2000/svg">
<path fill-rule="evenodd" clip-rule="evenodd" d="M3.1001 4.99998C3.1001 4.50292 3.50304 4.09998 4.0001 4.09998H20.0001C20.4972 4.09998 20.9001 4.50292 20.9001 4.99998C20.9001 5.49703 20.4972 5.89998 20.0001 5.89998H4.0001C3.50304 5.89998 3.1001 5.49703 3.1001 4.99998ZM3.1001 19C3.1001 18.5029 3.50304 18.1 4.0001 18.1H20.0001C20.4972 18.1 20.9001 18.5029 20.9001 19C20.9001 19.497 20.4972 19.9 20.0001 19.9H4.0001C3.50304 19.9 3.1001 19.497 3.1001 19ZM4.0001 11.1C3.50304 11.1 3.1001 11.5029 3.1001 12C3.1001 12.497 3.50304 12.9 4.0001 12.9H20.0001C20.4972 12.9 20.9001 12.497 20.9001 12C20.9001 11.5029 20.4972 11.1 20.0001 11.1H4.0001Z" fill="black"/>
<path d="M3.10034 4.99998C3.10034 4.50292 3.50329 4.09998 4.00034 4.09998H20.0003C20.4974 4.09998 20.9003 4.50292 20.9003 4.99998C20.9003 5.49703 20.4974 5.89998 20.0003 5.89998H4.00034C3.50329 5.89998 3.10034 5.49703 3.10034 4.99998Z"/>
<path d="M3.10034 19C3.10034 18.5029 3.50329 18.1 4.00034 18.1H20.0003C20.4974 18.1 20.9003 18.5029 20.9003 19C20.9003 19.497 20.4974 19.9 20.0003 19.9H4.00034C3.50329 19.9 3.10034 19.497 3.10034 19Z"/>
<path d="M4.00034 11.1C3.50329 11.1 3.10034 11.5029 3.10034 12C3.10034 12.497 3.50329 12.9 4.00034 12.9H20.0003C20.4974 12.9 20.9003 12.497 20.9003 12C20.9003 11.5029 20.4974 11.1 20.0003 11.1H4.00034Z"/>
</svg>
