<svg viewBox="0 0 24 24" xmlns="http://www.w3.org/2000/svg">
<path d="M12.0006 1.89471C14.7161 1.89471 17.2637 2.97214 19.1461 4.85342C21.0286 6.73589 22.1059 9.28339 22.1059 12C22.1059 14.7157 21.0285 17.2631 19.1461 19.1455C18.7762 19.5155 18.1763 19.5155 17.8063 19.1455C17.4364 18.7755 17.4364 18.1757 17.8063 17.8057C19.3369 16.2752 20.2111 14.2081 20.2111 12C20.2111 9.79101 19.337 7.72383 17.8066 6.19341C16.276 4.66384 14.2085 3.78945 12.0006 3.78945C7.4662 3.78945 3.79001 7.46535 3.79001 12C3.79001 16.534 7.46657 20.2105 12.0006 20.2105C13.0033 20.2105 13.981 20.031 14.8995 19.6852C15.3892 19.5008 15.9356 19.7483 16.1199 20.2379C16.3043 20.7276 16.0568 21.274 15.5671 21.4584C14.4362 21.8842 13.2323 22.1052 12.0006 22.1052C6.42013 22.1052 1.89526 17.5804 1.89526 12C1.89526 6.41888 6.4198 1.89471 12.0006 1.89471Z"/>
<path d="M13.2637 17.0526C13.2637 17.7511 12.6978 18.3158 12.0006 18.3158C11.3033 18.3158 10.7374 17.7511 10.7374 17.0526C10.7374 16.3541 11.3033 15.7895 12.0006 15.7895C12.6978 15.7895 13.2637 16.3541 13.2637 17.0526Z"/>
<path d="M15.7901 10.0263C15.7901 7.97175 14.0868 6.31577 12.0006 6.31577C9.91438 6.31577 8.21108 7.97175 8.21108 10.0263C8.21108 10.5495 8.63523 10.9737 9.15845 10.9737C9.68167 10.9737 10.1058 10.5495 10.1058 10.0263C10.1058 9.03031 10.9491 8.2105 12.0006 8.2105C13.0521 8.2105 13.8953 9.03031 13.8953 10.0263C13.8953 10.9665 12.9624 11.8421 12.0006 11.8421L11.872 11.8507C11.4096 11.9135 11.0532 12.3098 11.0532 12.7895V13.8947L11.0618 14.0233C11.1246 14.4857 11.5209 14.8421 12.0006 14.8421L12.1291 14.8334C12.5915 14.7707 12.9479 14.3743 12.9479 13.8947V13.6055L13.0365 13.5824C14.5707 13.1209 15.7901 11.6811 15.7901 10.0263Z"/>
</svg>
