<svg viewBox="0 0 24 24" xmlns="http://www.w3.org/2000/svg">
<path fill-rule="evenodd" clip-rule="evenodd" d="M12.1115 21.6288L12.133 21.6141C12.4735 21.382 15.8889 19.054 17.9973 16.9224C18.1761 16.7421 18.3559 16.5624 18.5358 16.3826L18.5632 16.3553C20.7625 14.1575 23.0001 11.9215 23.0001 8.67554C23.0001 5.15445 20.1762 2.29504 16.686 2.29504C15.3254 2.29504 14.0663 2.73097 13.0363 3.46801C12.6579 3.73876 12.3105 4.05014 12.0001 4.3955C11.6898 4.05014 11.3423 3.73876 10.9639 3.46801C9.93392 2.73097 8.67481 2.29504 7.31423 2.29504C3.82416 2.29504 1.00012 5.14885 1.00012 8.67554C1.00012 11.9215 3.23771 14.1575 5.43709 16.3553L5.46422 16.3824C5.64417 16.5622 5.82396 16.7419 6.00279 16.9223C8.11116 19.0538 11.5267 21.382 11.8673 21.6141L11.8888 21.6288L12.0001 21.705L12.1115 21.6288ZM17.1612 14.9852C16.9776 15.1689 16.79 15.3566 16.5991 15.5491L16.5977 15.5505C15.224 16.9394 13.207 18.4521 12.0001 19.3166C10.7932 18.4521 8.77616 16.9393 7.40242 15.5504L7.40111 15.5491C7.21016 15.3565 7.02241 15.1687 6.83869 14.9849C5.8126 13.9585 4.91439 13.0593 4.20816 12.0815C3.41173 10.9788 2.96441 9.90761 2.96441 8.67554C2.96441 6.20131 4.93631 4.25026 7.31423 4.25026C8.64025 4.25026 9.83408 4.85455 10.641 5.82013L12.0001 7.44642L13.3592 5.82013C14.1662 4.85455 15.36 4.25026 16.686 4.25026C19.0629 4.25026 21.0358 6.20578 21.0358 8.67554C21.0358 9.90761 20.5885 10.9788 19.7921 12.0815C19.0859 13.0593 18.1873 13.9588 17.1612 14.9852Z" fill="#171717"/>
</svg>
