<svg viewBox="0 0 24 24" xmlns="http://www.w3.org/2000/svg">
<path fill-rule="evenodd" clip-rule="evenodd" d="M11.6088 2.41169C12.2338 1.42733 13.6099 1.22102 14.4834 2.03437C18.5799 5.84864 21.1495 9.5084 21.1495 13.6004C21.1495 18.5158 17.328 22.4004 11.9995 22.4004C9.36692 22.4004 7.07308 21.5019 5.432 19.9242C3.78881 18.3445 2.84949 16.1304 2.84949 13.6004C2.84949 10.8748 3.9609 8.26304 5.85942 6.26238C6.48763 5.60036 7.48784 5.62911 8.11071 6.18969L8.81029 6.81932L11.6088 2.41169ZM8.49949 15.6C8.49949 17.5 10.0495 19 11.9995 19C13.9495 19 15.4995 17.5 15.4995 15.6C15.4995 13.7 13.9495 12.2 11.9995 10.5C10.0495 12.2 8.49949 13.7 8.49949 15.6Z"/>
</svg>
