<svg viewBox="0 0 24 24" xmlns="http://www.w3.org/2000/svg">
<path fill-rule="evenodd" clip-rule="evenodd" d="M14.0876 16.5L13.4472 14.16H10.4914L9.85096 16.5H8.00359L10.9224 7.38632H13.0654L15.9966 16.5H14.0876ZM10.8855 12.7437H13.0531L12.7821 11.7461C12.6104 11.1713 12.4523 10.5602 12.294 9.94859C12.1912 9.55126 12.0883 9.1537 11.9816 8.76569H11.9323C11.6983 9.76327 11.4274 10.7978 11.1564 11.7461L10.8855 12.7437Z"/>
<path fill-rule="evenodd" clip-rule="evenodd" d="M18.8685 1.89474H5.13163C3.34462 1.89474 1.89478 3.34458 1.89478 5.13159V18.8684C1.89478 20.6554 3.34462 22.1053 5.13163 22.1053H18.8685C20.6555 22.1053 22.1054 20.6554 22.1054 18.8684V5.13159C22.1054 3.34458 20.6555 1.89474 18.8685 1.89474ZM5.13163 3.78948H18.8685C19.6091 3.78948 20.2106 4.39101 20.2106 5.13159V18.8684C20.2106 19.609 19.6091 20.2105 18.8685 20.2105H5.13163C4.39105 20.2105 3.78952 19.609 3.78952 18.8684V5.13159C3.78952 4.39101 4.39105 3.78948 5.13163 3.78948Z"/>
</svg>
