<svg viewBox="0 0 24 24" xmlns="http://www.w3.org/2000/svg">
<path d="M22.538 6.70905C22.285 5.76305 21.537 5.01505 20.591 4.76205C18.875 4.30005 12 4.30005 12 4.30005C12 4.30005 5.125 4.30005 3.409 4.76205C2.463 5.01505 1.715 5.76305 1.462 6.70905C1 8.42505 1 12 1 12C1 12 1 15.575 1.462 17.291C1.715 18.237 2.463 18.985 3.409 19.238C5.125 19.7 12 19.7 12 19.7C12 19.7 18.875 19.7 20.591 19.238C21.537 18.985 22.285 18.237 22.538 17.291C23 15.575 23 12 23 12C23 12 23 8.42505 22.538 6.70905ZM9.8 15.3V8.70005L15.52 12L9.8 15.3Z"/>
</svg>
