<svg viewBox="0 0 24 24" xmlns="http://www.w3.org/2000/svg">
<path fill-rule="evenodd" clip-rule="evenodd" d="M12.0001 1.89473C17.5781 1.89473 22.1054 6.35612 22.1054 11.8662C22.1054 15.2076 20.4276 18.2677 17.6835 20.1125C17.2493 20.4044 16.6607 20.2891 16.3688 19.8549C16.0768 19.4207 16.1922 18.832 16.6264 18.5401C17.6961 17.8209 18.5651 16.8763 19.1793 15.7895H16.126L16.0728 16.1175C15.4403 19.648 13.9848 22.1053 12.0001 22.1053C6.42203 22.1053 1.89478 17.6439 1.89478 12.1338C1.89478 8.7924 3.57257 5.73228 6.31661 3.88747C6.75082 3.59555 7.33947 3.7109 7.63139 4.14511C7.92331 4.57932 7.80796 5.16797 7.37375 5.45988C6.30401 6.17907 5.43508 7.12364 4.8208 8.21052H7.86967C8.46849 4.51976 9.9568 1.89473 12.0001 1.89473ZM16.3502 13.8947H19.9492C20.1207 13.2421 20.2106 12.5617 20.2106 11.8662C20.2106 11.2601 20.1427 10.6696 20.014 10.1015L19.958 10.1053H16.3518C16.3976 10.7196 16.4211 11.3531 16.4211 12C16.4211 12.3416 16.4143 12.6811 16.4007 13.0176C16.3888 13.3139 16.3719 13.6065 16.3502 13.8947ZM14.4481 13.8947H9.55376C9.502 13.2874 9.47375 12.6531 9.47375 12C9.47375 11.3468 9.502 10.7126 9.55376 10.1053H14.4464C14.4982 10.7126 14.5264 11.3468 14.5264 12C14.5264 12.3162 14.5201 12.6302 14.5075 12.9412C14.4945 13.2657 14.4744 13.5839 14.4481 13.8947ZM9.80337 15.7895H14.1979C13.7136 18.4407 12.7798 20.2105 12.0001 20.2105C11.3814 20.2105 10.6934 19.1463 10.1918 17.4468L10.0472 16.9183C9.95723 16.5635 9.87534 16.1861 9.80337 15.7895ZM7.64832 13.8947C7.60252 13.2804 7.57901 12.6469 7.57901 12C7.57901 11.3531 7.60252 10.7196 7.64832 10.1053H4.05097C3.87943 10.7579 3.78952 11.4383 3.78952 12.1338C3.78952 12.7399 3.85742 13.3304 3.98616 13.8985L4.04215 13.8947H7.64832ZM4.67687 15.7895H7.86967C8.1135 17.2923 8.5048 18.6184 9.021 19.6625C7.13431 18.9396 5.58705 17.5503 4.67687 15.7895ZM14.9792 4.33744C16.8658 5.06035 18.4131 6.44966 19.3233 8.21052H16.1305C15.8867 6.70771 15.4954 5.3816 14.9792 4.33744ZM13.953 7.08164C14.0429 7.43652 14.1248 7.81387 14.1968 8.21052H9.80337C9.87534 7.81387 9.95723 7.43652 10.0472 7.08164L10.1918 6.55318C10.6934 4.85373 11.3814 3.78947 12.0001 3.78947C12.6188 3.78947 13.3068 4.85373 13.8084 6.55318L13.953 7.08164Z"/>
</svg>
