<svg viewBox="0 0 24 24" xmlns="http://www.w3.org/2000/svg">
<path fill-rule="evenodd" clip-rule="evenodd" d="M19.9999 9.89998H3.99985V8.09998H19.9999V9.89998Z"/>
<path fill-rule="evenodd" clip-rule="evenodd" d="M19.9999 15.9H3.99985V14.1H19.9999V15.9Z"/>
<path fill-rule="evenodd" clip-rule="evenodd" d="M10.7746 21.5329C5.01276 13.6912 8.38666 5.54544 10.7887 2.4484L12.211 3.55155C10.0853 6.29235 7.12037 13.5196 12.2251 20.4671L10.7746 21.5329Z"/>
<path fill-rule="evenodd" clip-rule="evenodd" d="M13.2251 2.46707C18.9869 10.3088 15.613 18.4545 13.211 21.5515L11.7887 20.4484C13.9144 17.7076 16.8793 10.4803 11.7746 3.53288L13.2251 2.46707Z"/>
<path fill-rule="evenodd" clip-rule="evenodd" d="M11.9999 3.89998C7.52635 3.89998 3.89985 7.52647 3.89985 12C3.89985 16.4735 7.52635 20.1 11.9999 20.1C16.4734 20.1 20.0999 16.4735 20.0999 12C20.0999 7.52647 16.4734 3.89998 11.9999 3.89998ZM2.09985 12C2.09985 6.53236 6.53223 2.09998 11.9999 2.09998C17.4675 2.09998 21.8999 6.53236 21.8999 12C21.8999 17.4676 17.4675 21.9 11.9999 21.9C6.53223 21.9 2.09985 17.4676 2.09985 12Z"/>
</svg>
