<svg viewBox="0 0 24 24" xmlns="http://www.w3.org/2000/svg">
<path d="M12.0001 3.89998C10.2639 3.89998 8.9001 5.26187 8.9001 6.88886V10.1L17.2497 10.1C17.5856 10.0999 17.9051 10.0999 18.1714 10.1284C18.4646 10.1598 18.7966 10.2339 19.1048 10.4541C19.2752 10.5759 19.4242 10.7249 19.546 10.8953C19.7662 11.2035 19.8403 11.5355 19.8717 11.8287C19.9002 12.0949 19.9002 12.4144 19.9001 12.7504V19.2496C19.9002 19.5855 19.9002 19.905 19.8717 20.1713C19.8403 20.4645 19.7662 20.7965 19.546 21.1047C19.4242 21.275 19.2752 21.4241 19.1048 21.5458C18.7966 21.7661 18.4646 21.8402 18.1714 21.8716C17.9051 21.9001 17.5856 21.9 17.2497 21.9H6.75053C6.41457 21.9 6.09507 21.9001 5.82879 21.8716C5.53561 21.8402 5.20361 21.7661 4.89542 21.5458C4.72506 21.4241 4.57599 21.275 4.45425 21.1047C4.23401 20.7965 4.15989 20.4645 4.12851 20.1713C4.10002 19.905 4.10006 19.5855 4.1001 19.2495V12.7504C4.10006 12.4145 4.10002 12.0949 4.12851 11.8287C4.15989 11.5355 4.23401 11.2035 4.45425 10.8953C4.57599 10.7249 4.72506 10.5759 4.89542 10.4541C5.20361 10.2339 5.53561 10.1598 5.82879 10.1284C6.09507 10.0999 6.41457 10.0999 6.75054 10.1L7.1001 10.1V6.88886C7.1001 4.22029 9.31798 2.09998 12.0001 2.09998C14.6822 2.09998 16.9001 4.22029 16.9001 6.88886V7.5H15.1001V6.88886C15.1001 5.26187 13.7362 3.89998 12.0001 3.89998Z"/>
</svg>
