<svg viewBox="0 0 24 24" xmlns="http://www.w3.org/2000/svg">
<path d="M21.1565 1.8918C21.6797 1.8918 22.1039 2.31595 22.1039 2.83917C22.1039 3.31878 21.7475 3.71516 21.2851 3.77789L21.1565 3.78654L4.6886 3.78568L9.97469 11.1308C10.0617 11.2517 10.1185 11.3908 10.1415 11.5366L10.1531 11.6842L10.153 17.165L13.8364 19.4526L13.8377 11.6842C13.8377 11.5351 13.8728 11.3889 13.9394 11.2571L14.0163 11.1305L17.4044 6.42707C17.7102 6.00253 18.3023 5.90628 18.7268 6.2121C19.1128 6.49011 19.2274 7.0047 19.0153 7.41492L18.9418 7.53452L15.7312 11.9899L15.7324 21.1579C15.7324 21.8571 15.0094 22.3003 14.3982 22.0231L14.2851 21.9626L8.70579 18.4964C8.4673 18.3482 8.30892 18.1035 8.26854 17.8303L8.25836 17.6917L8.2583 11.9899L2.07169 3.39253C1.64724 2.8027 2.01898 1.99377 2.70788 1.90064L2.84065 1.8918H21.1565Z"/>
</svg>
