<svg viewBox="0 0 24 24" fill="none" xmlns="http://www.w3.org/2000/svg">
<path fill-rule="evenodd" clip-rule="evenodd" d="M24.0005 0H0.000488281V24H24.0005V0ZM12.0012 5.90324C10.3811 5.90324 9.06783 7.21654 9.06783 8.83657C9.06783 10.4566 10.3811 11.7699 12.0012 11.7699C13.6212 11.7699 14.9345 10.4566 14.9345 8.83657C14.9345 7.21654 13.6212 5.90324 12.0012 5.90324ZM7.94534 13.9487C9.02152 13.369 10.4598 13.0673 12.0011 13.0673C13.5424 13.0673 14.9807 13.369 16.0569 13.9487C17.1323 14.528 17.9344 15.4448 17.9344 16.6673L17.9344 16.8852C17.9344 17.0096 17.9345 17.1363 17.9256 17.2446C17.9158 17.3651 17.892 17.5146 17.8145 17.6667C17.7091 17.8737 17.5408 18.042 17.3338 18.1474C17.1817 18.225 17.0322 18.2487 16.9117 18.2585C16.8035 18.2674 16.6768 18.2674 16.5524 18.2674H16.5523L7.45001 18.2679C7.32557 18.2679 7.19889 18.268 7.09059 18.2591C6.97011 18.2493 6.82061 18.2256 6.66844 18.1481C6.46145 18.0426 6.29316 17.8743 6.18769 17.6673C6.11016 17.5152 6.08644 17.3657 6.0766 17.2452C6.06775 17.1369 6.06777 17.0102 6.06779 16.8858L6.06779 16.6673C6.06779 15.4448 6.86992 14.528 7.94534 13.9487Z" fill="#8C9196" fill-opacity="0.205"/>
</svg>
