<svg viewBox="0 0 24 24" xmlns="http://www.w3.org/2000/svg">
<path d="M19.1456 4.85342C17.2632 2.97214 14.7156 1.89471 12.0001 1.89471C6.41931 1.89471 1.89478 6.41888 1.89478 12C1.89478 17.5804 6.41965 22.1052 12.0001 22.1052C13.2319 22.1052 14.4357 21.8842 15.5667 21.4584C16.0563 21.274 16.3038 20.7276 16.1194 20.2379C15.9351 19.7483 15.3887 19.5008 14.899 19.6852C13.9805 20.031 13.0028 20.2105 12.0001 20.2105C7.46608 20.2105 3.78952 16.534 3.78952 12C3.78952 7.46535 7.46572 3.78945 12.0001 3.78945C14.208 3.78945 16.2755 4.66384 17.8061 6.19341C19.3365 7.72383 20.2106 9.79101 20.2106 12C20.2106 14.2081 19.3364 16.2752 17.8059 17.8057C17.4359 18.1757 17.4359 18.7755 17.8059 19.1455C18.1758 19.5155 18.7757 19.5155 19.1456 19.1455C21.028 17.2631 22.1054 14.7157 22.1054 12C22.1054 9.28339 21.0281 6.73589 19.1456 4.85342Z"/>
<path d="M16.7763 8.7732C16.4054 8.4042 15.8056 8.40578 15.4366 8.77672L10.7344 13.5019L8.56893 11.3295L8.46279 11.2376C8.09226 10.9619 7.56591 10.9919 7.22914 11.3278C6.85871 11.6973 6.85795 12.2971 7.22745 12.6676L10.0662 15.5134L10.1726 15.6055C10.5442 15.8818 11.0722 15.8507 11.4086 15.5125L16.7799 10.113L16.8713 10.0065C17.1455 9.63488 17.1136 9.10865 16.7763 8.7732Z"/>
</svg>
