<svg viewBox="0 0 24 24" xmlns="http://www.w3.org/2000/svg">
<path d="M11.3878 2.11683C11.701 1.85369 12.1419 1.82436 12.4835 2.0289L12.6065 2.11656L20.5048 8.74814C20.6834 8.89814 20.7992 9.10759 20.8328 9.33523L20.843 9.47368V21.1579C20.843 21.6375 20.4866 22.0339 20.0242 22.0966L19.8956 22.1053H14.2105C13.6873 22.1053 13.2632 21.6811 13.2632 21.1579C13.2632 20.6783 13.6196 20.2819 14.082 20.2192L14.2105 20.2105H18.9474V9.91452L11.9975 4.07873L5.05261 9.91578V20.2105H8.8421V13.5789C8.8421 13.0993 9.19851 12.703 9.66092 12.6402L9.78947 12.6316H14.2105C14.6902 12.6316 15.0865 12.988 15.1493 13.4504L15.1579 13.5789V17.3684C15.1579 17.8916 14.7338 18.3158 14.2105 18.3158C13.7309 18.3158 13.3346 17.9594 13.2718 17.497L13.2632 17.3684L13.2619 14.5263H10.7368V21.1579C10.7368 21.6375 10.3804 22.0339 9.91803 22.0966L9.78947 22.1053H4.10606C3.62645 22.1053 3.23007 21.7489 3.16734 21.2864L3.15869 21.1579V9.47368C3.15869 9.24052 3.24458 9.0173 3.39716 8.8452L3.49656 8.7484L11.3878 2.11683Z"/>
</svg>
