<svg viewBox="0 0 24 24" xmlns="http://www.w3.org/2000/svg">
<path fill-rule="evenodd" clip-rule="evenodd" d="M11.4687 2.77322C11.785 2.54223 12.2143 2.54223 12.5305 2.77322L20.5305 8.61697C20.7625 8.78642 20.8996 9.05645 20.8996 9.34373L20.8996 18.5507C20.8997 18.9781 20.8998 19.3841 20.855 19.7172C20.805 20.0893 20.6847 20.5019 20.3431 20.8435C20.0016 21.185 19.5889 21.3053 19.2168 21.3553C18.8838 21.4001 18.4778 21.4 18.0504 21.4H5.94885C5.52146 21.4 5.11549 21.4001 4.78243 21.3553C4.41031 21.3053 3.99766 21.185 3.65612 20.8435C3.31458 20.5019 3.19429 20.0893 3.14426 19.7172C3.09948 19.3841 3.09955 18.9781 3.09961 18.5507C3.09962 18.5339 3.09962 18.5169 3.09962 18.5V9.34373C3.09962 9.05645 3.23677 8.78642 3.46875 8.61697L11.4687 2.77322ZM4.89962 9.80085V18.5C4.89962 18.9968 4.90153 19.2789 4.92821 19.4773C4.93283 19.5117 4.93757 19.5381 4.94182 19.5578C4.96154 19.562 4.98787 19.5668 5.02227 19.5714C5.22068 19.5981 5.50277 19.6 5.99962 19.6H11.0996V14H12.8996V19.6H17.9996C18.4965 19.6 18.7786 19.5981 18.977 19.5714C19.0114 19.5668 19.0377 19.562 19.0574 19.5578C19.0617 19.5381 19.0664 19.5117 19.071 19.4773C19.0977 19.2789 19.0996 18.9968 19.0996 18.5V9.80085L11.9996 4.61452L4.89962 9.80085Z"/>
</svg>
