<svg viewBox="0 0 24 24" xmlns="http://www.w3.org/2000/svg">
<path fill-rule="evenodd" clip-rule="evenodd" d="M5.49985 3.9001C5.44463 3.9001 5.39985 3.94487 5.39985 4.0001V20.0001C5.39985 20.0553 5.44463 20.1001 5.49985 20.1001H18.4999C18.5551 20.1001 18.5999 20.0553 18.5999 20.0001V8.4226L14.2927 3.9001H5.49985ZM3.59985 4.0001C3.59985 2.95076 4.45051 2.1001 5.49985 2.1001H15.0641L20.3999 7.7026V20.0001C20.3999 21.0494 19.5492 21.9001 18.4999 21.9001H5.49985C4.45051 21.9001 3.59985 21.0494 3.59985 20.0001V4.0001Z"/>
<path fill-rule="evenodd" clip-rule="evenodd" d="M13.0999 3.0001H14.8999V7.1001H18.9999V8.9001H13.0999V3.0001Z"/>
<path fill-rule="evenodd" clip-rule="evenodd" d="M12.4999 15.3001H7.49985V13.5001H12.4999V15.3001Z"/>
<path fill-rule="evenodd" clip-rule="evenodd" d="M12.4999 18.3001H7.49985V16.5001H12.4999V18.3001Z"/>
</svg>
