<svg viewBox="0 0 24 24" xmlns="http://www.w3.org/2000/svg">
<path fill-rule="evenodd" clip-rule="evenodd" d="M9.99971 1.70001C5.41574 1.70001 1.69971 5.41605 1.69971 10C1.69971 14.584 5.41574 18.3 9.99971 18.3C11.8226 18.3 13.5083 17.7124 14.8775 16.7161L19.5806 21.4192C20.0883 21.9269 20.9114 21.9269 21.4191 21.4192C21.9268 20.9115 21.9268 20.0884 21.4191 19.5807L16.716 14.8776C17.7121 13.5084 18.2997 11.8228 18.2997 10C18.2997 5.41605 14.5837 1.70001 9.99971 1.70001ZM4.29971 10C4.29971 6.85199 6.85168 4.30001 9.99971 4.30001C13.1477 4.30001 15.6997 6.85199 15.6997 10C15.6997 13.148 13.1477 15.7 9.99971 15.7C6.85168 15.7 4.29971 13.148 4.29971 10Z"/>
</svg>
