<svg viewBox="0 0 24 24" xmlns="http://www.w3.org/2000/svg">
<path fill-rule="evenodd" clip-rule="evenodd" d="M9.47375 1.89474C13.6595 1.89474 17.0527 5.28795 17.0527 9.47369C17.0527 11.1104 16.5339 12.626 15.6517 13.8648L21.7354 19.949C22.2287 20.4423 22.2287 21.2421 21.7354 21.7353C21.28 22.1907 20.5635 22.2257 20.068 21.8404L19.949 21.7353L13.8654 15.6513C12.6265 16.5337 11.1107 17.0526 9.47375 17.0526C5.288 17.0526 1.89478 13.6594 1.89478 9.47369C1.89478 5.28795 5.288 1.89474 9.47375 1.89474ZM9.47375 4.42106C6.68325 4.42106 4.4211 6.6832 4.4211 9.47369C4.4211 12.2642 6.68325 14.5263 9.47375 14.5263C12.2643 14.5263 14.5264 12.2642 14.5264 9.47369C14.5264 6.6832 12.2643 4.42106 9.47375 4.42106Z"/>
</svg>
