<svg width="24" height="25" viewBox="0 0 24 25" fill="none" xmlns="http://www.w3.org/2000/svg">
<path fill-rule="evenodd" clip-rule="evenodd" d="M21.1502 2.66455H19.3502V4.91455H17.1002V6.71455H19.3502V8.96455H21.1502V6.71455H23.4002V4.91455H21.1502V2.66455Z" fill="#171719"/>
<path fill-rule="evenodd" clip-rule="evenodd" d="M5.44933 2.66456C5.02194 2.66449 4.61597 2.66442 4.28291 2.7092C3.9108 2.75923 3.49814 2.87952 3.1566 3.22106C2.81507 3.5626 2.69477 3.97525 2.64475 4.34737C2.59997 4.68043 2.60003 5.08639 2.6001 5.51379L2.60011 22.4646H14.6001V17.5645H16.4001V22.4644H21.4001L21.4001 13.5136C21.4002 13.0862 21.4003 12.6802 21.3555 12.3472C21.3054 11.9751 21.1852 11.5624 20.8436 11.2209C20.5021 10.8793 20.0894 10.759 19.7173 10.709C19.3843 10.6642 18.9783 10.6643 18.5509 10.6644L15.4001 10.6644L15.4001 5.51377C15.4002 5.08638 15.4002 4.68042 15.3554 4.34737C15.3054 3.97525 15.1851 3.5626 14.8436 3.22106C14.502 2.87952 14.0894 2.75923 13.7173 2.7092C13.3842 2.66442 12.9782 2.66449 12.5509 2.66456H5.44933ZM11.5001 12.4645H6.50008V10.6645H11.5001V12.4645ZM11.5001 8.46454H6.50008V6.66454H11.5001V8.46454Z" fill="#171719"/>
</svg>
