<svg width="24" height="28" viewBox="0 0 24 28" fill="none" xmlns="http://www.w3.org/2000/svg">
<path fill-rule="evenodd" clip-rule="evenodd" d="M11.9999 12.61C11.2267 12.61 10.5999 13.2368 10.5999 14.01C10.5999 14.7832 11.2267 15.41 11.9999 15.41C12.7731 15.41 13.3999 14.7832 13.3999 14.01C13.3999 13.2368 12.7731 12.61 11.9999 12.61ZM8.79993 14.01C8.79993 12.2427 10.2326 10.81 11.9999 10.81C13.7672 10.81 15.1999 12.2427 15.1999 14.01C15.1999 15.7773 13.7672 17.21 11.9999 17.21C10.2326 17.21 8.79993 15.7773 8.79993 14.01Z" fill="#171717"/>
<path fill-rule="evenodd" clip-rule="evenodd" d="M11.0039 6.11L10.6565 8.56225L9.82599 8.9083L9.82486 8.90877C9.39942 9.08757 9.00678 9.31765 8.64631 9.59195L7.92962 10.1468L5.63981 9.21657L4.65797 10.9211L6.60892 12.4431L6.49274 13.326C6.46553 13.5631 6.44951 13.7644 6.44951 13.9955C6.44951 14.23 6.46606 14.4628 6.49316 14.7083L6.60717 15.5975L4.67245 17.1148L5.65417 18.8074L7.94904 17.8792L8.67366 18.4169C9.02276 18.6828 9.42403 18.9071 9.85793 19.0934L10.6884 19.4395L11.0242 21.8709H12.9984L13.3458 19.4187L14.1744 19.0735C14.5977 18.8917 15.0003 18.6596 15.356 18.389L16.0727 17.8341L18.3625 18.7644L19.3444 17.0598L17.3934 15.5378L17.5096 14.6549C17.5367 14.4186 17.5528 14.2073 17.5528 13.9855C17.5528 13.7614 17.5364 13.529 17.5092 13.2827L17.3952 12.3934L19.3299 10.8762L18.3482 9.18353L16.0533 10.1117L15.3287 9.57406C14.9796 9.30807 14.5783 9.08377 14.1444 8.89749L13.3139 8.55145L12.9768 6.11H11.0039ZM18.4328 8.17846C18.1482 7.32465 18.1484 7.3246 18.1484 7.3246L18.1494 7.32425L18.1508 7.32381L18.1539 7.32277L18.162 7.32015L18.1851 7.31295C18.2028 7.30754 18.2278 7.30022 18.2569 7.29262L18.2598 7.29187C18.2941 7.28286 18.4253 7.24848 18.5728 7.24848C19.0302 7.24848 19.4277 7.49281 19.6519 7.8452L19.6618 7.86082L21.1263 10.3858C21.4304 10.9263 21.3026 11.6159 20.8079 12.0045L19.3084 13.1805C19.3348 13.4396 19.3528 13.7092 19.3528 13.9855C19.3528 14.257 19.3354 14.5069 19.31 14.75L20.8179 15.9264C21.3193 16.3203 21.4361 17.0221 21.1363 17.5551L21.1318 17.5631L19.6826 20.079L19.6719 20.0957C19.4738 20.407 19.0937 20.7025 18.5928 20.7025C18.5901 20.7025 18.587 20.7025 18.5834 20.7025C18.5183 20.703 18.3097 20.7044 18.0753 20.5905L16.3531 19.8909C15.9277 20.2035 15.4642 20.4695 14.9846 20.6836L14.7148 22.5882L14.713 22.599C14.6163 23.1793 14.1185 23.6709 13.4554 23.6709H11.4669V23.6809H10.5669C9.92834 23.6809 9.40854 23.2042 9.30935 22.609L9.30728 22.5966L9.0458 20.7029C8.577 20.4945 8.11556 20.2392 7.68737 19.9267L5.88083 20.6574L5.85411 20.6663L5.5695 19.8125C5.85411 20.6663 5.85411 20.6663 5.85411 20.6663L5.85292 20.6667L5.84842 20.6681L5.84031 20.6708L5.81729 20.678C5.79957 20.6834 5.77459 20.6907 5.74546 20.6983L5.7426 20.699C5.70823 20.7081 5.57707 20.7424 5.42957 20.7424C4.97212 20.7424 4.57469 20.4981 4.35044 20.1457L4.3405 20.1301L2.876 17.6051C2.57197 17.0646 2.69976 16.375 3.1944 15.9864L4.69391 14.8104C4.66746 14.5506 4.64951 14.2801 4.64951 13.9955C4.64951 13.7151 4.66696 13.4713 4.69233 13.2309L3.19453 12.0624C2.63898 11.644 2.58786 10.9204 2.86607 10.4258L2.87057 10.4178L4.31978 7.90194L4.33045 7.88518C4.52853 7.57391 4.90869 7.27846 5.40958 7.27846C5.41225 7.27846 5.41536 7.27844 5.4189 7.27842C5.484 7.27797 5.69268 7.27652 5.92705 7.39039L7.64915 8.09C8.0697 7.78026 8.52607 7.51296 9.01785 7.29651L9.28756 5.39271L9.28936 5.38187C9.38607 4.80165 9.8838 4.31 10.5469 4.31H13.4354C14.074 4.31 14.5938 4.78672 14.693 5.38187L14.6951 5.39428L14.9565 7.28805C15.4253 7.49645 15.8868 7.7517 16.315 8.0642L18.1215 7.33356L18.1484 7.3246L18.4328 8.17846Z" fill="#171717"/>
</svg>
