<svg viewBox="0 0 24 24" xmlns="http://www.w3.org/2000/svg">
<path fill-rule="evenodd" clip-rule="evenodd" d="M9.60754 2.06592C10.3769 1.89182 11.1779 1.79999 11.9997 1.79999C12.8215 1.79999 13.6225 1.89183 14.3919 2.06596C15.2885 2.26886 15.7249 3.0415 15.8957 3.58624C16.0281 4.00856 16.3212 4.3915 16.762 4.63789C17.1748 4.8687 17.6401 4.93621 18.0793 4.85855C18.6446 4.7586 19.5004 4.80644 20.0794 5.48287C20.8156 6.34279 21.41 7.3236 21.826 8.39161C22.2102 9.37795 21.6421 10.2547 21.1697 10.694C20.8081 11.0303 20.5918 11.4932 20.5918 12C20.5918 12.5068 20.8081 12.9696 21.1697 13.3059C21.6421 13.7453 22.2102 14.622 21.826 15.6083C21.4102 16.676 20.8159 17.6566 20.0801 18.5163C19.501 19.193 18.645 19.2408 18.0795 19.1407C17.6402 19.063 17.1749 19.1305 16.7619 19.3613C16.3211 19.6078 16.0278 19.9908 15.8955 20.4133C15.7249 20.9582 15.2884 21.7312 14.3916 21.9341C13.6223 22.1082 12.8214 22.2 11.9997 22.2C11.1779 22.2 10.3769 22.1082 9.60756 21.9341C8.71097 21.7312 8.27452 20.9585 8.10377 20.4137C7.9714 19.9914 7.67821 19.6085 7.23749 19.3621C6.82461 19.1312 6.35934 19.0637 5.9201 19.1414C5.35473 19.2414 4.49894 19.1936 3.91987 18.5171C3.18377 17.6572 2.58932 16.6764 2.17334 15.6085C1.78914 14.6221 2.35731 13.7453 2.82974 13.306C3.19135 12.9697 3.40763 12.5068 3.40763 12C3.40763 11.4931 3.19135 11.0303 2.82975 10.694C2.35732 10.2546 1.78916 9.37786 2.17336 8.39146C2.58932 7.32354 3.18374 6.34281 3.91979 5.48295C4.49887 4.80647 5.35468 4.75866 5.92005 4.85864C6.35929 4.93632 6.82456 4.86881 7.23745 4.63799C7.67818 4.39159 7.97137 4.00863 8.10374 3.58628C8.27448 3.04151 8.71093 2.26882 9.60754 2.06592ZM10.0437 3.91528C10.0402 3.9186 10.0351 3.92375 10.0286 3.93135C9.99544 3.97025 9.95117 4.04481 9.91678 4.15452C9.64147 5.03294 9.03555 5.80951 8.1646 6.29641C7.35252 6.75041 6.44029 6.88012 5.58918 6.72961C5.48778 6.71168 5.4109 6.71699 5.36792 6.72729C5.36081 6.72899 5.35554 6.73057 5.35182 6.73182C4.7614 7.42446 4.28609 8.20953 3.95215 9.05971C3.95342 9.06415 3.95533 9.07006 3.95817 9.0776C3.97866 9.13195 4.03133 9.21677 4.12369 9.30268C4.84802 9.97632 5.30763 10.9337 5.30763 12C5.30763 13.0662 4.84801 14.0236 4.12368 14.6973C4.03131 14.7832 3.97865 14.868 3.95815 14.9223C3.95531 14.9299 3.95341 14.9358 3.95214 14.9402C4.28609 15.7905 4.76142 16.5756 5.35188 17.2682C5.35561 17.2695 5.36087 17.2711 5.36799 17.2728C5.41097 17.2831 5.48784 17.2884 5.58923 17.2704C6.44034 17.1199 7.35257 17.2496 8.16464 17.7036C9.03557 18.1905 9.64148 18.9671 9.9168 19.8455C9.95119 19.9552 9.99546 20.0297 10.0287 20.0686C10.0351 20.0762 10.0402 20.0814 10.0437 20.0847C10.6711 20.2254 11.3258 20.3 11.9997 20.3C12.6735 20.3 13.3281 20.2254 13.9555 20.0847C13.959 20.0814 13.964 20.0763 13.9705 20.0686C14.0037 20.0297 14.048 19.9551 14.0824 19.8454C14.3576 18.9667 14.9636 18.1899 15.8348 17.7029C16.647 17.2488 17.5594 17.1191 18.4106 17.2698C18.512 17.2877 18.5889 17.2824 18.6319 17.2721C18.639 17.2704 18.6443 17.2688 18.648 17.2676C19.2382 16.575 19.7134 15.7901 20.0472 14.9401C20.0459 14.9357 20.044 14.9298 20.0412 14.9222C20.0207 14.8679 19.968 14.7831 19.8757 14.6972C19.1514 14.0235 18.6918 13.0662 18.6918 12C18.6918 10.9338 19.1514 9.97641 19.8757 9.30278C19.968 9.21688 20.0207 9.13207 20.0412 9.07771C20.044 9.07018 20.0459 9.06427 20.0472 9.05983C19.7132 8.20957 19.2379 7.42445 18.6474 6.73176C18.6437 6.7305 18.6384 6.72893 18.6313 6.72722C18.5883 6.71692 18.5115 6.71161 18.4101 6.72954C17.559 6.88001 16.6468 6.75029 15.8348 6.29632C14.9639 5.80943 14.358 5.03291 14.0827 4.15453C14.0483 4.04483 14.004 3.97028 13.9708 3.93138C13.9643 3.92378 13.9593 3.91863 13.9557 3.91531C13.3283 3.7746 12.6736 3.69999 11.9997 3.69999C11.3257 3.69999 10.6711 3.77459 10.0437 3.91528ZM20.0496 9.04898C20.0496 9.04897 20.0496 9.04935 20.0495 9.05015L20.0496 9.04898ZM3.94972 14.9511C3.9497 14.9511 3.94972 14.9507 3.94985 14.9499L3.94972 14.9511ZM8.04979 12C8.04979 9.81846 9.81827 8.04999 11.9998 8.04999C14.1813 8.04999 15.9498 9.81846 15.9498 12C15.9498 14.1815 14.1813 15.95 11.9998 15.95C9.81827 15.95 8.04979 14.1815 8.04979 12ZM11.9998 9.94999C10.8676 9.94999 9.94979 10.8678 9.94979 12C9.94979 13.1322 10.8676 14.05 11.9998 14.05C13.132 14.05 14.0498 13.1322 14.0498 12C14.0498 10.8678 13.132 9.94999 11.9998 9.94999Z"/>
</svg>
