<svg viewBox="0 0 24 24" xmlns="http://www.w3.org/2000/svg">
<path d="M15.4503 4.18982C15.3567 2.90893 14.2975 1.89474 12.9988 1.89474H11.002L10.8182 1.90156C9.5438 1.99646 8.54275 3.07003 8.54275 4.37657L8.53299 4.4823C8.50077 4.65494 8.39046 4.80683 8.22644 4.89549C8.18114 4.91988 8.1356 4.94516 8.08926 4.97158L7.79756 5.14598C7.61029 5.26307 7.39275 5.26841 7.2191 5.16674C6.0386 4.47637 4.52951 4.88611 3.85135 6.0758L2.85328 7.82834L2.76024 8.00795C2.22146 9.15928 2.63771 10.5558 3.75091 11.2078L4.05219 11.3836L4.03199 11.6962L4.02518 12L4.03198 12.3036L4.05093 12.6152L3.75124 12.7921L3.58126 12.9011C2.54185 13.6288 2.21327 15.0489 2.85347 16.172L3.85116 17.9239L3.959 18.0965C4.67962 19.1522 6.09784 19.4893 7.21818 18.8332C7.3917 18.7318 7.61023 18.7373 7.79648 18.8534C7.93791 18.9424 8.08269 19.0271 8.22781 19.1053C8.42286 19.2107 8.54275 19.4089 8.54275 19.6255L8.54948 19.8102C8.64317 21.0911 9.70325 22.1053 11.002 22.1053H12.9988L13.1826 22.0985C14.4569 22.0036 15.457 20.93 15.457 19.6234L15.4668 19.5181C15.4992 19.3459 15.6102 19.1933 15.7743 19.1045C15.9204 19.0259 16.0664 18.9403 16.2099 18.8492C16.39 18.7372 16.6089 18.7318 16.7834 18.8337C17.9619 19.5239 19.4713 19.1139 20.1494 17.9242L21.1467 16.1713L21.2027 16.0553C21.3769 15.6224 21.2086 15.1166 20.7917 14.8794C20.3369 14.6207 19.7585 14.7796 19.4998 15.2344L18.5029 16.9866L18.436 17.0811C18.2623 17.2809 17.9729 17.3346 17.7401 17.1982C16.9509 16.7371 15.9794 16.7614 15.202 17.2448C15.089 17.3165 14.982 17.3792 14.8747 17.437C14.0686 17.8727 13.5623 18.7084 13.5623 19.6255L13.5531 19.7314C13.5049 20.006 13.2727 20.2105 12.9988 20.2105H11.002L10.9014 20.2012C10.6397 20.1521 10.4375 19.9148 10.4375 19.6234L10.4286 19.4138C10.358 18.5821 9.87017 17.8392 9.12748 17.4377C9.01967 17.3797 8.91178 17.3165 8.80213 17.2475C8.02193 16.7614 7.04999 16.737 6.26149 17.1977C5.9946 17.354 5.65467 17.2617 5.49744 16.9859L4.49975 15.234L4.45537 15.1371C4.36188 14.8727 4.4648 14.5699 4.70842 14.4273L5.54635 13.937L5.66474 13.8551C5.92336 13.6454 6.05591 13.3117 6.00433 12.9756C5.94806 12.6089 5.91993 12.2972 5.91993 12C5.91993 11.7028 5.94809 11.3909 6.00428 11.0258C6.06335 10.642 5.88214 10.2609 5.54709 10.0645L4.70883 9.573L4.62406 9.51231C4.41619 9.33255 4.35626 9.01771 4.49956 8.76632L5.49763 7.01378L5.56463 6.91915C5.73864 6.71898 6.02837 6.66534 6.26217 6.80208C7.05017 7.26344 8.02315 7.23952 8.79972 6.75399C8.84031 6.72878 8.87911 6.70508 8.91648 6.6827L9.30672 6.4555C10.007 5.99828 10.4375 5.22185 10.4375 4.37453L10.4467 4.26867C10.495 3.99434 10.7277 3.78948 11.002 3.78948H12.9988L13.0993 3.79881C13.3605 3.84787 13.5623 4.08484 13.5623 4.37657L13.5712 4.58633C13.6419 5.41844 14.1303 6.16062 14.8733 6.56228L15.0847 6.68314L15.1994 6.75361C15.9782 7.23947 16.9507 7.26337 17.739 6.80184C18.0058 6.64581 18.346 6.73819 18.5033 7.01411L19.4997 8.76551L19.5443 8.86274C19.6382 9.12774 19.5356 9.43032 19.2923 9.57276L18.4537 10.0645L18.3354 10.1464C18.0771 10.3562 17.9448 10.6899 17.9965 11.0258C18.0519 11.3859 18.0798 11.6999 18.0798 12C18.0798 12.3001 18.0519 12.6139 17.9964 12.9756C17.9375 13.3593 18.1187 13.7401 18.4535 13.9365L18.9444 14.2244L19.0597 14.282C19.4903 14.4619 19.9982 14.3003 20.2409 13.8866L20.2985 13.7714C20.462 13.3799 20.3433 12.9245 20.0096 12.6626L19.9466 12.6202L19.9678 12.305L19.9746 12C19.9746 11.7972 19.9655 11.5939 19.9478 11.3852L20.2503 11.2075L20.4201 11.0986C21.4588 10.3712 21.7865 8.95111 21.1463 7.82801L20.1497 6.07637L20.0419 5.90373C19.3212 4.84789 17.9032 4.51088 16.7821 5.1665C16.6079 5.26849 16.39 5.26313 16.2038 5.14695C16.0537 5.05299 15.9126 4.96995 15.773 4.89476C15.5769 4.78878 15.457 4.59101 15.457 4.37453L15.4503 4.18982Z"/>
<path fill-rule="evenodd" clip-rule="evenodd" d="M12 7.57896L12.2426 7.5855C14.5713 7.71143 16.4211 9.63983 16.4211 12C16.4211 14.4416 14.4416 16.4211 12 16.4211C9.55844 16.4211 7.57894 14.4416 7.57894 12C7.57894 9.63983 9.42867 7.71143 11.7574 7.5855L12 7.57896ZM11.8115 9.48062C10.5044 9.57707 9.47368 10.6683 9.47368 12C9.47368 13.3951 10.6049 14.5263 12 14.5263C13.3951 14.5263 14.5263 13.3951 14.5263 12C14.5263 10.6683 13.4956 9.57707 12.1885 9.48062L12 9.47369L11.8115 9.48062Z"/>
</svg>
