<svg width="24" height="24" viewBox="0 0 24 24" fill="none" xmlns="http://www.w3.org/2000/svg">
<path fill-rule="evenodd" clip-rule="evenodd" d="M11.9999 10.61C11.2267 10.61 10.5999 11.2368 10.5999 12.01C10.5999 12.7832 11.2267 13.41 11.9999 13.41C12.7731 13.41 13.3999 12.7832 13.3999 12.01C13.3999 11.2368 12.7731 10.61 11.9999 10.61ZM8.79993 12.01C8.79993 10.2427 10.2326 8.81 11.9999 8.81C13.7672 8.81 15.1999 10.2427 15.1999 12.01C15.1999 13.7773 13.7672 15.21 11.9999 15.21C10.2326 15.21 8.79993 13.7773 8.79993 12.01Z" fill="#171717"/>
<path fill-rule="evenodd" clip-rule="evenodd" d="M11.0039 4.11L10.6565 6.56225L9.82599 6.9083L9.82486 6.90877C9.39942 7.08757 9.00678 7.31765 8.64631 7.59195L7.92962 8.1468L5.63981 7.21657L4.65797 8.92113L6.60892 10.4431L6.49274 11.326C6.46553 11.5631 6.44951 11.7644 6.44951 11.9955C6.44951 12.23 6.46606 12.4628 6.49316 12.7083L6.60717 13.5975L4.67245 15.1148L5.65417 16.8074L7.94904 15.8792L8.67366 16.4169C9.02276 16.6828 9.42403 16.9071 9.85793 17.0934L10.6884 17.4395L11.0242 19.8709H12.9984L13.3458 17.4187L14.1744 17.0735C14.5977 16.8917 15.0003 16.6596 15.356 16.389L16.0727 15.8341L18.3625 16.7644L19.3444 15.0598L17.3934 13.5378L17.5096 12.6549C17.5367 12.4186 17.5528 12.2073 17.5528 11.9855C17.5528 11.7614 17.5364 11.529 17.5092 11.2827L17.3952 10.3934L19.3299 8.87616L18.3482 7.18353L16.0533 8.11168L15.3287 7.57406C14.9796 7.30807 14.5783 7.08377 14.1444 6.89749L13.3139 6.55145L12.9768 4.11H11.0039ZM18.4328 6.17846C18.1482 5.32465 18.1484 5.3246 18.1484 5.3246L18.1494 5.32425L18.1508 5.32381L18.1539 5.32277L18.162 5.32015L18.1851 5.31295C18.2028 5.30754 18.2278 5.30022 18.2569 5.29262L18.2598 5.29187C18.2941 5.28286 18.4253 5.24848 18.5728 5.24848C19.0302 5.24848 19.4277 5.49281 19.6519 5.8452L19.6618 5.86082L21.1263 8.38582C21.4304 8.92632 21.3026 9.6159 20.8079 10.0045L19.3084 11.1805C19.3348 11.4396 19.3528 11.7092 19.3528 11.9855C19.3528 12.257 19.3354 12.5069 19.31 12.75L20.8179 13.9264C21.3193 14.3203 21.4361 15.0221 21.1363 15.5551L21.1318 15.5631L19.6826 18.079L19.6719 18.0957C19.4738 18.407 19.0937 18.7025 18.5928 18.7025C18.5901 18.7025 18.587 18.7025 18.5834 18.7025C18.5183 18.703 18.3097 18.7044 18.0753 18.5905L16.3531 17.8909C15.9277 18.2035 15.4642 18.4695 14.9846 18.6836L14.7148 20.5882L14.713 20.599C14.6163 21.1793 14.1185 21.6709 13.4554 21.6709H11.4669V21.6809H10.5669C9.92834 21.6809 9.40854 21.2042 9.30935 20.609L9.30728 20.5966L9.0458 18.7029C8.577 18.4945 8.11556 18.2392 7.68737 17.9267L5.88083 18.6574L5.85411 18.6663L5.5695 17.8125C5.85411 18.6663 5.85411 18.6663 5.85411 18.6663L5.85292 18.6667L5.84842 18.6681L5.84031 18.6708L5.81729 18.678C5.79957 18.6834 5.77459 18.6907 5.74546 18.6983L5.7426 18.699C5.70823 18.7081 5.57707 18.7424 5.42957 18.7424C4.97212 18.7424 4.57469 18.4981 4.35044 18.1457L4.3405 18.1301L2.876 15.6051C2.57197 15.0646 2.69976 14.375 3.1944 13.9864L4.69391 12.8104C4.66746 12.5506 4.64951 12.2801 4.64951 11.9955C4.64951 11.7151 4.66696 11.4713 4.69233 11.2309L3.19453 10.0624C2.63898 9.64397 2.58786 8.92044 2.86607 8.42584L2.87057 8.41784L4.31978 5.90194L4.33045 5.88518C4.52853 5.57391 4.90869 5.27846 5.40958 5.27846C5.41225 5.27846 5.41536 5.27844 5.4189 5.27842C5.484 5.27797 5.69268 5.27652 5.92705 5.39039L7.64915 6.09C8.0697 5.78026 8.52607 5.51296 9.01785 5.29651L9.28756 3.39271L9.28936 3.38187C9.38607 2.80165 9.8838 2.31 10.5469 2.31H13.4354C14.074 2.31 14.5938 2.78672 14.693 3.38187L14.6951 3.39428L14.9565 5.28805C15.4253 5.49645 15.8868 5.7517 16.315 6.0642L18.1215 5.33356L18.1484 5.3246L18.4328 6.17846Z" fill="#171717"/>
</svg>
