<svg viewBox="0 0 24 24" xmlns="http://www.w3.org/2000/svg">
<path d="M11.9999 1.89474C14.6812 1.89474 16.9093 3.8207 17.0459 6.3818L17.0525 6.63159V12H17.3683C17.848 12 18.2443 12.3564 18.3071 12.8188L18.3157 12.9474V21.1579C18.3157 21.6375 17.9593 22.0339 17.4969 22.0966L17.3683 22.1053H6.63145C6.15184 22.1053 5.75546 21.7489 5.69273 21.2865L5.68408 21.1579V12.9474C5.68408 12.4678 6.04049 12.0714 6.5029 12.0087L6.63145 12H12.9473C13.4705 12 13.8946 12.4242 13.8946 12.9474C13.8946 13.427 13.5382 13.8234 13.0758 13.8861L12.9473 13.8947H7.57883V20.2105H16.421V13.8947H16.1052C15.6256 13.8947 15.2292 13.5383 15.1665 13.0759L15.1578 12.9474V6.63159C15.1578 5.04145 13.7639 3.78948 11.9999 3.78948C10.3094 3.78948 8.95879 4.93929 8.84917 6.43465L8.84199 6.63159V8.52632C8.84199 9.04954 8.41784 9.47369 7.89462 9.47369C7.415 9.47369 7.01862 9.11729 6.95589 8.65488L6.94724 8.52632V6.63159C6.94724 3.94696 9.2321 1.89474 11.9999 1.89474Z"/>
</svg>
