<svg viewBox="0 0 24 24" xmlns="http://www.w3.org/2000/svg">
<path fill-rule="evenodd" clip-rule="evenodd" d="M6.75005 10.1C6.76322 10.1 6.7764 10.1 6.78962 10.1L17.2492 10.1C17.5851 10.1 17.9047 10.0999 18.1709 10.1284C18.4641 10.1598 18.7961 10.2339 19.1043 10.4541C19.2747 10.5759 19.4237 10.725 19.5455 10.8953C19.7657 11.2035 19.8398 11.5355 19.8712 11.8287C19.8997 12.095 19.8997 12.4145 19.8996 12.7504V19.2496C19.8997 19.5855 19.8997 19.905 19.8712 20.1713C19.8398 20.4645 19.7657 20.7965 19.5455 21.1047C19.4237 21.275 19.2747 21.4241 19.1043 21.5459C18.7961 21.7661 18.4641 21.8402 18.1709 21.8716C17.9047 21.9001 17.5852 21.9 17.2492 21.9H6.75004C6.41408 21.9 6.09458 21.9001 5.8283 21.8716C5.53512 21.8402 5.20312 21.7661 4.89493 21.5459C4.72457 21.4241 4.5755 21.275 4.45376 21.1047C4.23353 20.7965 4.1594 20.4645 4.12803 20.1713C4.09953 19.905 4.09957 19.5855 4.09961 19.2496C4.09961 19.2364 4.09962 19.2232 4.09962 19.21V12.79C4.09962 12.7768 4.09961 12.7636 4.09961 12.7504C4.09957 12.4145 4.09953 12.095 4.12803 11.8287C4.1594 11.5355 4.23353 11.2035 4.45376 10.8953C4.5755 10.725 4.72457 10.5759 4.89493 10.4541C5.20312 10.2339 5.53512 10.1598 5.8283 10.1284C6.09458 10.0999 6.41409 10.1 6.75005 10.1ZM5.93711 11.908L5.93658 11.9095L5.93711 11.908ZM5.9076 11.9375L5.90909 11.937L5.9076 11.9375ZM5.93105 11.9314C5.92732 11.949 5.92239 11.9774 5.9178 12.0202C5.90082 12.1789 5.89962 12.4 5.89962 12.79V19.21C5.89962 19.6 5.90082 19.8211 5.9178 19.9798C5.92239 20.0226 5.92732 20.051 5.93105 20.0686C5.94859 20.0723 5.97702 20.0772 6.01985 20.0818C6.17854 20.0988 6.39964 20.1 6.78962 20.1H17.2096C17.5996 20.1 17.8207 20.0988 17.9794 20.0818C18.0222 20.0772 18.0506 20.0723 18.0682 20.0686C18.0719 20.051 18.0768 20.0226 18.0814 19.9798C18.0984 19.8211 18.0996 19.6 18.0996 19.21V12.79C18.0996 12.4 18.0984 12.1789 18.0814 12.0202C18.0768 11.9774 18.0719 11.949 18.0682 11.9314C18.0506 11.9277 18.0222 11.9228 17.9794 11.9182C17.8207 11.9012 17.5996 11.9 17.2096 11.9H6.78962C6.39964 11.9 6.17854 11.9012 6.01985 11.9182C5.97702 11.9228 5.94859 11.9277 5.93105 11.9314ZM18.0916 11.9375L18.0901 11.937L18.0916 11.9375ZM18.0621 11.908L18.0626 11.9095L18.0621 11.908ZM18.0621 20.092L18.0626 20.0905L18.0621 20.092ZM18.0916 20.0625L18.0901 20.063L18.0916 20.0625ZM5.93711 20.092L5.93658 20.0905L5.93711 20.092Z"/>
<path d="M8.89959 6.88886C8.89959 5.26187 10.2634 3.89998 11.9996 3.89998C13.7357 3.89998 15.0996 5.26187 15.0996 6.88886V7.5H16.8996V6.88886C16.8996 4.22029 14.6817 2.09998 11.9996 2.09998C9.31747 2.09998 7.09959 4.22029 7.09959 6.88886V11H8.89959V6.88886Z"/>
</svg>
