<svg viewBox="0 0 24 24" xmlns="http://www.w3.org/2000/svg">
<path fill-rule="evenodd" clip-rule="evenodd" d="M5.67855 5.05033C7.32699 3.08838 9.66331 2.09998 11.997 2.09998C14.3304 2.09998 16.6571 3.07816 18.3158 5.05067C21.1808 8.45702 20.736 13.4827 17.6546 16.5752L17.6534 16.5764C15.9048 18.325 13.8926 20.4504 13.0484 21.3421C12.9909 21.4029 12.9387 21.4579 12.8925 21.5067C12.4073 22.0244 11.5869 22.0244 11.1016 21.5068C11.0554 21.458 11.0032 21.4029 10.9457 21.3421C10.1015 20.4504 8.08927 18.325 6.34064 16.5764L6.3395 16.5752C3.25886 13.4835 2.81253 8.44752 5.67855 5.05033ZM9.21703 10.34C9.21703 8.80292 10.46 7.55998 11.997 7.55998C13.5341 7.55998 14.777 8.80292 14.777 10.34C14.777 11.877 13.5341 13.12 11.997 13.12C10.46 13.12 9.21703 11.877 9.21703 10.34Z"/>
</svg>
