<svg viewBox="0 0 24 24" xmlns="http://www.w3.org/2000/svg">
<path fill-rule="evenodd" clip-rule="evenodd" d="M12.0001 22.1052C17.5811 22.1052 22.1054 17.581 22.1054 12C22.1054 6.41899 17.5811 1.89471 12.0001 1.89471C6.41907 1.89471 1.89478 6.41899 1.89478 12C1.89478 17.581 6.41907 22.1052 12.0001 22.1052ZM16.3199 7.68017C16.027 7.38728 15.5521 7.38728 15.2592 7.68017L12.0001 10.9393L8.74092 7.68017C8.44802 7.38728 7.97315 7.38728 7.68026 7.68017C7.38736 7.97307 7.38737 8.44794 7.68026 8.74083L10.9394 12L7.68026 15.2591C7.38737 15.552 7.38736 16.0269 7.68026 16.3198C7.97315 16.6127 8.44802 16.6127 8.74092 16.3198L12.0001 13.0606L15.2592 16.3198C15.5521 16.6127 16.027 16.6127 16.3199 16.3198C16.6128 16.0269 16.6128 15.552 16.3199 15.2591L13.0607 12L16.3199 8.74083C16.6128 8.44794 16.6128 7.97307 16.3199 7.68017Z"/>
</svg>
