<svg viewBox="0 0 24 24" xmlns="http://www.w3.org/2000/svg">
<path d="M9.63627 8.3636C9.2848 8.01213 8.71495 8.01213 8.36348 8.3636C8.01201 8.71508 8.01201 9.28492 8.36348 9.6364L10.7271 12L8.36348 14.3636C8.01201 14.7151 8.01201 15.2849 8.36348 15.6364C8.71495 15.9879 9.2848 15.9879 9.63627 15.6364L11.9999 13.2728L14.3635 15.6364C14.715 15.9879 15.2848 15.9879 15.6363 15.6364C15.9877 15.2849 15.9877 14.7151 15.6363 14.3636L13.2727 12L15.6363 9.6364C15.9877 9.28492 15.9877 8.71508 15.6363 8.3636C15.2848 8.01213 14.715 8.01213 14.3635 8.3636L11.9999 10.7272L9.63627 8.3636Z"/>
<path fill-rule="evenodd" clip-rule="evenodd" d="M11.9999 2.09961C6.53226 2.09961 2.09988 6.53199 2.09988 11.9996C2.09988 17.4672 6.53226 21.8996 11.9999 21.8996C17.4675 21.8996 21.8999 17.4672 21.8999 11.9996C21.8999 6.53199 17.4675 2.09961 11.9999 2.09961ZM3.89988 11.9996C3.89988 7.5261 7.52637 3.89961 11.9999 3.89961C16.4734 3.89961 20.0999 7.5261 20.0999 11.9996C20.0999 16.4731 16.4734 20.0996 11.9999 20.0996C7.52637 20.0996 3.89988 16.4731 3.89988 11.9996Z"/>
</svg>
