<svg width="24" height="24" viewBox="0 0 24 24" fill="none" xmlns="http://www.w3.org/2000/svg">
<path fill-rule="evenodd" clip-rule="evenodd" d="M18.6563 2.21177C19.188 1.94827 19.8122 1.94829 20.3439 2.21182C20.6295 2.35339 20.8701 2.59556 21.0782 2.80503L21.1365 2.86361L21.195 2.92193C21.4045 3.13003 21.6466 3.37062 21.7881 3.65621C22.0516 4.18783 22.0516 4.812 21.7881 5.34361C21.6465 5.6292 21.4044 5.86978 21.195 6.07786L11.3729 15.8999H8.1001V12.6271L17.922 2.80494C18.1301 2.59548 18.3707 2.35332 18.6563 2.21177ZM19.5708 3.84326C19.5318 3.8042 19.4684 3.8042 19.4294 3.84325L9.90015 13.3725V14.0997H10.6273L20.1565 4.57038C20.1955 4.53133 20.1955 4.46802 20.1565 4.42897L19.5708 3.84326Z" fill="#171719"/>
<path fill-rule="evenodd" clip-rule="evenodd" d="M8.5001 2.6001L8.4373 2.6001C7.3123 2.60006 6.37795 2.60004 5.637 2.69965C4.85641 2.8046 4.15715 3.03473 3.59594 3.59594C3.03473 4.15715 2.8046 4.85641 2.69965 5.637C2.60004 6.37795 2.60006 7.3123 2.6001 8.4373L2.6001 8.5001V15.5001L2.6001 15.5629C2.60006 16.6879 2.60004 17.6223 2.69965 18.3632C2.8046 19.1438 3.03473 19.8431 3.59594 20.4043C4.15715 20.9655 4.85641 21.1956 5.637 21.3005C6.37795 21.4002 7.31231 21.4001 8.43731 21.4001H8.5001H15.5002H15.563C16.688 21.4001 17.6223 21.4002 18.3633 21.3005C19.1439 21.1956 19.8432 20.9655 20.4044 20.4042C20.9656 19.843 21.1957 19.1438 21.3006 18.3632C21.4002 17.6222 21.4002 16.6879 21.4002 15.5629V15.5L21.4001 11.0001L19.6001 11.0001L19.6002 15.5C19.6002 16.704 19.5983 17.5165 19.5167 18.1233C19.4386 18.7043 19.3026 18.9604 19.1316 19.1315C18.9605 19.3025 18.7044 19.4385 18.1234 19.5166C17.5166 19.5982 16.7041 19.6001 15.5002 19.6001H8.5001C7.29615 19.6001 6.48372 19.5982 5.87684 19.5166C5.29586 19.4385 5.03975 19.3025 4.86873 19.1315C4.69771 18.9604 4.56172 18.7043 4.4836 18.1234C4.40201 17.5165 4.4001 16.7041 4.4001 15.5001V8.5001C4.4001 7.29615 4.40201 6.48372 4.4836 5.87684C4.56172 5.29586 4.69771 5.03975 4.86873 4.86873C5.03975 4.6977 5.29586 4.56172 5.87684 4.4836C6.48372 4.40201 7.29615 4.4001 8.5001 4.4001H13.0001V2.6001H8.5001Z" fill="#171719"/>
</svg>
