<svg viewBox="0 0 24 24" xmlns="http://www.w3.org/2000/svg">
<path d="M3.29976 9.39961C3.29976 6.86307 5.22975 4.89961 7.59974 4.89961C9.13266 4.89961 10.4675 5.71288 11.2306 6.96864C11.3938 7.23728 11.6854 7.40129 11.9997 7.40129C12.3141 7.40129 12.6056 7.23728 12.7689 6.96864C13.5319 5.71288 14.8668 4.89961 16.3997 4.89961C18.7697 4.89961 20.6997 6.86307 20.6997 9.39961C20.6997 9.92597 20.6162 10.4156 20.4598 10.8874C20.3034 11.3592 20.559 11.8685 21.0308 12.025C21.5026 12.1814 22.0119 11.9257 22.1683 11.4539C22.3838 10.804 22.4997 10.1233 22.4997 9.39961C22.4997 5.93615 19.8297 3.09961 16.3997 3.09961C14.6572 3.09961 13.1024 3.83674 11.9997 5.01834C10.8971 3.83674 9.34221 3.09961 7.59974 3.09961C4.16974 3.09961 1.49976 5.93615 1.49976 9.39961C1.49976 11.0395 2.09332 12.4203 3.02055 13.7021C3.93063 14.9602 5.19665 16.1678 6.58733 17.4591L6.59158 17.463L11.3916 21.863C11.758 22.1989 12.3273 22.1742 12.6632 21.8078C12.999 21.4414 12.9743 20.872 12.6079 20.5362L7.81214 16.1401L7.80997 16.1381C6.40167 14.8303 5.26846 13.7385 4.47895 12.6471C3.70619 11.5789 3.29976 10.5597 3.29976 9.39961Z"/>
<path fill-rule="evenodd" clip-rule="evenodd" d="M16.8062 13.9998C15.096 13.9998 13.79 15.4131 13.79 17.0975C13.79 17.9072 14.087 18.5764 14.5102 19.1613C14.9162 19.7226 15.4706 20.2482 16.031 20.7686L16.0353 20.7726L17.3131 21.9438C18.0395 22.6097 19.1544 22.6097 19.8808 21.9438L21.1586 20.7726L21.1628 20.7686C21.7233 20.2482 22.2777 19.7226 22.6837 19.1613C23.1068 18.5764 23.4039 17.9072 23.4039 17.0975C23.4039 15.4131 22.0979 13.9998 20.3876 13.9998C19.712 13.9998 19.0944 14.2235 18.5969 14.5988C18.0995 14.2235 17.4818 13.9998 16.8062 13.9998ZM15.59 17.0975C15.59 16.34 16.156 15.7998 16.8062 15.7998C17.2325 15.7998 17.6081 16.0238 17.8278 16.3853C17.991 16.6539 18.2826 16.818 18.5969 16.818C18.9113 16.818 19.2028 16.6539 19.3661 16.3853C19.5858 16.0238 19.9613 15.7998 20.3876 15.7998C21.0379 15.7998 21.6039 16.34 21.6039 17.0975C21.6039 17.4274 21.494 17.7349 21.2253 18.1063C20.9398 18.501 20.5181 18.9109 19.9401 19.4476L18.6645 20.617C18.6263 20.652 18.5676 20.652 18.5294 20.617L17.2537 19.4476C16.6757 18.9109 16.2541 18.501 15.9686 18.1063C15.6999 17.7349 15.59 17.4274 15.59 17.0975Z"/>
</svg>
