<svg viewBox="0 0 24 24" xmlns="http://www.w3.org/2000/svg">
<path fill-rule="evenodd" clip-rule="evenodd" d="M4.10558 1.42105C3.85432 1.42105 3.61335 1.52086 3.43568 1.69853C3.25802 1.87619 3.1582 2.11716 3.1582 2.36842V21C3.1582 21.5232 3.58236 21.9474 4.10558 21.9474H19.8951C20.4183 21.9474 20.8425 21.5232 20.8425 21V10.5789C20.8425 10.0557 20.4183 9.63158 19.8951 9.63158C19.3719 9.63158 18.9477 10.0557 18.9477 10.5789V20.0526H17.9877V18.9411C17.9877 17.969 17.4756 17.1483 16.7912 16.5464C16.1216 15.9577 15.23 15.5204 14.2491 15.262C14.1121 15.2008 14.071 15.1514 14.0656 15.1443C14.0632 15.141 14.0635 15.141 14.0633 15.1402C14.0627 15.1383 14.0581 15.1228 14.059 15.0868L14.0593 15.0632C14.0593 15.0105 14.1003 14.8753 14.2577 14.6816C14.3251 14.5987 14.3946 14.5289 14.4473 14.4803C14.473 14.4566 14.4932 14.4393 14.505 14.4294L14.5154 14.4208C14.5527 14.3918 14.5877 14.36 14.6203 14.3257C15.1892 13.726 15.7393 12.7971 15.7393 11.7537C15.7393 9.71338 14.0253 8.05263 12.0003 8.05263C9.9781 8.05263 8.24875 9.72332 8.24875 11.7537C8.24875 12.7989 8.77616 13.7346 9.38518 14.3436C9.41105 14.3694 9.43839 14.3938 9.46707 14.4165L9.47742 14.4251C9.48907 14.435 9.50903 14.4523 9.53454 14.4762C9.58667 14.5249 9.65583 14.5951 9.72334 14.6788C9.87494 14.8669 9.9247 15.0062 9.92865 15.0727C9.92789 15.1052 9.92338 15.1221 9.92142 15.1283C9.91958 15.134 9.91765 15.1381 9.91294 15.1443C9.90426 15.1557 9.86233 15.2042 9.73447 15.2632C8.75315 15.5225 7.86336 15.9632 7.1957 16.5522C6.51385 17.1537 6.00032 17.9739 6.00032 18.9411V20.0526H5.05295V3.31579H15.6147L19.1211 8.28317C19.4229 8.71062 20.014 8.81254 20.4414 8.51081C20.8689 8.20908 20.9708 7.61796 20.6691 7.19051L16.8796 1.82209C16.7021 1.57061 16.4134 1.42105 16.1056 1.42105H4.10558ZM10.1435 11.7537C10.1435 10.803 10.991 9.94737 12.0003 9.94737C13.007 9.94737 13.8446 10.7877 13.8446 11.7537C13.8446 12.1365 13.6274 12.6024 13.2833 12.9811C13.2511 13.0082 13.2098 13.0441 13.1621 13.0881C13.0608 13.1816 12.9251 13.3171 12.7872 13.4868C12.5355 13.7966 12.1688 14.3515 12.1646 15.051C12.1558 15.4917 12.2767 15.921 12.5561 16.2894C12.828 16.6478 13.2013 16.8847 13.5938 17.0417C13.6325 17.0572 13.6723 17.0702 13.7128 17.0804C14.4978 17.2794 15.1267 17.6059 15.54 17.9693C15.9546 18.3338 16.093 18.6752 16.093 18.9411V20.04H7.89506V18.9411C7.89506 18.6829 8.03206 18.341 8.44917 17.9731C8.86345 17.6076 9.49257 17.2788 10.2753 17.0804C10.3181 17.0695 10.3602 17.0557 10.4011 17.0389C10.7891 16.8802 11.1543 16.6429 11.4225 16.2894C11.6988 15.9251 11.8235 15.5009 11.8235 15.0632L11.8234 15.0474C11.8118 14.3532 11.4492 13.8007 11.1984 13.4896C11.0622 13.3207 10.9285 13.1856 10.8286 13.0922C10.7782 13.045 10.7349 13.0071 10.7023 12.9795L10.6958 12.974C10.3613 12.626 10.1435 12.162 10.1435 11.7537Z"/>
</svg>
