<svg width="24" height="24" viewBox="0 0 24 24" fill="none" xmlns="http://www.w3.org/2000/svg">
<g id="Shape">
<g id="Vector">
<path d="M9.99961 15.8001C10.3434 15.8001 10.6376 15.6778 10.8824 15.433C11.1272 15.1882 11.2496 14.8939 11.2496 14.5501C11.2496 14.2064 11.1272 13.9121 10.8824 13.6673C10.6376 13.4225 10.3434 13.3001 9.99961 13.3001C9.65586 13.3001 9.36159 13.4225 9.1168 13.6673C8.87201 13.9121 8.74961 14.2064 8.74961 14.5501C8.74961 14.8939 8.87201 15.1882 9.1168 15.433C9.36159 15.6778 9.65586 15.8001 9.99961 15.8001ZM7.49961 18.3001H12.4996V17.9408C12.4996 17.6908 12.4319 17.4616 12.2965 17.2533C12.1611 17.0449 11.9736 16.8887 11.734 16.7845C11.4632 16.6699 11.1845 16.5814 10.898 16.5189C10.6116 16.4564 10.3121 16.4251 9.99961 16.4251C9.68711 16.4251 9.38763 16.4564 9.10117 16.5189C8.81471 16.5814 8.53607 16.6699 8.26523 16.7845C8.02565 16.8887 7.83815 17.0449 7.70273 17.2533C7.56732 17.4616 7.49961 17.6908 7.49961 17.9408V18.3001Z" fill="#171717"/>
<path fill-rule="evenodd" clip-rule="evenodd" d="M5.49961 3.9001C5.44438 3.9001 5.39961 3.94487 5.39961 4.0001V20.0001C5.39961 20.0553 5.44438 20.1001 5.49961 20.1001H18.4996C18.5548 20.1001 18.5996 20.0553 18.5996 20.0001V8.4226L14.2925 3.9001H5.49961ZM3.59961 4.0001C3.59961 2.95076 4.45027 2.1001 5.49961 2.1001H15.0639L20.3996 7.7026V20.0001C20.3996 21.0494 19.549 21.9001 18.4996 21.9001H5.49961C4.45027 21.9001 3.59961 21.0494 3.59961 20.0001V4.0001Z" fill="#171717"/>
<path fill-rule="evenodd" clip-rule="evenodd" d="M13.0996 3.0001H14.8996V7.1001H18.9996V8.9001H13.0996V3.0001Z" fill="#171717"/>
</g>
</g>
</svg>
