<svg viewBox="0 0 24 24" xmlns="http://www.w3.org/2000/svg">
<path fill-rule="evenodd" clip-rule="evenodd" d="M13.1782 2.84976C12.4281 2.51622 11.5718 2.51622 10.8217 2.84976C10.299 3.08217 9.92139 3.50802 9.59307 3.97154C9.26766 4.43096 8.90959 5.04946 8.47403 5.80183L2.97958 15.2922C2.54237 16.0474 2.18306 16.668 1.94596 17.1805C1.70683 17.6974 1.52503 18.2384 1.58448 18.8086C1.66975 19.6265 2.09829 20.3698 2.76342 20.8534C3.2271 21.1906 3.7864 21.3043 4.35354 21.3563C4.91587 21.4079 5.63299 21.4079 6.50557 21.4079H17.4943C18.3669 21.4079 19.084 21.4079 19.6464 21.3563C20.2135 21.3043 20.7728 21.1906 21.2365 20.8534C21.9016 20.3698 22.3301 19.6265 22.4154 18.8086C22.4749 18.2384 22.2931 17.6974 22.0539 17.1805C21.8168 16.668 21.4575 16.0474 21.0203 15.2922L15.5259 5.80182C15.0903 5.04946 14.7322 4.43095 14.4068 3.97154C14.0785 3.50801 13.7009 3.08217 13.1782 2.84976ZM12.4469 4.4945C12.1624 4.36798 11.8375 4.36798 11.553 4.4945C11.4826 4.5258 11.3364 4.62439 11.0619 5.01195C10.79 5.3958 10.4729 5.94175 10.0095 6.74226L4.5597 16.1555C4.0946 16.9589 3.77782 17.5078 3.5796 17.9363C3.37938 18.3691 3.36679 18.5454 3.37477 18.6219C3.40712 18.9322 3.56967 19.2141 3.82196 19.3976C3.8842 19.4428 4.04312 19.5203 4.51799 19.5638C4.9881 19.607 5.62191 19.6079 6.55018 19.6079H17.4497C18.378 19.6079 19.0118 19.607 19.4819 19.5638C19.9568 19.5203 20.1157 19.4428 20.1779 19.3976C20.4302 19.2141 20.5928 18.9322 20.6251 18.6219C20.6331 18.5454 20.6205 18.3691 20.4203 17.9363C20.2221 17.5078 19.9053 16.9588 19.4402 16.1555L13.9904 6.74226C13.527 5.94174 13.2099 5.3958 12.938 5.01195C12.6635 4.62439 12.5173 4.5258 12.4469 4.4945Z"/>
</svg>
