<svg viewBox="0 0 24 24" xmlns="http://www.w3.org/2000/svg">
<path d="M12.5527 4.21013L12.5438 4.42879C12.5024 4.92503 12.3194 5.3247 12.0341 5.65384C11.8411 5.87659 11.6548 6.01213 11.5667 6.05744L11.2467 6.25235L10.6512 6.63074C9.7656 7.21062 9.09204 7.73619 8.60404 8.21619L8.52003 8.21054H2.83824C2.35862 8.21054 1.96225 8.56694 1.89952 9.02935L1.89087 9.15791V21.1579C1.89087 21.6375 2.24728 22.0339 2.70969 22.0966L2.83824 22.1053H8.52003C8.99965 22.1053 9.39602 21.7489 9.45876 21.2865L9.4674 21.1579V14.4806C9.4674 13.9574 9.04325 13.5332 8.52003 13.5332C8.04041 13.5332 7.64404 13.8896 7.58131 14.3521L7.57266 14.4806L7.57386 20.2093H3.78563V10.104H7.5716C7.57201 10.1178 7.57263 10.1315 7.57346 10.1452L7.57266 10.2294C7.57266 10.709 7.92907 11.1054 8.39148 11.1681L8.52003 11.1768C8.99965 11.1768 9.39602 10.8204 9.45876 10.358L9.46448 10.2729C9.467 10.2552 9.46903 10.2374 9.47056 10.2196L9.47117 10.1419L9.54422 10.0215L9.66639 9.86015C10.0499 9.3937 10.7694 8.79847 11.8929 8.08064L12.4886 7.71153C12.7203 7.59475 13.0965 7.32106 13.4659 6.8948C14.0774 6.18929 14.4474 5.28926 14.4474 4.21013C14.4474 3.72309 15.4549 3.58439 15.8057 4.28099C15.8638 4.39645 15.9113 4.51339 15.9487 4.63207C16.2202 5.49412 15.965 6.49533 15.3341 7.51607C15.0506 7.97484 14.7683 8.32109 14.5964 8.49822L14.5127 8.59625C14.0594 9.20218 14.4833 10.1053 15.2764 10.1053H20.2144V16.0876L16.9125 20.2105H12.2788L12.1502 20.2192C11.6878 20.2819 11.3314 20.6783 11.3314 21.1579C11.3314 21.6811 11.7556 22.1053 12.2788 22.1053H17.3685L17.5106 22.0946C17.7442 22.0591 17.9581 21.9372 18.1079 21.7501L21.9016 17.0133L21.9749 16.9078C22.0626 16.7614 22.1095 16.5933 22.1095 16.4211V9.15791L22.1008 9.02935C22.0381 8.56694 21.6417 8.21054 21.1621 8.21054L17.1234 8.20927L17.256 7.96766C17.9213 6.68994 18.1662 5.36536 17.7559 4.06285C17.6879 3.847 17.602 3.63541 17.498 3.42874C16.3068 1.06363 12.5527 1.58049 12.5527 4.21013Z"/>
</svg>
