<svg viewBox="0 0 24 24" xmlns="http://www.w3.org/2000/svg">
<path d="M8.20193 3.97671C8.1392 3.5143 7.74282 3.15789 7.2632 3.15789C6.73998 3.15789 6.31583 3.58205 6.31583 4.10526V4.42105H3.78951L3.60838 4.42896C2.59906 4.51801 1.88818 5.34766 1.88818 6.36565L1.89476 18.9479L1.90293 19.1356C1.98947 20.121 2.75551 20.8421 3.78951 20.8421H20.2106L20.4013 20.8338C21.4002 20.7454 22.1054 19.9645 22.1054 18.9474V6.31579L22.0972 6.12796C22.0107 5.14215 21.2446 4.42105 20.2106 4.42105H19.579L19.4505 4.4297C18.9881 4.49243 18.6317 4.8888 18.6317 5.36842C18.6317 5.89164 19.0558 6.31579 19.579 6.31579H20.2106V18.9474H3.78951L3.78293 6.36515L3.77972 6.31439L3.78951 6.31579H6.31583V7.26316L6.32448 7.39171C6.38721 7.85412 6.78359 8.21053 7.2632 8.21053C7.78642 8.21053 8.21058 7.78637 8.21058 7.26316V6.31579H15.7896V7.26316L15.7982 7.39171C15.8609 7.85412 16.2573 8.21053 16.7369 8.21053C17.2601 8.21053 17.6843 7.78637 17.6843 7.26316V4.10526L17.6756 3.97671C17.6129 3.5143 17.2165 3.15789 16.7369 3.15789C16.2137 3.15789 15.7896 3.58205 15.7896 4.10526V4.42105H8.21058V4.10526L8.20193 3.97671Z"/>
<path d="M19.579 11.6842C19.579 11.161 19.1549 10.7368 18.6317 10.7368H5.36846L5.23991 10.7455C4.77749 10.8082 4.42109 11.2046 4.42109 11.6842C4.42109 12.2074 4.84524 12.6316 5.36846 12.6316H18.6317L18.7602 12.6229C19.2226 12.5602 19.579 12.1638 19.579 11.6842Z"/>
</svg>
