<svg viewBox="0 0 24 24" xmlns="http://www.w3.org/2000/svg">
<path d="M19.8954 14.5263C20.375 14.5263 20.7713 14.8827 20.8341 15.3451L20.8427 15.4737V21.133C20.8427 21.612 20.4871 22.0082 20.0252 22.0715L19.8968 22.0803L4.10732 22.1053C3.62716 22.106 3.22998 21.7495 3.16711 21.2866L3.15845 21.1579V15.4986C3.15845 14.9754 3.5826 14.5513 4.10582 14.5513C4.58544 14.5513 4.98181 14.9077 5.04454 15.3701L5.05319 15.4986V20.2093L18.948 20.1865V15.4737C18.948 14.9941 19.3044 14.5977 19.7668 14.535L19.8954 14.5263ZM12.0006 3.1579C12.4802 3.1579 12.8766 3.5143 12.9393 3.97671L12.948 4.10527V14.7651L15.7515 11.9619C16.0878 11.6255 16.6141 11.5947 16.985 11.8698L17.0913 11.9615C17.4278 12.2977 17.4585 12.824 17.1835 13.195L17.0918 13.3013L12.6705 17.7255C12.6369 17.759 12.6008 17.7901 12.5625 17.8183L12.6707 17.7252C12.6246 17.7713 12.575 17.8117 12.5227 17.8463C12.4998 17.8614 12.4761 17.8756 12.4519 17.8888C12.4332 17.8989 12.4142 17.9084 12.3949 17.9173C12.3717 17.9279 12.3477 17.9377 12.3232 17.9466C12.3041 17.9534 12.2854 17.9595 12.2665 17.965C12.2401 17.9728 12.2129 17.9795 12.1852 17.985C12.1674 17.9884 12.15 17.9913 12.1326 17.9938C12.0897 17.9998 12.0455 18.0029 12.0006 18.0029C11.9839 18.0028 11.9741 18.0026 11.9644 18.0022L12.0006 18.0029C11.9521 18.0029 11.9044 17.9993 11.8579 17.9923C11.844 17.9901 11.8295 17.9876 11.8151 17.9847C11.7821 17.9782 11.7501 17.9701 11.7189 17.9603C11.706 17.9563 11.6932 17.952 11.6806 17.9475C11.652 17.9373 11.6242 17.9257 11.597 17.9129C11.5783 17.9041 11.5597 17.8946 11.5414 17.8845C11.5105 17.8673 11.4801 17.8481 11.4509 17.8273C11.4461 17.8239 11.4417 17.8207 11.4372 17.8174C11.398 17.7881 11.3632 17.758 11.3307 17.7255L6.9037 13.3017C6.53359 12.9319 6.53337 12.332 6.90321 11.9619C7.23943 11.6255 7.76573 11.5947 8.13671 11.8698L8.243 11.9614L11.0532 14.7701V4.10527C11.0532 3.58205 11.4774 3.1579 12.0006 3.1579Z"/>
</svg>
