<svg viewBox="0 0 24 24" xmlns="http://www.w3.org/2000/svg">
<path fill-rule="evenodd" clip-rule="evenodd" d="M14.7129 2.03296C15.0727 2.17509 15.3014 2.53127 15.281 2.9176L14.9341 9.47002H18.7499C19.1073 9.47002 19.4308 9.68149 19.5742 10.0088C19.7176 10.3362 19.6538 10.7174 19.4115 10.9801L9.48503 21.7448C9.2159 22.0367 8.78732 22.1177 8.4302 21.9443C8.07308 21.7708 7.8718 21.3839 7.9348 20.9919L8.95838 14.623H5.24987C4.89987 14.623 4.58162 14.4201 4.43392 14.1028C4.28623 13.7854 4.33588 13.4113 4.56123 13.1435L13.6936 2.29055C13.9427 1.99454 14.3531 1.89083 14.7129 2.03296ZM7.18342 12.823H10.0146C10.2782 12.823 10.5286 12.9386 10.6996 13.1392C10.8706 13.3399 10.945 13.6055 10.9032 13.8658L10.1858 18.3297L16.6957 11.27H13.9852C13.7382 11.27 13.5021 11.1685 13.3322 10.9894C13.1622 10.8102 13.0734 10.569 13.0864 10.3224L13.3415 5.50469L7.18342 12.823Z"/>
</svg>
