<svg viewBox="0 0 24 24" xmlns="http://www.w3.org/2000/svg">
<path d="M16.6155 2.02089C17.3665 1.58891 18.2311 2.30375 18.0011 3.09688L17.9606 3.2106L15.3071 9.49515L17.2409 10.1368C17.6961 10.2877 17.9602 10.7508 17.8742 11.2094L17.8419 11.3342C17.691 11.7894 17.228 12.0535 16.7693 11.9675L16.6446 11.9352L13.7371 10.9712C13.2527 10.8107 12.9897 10.3003 13.1213 9.82216L13.1625 9.70352L15.1189 5.06652L4.99716 10.8872L10.3214 13.0502C10.7702 13.2324 11.0028 13.7188 10.8802 14.1735L10.8378 14.2965L8.88013 18.9322L20.6857 12.1428C21.1015 11.9036 21.6228 12.015 21.9077 12.3845L21.9793 12.4916C22.2184 12.9074 22.1071 13.4287 21.7375 13.7136L21.6304 13.7852L7.38475 21.9791C6.63373 22.4111 5.76918 21.6962 5.9992 20.9031L6.03963 20.7894L8.71718 14.4442L2.48582 11.9138C1.80023 11.6354 1.69687 10.7316 2.25037 10.2955L2.36985 10.2148L16.6155 2.02089Z"/>
</svg>
