<svg viewBox="0 0 24 24" xmlns="http://www.w3.org/2000/svg">
<path d="M3.83096 3.83071C4.33864 3.32303 5.16175 3.32303 5.66943 3.83071L12.0002 10.1615L18.331 3.83071C18.8386 3.32303 19.6618 3.32303 20.1694 3.83071C20.6771 4.33839 20.6771 5.16151 20.1694 5.66919L13.8387 12L20.1694 18.3307C20.6771 18.8384 20.6771 19.6615 20.1694 20.1692C19.6618 20.6769 18.8386 20.6769 18.331 20.1692L12.0002 13.8384L5.66943 20.1692C5.16175 20.6769 4.33864 20.6769 3.83096 20.1692C3.32327 19.6615 3.32327 18.8384 3.83096 18.3307L10.1617 12L3.83096 5.66919C3.32327 5.16151 3.32327 4.33839 3.83096 3.83071Z"/>
</svg>
