<svg width="24" height="24" viewBox="0 0 24 24" fill="none" xmlns="http://www.w3.org/2000/svg">
<path fill-rule="evenodd" clip-rule="evenodd" d="M4.33047 4.33071C4.83815 3.82303 5.66126 3.82303 6.16895 4.33071L11.9997 10.1615L17.8305 4.33071C18.3382 3.82303 19.1613 3.82303 19.6689 4.33071C20.1766 4.83839 20.1766 5.66151 19.6689 6.16919L13.8382 12L19.6689 17.8307C20.1766 18.3384 20.1766 19.1615 19.6689 19.6692C19.1613 20.1769 18.3382 20.1769 17.8305 19.6692L11.9997 13.8384L6.16895 19.6692C5.66126 20.1769 4.83815 20.1769 4.33047 19.6692C3.82279 19.1615 3.82279 18.3384 4.33047 17.8307L10.1612 12L4.33047 6.16919C3.82279 5.66151 3.82279 4.83839 4.33047 4.33071Z" fill="#171719"/>
</svg>
