<svg viewBox="0 0 24 24" xmlns="http://www.w3.org/2000/svg">
<path d="M6.26255 4.47524C5.76925 3.98195 4.96947 3.98195 4.47617 4.47524C3.98288 4.96853 3.98288 5.76832 4.47617 6.26162L10.2146 12L4.47617 17.7384C3.98288 18.2317 3.98288 19.0315 4.47617 19.5248C4.96947 20.0181 5.76925 20.0181 6.26255 19.5248L12.0009 13.7864L17.7393 19.5248C18.2326 20.0181 19.0324 20.0181 19.5257 19.5248C20.019 19.0315 20.019 18.2317 19.5257 17.7384L13.7873 12L19.5257 6.26162C20.019 5.76832 20.019 4.96853 19.5257 4.47524C19.0324 3.98195 18.2326 3.98195 17.7393 4.47524L12.0009 10.2136L6.26255 4.47524Z"/>
</svg>
