<svg width="24" height="28" viewBox="0 0 24 28" fill="none" xmlns="http://www.w3.org/2000/svg">
<path d="M5.0001 5.1001C3.95076 5.1001 3.1001 5.95076 3.1001 7.0001V21.0001C3.1001 22.0494 3.95076 22.9001 5.0001 22.9001H19.0001C20.0494 22.9001 20.9001 22.0494 20.9001 21.0001V15.0001H19.1001V21.0001C19.1001 21.0553 19.0553 21.1001 19.0001 21.1001H5.0001C4.94487 21.1001 4.9001 21.0553 4.9001 21.0001V7.0001C4.9001 6.94487 4.94487 6.9001 5.0001 6.9001H11.0001V5.1001H5.0001Z" fill="#171717"/>
<path d="M14.5001 5.1001C14.003 5.1001 13.6001 5.50304 13.6001 6.0001C13.6001 6.49715 14.003 6.9001 14.5001 6.9001H17.8273L8.3637 16.3637C8.01223 16.7152 8.01223 17.285 8.3637 17.6365C8.71517 17.988 9.28502 17.988 9.63649 17.6365L19.1001 8.17289V11.5001C19.1001 11.9972 19.503 12.4001 20.0001 12.4001C20.4972 12.4001 20.9001 11.9972 20.9001 11.5001V6.0001C20.9001 5.50304 20.4972 5.1001 20.0001 5.1001H14.5001Z" fill="#171717"/>
</svg>
