<svg viewBox="0 0 24 24" xmlns="http://www.w3.org/2000/svg">
<path d="M12.9484 4.10527C12.9484 3.58205 12.5243 3.1579 12.0011 3.1579H4.10631L3.97775 3.16655C3.51534 3.22928 3.15894 3.62565 3.15894 4.10527V19.8947L3.16758 20.0233C3.23032 20.4857 3.62669 20.8421 4.10631 20.8421H19.8958L20.0244 20.8335C20.4868 20.7707 20.8432 20.3744 20.8432 19.8947V12L20.8346 11.8715C20.7718 11.409 20.3755 11.0526 19.8958 11.0526L19.7673 11.0613C19.3049 11.124 18.9485 11.5204 18.9485 12V18.9461H5.05368V5.05137L12.0011 5.05263L12.1296 5.04399C12.592 4.98125 12.9484 4.58488 12.9484 4.10527Z"/>
<path d="M19.8958 3.1579C20.3755 3.1579 20.7718 3.5143 20.8346 3.97671L20.8432 4.10527V8.52632C20.8432 9.04954 20.4191 9.47369 19.8958 9.47369C19.4162 9.47369 19.0198 9.11728 18.9571 8.65487L18.9485 8.52632V6.39242L9.82885 15.512C9.45888 15.882 8.85904 15.882 8.48907 15.512C8.15273 15.1757 8.12215 14.6493 8.39734 14.2785L8.48907 14.1722L17.6087 5.05263H15.4748C14.9952 5.05263 14.5988 4.69623 14.536 4.23382L14.5274 4.10527C14.5274 3.62565 14.8838 3.22928 15.3462 3.16655L15.4748 3.1579H19.8958Z"/>
</svg>
