<svg viewBox="0 0 24 24" xmlns="http://www.w3.org/2000/svg">
<path fill-rule="evenodd" d="M11.9996 2.1001c-2.22523 0-4.05463.78779-5.31212 2.27433C5.44735 5.84044 4.84961 7.8832 4.84961 10.2501v.75c0 2.4651-.68324 3.9248-1.65636 4.8681-.38154.3699-.42114.8817-.28476 1.2582.1387.383.51881.7737 1.09067.7737H20c.5719 0 .952-.3907 1.0907-.7737.1364-.3765.0968-.8883-.2847-1.2582-.9732-.9433-1.6564-2.403-1.6564-4.8681v-.75c0-2.3669-.5977-4.40966-1.8379-5.87567-1.2575-1.48654-3.0869-2.27433-5.3121-2.27433Zm-5.34999 8.15c0-2.08488.52725-3.66712 1.41212-4.71316.86751-1.02552 2.16307-1.63684 3.93787-1.63684 1.7748 0 3.0704.61132 3.9379 1.63683.8848 1.04605 1.4121 2.62829 1.4121 4.71317v.75c0 2.1627.4681 3.8272 1.3187 5.1H5.33089c.85058-1.2728 1.31872-2.9373 1.31872-5.1v-.75Z" clip-rule="evenodd"/><path d="M9.09973 20.1001v1.8h5.79997v-1.8H9.09973Z"/>
</svg>
