<svg viewBox="0 0 24 24" xmlns="http://www.w3.org/2000/svg">
<path fill-rule="evenodd" clip-rule="evenodd" d="M19.4522 9.28898C19.3048 5.1557 16.0159 1.99996 11.8784 1.99996C7.64458 1.99996 4.29939 5.30419 4.29939 9.57891V13.5263L4.29024 13.8544C4.24764 14.6109 4.05642 15.3118 3.72396 16.102L3.30379 17.0472L3.19378 17.3113C3.06414 17.6432 3.00024 17.9018 3.00024 18.182L3.00723 18.3526C3.09083 19.3402 3.91995 19.6842 5.24676 19.6842L8.21393 19.6829L8.24066 19.7782C8.69583 21.264 10.1267 22.2105 11.8784 22.2105C14.0108 22.2105 15.6679 20.8078 15.6679 18.7368L15.6592 18.6083C15.5965 18.1458 15.2001 17.7894 14.7205 17.7894H5.24676L5.04844 17.7856L5.47042 16.8368C5.94027 15.7201 6.19413 14.6987 6.19413 13.5263V9.57891L6.20019 9.30455C6.33708 6.21725 8.77705 3.8947 11.8784 3.8947C15.0709 3.8947 17.5626 6.35588 17.5626 9.57891V13.5263L17.5718 13.9113C17.6209 14.925 17.8647 15.8413 18.277 16.8331L18.6944 17.7856L18.51 17.7894C17.9867 17.7894 17.5626 18.2136 17.5626 18.7368C17.5626 19.26 17.9867 19.6842 18.51 19.6842C19.8982 19.6842 20.7411 19.2978 20.7411 18.182C20.7411 17.8476 20.6504 17.5433 20.4658 17.1064L20.0266 16.1057C19.6508 15.2017 19.4573 14.4141 19.4573 13.5263V9.57891L19.4522 9.28898ZM10.4276 19.5777H13.5716L13.5397 19.6195C13.2127 19.9922 12.6764 20.2105 12.0002 20.2105L11.8016 20.204C11.2189 20.1653 10.7551 19.955 10.4607 19.6195L10.4276 19.5777Z"/>
</svg>
