<svg viewBox="0 0 24 24" xmlns="http://www.w3.org/2000/svg">
<path d="M10.1641 3.40089C10.9075 1.97181 12.9024 1.91684 13.7408 3.23677L13.8358 3.40176L15.8767 7.33515C15.8937 7.36786 15.9197 7.39353 15.9516 7.40969L16.0033 7.42648L20.3744 8.15296C22.027 8.42714 22.6854 10.4507 21.5129 11.6419L19.4347 13.7709C19.0692 14.1453 18.4694 14.1525 18.095 13.787C17.7206 13.4215 17.7134 12.8217 18.0789 12.4473L20.1598 10.3156C20.2442 10.2298 20.2155 10.0924 20.1182 10.0404L20.064 10.0221L15.6954 9.29602C15.1157 9.20139 14.608 8.86518 14.2929 8.3766L14.1951 8.20821L12.154 4.27446C12.1 4.17055 11.9668 4.15323 11.8864 4.22239L11.8455 4.27425L9.80508 8.20861C9.5346 8.72927 9.0572 9.1082 8.49724 9.25527L8.3077 9.29558L3.93592 10.0222C3.81688 10.0419 3.75928 10.1696 3.80722 10.2687L3.8402 10.3152L6.95001 13.4708C7.35683 13.8826 7.56916 14.4438 7.54386 15.0171L7.52315 15.2324L6.86179 19.6136C6.84378 19.7332 6.94769 19.8276 7.05715 19.8125L7.11181 19.7954L11.0754 17.8121C11.5928 17.5534 12.1918 17.5247 12.7276 17.726L12.9253 17.8123L16.8883 19.7953C17.0141 19.8582 17.1594 19.7527 17.1393 19.618L16.7696 17.2393C16.6893 16.7223 17.0433 16.238 17.5603 16.1577C18.0773 16.0773 18.5616 16.4313 18.6419 16.9483L19.0124 19.3324C19.2515 20.9321 17.6556 22.1525 16.1964 21.5603L16.0407 21.4899L12.0777 19.5068C12.0452 19.4906 12.0088 19.4852 11.9738 19.4906L11.923 19.5067L7.959 21.4902C6.51137 22.2131 4.85698 21.0726 4.96934 19.5011L4.98823 19.3311L5.64932 14.9517C5.65486 14.9144 5.64873 14.8774 5.63264 14.8453L5.60127 14.8015L2.49025 11.6447C1.35678 10.4932 1.92792 8.57044 3.45244 8.18893L3.62571 8.153L7.99929 7.42612C8.03436 7.42037 8.06674 7.40344 8.09181 7.37857L8.12338 7.33572L10.1641 3.40089Z"/>
</svg>
