<svg viewBox="0 0 24 24" xmlns="http://www.w3.org/2000/svg">
<path fill-rule="evenodd" clip-rule="evenodd" d="M11.9997 3.98833C11.9726 4.03454 11.944 4.08377 11.9133 4.13645L9.60472 8.1C9.59827 8.11109 9.59109 8.12371 9.58316 8.13766C9.50549 8.27429 9.35582 8.5376 9.10697 8.7184C8.85812 8.8992 8.56145 8.96018 8.4075 8.99183C8.39179 8.99505 8.37756 8.99798 8.36503 9.00069L3.88208 9.97146C3.82249 9.98436 3.76681 9.99643 3.71451 10.0079C3.75009 10.0479 3.78805 10.0904 3.82867 10.1358L6.88485 13.5562C6.8934 13.5658 6.90319 13.5765 6.914 13.5883C7.01995 13.7044 7.22412 13.9281 7.31917 14.2207C7.41422 14.5132 7.38054 14.8142 7.36307 14.9704C7.36128 14.9864 7.35967 15.0008 7.35837 15.0135L6.89632 19.5771C6.89018 19.6377 6.88445 19.6944 6.87917 19.7477C6.92821 19.7262 6.98035 19.7032 7.03614 19.6787L11.2335 17.829C11.2453 17.8238 11.2585 17.8178 11.2731 17.8112C11.4162 17.7463 11.6921 17.6213 11.9997 17.6213C12.3073 17.6213 12.5831 17.7463 12.7263 17.8112C12.7409 17.8178 12.7541 17.8238 12.7659 17.829L16.9633 19.6787C17.019 19.7032 17.0712 19.7262 17.1202 19.7477C17.1149 19.6944 17.1092 19.6377 17.1031 19.5771L16.641 15.0135C16.6397 15.0008 16.6381 14.9864 16.6363 14.9704C16.6188 14.8142 16.5852 14.5132 16.6802 14.2207C16.7753 13.9281 16.9794 13.7044 17.0854 13.5883C17.0962 13.5765 17.106 13.5658 17.1145 13.5562L20.1707 10.1358C20.2113 10.0904 20.2493 10.0479 20.2849 10.0079C20.2326 9.99643 20.1769 9.98436 20.1173 9.97146L15.6344 9.00069C15.6218 8.99798 15.6076 8.99505 15.5919 8.99183C15.4379 8.96018 15.1413 8.8992 14.8924 8.7184C14.6436 8.5376 14.4939 8.27429 14.4162 8.13766C14.4083 8.12371 14.4011 8.11109 14.3947 8.1L12.0861 4.13645C12.0554 4.08377 12.0267 4.03454 11.9997 3.98833ZM10.9013 2.37858C11.0906 2.14198 11.4417 1.79333 11.9997 1.79333C12.5577 1.79333 12.9088 2.14198 13.0981 2.37858C13.2727 2.59679 13.4463 2.89512 13.615 3.1849C13.6238 3.20013 13.6327 3.21534 13.6415 3.23051L15.9501 7.19406C15.9581 7.20783 15.9654 7.22045 15.9723 7.23213C15.9855 7.235 15.9997 7.2381 16.0153 7.24147L20.4983 8.21223C20.5154 8.21595 20.5326 8.21967 20.5498 8.22339C20.8776 8.29424 21.2149 8.36718 21.4764 8.4658C21.76 8.57274 22.2 8.79892 22.3724 9.32958C22.5449 9.86024 22.3218 10.3019 22.1553 10.5551C22.0017 10.7885 21.7716 11.0459 21.5481 11.2958C21.5364 11.3089 21.5247 11.3221 21.513 11.3351L18.4568 14.7555C18.4462 14.7674 18.4364 14.7783 18.4274 14.7884C18.4288 14.8018 18.4303 14.8164 18.4319 14.8322L18.8939 19.3957C18.8957 19.4132 18.8975 19.4307 18.8992 19.4482C18.9331 19.7818 18.968 20.1252 18.955 20.4044C18.9409 20.7071 18.8618 21.1955 18.4104 21.5235C17.959 21.8514 17.47 21.7758 17.1778 21.6956C16.9083 21.6217 16.5925 21.4824 16.2857 21.3471C16.2696 21.34 16.2535 21.3329 16.2374 21.3258L12.04 19.4762C12.0254 19.4697 12.0121 19.4639 11.9997 19.4584C11.9873 19.4639 11.9739 19.4697 11.9594 19.4762L7.76199 21.3258C7.74591 21.3329 7.72981 21.34 7.71368 21.3471C7.40691 21.4824 7.0911 21.6217 6.8216 21.6956C6.52936 21.7758 6.04039 21.8514 5.58898 21.5235C5.13757 21.1955 5.05846 20.7071 5.04437 20.4044C5.03137 20.1252 5.06626 19.7818 5.10015 19.4483C5.10193 19.4307 5.10371 19.4132 5.10548 19.3957L5.56753 14.8322C5.56914 14.8164 5.5706 14.8018 5.57195 14.7884C5.56295 14.7783 5.55322 14.7674 5.54261 14.7555L2.48643 11.3351C2.47473 11.3221 2.46301 11.3089 2.45127 11.2958C2.22778 11.0459 1.9977 10.7885 1.84413 10.5551C1.6776 10.3019 1.45452 9.86024 1.62694 9.32958C1.79936 8.79892 2.23944 8.57274 2.52297 8.4658C2.78445 8.36718 3.12183 8.29424 3.44955 8.22339C3.46677 8.21967 3.48397 8.21595 3.50113 8.21223L7.98407 7.24147C7.99964 7.2381 8.01392 7.235 8.02713 7.23213C8.03395 7.22045 8.04131 7.20783 8.04932 7.19406L10.3579 3.23051C10.3667 3.21534 10.3756 3.20014 10.3844 3.18491C10.5531 2.89513 10.7267 2.59679 10.9013 2.37858Z"/>
</svg>
