<svg viewBox="0 0 24 24" xmlns="http://www.w3.org/2000/svg">
<path fill-rule="evenodd" clip-rule="evenodd" d="M5.36977 2.11623C5.57373 2.09956 5.81577 2.09958 6.0701 2.09961H15.0641L20.3998 7.70211V19.4294C20.3999 19.6837 20.3999 19.9257 20.3832 20.1297C20.3651 20.3521 20.3227 20.6072 20.1928 20.8622C20.0106 21.2197 19.7199 21.5104 19.3624 21.6925C19.1075 21.8224 18.8523 21.8648 18.6299 21.883C18.426 21.8997 18.1839 21.8996 17.9296 21.8996H6.07004C5.81574 21.8996 5.57371 21.8997 5.36977 21.883C5.14736 21.8648 4.89225 21.8224 4.63727 21.6925C4.27977 21.5104 3.9891 21.2197 3.80694 20.8622C3.67703 20.6072 3.63464 20.3521 3.61647 20.1297C3.59981 19.9257 3.59983 19.6837 3.59986 19.4294V4.56985C3.59983 4.31553 3.59981 4.07349 3.61647 3.86952C3.63464 3.64712 3.67703 3.39201 3.80694 3.13703C3.9891 2.77952 4.27977 2.48886 4.63727 2.3067C4.89225 2.17678 5.14736 2.1344 5.36977 2.11623ZM5.39984 3.99941C5.39984 3.94419 5.44461 3.89941 5.49984 3.89941H13.0998V8.89981H18.5998V19.9994C18.5998 20.0546 18.5551 20.0994 18.4998 20.0994H5.49984C5.44461 20.0994 5.39984 20.0546 5.39984 19.9994V3.99941ZM14.8998 7.09981V4.53692L17.3407 7.09981H14.8998Z"/>
</svg>
