<svg viewBox="0 0 24 24" xmlns="http://www.w3.org/2000/svg">
<path d="M16.7967 2.19437C16.619 2.00461 16.3692 1.89473 16.1054 1.89473H4.10533L3.97678 1.90338C3.51437 1.96611 3.15796 2.36248 3.15796 2.8421V21.4737L3.16661 21.6022C3.22934 22.0646 3.62571 22.421 4.10533 22.421H19.8949L20.0234 22.4124C20.4858 22.3497 20.8422 21.9533 20.8422 21.4737V11.0526L20.8336 10.9241C20.7709 10.4617 20.3745 10.1053 19.8949 10.1053L19.7663 10.1139C19.3039 10.1766 18.9475 10.573 18.9475 11.0526L18.9462 20.525H5.05144V3.7882H15.614L19.1209 8.75685L19.21 8.8653C19.5287 9.1995 20.0526 9.25879 20.4412 8.98449C20.8687 8.68276 20.9706 8.09164 20.6688 7.66419L16.8793 2.29577L16.7967 2.19437Z"/>
<path d="M17.0527 12C17.0527 11.4768 16.6286 11.0526 16.1054 11.0526H7.89482L7.76627 11.0613C7.30385 11.124 6.94745 11.5204 6.94745 12C6.94745 12.5232 7.3716 12.9474 7.89482 12.9474H16.1054L16.2339 12.9387C16.6963 12.876 17.0527 12.4796 17.0527 12Z"/>
<path d="M16.1054 15.7895C16.6286 15.7895 17.0527 16.2136 17.0527 16.7368C17.0527 17.2165 16.6963 17.6128 16.2339 17.6756L16.1054 17.6842H7.89482C7.3716 17.6842 6.94745 17.2601 6.94745 16.7368C6.94745 16.2572 7.30385 15.8608 7.76627 15.7981L7.89482 15.7895H16.1054Z"/>
<path d="M14.5264 7.26315C14.5264 6.73993 14.1023 6.31578 13.5791 6.31578H7.89482L7.76627 6.32443C7.30385 6.38716 6.94745 6.78353 6.94745 7.26315C6.94745 7.78637 7.3716 8.21052 7.89482 8.21052H13.5791L13.7076 8.20187C14.17 8.13914 14.5264 7.74277 14.5264 7.26315Z"/>
</svg>
