<svg viewBox="0 0 24 24" xmlns="http://www.w3.org/2000/svg">
<path d="M7.59986 3.09961C4.16987 3.09961 1.49988 5.93615 1.49988 9.39961C1.49988 11.0395 2.09344 12.4203 3.02067 13.7021C3.93075 14.9602 5.19677 16.1678 6.58745 17.4591L6.59171 17.463L10.3312 20.891C10.5041 21.0494 10.6699 21.2015 10.8207 21.3193C10.9862 21.4487 11.1879 21.5816 11.4442 21.66C11.8063 21.7707 12.1933 21.7707 12.5555 21.66C12.8118 21.5816 13.0135 21.4487 13.179 21.3193C13.3298 21.2015 13.4956 21.0494 13.6685 20.8909L13.9401 20.6419C13.6979 20.3831 13.4628 20.1082 13.2544 19.82C12.6982 19.0512 12.24 18.0706 12.24 16.8477C12.24 14.3651 14.1832 12.2 16.8063 12.2C17.4458 12.2 18.0502 12.332 18.597 12.5681C19.1437 12.332 19.7481 12.2 20.3876 12.2C20.8746 12.2 21.3381 12.2747 21.7701 12.4121C22.23 11.493 22.4998 10.5052 22.4998 9.39961C22.4998 5.93615 19.8298 3.09961 16.3998 3.09961C14.6574 3.09961 13.1025 3.83674 11.9998 5.01834C10.8972 3.83674 9.34233 3.09961 7.59986 3.09961Z"/>
<path d="M14.2399 16.8477C14.2399 15.3951 15.3609 14.2 16.8061 14.2C17.5081 14.2 18.1375 14.4843 18.5968 14.9441C19.0561 14.4843 19.6855 14.2 20.3875 14.2C21.8327 14.2 22.9538 15.3951 22.9538 16.8477C22.9538 17.5374 22.7035 18.1162 22.319 18.6478C21.943 19.1675 21.4216 19.6644 20.8565 20.1891L20.8544 20.1911L19.5766 21.3623C19.0223 21.8705 18.1714 21.8705 17.617 21.3623L16.3393 20.1911L16.3371 20.1891C15.772 19.6644 15.2507 19.1675 14.8747 18.6478C14.4901 18.1162 14.2399 17.5374 14.2399 16.8477Z"/>
</svg>
