<svg viewBox="0 0 24 24" xmlns="http://www.w3.org/2000/svg">
<path d="M12.9388 3.97674C12.8761 3.51433 12.4797 3.15793 12.0001 3.15793C11.4769 3.15793 11.0527 3.58208 11.0527 4.1053V11.0527H4.10533L3.97678 11.0613C3.51437 11.124 3.15796 11.5204 3.15796 12C3.15796 12.5233 3.58211 12.9474 4.10533 12.9474H11.0527V19.8948L11.0614 20.0233C11.1241 20.4857 11.5205 20.8421 12.0001 20.8421C12.5233 20.8421 12.9475 20.418 12.9475 19.8948V12.9474H19.8949L20.0234 12.9388C20.4858 12.876 20.8422 12.4796 20.8422 12C20.8422 11.4768 20.4181 11.0527 19.8949 11.0527H12.9475V4.1053L12.9388 3.97674Z"/>
</svg>
