<svg viewBox="0 0 24 24" xmlns="http://www.w3.org/2000/svg">
<path d="M5.68454 13.8947C6.73044 13.8947 7.57928 13.0459 7.57928 12C7.57928 10.9541 6.73044 10.1053 5.68454 10.1053C4.63864 10.1053 3.78979 10.9541 3.78979 12C3.78979 13.0459 4.63864 13.8947 5.68454 13.8947Z"/>
<path d="M13.8951 12C13.8951 13.0459 13.0463 13.8947 12.0004 13.8947C10.9545 13.8947 10.1056 13.0459 10.1056 12C10.1056 10.9541 10.9545 10.1053 12.0004 10.1053C13.0463 10.1053 13.8951 10.9541 13.8951 12Z"/>
<path d="M20.2741 12C20.2741 13.0459 19.4252 13.8947 18.3793 13.8947C17.3334 13.8947 16.4846 13.0459 16.4846 12C16.4846 10.9541 17.3334 10.1053 18.3793 10.1053C19.4252 10.1053 20.2741 10.9541 20.2741 12Z"/>
</svg>
