<svg viewBox="0 0 24 24" fill="none" xmlns="http://www.w3.org/2000/svg">
<path fill-rule="evenodd" clip-rule="evenodd" d="M24.0005 0H0.000488281V24H24.0005V0ZM12.2695 5.79861C12.1006 5.71416 11.9018 5.71416 11.7329 5.79861L5.33401 8.99804C5.19761 9.06621 5.061 9.13449 4.95435 9.20056C4.85037 9.26497 4.67222 9.38631 4.56993 9.60198C4.44988 9.85511 4.44988 10.1488 4.56993 10.4019C4.67222 10.6176 4.85037 10.7389 4.95435 10.8033C5.061 10.8694 5.19762 10.9377 5.33402 11.0058L7.06788 11.8728L7.06782 14.9292V14.9292C7.06737 15.3292 7.067 15.666 7.17354 15.9749C7.26698 16.2458 7.41948 16.4926 7.62 16.6973C7.84863 16.9307 8.15002 17.081 8.50805 17.2595L10.836 18.4235C11.1292 18.5704 11.3765 18.6944 11.6447 18.7447C11.8803 18.7889 12.1221 18.7889 12.3577 18.7447C12.6259 18.6944 12.8731 18.5704 13.1664 18.4235L15.4944 17.2595L15.4944 17.2595C15.8524 17.081 16.1538 16.9307 16.3824 16.6973C16.5829 16.4926 16.7354 16.2458 16.8288 15.9749C16.9354 15.666 16.935 15.3292 16.9346 14.9292L16.9345 11.8728L18.3212 11.1794V14.0019C18.3212 14.3332 18.5898 14.6019 18.9212 14.6019C19.2525 14.6019 19.5212 14.3332 19.5212 14.0019V10.0512C19.5293 9.89823 19.4997 9.74375 19.4324 9.60198C19.3301 9.38631 19.152 9.26497 19.048 9.20056C18.9414 9.13449 18.8047 9.06621 18.6683 8.99803L12.2695 5.79861ZM15.7345 12.4728L12.2695 14.2053C12.1006 14.2897 11.9018 14.2897 11.7329 14.2053L8.26787 12.4728V14.8501C8.26787 15.3722 8.2757 15.4901 8.30795 15.5836C8.3434 15.6864 8.40124 15.78 8.4773 15.8576C8.54651 15.9283 8.64849 15.988 9.11548 16.2215L11.3155 17.3215C11.6964 17.512 11.7845 17.55 11.866 17.5653C11.9553 17.582 12.047 17.582 12.1364 17.5653C12.2179 17.55 12.306 17.512 12.6869 17.3215L14.8869 16.2215C15.3539 15.988 15.4559 15.9283 15.5251 15.8576C15.6011 15.78 15.659 15.6864 15.6944 15.5836C15.7267 15.4901 15.7345 15.3722 15.7345 14.8501V12.4728ZM12.0012 12.9978L6.00951 10.0019L12.0012 7.00609L17.9929 10.0019L12.0012 12.9978Z" fill="#8C9196" fill-opacity="0.205"/>
</svg>
