<svg viewBox="0 0 24 24" xmlns="http://www.w3.org/2000/svg">
<path fill-rule="evenodd" clip-rule="evenodd" d="M22.0983 5.79033C21.9948 4.32709 20.7726 3.16391 19.2866 3.16391H4.71741L4.51649 3.17104C3.05629 3.275 1.89868 4.50291 1.89868 5.99164V15.2655L1.90533 15.4609C2.00667 16.9544 3.25374 18.3181 4.7408 18.3181H8.23384L8.36239 18.3095C8.8248 18.2467 9.18121 17.8504 9.18121 17.3708C9.18121 16.8475 8.75706 16.4234 8.23384 16.4234H4.7408L4.63803 16.4133C4.22445 16.3339 3.79343 15.797 3.79343 15.2655V5.99164L3.80196 5.86573C3.86385 5.4124 4.25449 5.05865 4.71741 5.05865H19.2866L19.4109 5.06723C19.8585 5.12944 20.2106 5.52231 20.2106 5.99164V15.2655L20.2024 15.4014C20.1378 15.9412 19.7028 16.4234 19.31 16.4234H14.8304L14.6985 16.4326C14.6114 16.4449 14.5261 16.4692 14.4453 16.5051L8.77281 19.0282L8.65886 19.0884C8.26185 19.3336 8.09729 19.8406 8.29221 20.2788L8.35236 20.3928C8.5976 20.7898 9.10461 20.9544 9.54283 20.7594L15.0328 18.317L19.31 18.3181L19.5024 18.3105C20.9639 18.1946 22.1054 16.7722 22.1054 15.2655V5.99164L22.0983 5.79033ZM8.21045 12C8.90771 12 9.47361 11.4354 9.47361 10.7368C9.47361 10.0383 8.90771 9.47367 8.21045 9.47367C7.51318 9.47367 6.94728 10.0383 6.94728 10.7368C6.94728 11.4354 7.51318 12 8.21045 12ZM11.9999 12C12.6972 12 13.2631 11.4354 13.2631 10.7368C13.2631 10.0383 12.6972 9.47367 11.9999 9.47367C11.3027 9.47367 10.7368 10.0383 10.7368 10.7368C10.7368 11.4354 11.3027 12 11.9999 12ZM15.7894 12C16.4867 12 17.0526 11.4354 17.0526 10.7368C17.0526 10.0383 16.4867 9.47367 15.7894 9.47367C15.0922 9.47367 14.5263 10.0383 14.5263 10.7368C14.5263 11.4354 15.0922 12 15.7894 12Z"/>
</svg>
