<svg viewBox="0 0 24 24" xmlns="http://www.w3.org/2000/svg">
<path fill-rule="evenodd" clip-rule="evenodd" d="M11.9996 2.71997C6.65898 2.71997 2.09961 6.51606 2.09961 11.451C2.09961 13.652 3.03016 15.6474 4.52221 17.1653L3.97574 20.2201C3.91395 20.5655 4.05855 20.9154 4.3462 21.1163C4.63384 21.3173 5.01206 21.3328 5.31516 21.156L8.16594 19.493C9.34801 19.9308 10.642 20.182 11.9996 20.182C17.3402 20.182 21.8996 16.3859 21.8996 11.451C21.8996 6.51606 17.3402 2.71997 11.9996 2.71997ZM11.9996 4.51997C7.40921 4.51997 3.89961 7.73767 3.89961 11.451C3.89961 13.2556 4.71975 14.9269 6.09945 16.1863C6.32765 16.3946 6.43305 16.7053 6.37865 17.0095L6.09059 18.6198L7.63578 17.7184C7.87943 17.5763 8.17562 17.5566 8.43593 17.6653C9.52148 18.1184 10.7281 18.382 11.9996 18.382C16.59 18.382 20.0996 15.1643 20.0996 11.451C20.0996 7.73767 16.59 4.51997 11.9996 4.51997ZM8.99961 11.62C8.99961 12.1723 8.55189 12.62 7.99961 12.62C7.44732 12.62 6.99961 12.1723 6.99961 11.62C6.99961 11.0677 7.44732 10.62 7.99961 10.62C8.55189 10.62 8.99961 11.0677 8.99961 11.62ZM12.9996 11.62C12.9996 12.1723 12.5519 12.62 11.9996 12.62C11.4473 12.62 10.9996 12.1723 10.9996 11.62C10.9996 11.0677 11.4473 10.62 11.9996 10.62C12.5519 10.62 12.9996 11.0677 12.9996 11.62ZM16.9996 11.62C16.9996 12.1723 16.5519 12.62 15.9996 12.62C15.4473 12.62 14.9996 12.1723 14.9996 11.62C14.9996 11.0677 15.4473 10.62 15.9996 10.62C16.5519 10.62 16.9996 11.0677 16.9996 11.62Z"/>
</svg>
