<svg viewBox="0 0 24 24" xmlns="http://www.w3.org/2000/svg">
<path d="M10.1055 5.6842C10.1055 6.73009 10.9543 7.57893 12.0002 7.57893C13.0461 7.57893 13.895 6.73009 13.895 5.6842C13.895 4.6383 13.0461 3.78946 12.0002 3.78946C10.9543 3.78946 10.1055 4.6383 10.1055 5.6842Z"/>
<path d="M12.0002 13.8947C10.9543 13.8947 10.1055 13.0459 10.1055 12C10.1055 10.9541 10.9543 10.1052 12.0002 10.1052C13.0461 10.1052 13.895 10.9541 13.895 12C13.895 13.0459 13.0461 13.8947 12.0002 13.8947Z"/>
<path d="M12.0002 20.2737C10.9543 20.2737 10.1055 19.4248 10.1055 18.3789C10.1055 17.333 10.9543 16.4842 12.0002 16.4842C13.0461 16.4842 13.895 17.333 13.895 18.3789C13.895 19.4248 13.0461 20.2737 12.0002 20.2737Z"/>
</svg>
