<svg viewBox="0 0 24 24" xmlns="http://www.w3.org/2000/svg">
<path d="M3.43593 1.69853C3.61359 1.52086 3.85456 1.42105 4.10582 1.42105H16.1059C16.4137 1.42105 16.7023 1.57061 16.8798 1.82209L20.6693 7.19051C20.7822 7.35035 20.8427 7.54119 20.8427 7.73684V21C20.8427 21.5232 20.4186 21.9474 19.8954 21.9474H17.451V20.3688C17.451 19.0317 16.0455 17.8584 14.1078 17.3673C13.4937 17.1217 13.1935 16.726 13.2071 16.1803C13.2071 15.3617 14.0941 14.6796 14.0941 14.6796C14.599 14.1475 15.022 13.3834 15.022 12.6058C15.022 10.9823 13.6438 9.63158 12.0063 9.63158C10.3688 9.63158 8.97689 10.9959 8.97689 12.6058C8.97689 13.3971 9.38627 14.1611 9.90481 14.6796C9.90481 14.6796 10.7782 15.3617 10.7918 16.1803C10.7918 16.726 10.4916 17.1217 9.89117 17.3673C7.95345 17.8584 6.54792 19.0454 6.54792 20.3688V21.9474H4.10582C3.5826 21.9474 3.15845 21.5232 3.15845 21V2.36842C3.15845 2.11716 3.25826 1.87619 3.43593 1.69853Z"/>
</svg>
