<svg width="24" height="24" viewBox="0 0 24 24" fill="none" xmlns="http://www.w3.org/2000/svg">
<g id="Shape">
<g id="Vector">
<path fill-rule="evenodd" clip-rule="evenodd" d="M3.59985 4.0001C3.59985 2.95076 4.45051 2.1001 5.49985 2.1001H13.6999V8.9001H20.3999V20.0001C20.3999 21.0494 19.5492 21.9001 18.4999 21.9001H5.49985C4.45051 21.9001 3.59985 21.0494 3.59985 20.0001V4.0001ZM9.99985 15.8002C10.3436 15.8002 10.6379 15.6778 10.8827 15.433C11.1275 15.1882 11.2498 14.8939 11.2498 14.5502C11.2498 14.2064 11.1275 13.9122 10.8827 13.6674C10.6379 13.4226 10.3436 13.3002 9.99985 13.3002C9.6561 13.3002 9.36183 13.4226 9.11703 13.6674C8.87224 13.9122 8.74985 14.2064 8.74985 14.5502C8.74985 14.8939 8.87224 15.1882 9.11703 15.433C9.36183 15.6778 9.6561 15.8002 9.99985 15.8002ZM12.4998 18.3002V17.9408C12.4998 17.6908 12.4321 17.4616 12.2967 17.2533C12.1613 17.045 11.9738 16.8887 11.7342 16.7845C11.4634 16.67 11.1847 16.5814 10.8983 16.5189C10.6118 16.4564 10.3123 16.4252 9.99985 16.4252C9.68735 16.4252 9.38787 16.4564 9.10141 16.5189C8.81495 16.5814 8.53631 16.67 8.26547 16.7845C8.02589 16.8887 7.83839 17.045 7.70297 17.2533C7.56756 17.4616 7.49985 17.6908 7.49985 17.9408V18.3002H12.4998Z" fill="#171717"/>
<path d="M19.5645 6.82552L15.7744 2.84591V6.82552H19.5645Z" fill="#171717"/>
</g>
</g>
</svg>
