<svg viewBox="0 0 24 24" xmlns="http://www.w3.org/2000/svg">
<path d="M8.49939 15.0997C8.49939 16.9997 10.0494 18.4997 11.9994 18.4997C13.9494 18.4997 15.4994 16.9997 15.4994 15.0997C15.4994 13.1997 13.9494 11.6997 11.9994 9.99972C10.0494 11.6997 8.49939 13.1997 8.49939 15.0997Z"/>
<path fill-rule="evenodd" clip-rule="evenodd" d="M14.2642 1.83127C13.5051 1.13261 12.3106 1.30585 11.7664 2.16299L8.81017 6.81904L8.11058 6.18941C7.48771 5.62883 6.48751 5.60008 5.85929 6.2621C3.96078 8.26276 2.84937 10.8746 2.84937 13.6001C2.84937 16.1301 3.78869 18.3442 5.43187 19.9239C7.07296 21.5016 9.36679 22.4001 11.9994 22.4001C17.3279 22.4001 21.1494 18.5155 21.1494 13.6001C21.1494 9.43738 18.4901 5.72069 14.2642 1.83127ZM9.75916 8.68255L13.1858 3.28558C17.2583 7.06268 19.3494 10.2839 19.3494 13.6001C19.3494 17.4848 16.3708 20.6001 11.9994 20.6001C9.78194 20.6001 7.95077 19.8486 6.67936 18.6263C5.41004 17.406 4.64937 15.6701 4.64937 13.6001C4.64937 11.4303 5.51077 9.31217 7.03389 7.64204L8.3973 8.86911C8.59417 9.04629 8.8591 9.12776 9.12151 9.09181C9.38393 9.05587 9.61719 8.90615 9.75916 8.68255Z"/>
</svg>
