<svg viewBox="0 0 24 24" xmlns="http://www.w3.org/2000/svg">
<path fill-rule="evenodd" clip-rule="evenodd" d="M17.0459 7.64495C16.9093 5.08385 14.6812 3.1579 11.9999 3.1579L11.7419 3.16387C9.09153 3.28678 6.94724 5.294 6.94724 7.89474L6.94598 10.7368H6.63145L6.5029 10.7455C6.04049 10.8082 5.68408 11.2046 5.68408 11.6842V19.8947L5.69273 20.0233C5.75546 20.4857 6.15184 20.8421 6.63145 20.8421H17.3683L17.4969 20.8335C17.9593 20.7707 18.3157 20.3744 18.3157 19.8947V11.6842L18.3071 11.5557C18.2443 11.0933 17.848 10.7368 17.3683 10.7368H17.0513L17.0525 7.89474L17.0459 7.64495ZM11.9999 5.05263C10.3094 5.05263 8.95879 6.20245 8.84917 7.6978L8.84199 7.89474L8.84073 10.7368H15.1565L15.1578 7.89474C15.1578 6.37086 13.8776 5.15755 12.2184 5.05909L11.9999 5.05263Z"/>
</svg>
