<svg viewBox="0 0 24 24" xmlns="http://www.w3.org/2000/svg">
<path fill-rule="evenodd" clip-rule="evenodd" d="M11.9996 3.89998C10.2635 3.89998 8.89962 5.26187 8.89962 6.88886V11H7.09962V6.88886C7.09962 4.22029 9.3175 2.09998 11.9996 2.09998C14.6817 2.09998 16.8996 4.22029 16.8996 6.88886V11H15.0996V6.88886C15.0996 5.26187 13.7358 3.89998 11.9996 3.89998Z"/>
<path fill-rule="evenodd" clip-rule="evenodd" d="M6.75953 10.1C6.77287 10.1 6.78623 10.1 6.79962 10.1L17.2397 10.1C17.58 10.0999 17.9036 10.0999 18.1731 10.1291C18.47 10.1613 18.806 10.2373 19.1164 10.4628C19.2777 10.58 19.4196 10.7219 19.5367 10.8832C19.7623 11.1936 19.8383 11.5296 19.8705 11.8265C19.8997 12.096 19.8997 12.4196 19.8996 12.7599V19.2401C19.8997 19.5804 19.8997 19.904 19.8705 20.1735C19.8383 20.4704 19.7623 20.8063 19.5367 21.1168C19.4196 21.2781 19.2777 21.4199 19.1164 21.5371C18.806 21.7626 18.47 21.8387 18.1731 21.8709C17.9036 21.9001 17.58 21.9 17.2397 21.9H6.75951C6.41923 21.9 6.09563 21.9001 5.82613 21.8709C5.52921 21.8387 5.19325 21.7626 4.88282 21.5371C4.72152 21.4199 4.57968 21.2781 4.46248 21.1168C4.23695 20.8063 4.16089 20.4704 4.12873 20.1735C4.09953 19.904 4.09957 19.5804 4.09961 19.2401C4.09961 19.2267 4.09962 19.2134 4.09962 19.2V12.8C4.09962 12.7866 4.09961 12.7732 4.09961 12.7599C4.09957 12.4196 4.09953 12.096 4.12873 11.8265C4.16089 11.5296 4.23695 11.1936 4.46248 10.8832C4.57968 10.7219 4.72152 10.58 4.88282 10.4628C5.19325 10.2373 5.52921 10.1613 5.82613 10.1291C6.09564 10.0999 6.41924 10.0999 6.75953 10.1ZM5.90671 11.9383L5.90831 11.9378L5.90671 11.9383ZM5.93154 11.9319C5.92776 11.9497 5.92284 11.9781 5.91825 12.0204C5.90085 12.181 5.89962 12.405 5.89962 12.8V19.2C5.89962 19.595 5.90085 19.819 5.91825 19.9796C5.92284 20.0219 5.92776 20.0503 5.93154 20.0681C5.94931 20.0718 5.9777 20.0768 6.02001 20.0813C6.18062 20.0987 6.4046 20.1 6.79962 20.1H17.1996C17.5946 20.1 17.8186 20.0987 17.9792 20.0813C18.0215 20.0768 18.0499 20.0718 18.0677 20.0681C18.0715 20.0503 18.0764 20.0219 18.081 19.9796C18.0984 19.819 18.0996 19.595 18.0996 19.2V12.8C18.0996 12.405 18.0984 12.181 18.081 12.0204C18.0764 11.9781 18.0715 11.9497 18.0677 11.9319C18.0499 11.9281 18.0215 11.9232 17.9792 11.9186C17.8186 11.9012 17.5946 11.9 17.1996 11.9H6.79962C6.4046 11.9 6.18062 11.9012 6.02001 11.9186C5.9777 11.9232 5.94931 11.9281 5.93154 11.9319ZM18.0925 11.9383L18.0909 11.9377L18.0925 11.9383ZM18.0613 11.9071L18.0618 11.9087L18.0613 11.9071ZM18.0613 20.0929L18.0618 20.0912L18.0613 20.0929ZM18.0925 20.0616L18.0909 20.0622L18.0925 20.0616ZM5.90671 20.0616L5.90835 20.0622L5.90671 20.0616ZM5.93797 20.0929L5.93739 20.0912L5.93797 20.0929ZM5.93797 11.9071L5.9374 11.9087L5.93797 11.9071Z"/>
</svg>
