<svg viewBox="0 0 24 24" xmlns="http://www.w3.org/2000/svg">
<path d="M20.5263 8.21052C20.5263 7.6873 20.1022 7.26315 19.579 7.26315H4.421L4.29245 7.2718C3.83004 7.33453 3.47363 7.73091 3.47363 8.21052C3.47363 8.73374 3.89779 9.15789 4.421 9.15789H19.579L19.7075 9.14924C20.1699 9.08651 20.5263 8.69014 20.5263 8.21052Z"/>
<path d="M19.579 11.0526C20.1022 11.0526 20.5263 11.4768 20.5263 12C20.5263 12.4796 20.1699 12.876 19.7075 12.9387L19.579 12.9474H4.421C3.89779 12.9474 3.47363 12.5232 3.47363 12C3.47363 11.5204 3.83004 11.124 4.29245 11.0613L4.421 11.0526H19.579Z"/>
<path d="M19.579 14.8421C20.1022 14.8421 20.5263 15.2663 20.5263 15.7895C20.5263 16.2691 20.1699 16.6655 19.7075 16.7282L19.579 16.7368H4.421C3.89779 16.7368 3.47363 16.3127 3.47363 15.7895C3.47363 15.3099 3.83004 14.9135 4.29245 14.8507L4.421 14.8421H19.579Z"/>
</svg>
