<svg viewBox="0 0 24 24" xmlns="http://www.w3.org/2000/svg">
<path fill-rule="evenodd" clip-rule="evenodd" d="M8.21092 19.1053H4.65828C3.08501 19.1053 1.81616 17.8834 1.81616 16.2631V5.8421C1.81616 4.24502 3.07113 2.52631 4.65828 2.52631H19.3425C20.9297 2.52631 22.1847 4.24502 22.1847 5.8421V16.2631C22.1847 17.8909 20.9135 19.1053 19.3425 19.1053H15.3162L9.34777 21.9474C8.74346 22.1885 8.20318 21.8388 8.21092 21V19.1053ZM7.02671 8.65262C7.02671 8.1294 7.45086 7.70525 7.97408 7.70525H16.0267C16.55 7.70525 16.9741 8.1294 16.9741 8.65262C16.9741 9.17584 16.55 9.59999 16.0267 9.59999H7.97408C7.45086 9.59999 7.02671 9.17584 7.02671 8.65262ZM7.97408 12.2526C7.45086 12.2526 7.02671 12.6768 7.02671 13.2C7.02671 13.7232 7.45086 14.1474 7.97408 14.1474H16.0267C16.55 14.1474 16.9741 13.7232 16.9741 13.2C16.9741 12.6768 16.55 12.2526 16.0267 12.2526H7.97408Z"/>
</svg>
