<svg viewBox="0 0 24 24" xmlns="http://www.w3.org/2000/svg">
<path d="M11.7405 5.77813C11.978 5.4179 12.1183 5.00573 12.1183 4.53947L12.1256 4.34137C12.3091 1.88523 15.903 1.45362 17.0636 3.75809C17.7944 5.20918 17.3902 6.58161 16.2939 7.79476L16.229 7.86189L20.8832 7.86203C21.3628 7.86203 21.7592 8.21843 21.822 8.68084L21.8306 8.8094V16.2632C21.8306 16.4709 21.7623 16.6729 21.6362 16.8381L18.1101 21.4565C17.9309 21.6912 17.6525 21.8289 17.3571 21.8289H10.5788C10.0556 21.8289 9.6314 21.4047 9.63145 20.8815L9.63484 8.73258C9.69279 7.87576 10.2127 6.90865 11.4324 6.15444L11.5081 6.07967C11.5519 6.0319 11.603 5.97082 11.6572 5.89739L11.7405 5.77813Z"/>
<path d="M6.67092 7.87686H3.11827C2.59505 7.87686 2.1709 8.30101 2.1709 8.82423V20.8816C2.1709 21.4048 2.59505 21.8289 3.11827 21.8289H6.67092C7.19413 21.8289 7.61829 21.4048 7.61829 20.8816V8.82423C7.61829 8.30101 7.19413 7.87686 6.67092 7.87686Z"/>
</svg>
