<svg viewBox="0 0 24 24" xmlns="http://www.w3.org/2000/svg">
<path fill-rule="evenodd" clip-rule="evenodd" d="M1.89551 10.7368C1.89551 15.6114 6.47195 19.5789 12.0008 19.5789V19.5789C12.4012 19.5789 12.7499 19.5461 13.2059 19.4678V19.4678L13.7036 19.3743L13.9638 19.32L18.1259 21.9575C18.2749 22.0535 18.4417 22.1015 18.6059 22.1053V22.1053H18.6589C18.9179 22.0977 19.1718 21.984 19.3499 21.7781V21.7781L19.432 21.6657C19.6872 21.2627 19.6025 20.7423 19.2514 20.4417V20.4417L19.1402 20.3583C18.8724 20.1891 18.4467 19.9187 17.8606 19.5486V19.5486C17.6017 19.3718 17.4299 19.2467 17.349 19.176V19.176C17.2265 19.0699 17.0977 18.9878 17.0168 18.7036V18.7036C16.9751 18.4939 17.0282 18.3032 17.1229 18.2072V18.2072C17.2164 18.1124 17.3314 18.0265 17.4817 17.9583V17.9583C20.3768 16.6661 22.1061 13.8088 22.1061 10.7368V10.7368C22.1061 5.85979 17.5309 1.89474 12.0008 1.89474V1.89474C6.47195 1.89474 1.89551 5.86105 1.89551 10.7368V10.7368Z"/>
</svg>
