<svg viewBox="0 0 24 24" xmlns="http://www.w3.org/2000/svg">
<path fill-rule="evenodd" clip-rule="evenodd" d="M2.57007 11.9948C2.57007 6.78954 6.78979 2.56982 11.9951 2.56982C17.2003 2.56982 21.4201 6.78954 21.4201 11.9948C21.4201 13.4191 21.1035 14.7718 20.5363 15.9843L20.9388 17.997C21.0112 18.3586 21.0773 18.6891 21.1067 18.9632C21.1372 19.2486 21.1455 19.6021 20.9991 19.956C20.8037 20.4283 20.4285 20.8035 19.9562 20.9988C19.6023 21.1453 19.2489 21.137 18.9635 21.1064C18.6893 21.077 18.3588 21.0109 17.9973 20.9386L15.9846 20.536C14.7721 21.1033 13.4194 21.4198 11.9951 21.4198C6.78979 21.4198 2.57007 17.2001 2.57007 11.9948Z"/>
</svg>
