<svg viewBox="0 0 24 24" fill="none" xmlns="http://www.w3.org/2000/svg">
<path fill-rule="evenodd" clip-rule="evenodd" d="M24.0005 0H0.000488281V24H24.0005V0ZM7.91351 5.40129H7.91353H12.0913H12.0914C12.3523 5.40128 12.5833 5.40127 12.7747 5.4169C12.9786 5.43356 13.1898 5.4709 13.3954 5.57568C13.6965 5.72908 13.9413 5.97384 14.0947 6.2749C14.1994 6.48054 14.2368 6.69177 14.2534 6.89563C14.2691 7.08704 14.2691 7.31806 14.2691 7.57901V7.57903V7.57905V7.57906L14.2691 10.7346H16.0913H16.0913H16.0914H16.0914C16.3523 10.7346 16.5833 10.7346 16.7747 10.7502C16.9786 10.7669 17.1898 10.8042 17.3954 10.909C17.6965 11.0624 17.9413 11.3072 18.0947 11.6082C18.1994 11.8139 18.2368 12.0251 18.2534 12.229C18.2691 12.4204 18.2691 12.6514 18.269 12.9124V18.6013H13.6832L13.6691 18.6014L13.6549 18.6013H10.0114L10.0024 18.6014L9.9934 18.6013H5.73576L5.73576 7.57903V7.57901C5.73574 7.31803 5.73573 7.08706 5.75137 6.89563C5.76803 6.69177 5.80537 6.48054 5.91015 6.2749C6.06354 5.97384 6.30831 5.72908 6.60937 5.57568C6.81501 5.4709 7.02624 5.43356 7.2301 5.4169C7.42151 5.40127 7.65254 5.40128 7.91351 5.40129ZM13.0691 17.4013H10.6024V15.3347C10.6024 15.0033 10.3338 14.7347 10.0024 14.7347C9.67103 14.7347 9.4024 15.0033 9.4024 15.3347V17.4013H6.93578V7.40125C6.93578 6.9823 6.94318 6.91512 6.95535 6.87765C6.99492 6.75587 7.09039 6.6604 7.21217 6.62083C7.24964 6.60865 7.31682 6.60125 7.73577 6.60125H12.2691C12.688 6.60125 12.7552 6.60865 12.7927 6.62083C12.9145 6.6604 13.0099 6.75587 13.0495 6.87765C13.0617 6.91512 13.0691 6.9823 13.0691 7.40125V17.4013ZM14.2691 17.4013H17.0691V12.7346C17.0691 12.3156 17.0617 12.2485 17.0495 12.211C17.0099 12.0892 16.9145 11.9937 16.7927 11.9542C16.7552 11.942 16.688 11.9346 16.2691 11.9346H14.2691V17.4013ZM8.06907 8.66802C8.06907 8.33665 8.3377 8.06802 8.66907 8.06802H11.3357C11.6671 8.06802 11.9357 8.33665 11.9357 8.66802C11.9357 8.99939 11.6671 9.26802 11.3357 9.26802H8.66907C8.3377 9.26802 8.06907 8.99939 8.06907 8.66802ZM8.06907 11.3347C8.06907 11.0033 8.3377 10.7347 8.66907 10.7347H11.3357C11.6671 10.7347 11.9357 11.0033 11.9357 11.3347C11.9357 11.6661 11.6671 11.9347 11.3357 11.9347H8.66907C8.3377 11.9347 8.06907 11.6661 8.06907 11.3347Z" fill="#8C9196" fill-opacity="0.205"/>
</svg>
