<svg viewBox="0 0 24 24" xmlns="http://www.w3.org/2000/svg">
<path d="M7.36652 2.6001C6.97504 2.60008 6.62851 2.60007 6.34137 2.62353C6.03559 2.64851 5.71873 2.70452 5.41028 2.86169C4.95869 3.09178 4.59154 3.45893 4.36144 3.91052C4.20428 4.21898 4.14827 4.53583 4.12328 4.84161C4.09982 5.12876 4.09984 5.47523 4.09985 5.86672L4.09986 21.5001C4.09986 21.8252 4.27517 22.125 4.55848 22.2844C4.84179 22.4439 5.18906 22.4381 5.46694 22.2694L11.9999 18.303L18.5328 22.2694C18.8107 22.4381 19.1579 22.4439 19.4412 22.2844C19.7245 22.125 19.8999 21.8252 19.8999 21.5001L19.8999 5.86676C19.8999 5.4753 19.8999 5.12875 19.8764 4.84161C19.8514 4.53583 19.7954 4.21898 19.6383 3.91052C19.4082 3.45893 19.041 3.09178 18.5894 2.86169C18.281 2.70452 17.9641 2.64851 17.6583 2.62353C17.3712 2.60007 17.0247 2.60008 16.6332 2.6001H7.36652Z"/>
</svg>
