<svg viewBox="0 0 24 24" xmlns="http://www.w3.org/2000/svg">
<path fill-rule="evenodd" clip-rule="evenodd" d="M11.9997 21.6496C12.9712 21.6496 13.8466 21.0634 14.2164 20.1651L17.1051 13.1496L20.2245 13.1496C20.3448 13.1497 20.4831 13.1497 20.6041 13.1398C20.7431 13.1285 20.9365 13.0997 21.138 12.997C21.4014 12.8628 21.6156 12.6486 21.7498 12.3852C21.8525 12.1837 21.8813 11.9903 21.8926 11.8513C21.9025 11.7303 21.9025 11.592 21.9024 11.4717V3.77752C21.9025 3.65728 21.9025 3.51897 21.8926 3.39793C21.8813 3.2589 21.8525 3.06553 21.7498 2.86403C21.6156 2.6006 21.4014 2.38643 21.138 2.25221C20.9365 2.14954 20.7431 2.12078 20.6041 2.10942C20.4831 2.09953 20.3448 2.09958 20.2246 2.09961L7.17837 2.09962C6.72449 2.0996 6.33476 2.09959 6.01124 2.12405C5.6689 2.14992 5.33613 2.20651 5.00867 2.35328C4.5098 2.57687 4.08429 2.93693 3.78122 3.39193C3.58228 3.69058 3.47141 4.0094 3.38924 4.34274C3.31159 4.65773 3.24711 5.04205 3.17202 5.48965L2.38847 10.1593C2.28629 10.7681 2.20009 11.2818 2.1663 11.7041C2.13113 12.1437 2.14254 12.5799 2.3009 13.0073C2.53665 13.6435 2.98802 14.1769 3.57646 14.5147C3.97171 14.7416 4.40001 14.825 4.83933 14.8631C5.26148 14.8996 5.78216 14.8996 6.39961 14.8996L9.60243 14.8996V19.2523C9.60243 20.5763 10.6757 21.6496 11.9997 21.6496ZM12.5522 19.4812C12.4601 19.705 12.2419 19.8511 11.9999 19.8511C11.67 19.8511 11.4026 19.5837 11.4026 19.2538V14.0011C11.4026 13.504 10.9997 13.1011 10.5026 13.1011H5.96583C5.52313 13.1011 5.22961 13.1007 5.00446 13.0877C4.78366 13.0748 4.69236 13.0522 4.6459 13.0354C4.27822 12.9022 4.00886 12.5839 3.93841 12.1993C3.92951 12.1507 3.92227 12.0569 3.94617 11.837C3.97054 11.6128 4.01877 11.3233 4.09203 10.8867L4.99813 5.48666C5.1138 4.79735 5.14946 4.63737 5.20314 4.52544C5.33877 4.24262 5.58867 4.03115 5.89004 3.9442C6.00931 3.90978 6.17299 3.90108 6.87194 3.90108H15.6025V12.0734L12.5522 19.4812ZM17.4025 11.3511H20.1026V3.90108H17.4025V11.3511Z"/>
</svg>
