<svg viewBox="0 0 24 24" xmlns="http://www.w3.org/2000/svg">
<path d="M14.2101 4.5205C13.4635 4.16904 12.6349 4.00262 11.8038 4.03366C10.9726 4.06471 10.1601 4.29245 9.44477 4.69972C8.72915 5.10717 8.13131 5.68294 7.71701 6.37807C7.29846 7.08033 7.10053 7.8466 7.10059 8.65216L8.90059 8.65202C8.90055 8.15341 9.01954 7.70846 9.26321 7.29962C9.51112 6.88367 9.87788 6.52443 10.3354 6.26395C10.7932 6.00329 11.3223 5.8529 11.8709 5.83241C12.4196 5.81192 12.9618 5.92232 13.4436 6.1491C13.9251 6.37578 14.3252 6.7085 14.6111 7.10733C14.8966 7.50548 15.0601 7.95745 15.0936 8.41894C15.1272 8.88025 15.0306 9.34497 14.8078 9.76959C14.5858 10.1928 14.2436 10.5658 13.8062 10.8462C12.998 11.3412 12.3202 12.008 11.8333 12.7982C11.3444 13.5916 11.0632 14.485 11.0179 15.4057L11.0168 15.4278V15.93H12.8168V15.4733C12.85 14.8699 13.0361 14.2774 13.3657 13.7424C13.6995 13.2008 14.1725 12.7314 14.7522 12.3776L14.7597 12.373L14.7671 12.3683C15.4603 11.9264 16.0263 11.3215 16.4018 10.6058C16.7776 9.88938 16.9473 9.09042 16.8889 8.28835C16.8306 7.48646 16.5471 6.71838 16.074 6.0585C15.6014 5.39931 14.9571 4.87207 14.2101 4.5205Z"/>
<path d="M11.9982 19.9762C12.661 19.9762 13.1982 19.439 13.1982 18.7762C13.1982 18.1135 12.661 17.5762 11.9982 17.5762C11.3355 17.5762 10.7982 18.1135 10.7982 18.7762C10.7982 19.439 11.3355 19.9762 11.9982 19.9762Z"/>
</svg>
