<svg viewBox="0 0 24 24" xmlns="http://www.w3.org/2000/svg">
<path d="M17.0526 8.76317C17.0526 5.82521 14.8619 3.47369 11.9999 3.47369C9.13793 3.47369 6.94727 5.82521 6.94727 8.76317C6.94727 9.28638 7.37142 9.71054 7.89464 9.71054C8.41786 9.71054 8.84201 9.28638 8.84201 8.76317C8.84201 6.84282 10.2155 5.36843 11.9999 5.36843C13.7843 5.36843 15.1578 6.84282 15.1578 8.76317C15.1578 10.5958 13.6475 12.1579 11.9999 12.1579C11.4767 12.1579 11.0525 12.5821 11.0525 13.1053V14.8421L11.0612 14.9707C11.1239 15.4331 11.5203 15.7895 11.9999 15.7895L12.1285 15.7808C12.5909 15.7181 12.9473 15.3217 12.9473 14.8421V13.9529L13.1991 13.8926C15.365 13.3078 17.0526 11.1941 17.0526 8.76317Z"/>
<path d="M11.9999 19.579C12.6972 19.579 13.2631 19.0143 13.2631 18.3158C13.2631 17.6173 12.6972 17.0526 11.9999 17.0526C11.3027 17.0526 10.7368 17.6173 10.7368 18.3158C10.7368 19.0143 11.3027 19.579 11.9999 19.579Z"/>
</svg>
