<svg viewBox="0 0 24 24" xmlns="http://www.w3.org/2000/svg">
<path d="M15.8998 12.0029C15.8998 12.269 15.8731 12.5288 15.8224 12.7799L11.2228 8.18031C11.4739 8.12955 11.7337 8.10291 11.9998 8.10291C14.1537 8.10291 15.8998 9.84899 15.8998 12.0029Z"/>
<path fill-rule="evenodd" clip-rule="evenodd" d="M18.763 20.7662L16.0461 18.0493C14.8579 18.5653 13.5054 18.9028 11.9997 18.9028C8.66466 18.9028 6.08107 17.2471 4.37102 15.6631C3.51165 14.867 2.85466 14.073 2.41172 13.4774C2.18975 13.1789 2.02016 12.9284 1.90453 12.7499C1.84668 12.6606 1.80223 12.5891 1.77138 12.5385C1.75596 12.5132 1.74392 12.4931 1.7353 12.4785L1.72494 12.4609L1.72168 12.4553L1.72053 12.4533C1.72034 12.453 1.71971 12.4519 2.49967 12.0028C1.71971 11.5537 1.71989 11.5534 1.72008 11.5531L1.72168 11.5503L1.72494 11.5447L1.7353 11.5271C1.74392 11.5126 1.75596 11.4924 1.77138 11.4671C1.80223 11.4165 1.84668 11.345 1.90453 11.2557C2.02016 11.0772 2.18975 10.8267 2.41172 10.5282C2.85466 9.93263 3.51165 9.1386 4.37102 8.34255C4.69609 8.04143 5.05273 7.73772 5.4401 7.44329L2.49958 4.50277L3.77237 3.22998L6.97903 6.43664C8.38393 5.65975 10.0654 5.10281 11.9997 5.10281C15.3347 5.10281 17.9183 6.7585 19.6283 8.34255C20.4877 9.1386 21.1447 9.93263 21.5876 10.5282C21.8096 10.8267 21.9792 11.0772 22.0948 11.2557C22.1527 11.345 22.1971 11.4165 22.228 11.4671C22.2434 11.4924 22.2554 11.5126 22.264 11.5271L22.2744 11.5447L22.2777 11.5503L22.2788 11.5523C22.279 11.5526 22.2796 11.5537 21.4997 12.0028C22.2796 12.4519 22.2794 12.4522 22.2793 12.4525L22.2777 12.4553L22.2744 12.4609L22.264 12.4785C22.2554 12.4931 22.2434 12.5132 22.228 12.5385C22.1971 12.5891 22.1527 12.6606 22.0948 12.7499C21.9792 12.9284 21.8096 13.1789 21.5876 13.4774C21.1447 14.073 20.4877 14.867 19.6283 15.6631C19.0764 16.1743 18.4334 16.6931 17.7036 17.1612L20.0358 19.4934L18.763 20.7662ZM18.4051 14.3426C17.8254 14.8796 17.1538 15.4063 16.3957 15.8533L8.31366 7.77127C9.39479 7.24733 10.6275 6.90281 11.9997 6.90281C14.7101 6.90281 16.8765 8.24711 18.4051 9.66306C19.1651 10.367 19.7495 11.073 20.1433 11.6024C20.2545 11.7519 20.35 11.8868 20.4296 12.0028C20.35 12.1188 20.2545 12.2537 20.1433 12.4032C19.7495 12.9326 19.1651 13.6386 18.4051 14.3426ZM8.42899 10.4322L6.72626 8.72945C6.31711 9.02723 5.93941 9.34332 5.59423 9.66306C4.83428 10.367 4.24979 11.073 3.85608 11.6024C3.74487 11.7519 3.64932 11.8868 3.56976 12.0028C3.64932 12.1188 3.74487 12.2537 3.85608 12.4032C4.24979 12.9326 4.83428 13.6386 5.59423 14.3426C7.12281 15.7585 9.28922 17.1028 11.9997 17.1028C12.9537 17.1028 13.8403 16.9363 14.6555 16.6587L13.5705 15.5737C13.0899 15.7854 12.5586 15.9029 11.9998 15.9029C9.84585 15.9029 8.09977 14.1568 8.09977 12.0029C8.09977 11.4441 8.2173 10.9127 8.42899 10.4322ZM9.902 11.9052C9.90052 11.9376 9.89977 11.9702 9.89977 12.0029C9.89977 13.1627 10.84 14.1029 11.9998 14.1029C12.0325 14.1029 12.0651 14.1022 12.0975 14.1007L9.902 11.9052Z"/>
<path d="M21.4997 12.0028L22.2796 11.5537C22.4397 11.8317 22.4393 12.1745 22.2793 12.4525L21.4997 12.0028Z"/>
<path d="M2.49967 12.0028L1.71971 12.4519C1.55965 12.1739 1.56003 11.8311 1.72008 11.5531L2.49967 12.0028Z"/>
</svg>
