<svg viewBox="0 0 24 24" xmlns="http://www.w3.org/2000/svg">
<path fill-rule="evenodd" clip-rule="evenodd" d="M3.57 12C3.64956 12.116 3.74512 12.2509 3.85633 12.4004C4.25003 12.9298 4.83452 13.6358 5.59447 14.3397C7.12306 15.7557 9.28947 17.1 11.9999 17.1C14.7104 17.1 16.8768 15.7557 18.4054 14.3397C19.1653 13.6358 19.7498 12.9298 20.1435 12.4004C20.2547 12.2509 20.3503 12.116 20.4298 12C20.3503 11.884 20.2547 11.7491 20.1435 11.5996C19.7498 11.0702 19.1653 10.3642 18.4054 9.66023C16.8768 8.24428 14.7104 6.89998 11.9999 6.89998C9.28947 6.89998 7.12306 8.24428 5.59447 9.66023C4.83452 10.3642 4.25003 11.0702 3.85633 11.5996C3.74512 11.7491 3.64956 11.884 3.57 12ZM21.4999 12C22.2799 12.449 22.2795 12.4497 22.2795 12.4497L22.2779 12.4525L22.2746 12.4581L22.2643 12.4757C22.2557 12.4902 22.2436 12.5104 22.2282 12.5357C22.1973 12.5863 22.1529 12.6578 22.0951 12.7471C21.9794 12.9256 21.8098 13.1761 21.5879 13.4746C21.1449 14.0702 20.4879 14.8642 19.6286 15.6602C17.9185 17.2443 15.3349 18.9 11.9999 18.9C8.6649 18.9 6.08131 17.2443 4.37126 15.6602C3.51189 14.8642 2.8549 14.0702 2.41196 13.4746C2.18999 13.1761 2.02041 12.9256 1.90477 12.7471C1.84692 12.6578 1.80247 12.5863 1.77163 12.5357C1.7562 12.5104 1.74416 12.4902 1.73555 12.4757L1.72518 12.4581L1.72192 12.4525L1.72078 12.4505C1.72078 12.4505 1.71995 12.449 2.49991 12C1.71995 11.5509 1.72032 11.5503 1.72032 11.5503L1.72192 11.5475L1.72518 11.5419L1.73555 11.5243C1.74416 11.5097 1.7562 11.4896 1.77163 11.4643C1.80247 11.4137 1.84692 11.3422 1.90477 11.2529C2.02041 11.0744 2.18999 10.8239 2.41196 10.5254C2.8549 9.92979 3.51189 9.13576 4.37126 8.33972C6.08131 6.75567 8.6649 5.09998 11.9999 5.09998C15.3349 5.09998 17.9185 6.75567 19.6286 8.33972C20.4879 9.13576 21.1449 9.92979 21.5879 10.5254C21.8098 10.8239 21.9794 11.0744 22.0951 11.2529C22.1529 11.3422 22.1973 11.4137 22.2282 11.4643C22.2436 11.4896 22.2557 11.5097 22.2643 11.5243L22.2746 11.5419L22.2779 11.5475L22.279 11.5495C22.279 11.5495 22.2799 11.5509 21.4999 12ZM21.4999 12L22.2795 12.4497C22.4396 12.1717 22.4399 11.8289 22.2799 11.5509L21.4999 12ZM2.49991 12L1.71995 12.449C1.5599 12.1711 1.56027 11.8282 1.72032 11.5503L2.49991 12Z"/>
<path fill-rule="evenodd" clip-rule="evenodd" d="M11.9999 9.90001C10.8401 9.90001 9.89992 10.8402 9.89992 12C9.89992 13.1598 10.8401 14.1 11.9999 14.1C13.1597 14.1 14.0999 13.1598 14.0999 12C14.0999 10.8402 13.1597 9.90001 11.9999 9.90001ZM8.09992 12C8.09992 9.8461 9.84601 8.10001 11.9999 8.10001C14.1538 8.10001 15.8999 9.8461 15.8999 12C15.8999 14.1539 14.1538 15.9 11.9999 15.9C9.84601 15.9 8.09992 14.1539 8.09992 12Z"/>
</svg>
