<svg viewBox="0 0 24 24" xmlns="http://www.w3.org/2000/svg">
<path d="M19.8949 14.5263C20.3745 14.5263 20.7709 14.8827 20.8336 15.3451L20.8422 15.4737V21.133C20.8422 21.6121 20.4866 22.0082 20.0248 22.0715L19.8964 22.0803L4.10683 22.1053C3.62667 22.106 3.22949 21.7495 3.16663 21.2866L3.15796 21.1579V15.4986C3.15796 14.9754 3.58211 14.5513 4.10533 14.5513C4.58495 14.5513 4.98132 14.9077 5.04405 15.3701L5.0527 15.4986V20.2093L18.9475 20.1865V15.4737C18.9475 14.9941 19.3039 14.5977 19.7663 14.535L19.8949 14.5263ZM12.015 3.47115L11.9878 3.47076C12.0368 3.47076 12.0849 3.47448 12.1319 3.48166C12.1451 3.48376 12.1578 3.48597 12.1704 3.48844C12.2036 3.49483 12.2361 3.50303 12.2679 3.51286C12.2808 3.51691 12.2944 3.52141 12.3078 3.52622C12.34 3.53774 12.3708 3.55074 12.4007 3.56527C12.414 3.57166 12.428 3.57882 12.4418 3.58635C12.466 3.5997 12.4889 3.61356 12.5111 3.62833C12.5243 3.63693 12.5378 3.64642 12.5511 3.65631L12.6574 3.748L17.0846 8.17198C17.4548 8.54181 17.455 9.14165 17.0851 9.51176C16.7489 9.84822 16.2226 9.87899 15.8516 9.60394L15.7454 9.51225L12.9348 6.70318L12.9351 17.3684C12.9351 17.8916 12.511 18.3158 11.9878 18.3158C11.5081 18.3158 11.1118 17.9594 11.049 17.497L11.0404 17.3684L11.0401 6.70697L8.23681 9.51178C7.90058 9.84823 7.37428 9.87898 7.00331 9.60392L6.89702 9.51223C6.56057 9.176 6.52982 8.6497 6.80488 8.27873L6.89658 8.17245L11.3176 3.74846L11.4089 3.66816C11.4149 3.66352 11.4209 3.65895 11.427 3.65445L11.3176 3.74846C11.3608 3.70527 11.4071 3.66712 11.4558 3.63401C11.4855 3.61391 11.5166 3.59521 11.5489 3.57833C11.5598 3.57259 11.5704 3.5673 11.581 3.56223C11.6172 3.54504 11.6553 3.52979 11.6945 3.51704C11.7009 3.51503 11.7064 3.5133 11.7119 3.51163C11.7987 3.48511 11.8916 3.47076 11.9878 3.47076C12.0015 3.47084 12.0083 3.47096 12.015 3.47115Z"/>
</svg>
