<svg viewBox="0 0 24 24" xmlns="http://www.w3.org/2000/svg">
<path fill-rule="evenodd" clip-rule="evenodd" d="M16.8937 8.51868C16.552 8.87966 15.9824 8.89529 15.6214 8.55358L13.1401 6.20479V15.52C13.1401 16.017 12.7371 16.42 12.2401 16.42C11.743 16.42 11.3401 16.017 11.3401 15.52V5.9776L8.61879 8.55358C8.25782 8.89529 7.68818 8.87966 7.34648 8.51868C7.00478 8.1577 7.0204 7.58807 7.38138 7.24637L11.5014 3.34637C11.8484 3.01784 12.3917 3.01784 12.7388 3.34637L16.8588 7.24637C17.2198 7.58807 17.2354 8.1577 16.8937 8.51868ZM3.1001 19V15H4.9001V19C4.9001 19.0552 4.94487 19.1 5.0001 19.1H19.0001C19.0553 19.1 19.1001 19.0552 19.1001 19V15H20.9001V19C20.9001 20.0493 20.0494 20.9 19.0001 20.9H5.0001C3.95076 20.9 3.1001 20.0493 3.1001 19Z"/>
</svg>
