<svg viewBox="0 0 24 24" xmlns="http://www.w3.org/2000/svg">
<path d="M22.1054 10.2105C22.1054 9.68726 21.6812 9.26311 21.158 9.26311C20.6348 9.26311 20.2106 9.68726 20.2106 10.2105V13.7895C20.2106 14.3127 20.6348 14.7368 21.158 14.7368C21.6812 14.7368 22.1054 14.3127 22.1054 13.7895V10.2105Z"/>
<path d="M22.0882 17.5845C22.1049 17.0594 21.6761 16.6316 21.1507 16.6316C20.6296 16.6316 20.2107 17.0526 20.1929 17.5734C20.1858 17.7812 20.1758 17.9676 20.1619 18.1384C20.1164 18.6953 20.0381 18.9173 19.9766 19.038C19.7707 19.4421 19.4422 19.7706 19.0381 19.9765C18.9174 20.038 18.6954 20.1162 18.1385 20.1617C17.9677 20.1757 17.7813 20.1857 17.5735 20.1928C17.0526 20.2106 16.6316 20.6295 16.6316 21.1506C16.6316 21.676 17.0594 22.1047 17.5846 22.0881C18.6389 22.0546 19.327 21.9558 19.8983 21.6647C20.6589 21.2772 21.2773 20.6588 21.6648 19.8982C21.9559 19.3268 22.0547 18.6388 22.0882 17.5845Z"/>
<path d="M13.7895 22.1052C14.3127 22.1052 14.7369 21.6811 14.7369 21.1579C14.7369 20.6347 14.3127 20.2105 13.7895 20.2105H10.2106C9.68743 20.2105 9.26328 20.6347 9.26328 21.1579C9.26328 21.6811 9.68743 22.1052 10.2106 22.1052H13.7895Z"/>
<path d="M6.41558 22.0881C6.94071 22.1047 7.36853 21.676 7.36853 21.1506C7.36853 20.6295 6.94751 20.2106 6.4267 20.1928C6.21886 20.1857 6.03242 20.1757 5.8616 20.1617C5.30475 20.1162 5.08271 20.038 4.96201 19.9765C4.55795 19.7706 4.22945 19.4421 4.02357 19.038C3.96207 18.9173 3.88379 18.6953 3.8383 18.1384C3.82434 17.9676 3.81438 17.7812 3.80726 17.5734C3.78942 17.0526 3.37055 16.6316 2.84944 16.6316C2.32404 16.6316 1.89528 17.0594 1.91197 17.5845C1.94546 18.6388 2.04421 19.3268 2.33534 19.8982C2.72287 20.6588 3.34124 21.2772 4.10181 21.6647C4.6732 21.9558 5.36128 22.0546 6.41558 22.0881Z"/>
<path d="M1.89478 13.7895C1.89478 14.3127 2.31893 14.7368 2.84215 14.7368C3.36537 14.7368 3.78952 14.3127 3.78952 13.7895V10.2105C3.78952 9.68726 3.36537 9.26311 2.84215 9.26311C2.31893 9.26311 1.89478 9.68726 1.89478 10.2105V13.7895Z"/>
<path d="M21.1507 7.36838C21.6761 7.36838 22.1049 6.94055 22.0882 6.41543C22.0547 5.36118 21.9559 4.67311 21.6648 4.10175C21.2773 3.34117 20.6589 2.72281 19.8983 2.33528C19.327 2.04415 18.6389 1.9454 17.5846 1.91191C17.0594 1.89523 16.6316 2.32398 16.6316 2.84937C16.6316 3.37049 17.0526 3.78936 17.5735 3.80719C17.7813 3.81431 17.9677 3.82428 18.1385 3.83823C18.6954 3.88373 18.9174 3.962 19.0381 4.0235C19.4422 4.22938 19.7707 4.55788 19.9766 4.96194C20.0381 5.08264 20.1164 5.30467 20.1619 5.86153C20.1758 6.03233 20.1858 6.21874 20.1929 6.42655C20.2107 6.94735 20.6296 7.36838 21.1507 7.36838Z"/>
<path d="M13.7895 3.78945C14.3127 3.78945 14.7369 3.3653 14.7369 2.84209C14.7369 2.31887 14.3127 1.89472 13.7895 1.89472H10.2106C9.68743 1.89472 9.26328 2.31887 9.26328 2.84209C9.26328 3.3653 9.68743 3.78945 10.2106 3.78945H13.7895Z"/>
<path d="M6.4267 3.80719C6.94751 3.78936 7.36853 3.37049 7.36853 2.84937C7.36853 2.32398 6.94071 1.89523 6.41558 1.91191C5.36128 1.9454 4.6732 2.04415 4.10181 2.33528C3.34124 2.72281 2.72287 3.34117 2.33534 4.10175C2.04421 4.67311 1.94546 5.36118 1.91197 6.41543C1.89528 6.94055 2.32404 7.36838 2.84944 7.36838C3.37055 7.36838 3.78942 6.94735 3.80726 6.42654C3.81438 6.21874 3.82434 6.03233 3.8383 5.86153C3.88379 5.30467 3.96207 5.08264 4.02357 4.96194C4.22945 4.55788 4.55795 4.22938 4.96201 4.0235C5.08271 3.962 5.30475 3.88373 5.8616 3.83823C6.03242 3.82428 6.21886 3.81431 6.4267 3.80719Z"/>
</svg>
