<svg viewBox="0 0 24 24" xmlns="http://www.w3.org/2000/svg">
<path d="M7.37374 2.7578C7.62384 2.29823 8.19915 2.12841 8.65872 2.37851L12.453 4.44332L12.5682 4.51706C12.8266 4.70995 12.962 5.0165 12.9465 5.3242C12.9472 5.33886 12.9475 5.35361 12.9475 5.36843C12.9475 5.67552 12.8014 5.94849 12.5749 6.1216L10.2985 9.54035L10.2123 9.65118C9.90279 9.99393 9.38074 10.0674 8.98483 9.80382L8.874 9.71768C8.53125 9.40817 8.45772 8.88612 8.72135 8.49021L9.9678 6.61778C7.12241 7.48689 5.05275 10.1333 5.05275 13.2632C5.05275 17.1001 8.1632 20.2105 12.0001 20.2105C13.869 20.2105 15.6179 19.471 16.913 18.176C18.2081 16.8809 18.9475 15.132 18.9475 13.2632C18.9475 11.3954 18.208 9.64641 16.9127 8.35009C16.5429 7.97997 16.5431 7.38013 16.9132 7.01031C17.2834 6.64048 17.8832 6.64072 18.253 7.01084C19.8998 8.65888 20.8423 10.8879 20.8423 13.2632C20.8423 15.6396 19.8997 17.8688 18.2528 19.5158C16.6058 21.1627 14.3766 22.1053 12.0001 22.1053C7.11676 22.1053 3.15801 18.1465 3.15801 13.2632C3.15801 9.34005 5.71295 6.01369 9.2497 4.8572L7.75303 4.04277L7.64425 3.97373C7.26808 3.69759 7.14449 3.17907 7.37374 2.7578Z"/>
</svg>
