<svg viewBox="0 0 24 24" xmlns="http://www.w3.org/2000/svg">
<path d="M8.63196 5.18696C10.2586 4.38287 12.1192 4.18729 13.8775 4.63558C15.4183 5.02843 16.7914 5.89299 17.8094 7.1L16 7.1C15.5029 7.1 15.1 7.50294 15.1 8C15.1 8.49706 15.5029 8.9 16 8.9L20 8.9C20.4971 8.9 20.9 8.49706 20.9 8V4C20.9 3.50294 20.4971 3.1 20 3.1C19.5029 3.1 19.1 3.50294 19.1 4V5.83977C17.85 4.39897 16.1852 3.36638 14.3222 2.89138C12.1475 2.33691 9.84619 2.57881 7.83431 3.57335C5.82242 4.56789 4.23276 6.24942 3.35271 8.31395C2.47266 10.3785 2.3603 12.6898 3.03596 14.8299C3.71161 16.9701 5.13068 18.7979 7.03661 19.9829C8.94254 21.1678 11.2096 21.6318 13.4278 21.2909C15.646 20.95 17.6691 19.8267 19.1312 18.124C20.5933 16.4214 21.398 14.2518 21.3999 12.0076C21.4003 11.5105 20.9976 11.1072 20.5006 11.1068C20.0035 11.1064 19.6003 11.509 19.5999 12.0061C19.5984 13.8206 18.9478 15.5747 17.7656 16.9513C16.5835 18.3279 14.9478 19.2361 13.1544 19.5118C11.3609 19.7874 9.52798 19.4123 7.98702 18.4542C6.44605 17.4961 5.29872 16.0183 4.75245 14.288C4.20617 12.5577 4.29702 10.689 5.00855 9.01979C5.72008 7.35059 7.00534 5.99105 8.63196 5.18696Z"/>
</svg>
