<svg viewBox="0 0 24 24" xmlns="http://www.w3.org/2000/svg">
<path d="M19.7275 4.49577C18.1243 2.89256 15.5249 2.89256 13.9217 4.49577L12.272 6.14548L12.1872 6.24249C11.9046 6.61383 11.9329 7.14612 12.272 7.48526C12.642 7.85523 13.2418 7.85523 13.6118 7.48526L15.2615 5.83555L15.3949 5.71254C16.2634 4.97444 17.5676 5.01545 18.3877 5.83555C19.251 6.69881 19.251 8.09844 18.3877 8.96171L13.9217 13.4276L13.7884 13.5507C12.9198 14.2887 11.6157 14.2477 10.7956 13.4276C10.5971 13.2292 10.4414 13.0002 10.3322 12.7498L10.2728 12.6355C10.0304 12.2367 9.52456 12.0686 9.08498 12.2604C8.60543 12.4697 8.38633 13.0281 8.59561 13.5077C8.79922 13.9742 9.08915 14.4008 9.45578 14.7674C11.059 16.3706 13.6583 16.3706 15.2615 14.7674L19.7275 10.3015L19.8876 10.1322C21.3288 8.52021 21.2754 6.04369 19.7275 4.49577Z"/>
<path d="M14.7673 9.45591C13.1641 7.8527 10.5648 7.8527 8.96158 9.45591L4.49562 13.9218L4.33549 14.0912C2.89432 15.7031 2.94769 18.1796 4.49562 19.7276C6.09883 21.3308 8.69815 21.3308 10.3014 19.7276L11.9511 18.0779L12.0359 17.9808C12.3185 17.6095 12.2902 17.0772 11.9511 16.7381C11.5811 16.3681 10.9813 16.3681 10.6113 16.7381L8.96158 18.3878L8.8282 18.5108C7.95969 19.2489 6.65551 19.2079 5.83541 18.3878C4.97214 17.5245 4.97214 16.1249 5.83541 15.2616L10.3014 10.7957L10.4347 10.6727C11.3033 9.93458 12.6074 9.97559 13.4275 10.7957C13.6341 11.0023 13.7943 11.2419 13.904 11.5042L13.9616 11.6195C14.198 12.0218 14.7012 12.1976 15.1436 12.0125C15.6263 11.8106 15.8539 11.2556 15.6519 10.7729C15.4475 10.2841 15.149 9.83759 14.7673 9.45591Z"/>
</svg>
