<svg viewBox="0 0 24 24" xmlns="http://www.w3.org/2000/svg">
<path fill-rule="evenodd" clip-rule="evenodd" d="M18.1197 5.88016C16.8127 4.57324 14.6939 4.57325 13.3869 5.88016L10.4984 8.76863L9.22566 7.49583L12.1142 4.60736C14.124 2.59752 17.3826 2.59751 19.3924 4.60736C21.4023 6.61721 21.4023 9.87583 19.3925 11.8857L16.504 14.7742L15.2312 13.5014L18.1197 10.6129C19.4266 9.30598 19.4266 7.18706 18.1197 5.88016ZM15.7726 9.49998L9.49985 15.7728L8.22706 14.5L14.4999 8.22718L15.7726 9.49998ZM7.77264 11.5028L5.88004 13.3871C4.57364 14.694 4.57329 16.813 5.88003 18.1198C7.18671 19.4265 9.3051 19.4267 10.6121 18.1205L12.4971 16.2272L13.7726 17.4972L11.8869 19.3912L11.8856 19.3926C9.87571 21.4024 6.61709 21.4024 4.60723 19.3926C2.59739 17.3827 2.5974 14.1242 4.60723 12.1143L6.50266 10.2272L7.77264 11.5028Z"/>
</svg>
