<svg viewBox="0 0 24 24" xmlns="http://www.w3.org/2000/svg">
<path d="M6.19995 7.8H7.99995V6H6.19995V7.8Z"/>
<path d="M7.99995 11.3H6.19995V9.5H7.99995V11.3Z"/>
<path d="M10 7.8H11.8V6H10V7.8Z"/>
<path fill-rule="evenodd" clip-rule="evenodd" d="M15.4001 4.0001V10.1001H19.5001C20.5494 10.1001 21.4001 10.9508 21.4001 12.0001V20.0001C21.4001 21.0494 20.5494 21.9001 19.5001 21.9001H4.5001C3.45076 21.9001 2.6001 21.0494 2.6001 20.0001V4.0001C2.6001 2.95076 3.45076 2.1001 4.5001 2.1001H13.5001C14.5494 2.1001 15.4001 2.95076 15.4001 4.0001ZM4.4001 4.0001C4.4001 3.94487 4.44487 3.9001 4.5001 3.9001H13.5001C13.5553 3.9001 13.6001 3.94487 13.6001 4.0001V10.1001H11.5001C10.4508 10.1001 9.6001 10.9508 9.6001 12.0001V20.0001C9.6001 20.0336 9.60097 20.067 9.60268 20.1001H4.5001C4.44487 20.1001 4.4001 20.0553 4.4001 20.0001V4.0001ZM11.5001 20.1001C11.4449 20.1001 11.4001 20.0553 11.4001 20.0001V12.0001C11.4001 11.9449 11.4449 11.9001 11.5001 11.9001H19.5001C19.5553 11.9001 19.6001 11.9449 19.6001 12.0001V20.0001C19.6001 20.0553 19.5553 20.1001 19.5001 20.1001H16.3999V16H14.5999V20.1001H11.5001Z"/>
</svg>
