<svg viewBox="0 0 24 24" xmlns="http://www.w3.org/2000/svg">
<path d="M5.05366 7.26316C5.05366 6.73994 5.47781 6.31579 6.00103 6.31579C6.52425 6.31579 6.9484 6.73994 6.9484 7.26316V8.21053C6.9484 8.73375 6.52425 9.1579 6.00103 9.1579C5.47781 9.1579 5.05366 8.73375 5.05366 8.21053V7.26316Z"/>
<path d="M5.05366 11.0526C5.05366 10.5294 5.47781 10.1053 6.00103 10.1053C6.52425 10.1053 6.9484 10.5294 6.9484 11.0526V12C6.9484 12.5232 6.52425 12.9474 6.00103 12.9474C5.47781 12.9474 5.05366 12.5232 5.05366 12V11.0526Z"/>
<path fill-rule="evenodd" clip-rule="evenodd" d="M2.84312 3.1579C2.3199 3.1579 1.89575 3.58205 1.89575 4.10527V20.5263C1.89575 21.0495 2.3199 21.4737 2.84312 21.4737H6.00057C6.52379 21.4737 6.94794 21.0495 6.94794 20.5263V15.7895H8.21496V20.5263C8.21496 21.0495 8.63911 21.4737 9.16233 21.4737H21.157C21.6802 21.4737 22.1044 21.0495 22.1044 20.5263C22.1044 20.0031 21.6802 19.579 21.157 19.579H13.8958V9.1579H20.2096V16.1025C20.2096 16.6257 20.6338 17.0499 21.157 17.0499C21.6802 17.0499 22.1044 16.6257 22.1044 16.1025V8.2108C22.1044 7.95955 22.0045 7.71831 21.8269 7.54064C21.6492 7.36297 21.4082 7.26316 21.157 7.26316H13.8958V4.10527C13.8958 3.58205 13.4716 3.1579 12.9484 3.1579H2.84312ZM12.0011 5.05263H3.7905V19.579H5.0532V14.8421C5.0532 14.3189 5.47735 13.8947 6.00057 13.8947H9.16233C9.68555 13.8947 10.1097 14.3189 10.1097 14.8421V19.579H12.0011V5.05263Z"/>
<path d="M16.1063 10.1053C15.5831 10.1053 15.159 10.5294 15.159 11.0526V12C15.159 12.5232 15.5831 12.9474 16.1063 12.9474C16.6296 12.9474 17.0537 12.5232 17.0537 12V11.0526C17.0537 10.5294 16.6296 10.1053 16.1063 10.1053Z"/>
<path d="M16.1063 13.8947C15.5831 13.8947 15.159 14.3189 15.159 14.8421V15.7895C15.159 16.3127 15.5831 16.7368 16.1063 16.7368C16.6296 16.7368 17.0537 16.3127 17.0537 15.7895V14.8421C17.0537 14.3189 16.6296 13.8947 16.1063 13.8947Z"/>
</svg>
