<svg viewBox="0 0 24 24" xmlns="http://www.w3.org/2000/svg">
<path fill-rule="evenodd" clip-rule="evenodd" d="M17.3685 1.89474H2.84215C2.31893 1.89474 1.89478 2.3189 1.89478 2.84211V17.3684C1.89478 17.8916 2.31893 18.3158 2.84215 18.3158H5.68426V21.1579L5.69291 21.2865C5.75564 21.7489 6.15202 22.1053 6.63164 22.1053H21.158L21.2866 22.0966C21.749 22.0339 22.1054 21.6375 22.1054 21.1579V6.63159L22.0967 6.50303C22.034 6.04062 21.6376 5.68422 21.158 5.68422L21.0295 5.69287C20.567 5.7556 20.2106 6.15197 20.2106 6.63159L20.2094 20.2093H7.57774L7.57869 18.3158H17.3685C17.8917 18.3158 18.3159 17.8916 18.3159 17.3684V2.84211C18.3159 2.3189 17.8917 1.89474 17.3685 1.89474ZM16.4199 3.78948V16.4211H3.78826V3.78948H16.4199Z"/>
</svg>
