<svg width="24" height="24" viewBox="0 0 24 24" fill="none" xmlns="http://www.w3.org/2000/svg">
<path fill-rule="evenodd" clip-rule="evenodd" d="M3.48642 4.0498C2.72675 4.0498 2.1001 4.67441 2.1001 5.43161V18.568C2.1001 19.3252 2.72675 19.9498 3.48642 19.9498H20.5138C21.2734 19.9498 21.9001 19.3252 21.9001 18.568V7.50629C21.9001 6.74909 21.2734 6.12448 20.5138 6.12448H11.7981C11.7715 6.12448 11.7459 6.11392 11.7272 6.09512L9.94862 4.31404C9.77972 4.14489 9.55016 4.0498 9.31074 4.0498H3.48642ZM16.336 12.5357C15.9933 12.8785 15.5813 13.0498 15.1001 13.0498C14.6188 13.0498 14.2069 12.8785 13.8642 12.5357C13.5215 12.193 13.3501 11.7811 13.3501 11.2998C13.3501 10.8186 13.5215 10.4066 13.8642 10.0639C14.2069 9.72116 14.6188 9.5498 15.1001 9.5498C15.5813 9.5498 15.9933 9.72116 16.336 10.0639C16.6787 10.4066 16.8501 10.8186 16.8501 11.2998C16.8501 11.7811 16.6787 12.193 16.336 12.5357ZM18.6001 16.0467V16.5498H11.6001V16.0467C11.6001 15.6967 11.6949 15.3758 11.8845 15.0842C12.0741 14.7925 12.3366 14.5738 12.672 14.4279C13.0511 14.2675 13.4412 14.1436 13.8423 14.0561C14.2433 13.9686 14.6626 13.9248 15.1001 13.9248C15.5376 13.9248 15.9569 13.9686 16.3579 14.0561C16.759 14.1436 17.1491 14.2675 17.5282 14.4279C17.8636 14.5738 18.1261 14.7925 18.3157 15.0842C18.5053 15.3758 18.6001 15.6967 18.6001 16.0467Z" fill="#171719"/>
</svg>
