<svg width="24" height="25" viewBox="0 0 24 25" fill="none" xmlns="http://www.w3.org/2000/svg">
<path fill-rule="evenodd" clip-rule="evenodd" d="M23.8365 4.57113L22.5638 3.29834L19.6002 6.26194L18.0366 4.69834L16.7638 5.97113L19.6002 8.80753L23.8365 4.57113Z" fill="#171719"/>
<path fill-rule="evenodd" clip-rule="evenodd" d="M4.28291 2.7092C4.61597 2.66442 5.02194 2.66449 5.44933 2.66456H12.5509C12.9783 2.66449 13.3842 2.66442 13.7173 2.7092C14.0894 2.75923 14.5021 2.87952 14.8436 3.22106C15.1851 3.5626 15.3054 3.97525 15.3555 4.34737C15.4002 4.68043 15.4002 5.0864 15.4001 5.51379L15.4001 10.6646H18.5509C18.9783 10.6645 19.3842 10.6644 19.7173 10.7092C20.0894 10.7592 20.5021 10.8795 20.8436 11.2211C21.1851 11.5626 21.3054 11.9752 21.3554 12.3474C21.4002 12.6804 21.4002 13.0864 21.4001 13.5138L21.4001 22.4646H2.60011L2.6001 5.51379C2.60003 5.08639 2.59997 4.68043 2.64475 4.34737C2.69477 3.97525 2.81507 3.5626 3.1566 3.22106C3.49814 2.87952 3.9108 2.75923 4.28291 2.7092ZM4.40009 4.56436C4.40009 4.50913 4.44486 4.46436 4.50009 4.46436H13.5001C13.5553 4.46436 13.6001 4.50913 13.6001 4.56436V20.6644H9.90009V16.5644H8.10009V20.6644H4.40009V4.56436ZM15.4001 20.6644H19.6001V12.5644C19.6001 12.5091 19.5553 12.4644 19.5001 12.4644H15.4001L15.4001 20.6644ZM11.5001 12.4646H6.50012V10.6646H11.5001V12.4646ZM11.5001 8.46455H6.50012V6.66455H11.5001V8.46455Z" fill="#171719"/>
</svg>
