<svg viewBox="0 0 24 24" xmlns="http://www.w3.org/2000/svg">
<path fill-rule="evenodd" clip-rule="evenodd" d="M4.10533 6.63159H4.86779C5.28041 8.08923 6.62126 9.15791 8.21061 9.15791C9.79996 9.15791 11.1408 8.08923 11.5534 6.63159H19.8949L20.0234 6.62294C20.4858 6.56021 20.8422 6.16384 20.8422 5.68422C20.8422 5.16101 20.4181 4.73686 19.8949 4.73686H11.5534C11.1408 3.27922 9.79996 2.21054 8.21061 2.21054C6.62126 2.21054 5.28041 3.27922 4.86779 4.73686H4.10533L3.97678 4.7455C3.51437 4.80824 3.15796 5.20461 3.15796 5.68422C3.15796 6.20744 3.58211 6.63159 4.10533 6.63159ZM9.78956 5.68422C9.78956 4.81292 9.08192 4.10528 8.21061 4.10528C7.3393 4.10528 6.63166 4.81292 6.63166 5.68422C6.63166 6.55553 7.3393 7.26317 8.21061 7.26317C9.08192 7.26317 9.78956 6.55553 9.78956 5.68422Z"/>
<path fill-rule="evenodd" clip-rule="evenodd" d="M12.3159 12.9474L12.4443 12.9387C12.8541 14.4008 14.1971 15.4737 15.7896 15.4737C17.3789 15.4737 18.7198 14.405 19.1324 12.9474H19.8949L20.0234 12.9387C20.4858 12.876 20.8422 12.4796 20.8422 12C20.8422 11.4768 20.4181 11.0526 19.8949 11.0526H19.1324C18.7198 9.59501 17.3789 8.52633 15.7896 8.52633C14.1971 8.52633 12.8541 9.59924 12.4443 11.0613C12.4023 11.0556 12.3595 11.0526 12.3159 11.0526H4.10533L3.97678 11.0613C3.51437 11.124 3.15796 11.5204 3.15796 12C3.15796 12.5232 3.58211 12.9474 4.10533 12.9474H12.3159ZM17.3685 12C17.3685 11.1287 16.6609 10.4211 15.7896 10.4211C14.9183 10.4211 14.2106 11.1287 14.2106 12C14.2106 12.8713 14.9183 13.579 15.7896 13.579C16.6609 13.579 17.3685 12.8713 17.3685 12Z"/>
<path fill-rule="evenodd" clip-rule="evenodd" d="M8.21061 14.8421C6.62126 14.8421 5.28041 15.9108 4.86779 17.3684H4.10533L3.97678 17.3771C3.51437 17.4398 3.15796 17.8362 3.15796 18.3158C3.15796 18.839 3.58211 19.2632 4.10533 19.2632H4.86779C5.28041 20.7208 6.62126 21.7895 8.21061 21.7895C9.79996 21.7895 11.1408 20.7208 11.5534 19.2632H19.8949L20.0234 19.2545C20.4858 19.1918 20.8422 18.7954 20.8422 18.3158C20.8422 17.7926 20.4181 17.3684 19.8949 17.3684H11.5534C11.1408 15.9108 9.79996 14.8421 8.21061 14.8421ZM8.21061 16.7369C9.08192 16.7369 9.78956 17.4445 9.78956 18.3158C9.78956 19.1871 9.08192 19.8948 8.21061 19.8948C7.3393 19.8948 6.63166 19.1871 6.63166 18.3158C6.63166 17.4445 7.3393 16.7369 8.21061 16.7369Z"/>
</svg>
