<svg viewBox="0 0 24 24" xmlns="http://www.w3.org/2000/svg">
<path fill-rule="evenodd" clip-rule="evenodd" d="M15.1 13.0498C15.5812 13.0498 15.9932 12.8785 16.3359 12.5357C16.6786 12.193 16.85 11.7811 16.85 11.2998C16.85 10.8186 16.6786 10.4066 16.3359 10.0639C15.9932 9.72116 15.5812 9.5498 15.1 9.5498C14.6187 9.5498 14.2067 9.72116 13.864 10.0639C13.5213 10.4066 13.35 10.8186 13.35 11.2998C13.35 11.7811 13.5213 12.193 13.864 12.5357C14.2067 12.8785 14.6187 13.0498 15.1 13.0498ZM18.6 16.5498V16.0467C18.6 15.6967 18.5052 15.3758 18.3156 15.0842C18.126 14.7925 17.8635 14.5738 17.5281 14.4279C17.1489 14.2675 16.7588 14.1436 16.3578 14.0561C15.9567 13.9686 15.5375 13.9248 15.1 13.9248C14.6625 13.9248 14.2432 13.9686 13.8422 14.0561C13.4411 14.1436 13.051 14.2675 12.6719 14.4279C12.3364 14.5738 12.0739 14.7925 11.8844 15.0842C11.6948 15.3758 11.7 15.7967 11.6 16.0467V16.5498H18.6Z"/>
<path fill-rule="evenodd" clip-rule="evenodd" d="M8.66425 5.89976C8.79126 5.89976 8.85756 5.89997 8.90661 5.90216C8.92116 5.90281 8.93033 5.90352 8.93536 5.90398C8.94125 5.90575 8.94697 5.90806 8.95244 5.91088C8.95638 5.91404 8.96347 5.9199 8.97439 5.92954C9.0112 5.96203 9.05905 6.00793 9.15043 6.09614L10.2922 7.19839L10.3274 7.23244C10.4618 7.36284 10.621 7.51715 10.8135 7.63189C10.9809 7.73167 11.1627 7.80509 11.3524 7.84958C11.5706 7.90075 11.7923 7.90025 11.9796 7.89983L20.0999 7.89976L20.1 18.0998H3.89992L3.89996 5.89976H8.66425ZM9.34038 4.14994C9.12218 4.09877 8.9005 4.09927 8.71319 4.09969L3.77785 4.09976C3.65761 4.09972 3.5193 4.09967 3.39827 4.10956C3.25924 4.12092 3.06587 4.14968 2.86437 4.25235C2.60094 4.38657 2.38677 4.60075 2.25255 4.86417C2.14988 5.06567 2.12112 5.25904 2.10976 5.39807C2.09987 5.51911 2.09991 5.65742 2.09995 5.77766L2.09992 18.2219C2.09988 18.3421 2.09984 18.4804 2.10972 18.6014C2.12108 18.7405 2.14984 18.9338 2.25251 19.1353C2.38674 19.3988 2.60091 19.6129 2.86434 19.7472C3.06584 19.8498 3.2592 19.8786 3.39824 19.89C3.51927 19.8998 3.65758 19.8998 3.77782 19.8998H20.2221C20.3423 19.8998 20.4806 19.8998 20.6017 19.89C20.7407 19.8786 20.9341 19.8498 21.1356 19.7472C21.399 19.6129 21.6132 19.3988 21.7474 19.1353C21.8501 18.9338 21.8788 18.7405 21.8902 18.6014C21.9011 18.4679 21.9 18.3336 21.9 18.1997L21.8999 7.7777C21.9 7.65747 21.9 7.5191 21.8901 7.39806C21.8787 7.25903 21.85 7.06567 21.7473 6.86417C21.6131 6.60074 21.3989 6.38657 21.1355 6.25235C20.934 6.14968 20.7406 6.12092 20.6016 6.10956C20.4806 6.09967 20.3422 6.09972 20.222 6.09976L12.0286 6.09976C11.9016 6.09976 11.8352 6.09956 11.7862 6.09736C11.7716 6.09671 11.7625 6.096 11.7575 6.09554C11.7516 6.09377 11.7458 6.09146 11.7404 6.08864C11.7364 6.08548 11.7293 6.07962 11.7184 6.06998C11.6816 6.0375 11.6338 5.99159 11.5424 5.90338L10.3654 4.76709C10.231 4.63668 10.0718 4.48237 9.8793 4.36763C9.71189 4.26785 9.53012 4.19443 9.34038 4.14994Z"/>
</svg>
