<svg viewBox="0 0 24 24" xmlns="http://www.w3.org/2000/svg">
<path d="M14.2164 20.1641C13.8466 21.0624 12.9712 21.6486 11.9997 21.6486C10.6757 21.6486 9.60243 20.5753 9.60243 19.2514V14.8986L6.39961 14.8986C5.78216 14.8987 5.26148 14.8987 4.83933 14.8621C4.40001 14.824 3.97171 14.7406 3.57646 14.5137C2.98802 14.1759 2.53665 13.6425 2.3009 13.0063C2.14254 12.5789 2.13113 12.1427 2.1663 11.7032C2.20009 11.2808 2.28625 10.7674 2.38844 10.1585L3.17202 5.48867C3.24711 5.04108 3.31159 4.65675 3.38924 4.34176C3.47141 4.00843 3.58228 3.6896 3.78122 3.39095C4.08429 2.93596 4.5098 2.5759 5.00867 2.3523C5.33613 2.20553 5.6689 2.14894 6.01124 2.12307C6.33476 2.09862 6.72449 2.09863 7.17837 2.09864H17.1024V13.1554L14.2164 20.1641Z"/>
<path d="M18.9024 13.1486L20.2245 13.1486C20.3448 13.1487 20.4831 13.1487 20.6041 13.1388C20.7431 13.1275 20.9365 13.0987 21.138 12.996C21.4014 12.8618 21.6156 12.6477 21.7498 12.3842C21.8525 12.1827 21.8813 11.9894 21.8926 11.8503C21.9025 11.7293 21.9025 11.591 21.9024 11.4707V3.77654C21.9025 3.6563 21.9025 3.51799 21.8926 3.39695C21.8813 3.25792 21.8525 3.06455 21.7498 2.86306C21.6156 2.59963 21.4014 2.38546 21.138 2.25123C20.9365 2.14856 20.7431 2.1198 20.6041 2.10844C20.4831 2.09856 20.3448 2.0986 20.2246 2.09864L18.9024 2.09864V13.1486Z"/>
</svg>
