<svg viewBox="0 0 24 24" xmlns="http://www.w3.org/2000/svg">
<path fill-rule="evenodd" clip-rule="evenodd" d="M11.1 8.0001C11.1 5.84619 12.8461 4.1001 15 4.1001C17.1539 4.1001 18.9 5.84619 18.9 8.0001C18.9 10.154 17.1539 11.9001 15 11.9001C12.8461 11.9001 11.1 10.154 11.1 8.0001ZM15 5.9001C13.8402 5.9001 12.9 6.8403 12.9 8.0001C12.9 9.1599 13.8402 10.1001 15 10.1001C16.1598 10.1001 17.1 9.1599 17.1 8.0001C17.1 6.8403 16.1598 5.9001 15 5.9001Z"/>
<path fill-rule="evenodd" clip-rule="evenodd" d="M9.55088 14.618C10.9848 13.662 12.914 13.1 14.9999 13.1C17.0858 13.1 19.0149 13.662 20.4488 14.618C21.8765 15.5698 22.8999 16.9835 22.8999 18.6667L22.8999 18.8268C22.8999 19.0134 22.8999 19.2035 22.8867 19.3659C22.8719 19.5466 22.8363 19.7708 22.72 19.9991C22.5618 20.3096 22.3094 20.562 21.9989 20.7202C21.7707 20.8365 21.5465 20.872 21.3657 20.8868C21.2033 20.9001 21.0133 20.9 20.8266 20.9H9.17308C8.98643 20.9 8.79641 20.9001 8.63397 20.8868C8.45325 20.872 8.22901 20.8365 8.00077 20.7202C7.69031 20.562 7.43789 20.3096 7.2797 19.9991C7.16341 19.7708 7.12783 19.5466 7.11307 19.3659C7.09979 19.2034 7.09983 19.0134 7.09986 18.8268L7.09986 18.6667C7.09986 16.9835 8.12323 15.5698 9.55088 14.618ZM10.5493 16.1157C9.4435 16.8529 8.89986 17.7725 8.89986 18.6667V18.8C8.89986 18.9071 8.89988 18.9913 8.90103 19.064L8.90167 19.0982L8.93585 19.0988C9.00859 19.1 9.09279 19.1 9.19986 19.1H20.7999C20.9069 19.1 20.9911 19.1 21.0639 19.0988L21.098 19.0982L21.0987 19.064C21.0998 18.9913 21.0999 18.9071 21.0999 18.8V18.6667C21.0999 17.7725 20.5562 16.8529 19.4504 16.1157C18.3508 15.3826 16.78 14.9 14.9999 14.9C13.2198 14.9 11.6489 15.3826 10.5493 16.1157Z"/>
<path d="M2.96485 15.7276C4.00599 15.0335 5.38397 14.6241 6.86736 14.6011C6.38129 15.1676 5.97475 15.8132 5.69758 16.5307C5.01769 16.6715 4.42518 16.9173 3.96331 17.2253C3.21939 17.7212 2.89962 18.3075 2.89962 18.8334V18.9668C2.89962 19.0738 2.89964 19.158 2.90078 19.2308L2.90143 19.2649L2.9356 19.2656C3.00835 19.2667 3.09255 19.2668 3.19962 19.2668H5.30522C5.30809 19.3482 5.31244 19.4316 5.31905 19.5125C5.34291 19.8045 5.40876 20.292 5.67589 20.8163C5.71954 20.9019 5.76662 20.9855 5.81696 21.0668L3.17283 21.0668C2.98619 21.0668 2.79617 21.0668 2.63373 21.0536C2.45301 21.0388 2.22877 21.0032 2.00053 20.8869C1.69006 20.7287 1.43765 20.4763 1.27945 20.1658C1.16316 19.9376 1.12759 19.7134 1.11282 19.5326C1.09955 19.3702 1.09958 19.1802 1.09961 18.9936L1.09962 18.8334C1.09962 17.5184 1.89912 16.438 2.96485 15.7276Z"/>
<path fill-rule="evenodd" clip-rule="evenodd" d="M6.49973 7.1C4.8981 7.1 3.59973 8.39837 3.59973 10C3.59973 11.6016 4.8981 12.9 6.49973 12.9C8.10135 12.9 9.39973 11.6016 9.39973 10C9.39973 8.39837 8.10135 7.1 6.49973 7.1ZM5.39973 10C5.39973 9.39249 5.89222 8.9 6.49973 8.9C7.10724 8.9 7.59973 9.39249 7.59973 10C7.59973 10.6075 7.10724 11.1 6.49973 11.1C5.89222 11.1 5.39973 10.6075 5.39973 10Z"/>
</svg>
