<svg viewBox="0 0 24 24" xmlns="http://www.w3.org/2000/svg">
<path d="M12.0007 1.89474C6.47191 1.89474 1.89535 5.861 1.89535 10.7368C1.89535 15.6127 6.47191 19.5789 12.0007 19.5789C12.4014 19.5789 12.7499 19.5463 13.2061 19.4683L13.7041 19.3748L13.9636 19.32L18.1252 21.9581C18.527 22.2127 19.0472 22.1274 19.3489 21.7777L19.4325 21.665C19.6871 21.2632 19.6018 20.7429 19.2521 20.4413L19.1393 20.3577L14.6541 17.5156C14.4473 17.3845 14.1979 17.3386 13.958 17.3875L13.1349 17.5555L12.7546 17.6216C12.4664 17.6659 12.2399 17.6842 12.0007 17.6842C7.46289 17.6842 3.7901 14.5012 3.7901 10.7368C3.7901 6.9725 7.46289 3.78947 12.0007 3.78947C16.5392 3.78947 20.2112 6.97213 20.2112 10.7368C20.2112 13.0833 18.8992 15.2502 16.7083 16.2291C16.2306 16.4426 16.0164 17.0028 16.2298 17.4805C16.4432 17.9583 17.0035 18.1725 17.4812 17.959C20.3764 16.6654 22.106 13.809 22.106 10.7368C22.106 5.86068 17.5302 1.89474 12.0007 1.89474Z"/>
</svg>
