<svg viewBox="0 0 24 24" xmlns="http://www.w3.org/2000/svg">
<path d="M19.5729 15.8643L18.7493 15.4432C18.6543 15.6289 18.6249 15.8412 18.6658 16.0457L19.5729 15.8643ZM15.8643 19.5729L16.0457 18.6658C15.8412 18.6249 15.6289 18.6543 15.4432 18.7493L15.8643 19.5729ZM18.1466 20.0293L17.9652 20.9364H17.9652L18.1466 20.0293ZM19.6075 20.1493L19.2539 19.2945L19.2539 19.2945L19.6075 20.1493ZM20.1493 19.6075L19.2945 19.2539L19.2945 19.2539L20.1493 19.6075ZM20.0293 18.1466L20.9364 17.9652V17.9652L20.0293 18.1466ZM19.575 12C19.575 13.2417 19.2769 14.4112 18.7493 15.4432L20.3964 16.2854C21.0543 14.9987 21.425 13.5413 21.425 12H19.575ZM12 4.425C16.1836 4.425 19.575 7.81644 19.575 12H21.425C21.425 6.79472 17.2053 2.575 12 2.575V4.425ZM4.425 12C4.425 7.81644 7.81644 4.425 12 4.425V2.575C6.79472 2.575 2.575 6.79472 2.575 12H4.425ZM12 19.575C7.81644 19.575 4.425 16.1836 4.425 12H2.575C2.575 17.2053 6.79472 21.425 12 21.425V19.575ZM15.4432 18.7493C14.4112 19.2769 13.2417 19.575 12 19.575V21.425C13.5413 21.425 14.9987 21.0543 16.2854 20.3964L15.4432 18.7493ZM15.6829 20.4799L17.9652 20.9364L18.328 19.1223L16.0457 18.6658L15.6829 20.4799ZM17.9652 20.9364C18.3412 21.0116 18.6849 21.0812 18.9684 21.1116C19.2538 21.1422 19.6073 21.1504 19.9612 21.004L19.2539 19.2945C19.3272 19.2642 19.3436 19.2912 19.1654 19.2721C18.9853 19.2528 18.7389 19.2045 18.328 19.1223L17.9652 20.9364ZM19.9612 21.004C20.4334 20.8086 20.8086 20.4334 21.004 19.9612L19.2945 19.2539C19.2869 19.2723 19.2723 19.2869 19.2539 19.2945L19.9612 21.004ZM21.004 19.9612C21.1504 19.6073 21.1422 19.2538 21.1116 18.9684C21.0812 18.6849 21.0116 18.3412 20.9364 17.9652L19.1223 18.328C19.2045 18.7389 19.2528 18.9853 19.2721 19.1654C19.2912 19.3436 19.2642 19.3272 19.2945 19.2539L21.004 19.9612ZM20.9364 17.9652L20.4799 15.6829L18.6658 16.0457L19.1223 18.328L20.9364 17.9652Z" fill="black"/>
<path fill-rule="evenodd" clip-rule="evenodd" d="M11.9948 4.41982C7.81127 4.41982 4.41982 7.81127 4.41982 11.9948C4.41982 16.1784 7.81127 19.5698 11.9948 19.5698C13.2366 19.5698 14.406 19.2718 15.438 18.7441C15.6237 18.6491 15.836 18.6197 16.0405 18.6606L18.3228 19.1171C18.7337 19.1993 18.9802 19.2476 19.1603 19.2669C19.2136 19.2727 19.2495 19.2742 19.2717 19.2745C19.2726 19.2736 19.2736 19.2726 19.2745 19.2717C19.2742 19.2495 19.2727 19.2136 19.2669 19.1603C19.2476 18.9802 19.1993 18.7337 19.1171 18.3228L18.6606 16.0405C18.6197 15.836 18.6491 15.6237 18.7441 15.438C19.2718 14.406 19.5698 13.2366 19.5698 11.9948C19.5698 7.81127 16.1784 4.41982 11.9948 4.41982ZM2.56982 11.9948C2.56982 6.78954 6.78954 2.56982 11.9948 2.56982C17.2001 2.56982 21.4198 6.78954 21.4198 11.9948C21.4198 13.4191 21.1033 14.7718 20.536 15.9843L20.9386 17.997C21.0109 18.3586 21.077 18.6891 21.1064 18.9632C21.137 19.2486 21.1453 19.6021 20.9988 19.956C20.8035 20.4283 20.4283 20.8035 19.956 20.9988C19.6021 21.1453 19.2486 21.137 18.9632 21.1064C18.6891 21.077 18.3586 21.0109 17.997 20.9386L15.9843 20.536C14.7718 21.1033 13.4191 21.4198 11.9948 21.4198C6.78954 21.4198 2.56982 17.2001 2.56982 11.9948Z"/>
</svg>
