<svg viewBox="0 0 24 24" xmlns="http://www.w3.org/2000/svg">
<path fill-rule="evenodd" clip-rule="evenodd" d="M18.4731 15.9739L18.7843 15.3656C19.3307 14.2981 19.6398 13.088 19.6398 11.8C19.6398 7.47009 16.1297 3.96 11.7998 3.96C7.46984 3.96 3.95976 7.47009 3.95976 11.8C3.95976 16.1299 7.46984 19.64 11.7998 19.64C13.0867 19.64 14.2959 19.3314 15.3627 18.7859L15.9703 18.4753L19.0999 19.1012L18.4731 15.9739ZM21.5997 21.6L16.255 20.5311C14.9184 21.2145 13.4041 21.6 11.7998 21.6C6.38737 21.6 1.99976 17.2124 1.99976 11.8C1.99976 6.38761 6.38737 2 11.7998 2C17.2121 2 21.5998 6.38761 21.5998 11.8C21.5998 13.4057 21.2136 14.9211 20.5291 16.2586L21.5997 21.6Z"/>
</svg>
