<svg viewBox="0 0 24 24" xmlns="http://www.w3.org/2000/svg">
<path fill-rule="evenodd" clip-rule="evenodd" d="M2.8 7.20002V16.8H21.2V7.20002H2.8ZM2 5.40002C1.44772 5.40002 1 5.84774 1 6.40002V17.6C1 18.1523 1.44772 18.6 2 18.6H22C22.5523 18.6 23 18.1523 23 17.6V6.40002C23 5.84774 22.5523 5.40002 22 5.40002H2Z" fill="#171717"/>
<path fill-rule="evenodd" clip-rule="evenodd" d="M9.46388 12.9045C9.77439 12.5163 10.3408 12.4534 10.7289 12.7639L12 13.7808L13.2711 12.7639C13.6592 12.4534 14.2256 12.5163 14.5361 12.9045C14.8466 13.2926 14.7837 13.859 14.3956 14.1695L12.5622 15.6361C12.2335 15.8991 11.7665 15.8991 11.4378 15.6361L9.60444 14.1695C9.2163 13.859 9.15338 13.2926 9.46388 12.9045Z" fill="#171717"/>
<path fill-rule="evenodd" clip-rule="evenodd" d="M6.33333 9.80002C6.33333 10.3155 5.91547 10.7334 5.4 10.7334C4.88453 10.7334 4.46667 10.3155 4.46667 9.80002C4.46667 9.28456 4.88453 8.86669 5.4 8.86669C5.91547 8.86669 6.33333 9.28456 6.33333 9.80002Z" fill="#171717"/>
<path fill-rule="evenodd" clip-rule="evenodd" d="M6.33333 13.4667C6.33333 13.9822 5.91547 14.4 5.4 14.4C4.88453 14.4 4.46667 13.9822 4.46667 13.4667C4.46667 12.9512 4.88453 12.5334 5.4 12.5334C5.91547 12.5334 6.33333 12.9512 6.33333 13.4667Z" fill="#171717"/>
<path fill-rule="evenodd" clip-rule="evenodd" d="M19.5333 9.80002C19.5333 10.3155 19.1155 10.7334 18.6 10.7334C18.0845 10.7334 17.6667 10.3155 17.6667 9.80002C17.6667 9.28456 18.0845 8.86669 18.6 8.86669C19.1155 8.86669 19.5333 9.28456 19.5333 9.80002Z" fill="#171717"/>
<path fill-rule="evenodd" clip-rule="evenodd" d="M19.5333 13.4667C19.5333 13.9822 19.1155 14.4 18.6 14.4C18.0845 14.4 17.6667 13.9822 17.6667 13.4667C17.6667 12.9512 18.0845 12.5334 18.6 12.5334C19.1155 12.5334 19.5333 12.9512 19.5333 13.4667Z" fill="#171717"/>
<path fill-rule="evenodd" clip-rule="evenodd" d="M10.7333 9.80002C10.7333 10.3155 10.3154 10.7334 9.79998 10.7334C9.28451 10.7334 8.86665 10.3155 8.86665 9.80002C8.86665 9.28456 9.28451 8.86669 9.79998 8.86669C10.3154 8.86669 10.7333 9.28456 10.7333 9.80002Z" fill="#171717"/>
<path fill-rule="evenodd" clip-rule="evenodd" d="M15.1334 9.80002C15.1334 10.3155 14.7155 10.7334 14.2 10.7334C13.6846 10.7334 13.2667 10.3155 13.2667 9.80002C13.2667 9.28456 13.6846 8.86669 14.2 8.86669C14.7155 8.86669 15.1334 9.28456 15.1334 9.80002Z" fill="#171717"/>
</svg>
