<svg viewBox="0 0 24 24" xmlns="http://www.w3.org/2000/svg">
<path fill-rule="evenodd" clip-rule="evenodd" d="M17.0466 5.57948C16.963 4.1317 16.0092 3.15789 14.5259 3.15789H9.47049L9.26225 3.16446C7.83044 3.25605 6.94732 4.29738 6.94732 5.78947V6.94737H3.78942C2.52625 6.94737 1.90015 8.21053 1.90015 8.8421V11.68C1.90015 12.0288 2.18949 12.3116 2.54641 12.3116H9.4819V11.6842C9.4819 11.1767 9.79198 10.7367 10.4155 10.7367H13.5789C14.0823 10.7367 14.5322 11.0496 14.5322 11.6842V12.3116H21.4555C21.8124 12.3116 22.1017 12.0289 22.1017 11.6801V8.8421C22.1017 8.21053 21.4737 6.94737 20.2105 6.94737H17.0526V5.78947L17.0466 5.57948ZM15.1579 6.94737V5.78947C15.1579 5.28574 15.0204 5.08893 14.6456 5.0573L14.5259 5.05263H9.47049C9.0486 5.05263 8.87442 5.20235 8.84624 5.64706L8.84207 5.78947V6.94737H15.1579Z"/>
<path d="M9.4819 14.2143V14.8439C9.4819 15.4785 9.93184 15.7914 10.4352 15.7914H13.5987C14.2222 15.7914 14.5322 15.3514 14.5322 14.8439V14.217L21.4737 14.2208C22.0036 14.2208 22.1017 14.5263 22.1017 15.1579V19.8947C22.1017 20.5263 21.7895 20.846 21.1579 20.846H2.84204C2.21046 20.846 1.90015 20.5263 1.90015 19.8947V15.1579C1.90015 14.5263 1.97977 14.2105 2.52625 14.2105L9.4819 14.2143Z"/>
<path d="M13.2631 12H10.7368V14.5263H13.2631V12Z"/>
</svg>
