<svg viewBox="0 0 24 24" xmlns="http://www.w3.org/2000/svg">
<path d="M16.1755 3.41063C15.6267 2.59253 14.5392 2.2913 13.6286 2.72249L12.0602 3.46855L12.0207 3.48063C11.9936 3.4847 11.9658 3.48084 11.9416 3.46925L10.3732 2.7232L10.2005 2.65072C9.2704 2.30946 8.20702 2.68825 7.72733 3.57186L6.91029 5.06901L6.89055 5.09358C6.87399 5.10853 6.85112 5.12002 6.82473 5.1246L5.10939 5.41711L4.93474 5.45474C3.96345 5.70881 3.31475 6.6448 3.46215 7.65269L3.70559 9.33168L3.70204 9.3628L3.68181 9.39343L2.47043 10.6116L2.33549 10.7613C1.70582 11.5349 1.75082 12.665 2.47088 13.3881L3.68283 14.6078L3.7023 14.6376L3.70551 14.6691L3.46198 16.3487L3.44417 16.5255C3.38893 17.5218 4.1018 18.4114 5.10947 18.5831L6.82737 18.8761L6.86231 18.8872C6.88354 18.8974 6.90014 18.9125 6.909 18.9288L7.72833 20.4302L7.82488 20.5895C8.37444 21.4071 9.46286 21.709 10.3724 21.2774L11.9401 20.5317L11.9796 20.5196C12.0066 20.5155 12.0345 20.5194 12.0587 20.531L13.6271 21.277L13.7999 21.3494C14.7307 21.6903 15.7926 21.3113 16.2725 20.4291L17.3337 18.4839L17.3876 18.3669C17.554 17.9309 17.3767 17.4282 16.9557 17.1985C16.4963 16.948 15.9209 17.1172 15.6703 17.5765L14.6087 19.5227L14.5802 19.5543C14.5441 19.5804 14.4883 19.5884 14.4395 19.5653L12.8741 18.8207L12.687 18.7426C12.1804 18.5604 11.6162 18.5865 11.1247 18.8214L9.55927 19.566L9.51017 19.5787C9.46035 19.5822 9.41154 19.5593 9.39212 19.5237L8.57349 18.0236L8.46801 17.8509C8.16447 17.4075 7.68763 17.1023 7.14851 17.0088L5.4279 16.7153L5.38627 16.7015C5.3505 16.6826 5.33277 16.6503 5.33695 16.6217L5.58072 14.9404L5.59941 14.7365C5.62071 14.1937 5.41556 13.6647 5.02794 13.2734L3.81423 12.0518L3.79245 12.0175C3.78515 11.9939 3.79223 11.9694 3.81349 11.9481L5.02663 10.7282L5.16373 10.5748C5.50594 10.1499 5.65944 9.60315 5.58074 9.05991L5.33712 7.37966L5.34 7.34979C5.34992 7.32013 5.38053 7.29296 5.42782 7.28489L7.14588 6.99192L7.34547 6.94696C7.8686 6.80138 8.31426 6.45318 8.57409 5.97555L9.39153 4.47767L9.42007 4.44589C9.45613 4.4197 9.51176 4.41168 9.56008 4.43461L11.1262 5.17957L11.3132 5.25764C11.8199 5.43981 12.384 5.41371 12.8756 5.17887L14.441 4.43422L14.4904 4.42123C14.5403 4.4175 14.5883 4.44009 14.6077 4.47584L15.4268 5.97665L15.5332 6.14949C15.8389 6.59339 16.314 6.8982 16.8518 6.99146L18.5724 7.28488L18.6142 7.29885C18.6503 7.31803 18.6684 7.35095 18.6641 7.38028L18.4196 9.05922L18.4009 9.26337C18.3795 9.80678 18.5856 10.3372 18.9749 10.7284L20.186 11.9473L20.2078 11.9817C20.2151 12.0053 20.208 12.0298 20.1868 12.0511L18.9741 13.2727L18.837 13.4254C18.4948 13.8487 18.3408 14.3952 18.4195 14.9399L18.8079 17.6126L18.8349 17.7386C18.9635 18.1871 19.407 18.4828 19.8816 18.4139C20.3994 18.3386 20.7582 17.8579 20.6829 17.3401L20.2946 14.6682L20.298 14.6381L20.318 14.6084L21.5304 13.387L21.6652 13.2374C22.2945 12.4643 22.2494 11.3342 21.5294 10.6111L20.3185 9.39241L20.2982 9.36208L20.2947 9.33157L20.5393 7.65212L20.5568 7.47504C20.6105 6.47732 19.8978 5.58874 18.8908 5.41709L17.1729 5.12414L17.1382 5.11279C17.1168 5.10217 17.0993 5.08603 17.0893 5.06768L16.2719 3.57003L16.1755 3.41063Z"/>
<path d="M16.7764 8.77324C16.4055 8.40425 15.8056 8.40582 15.4366 8.77676L10.7344 13.5019L8.56899 11.3295L8.46285 11.2376C8.09232 10.962 7.56596 10.9919 7.2292 11.3278C6.85876 11.6973 6.858 12.2972 7.22751 12.6676L10.0662 15.5135L10.1727 15.6056C10.5443 15.8818 11.0722 15.8507 11.4086 15.5126L16.7799 10.113L16.8714 10.0065C17.1456 9.63493 17.1136 9.1087 16.7764 8.77324Z"/>
</svg>
