<svg viewBox="0 0 24 24" xmlns="http://www.w3.org/2000/svg">
<path fill-rule="evenodd" clip-rule="evenodd" d="M10.0952 2.89718C11.1423 1.8342 12.857 1.83428 13.9041 2.89719L14.9584 3.96745C15.1242 4.13571 15.3511 4.22969 15.5872 4.22792L17.0896 4.21668C18.5817 4.20551 19.794 5.41793 19.7829 6.90994L19.7716 8.41231C19.7699 8.64853 19.8639 8.87539 20.0321 9.04107L21.1024 10.0956C22.1653 11.1427 22.1653 12.8573 21.1024 13.9044L20.0321 14.9588C19.8639 15.1245 19.7699 15.3513 19.7716 15.5876L19.7829 17.09C19.794 18.5819 18.5816 19.7943 17.0896 19.7833L15.5873 19.772C15.3511 19.7703 15.1242 19.8642 14.9584 20.0325L13.9041 21.1028C12.8569 22.1657 11.1423 22.1657 10.0952 21.1028L9.04074 20.0325C8.87506 19.8643 8.64825 19.7703 8.41202 19.772L6.90962 19.7833C5.41761 19.7943 4.20513 18.582 4.21631 17.09L4.22755 15.5876C4.22932 15.3514 4.1354 15.1246 3.96714 14.9588L2.89683 13.9045C1.83388 12.8573 1.83386 11.1427 2.89682 10.0955L3.96711 9.04111C4.13535 8.87537 4.22932 8.64855 4.22755 8.41239L4.21631 6.90998C4.20514 5.41791 5.41753 4.20551 6.90961 4.21668L8.41201 4.22792C8.64817 4.22969 8.87498 4.13575 9.04072 3.9675L10.0952 2.89718ZM12.6218 4.16041C12.2796 3.81314 11.7195 3.8132 11.3775 4.16038L10.323 5.23073C9.81569 5.74571 9.12142 6.03329 8.39854 6.02787L6.89614 6.01663C6.40869 6.01298 6.01261 6.40906 6.01626 6.8965L6.0275 8.39892C6.03291 9.1218 5.74534 9.81606 5.23035 10.3234L4.16006 11.3778C3.81281 11.7199 3.81279 12.28 4.16004 12.6221L5.23034 13.6765C5.74527 14.1838 6.03291 14.8781 6.0275 15.601L6.01626 17.1034C6.01261 17.5908 6.40863 17.9869 6.89613 17.9833L8.39853 17.972C9.1213 17.9667 9.81563 18.2542 10.323 18.7692L11.3774 19.8395C11.7195 20.1868 12.2797 20.1868 12.6218 19.8395L13.6761 18.7692C14.1835 18.2542 14.8778 17.9667 15.6006 17.972L17.103 17.9833C17.5904 17.9869 17.9865 17.5908 17.9829 17.1034L17.9717 15.601C17.9663 14.8783 18.2538 14.1839 18.7688 13.6765L19.8392 12.6222C20.1864 12.2801 20.1864 11.7199 19.8392 11.3778L18.7689 10.3234C18.2538 9.81605 17.9663 9.12176 17.9717 8.39899L17.9829 6.89655C17.9865 6.40906 17.5904 6.01298 17.1031 6.01663L15.6007 6.02787C14.8778 6.03329 14.1835 5.74571 13.6762 5.23078L12.6218 4.16041ZM16.6249 10.1473L10.8231 15.7513L7.37434 12.42L8.62487 11.1254L10.8231 13.2487L15.3743 8.85264L16.6249 10.1473Z"/>
</svg>
