<svg viewBox="0 0 24 24" xmlns="http://www.w3.org/2000/svg">
<path fill-rule="evenodd" clip-rule="evenodd" d="M11.9999 22.1849C17.6251 22.1849 22.1849 17.6251 22.1849 11.9999C22.1849 6.37482 17.6251 1.81494 11.9999 1.81494C6.37482 1.81494 1.81494 6.37482 1.81494 11.9999C1.81494 17.6251 6.37482 22.1849 11.9999 22.1849ZM17.1029 7.44902C17.182 7.26551 17.1581 7.07553 17.0412 6.95867C16.9244 6.8418 16.7344 6.81793 16.5509 6.897L10.0452 9.69862C9.89257 9.76426 9.76426 9.89282 9.69862 10.0452L6.897 16.5509C6.86243 16.6312 6.84752 16.7125 6.85125 16.7883C6.85622 16.8863 6.89277 16.9753 6.95867 17.0412C7.07553 17.1583 7.26551 17.1822 7.44902 17.1031L13.9546 14.3015C14.1073 14.2356 14.2356 14.1073 14.3013 13.9546L17.1029 7.44902ZM10.5595 10.5597C9.76402 11.3552 9.76402 12.645 10.5595 13.4404C11.3549 14.2359 12.645 14.2359 13.4404 13.4404C14.2359 12.645 14.2359 11.3552 13.4404 10.5597C12.645 9.76426 11.3549 9.76426 10.5595 10.5597Z"/>
</svg>
