<svg viewBox="0 0 24 24" xmlns="http://www.w3.org/2000/svg">
<path fill-rule="evenodd" clip-rule="evenodd" d="M14.526 3.15789C16.0093 3.15789 16.9631 4.1317 17.0467 5.57948L17.0527 5.78947V6.95014H20.2106C21.2062 6.95014 22.0156 7.81288 22.1025 8.77877L22.1102 8.95014V13.0105C22.1102 13.0597 22.1065 13.1079 22.0993 13.1551C22.1033 13.1905 22.1054 13.2264 22.1054 13.2629C22.1055 13.7425 21.7492 14.139 21.2868 14.2018L21.1583 14.2105L14.5318 14.2123V14.8457C14.5318 15.3689 14.1076 15.793 13.5844 15.793H10.4249C9.90168 15.793 9.47753 15.3689 9.47753 14.8457V14.2121L3.78952 14.2107V18.9461H20.2106V16.7368C20.2106 16.2572 20.567 15.8609 21.0295 15.7981L21.158 15.7895C21.6376 15.7895 22.034 16.1459 22.0967 16.6083L22.1054 16.7368V19.8947C22.1054 20.3744 21.749 20.7707 21.2866 20.8335L21.158 20.8421H2.84215C2.36253 20.8421 1.96616 20.4857 1.90342 20.0233L1.89478 19.8947V8.95014C1.89478 7.97492 2.64378 7.05783 3.61578 6.95895L3.78952 6.95014H6.94743V5.78947C6.94743 4.29738 7.83055 3.25605 9.26235 3.16446L9.47059 3.15789H14.526ZM3.78952 12.316L9.47753 12.3174V11.6842C9.47753 11.161 9.90168 10.7368 10.4249 10.7368H13.5844C14.1076 10.7368 14.5318 11.161 14.5318 11.6842V12.3176L20.2155 12.316V8.95014C20.2155 8.93625 20.208 8.91881 20.2009 8.90214C20.1931 8.8839 20.1857 8.86659 20.1889 8.85587L20.2106 8.84488H3.78952C3.82567 8.84488 3.81492 8.87189 3.8029 8.90208L3.79736 8.91637L3.78952 8.95014V12.316ZM15.158 5.78947V6.95014H8.84217V5.78947L8.84635 5.64706C8.87453 5.20235 9.0487 5.05263 9.47059 5.05263H14.526L14.6457 5.0573C15.0205 5.08893 15.158 5.28574 15.158 5.78947ZM12.6367 12.6316V13.8973H11.371V12.6316H12.6367Z"/>
</svg>
