<svg viewBox="0 0 24 24" xmlns="http://www.w3.org/2000/svg">
<path d="M12.0001 1.89474C8.97589 1.89474 6.93874 3.98462 6.93874 6.98114C6.93874 8.84437 7.52485 10.048 8.68149 11.2046L9.06907 11.6466L9.16542 11.7709C9.39511 12.0799 9.47375 12.3444 9.47375 12.9817C9.47375 13.3757 9.10961 13.7984 8.41364 14.0327C4.44742 15.1492 1.89478 16.8489 1.89478 19.3263V20.059C1.89478 21.0681 2.93275 22.1053 3.9411 22.1053H20.0591C21.0684 22.103 22.1054 21.0676 22.1054 20.059V19.3263L22.098 19.0887C21.9502 16.7378 19.6001 15.1293 15.8955 14.1128L15.5988 14.0324L15.6457 14.0548C14.8757 13.737 14.5211 13.3604 14.5263 12.9988C14.5349 12.3984 14.5816 12.1452 14.7087 11.9315L14.7942 11.8059L14.8733 11.7067L15.0516 11.5073L15.3525 11.1893C16.5759 9.9092 17.0803 8.85958 17.0803 6.98114C17.0803 3.97488 15.0326 1.89474 12.0001 1.89474Z"/>
</svg>
