<svg viewBox="0 0 24 24" xmlns="http://www.w3.org/2000/svg">
<path fill-rule="evenodd" clip-rule="evenodd" d="M12.7614 13.0225C15.8046 13.2132 18.648 14.2005 20.4546 15.4819C20.4644 15.4888 20.4744 15.4959 20.4845 15.503C20.6361 15.6101 20.8207 15.7405 20.992 15.9578C21.1333 16.1369 21.2584 16.379 21.3228 16.5979C21.4014 16.8649 21.4007 17.1212 21.4001 17.3333C21.4001 17.3506 21.4001 17.3676 21.4001 17.3843L21.4001 18.9298C21.4001 19.1842 21.4001 19.4262 21.3834 19.6302C21.3653 19.8526 21.3229 20.1077 21.193 20.3626C21.0108 20.7202 20.7201 21.0108 20.3626 21.193C20.1077 21.3229 19.8525 21.3653 19.6301 21.3835C19.4262 21.4001 19.1841 21.4001 18.9298 21.4001H5.07029C4.81597 21.4001 4.57393 21.4001 4.36997 21.3835C4.14756 21.3653 3.89245 21.3229 3.63747 21.193C3.27996 21.0108 2.9893 20.7202 2.80714 20.3626C2.67722 20.1077 2.63484 19.8526 2.61667 19.6302C2.6 19.4262 2.60003 19.1841 2.60005 18.9298C2.60005 18.9199 2.60005 18.91 2.60005 18.9001V17.4069C2.60005 17.389 2.6 17.3708 2.59996 17.3523C2.59938 17.1345 2.59869 16.8734 2.67498 16.6098C2.73881 16.3893 2.85586 16.1587 2.99614 15.977C3.16326 15.7605 3.35831 15.6186 3.51878 15.5018C3.53111 15.4928 3.54323 15.484 3.55512 15.4753C6.34272 13.4363 9.70674 12.831 12.7614 13.0225Z"/>
<path fill-rule="evenodd" clip-rule="evenodd" d="M7.32228 7.27775C7.32228 4.69429 9.41659 2.59998 12.0001 2.59998C14.5835 2.59998 16.6778 4.69429 16.6778 7.27775C16.6778 9.86122 14.5835 11.9555 12.0001 11.9555C9.41659 11.9555 7.32228 9.86122 7.32228 7.27775Z"/>
</svg>
