<svg viewBox="0 0 24 24" xmlns="http://www.w3.org/2000/svg">
<path fill-rule="evenodd" clip-rule="evenodd" d="M17.9338 2.08059C17.5629 1.80534 17.0366 1.83583 16.7002 2.17212L3.43579 15.4323L3.33867 15.5461C3.22211 15.7068 3.1582 15.9013 3.1582 16.1023V19.8947L3.16685 20.0233C3.22958 20.4857 3.62596 20.8421 4.10558 20.8421H7.2678L7.39635 20.8335C7.85877 20.7707 8.21517 20.3744 8.21517 19.8947L8.20652 19.7662C8.14379 19.3038 7.74742 18.9474 7.2678 18.9474H5.05168V16.4956L13.2631 8.28674L15.7123 10.7359L9.7494 16.6985L9.65767 16.8047C9.38244 17.1756 9.41297 17.7019 9.74927 18.0383C10.1192 18.4083 10.719 18.4083 11.0891 18.0384L21.8281 7.30155L21.9198 7.1953C22.195 6.82447 22.1645 6.29818 21.8283 5.96181L18.04 2.17233L17.9338 2.08059ZM17.0521 9.39616L19.8181 6.63032L17.3688 4.18232L14.6031 6.94717L17.0521 9.39616Z"/>
</svg>
