<svg viewBox="0 0 24 24" xmlns="http://www.w3.org/2000/svg">
<path fill-rule="evenodd" clip-rule="evenodd" d="M2.09998 11.9996C2.09998 6.53199 6.53235 2.09961 12 2.09961C17.4676 2.09961 21.9 6.53199 21.9 11.9996C21.9 17.4672 17.4676 21.8996 12 21.8996C6.53235 21.8996 2.09998 17.4672 2.09998 11.9996ZM9.13636 7.86324C8.78489 7.51177 8.21504 7.51177 7.86357 7.86324C7.51209 8.21471 7.51209 8.78456 7.86357 9.13603L10.7272 11.9996L7.86357 14.8632C7.51209 15.2147 7.51209 15.7846 7.86357 16.136C8.21504 16.4875 8.78489 16.4875 9.13636 16.136L12 13.2724L14.8636 16.136C15.215 16.4875 15.7849 16.4875 16.1364 16.136C16.4878 15.7846 16.4878 15.2147 16.1364 14.8632L13.2728 11.9996L16.1364 9.13603C16.4878 8.78456 16.4878 8.21471 16.1364 7.86324C15.7849 7.51177 15.215 7.51177 14.8636 7.86324L12 10.7268L9.13636 7.86324Z"/>
</svg>
